M48
;Layer_Color=9474304
;FILE_FORMAT=4:3
METRIC,TZ
;TYPE=PLATED
T1F00S00C0.203
T2F00S00C0.254
T3F00S00C0.300
T4F00S00C0.305
T5F00S00C0.400
T6F00S00C0.406
T7F00S00C0.650
T8F00S00C0.850
T9F00S00C0.889
T10F00S00C0.900
T11F00S00C1.150
T12F00S00C2.700
;TYPE=NON_PLATED
T13F00S00C0.254
T14F00S00C2.700
%
T01
X33924Y3101
X33924Y3901
X34724Y3901
X34724Y3101
X36703Y2413
X36630Y4528
X34580Y6326
X31572Y6147
X41554Y4318
X44120Y4318
X44120Y2946
X46634Y2997
X49174Y2997
X51714Y2997
X52023Y1635
X54570Y1635
X52363Y4688
X51598Y5834
X63972Y6382
X64772Y6382
X65572Y6382
X66372Y6382
X67172Y6382
X40259Y2159
X30608Y5689
X29083Y6045
X28702Y5461
X26579Y5639
X25298Y5639
X24530Y6452
X22830Y3967
X20193Y5334
X12548Y6038
X7358Y6038
X7137Y6985
X13385Y14136
X13385Y15336
X14585Y15336
X14585Y14136
X26953Y14557
X26953Y13287
X26953Y12017
X26953Y10747
X26873Y8179
X27457Y8458
X30262Y9500
X30912Y9500
X30328Y11582
X29185Y11963
X30226Y13970
X30328Y18161
X29195Y19474
X27991Y18821
X27517Y20846
X27128Y21363
X28236Y21659
X30331Y21844
X30044Y24050
X29394Y24091
X29210Y26162
X28890Y26782
X29699Y26630
X30200Y28154
X30988Y29378
X29311Y29378
X27840Y27022
X27698Y25680
X24320Y26980
X22935Y27398
X21768Y26441
X21011Y27710
X20613Y29278
X18191Y29206
X15697Y29032
X14542Y27788
X13818Y27788
X13030Y26645
X12662Y25959
X11589Y25959
X10516Y25959
X7125Y26864
X15926Y26645
X15977Y25959
X17120Y26289
X20824Y24506
X21200Y24169
X22695Y24414
X22695Y23398
X23875Y23753
X21583Y21270
X26953Y17097
X23876Y10033
X23411Y8814
X23393Y7290
X24079Y6985
X31648Y9525
X31958Y10211
X33376Y9144
X35662Y9220
X38441Y9542
X38354Y6782
X40803Y6748
X42648Y11125
X44673Y11477
X44494Y12226
X46188Y11041
X48108Y11303
X47537Y12054
X50704Y13688
X51504Y13688
X52304Y13688
X53904Y12888
X53904Y14488
X53904Y15288
X53904Y16088
X55504Y16088
X56304Y16088
X57104Y16088
X57104Y15288
X57904Y15288
X57904Y14488
X57104Y14488
X57104Y13688
X56246Y12971
X56304Y14488
X56304Y15288
X55504Y15288
X55504Y17688
X56304Y17688
X57104Y17688
X57104Y18488
X57104Y19288
X57904Y19288
X57904Y18488
X57904Y17688
X58704Y17688
X58704Y18488
X59258Y17323
X59258Y16434
X59345Y15486
X58710Y15405
X57904Y16088
X59004Y14021
X60741Y13557
X60884Y12700
X60945Y11955
X59599Y12209
X57709Y12141
X58202Y10279
X57023Y10465
X52603Y11074
X50444Y14808
X50546Y15672
X50013Y16154
X50419Y17475
X50271Y19288
X51504Y20088
X52304Y20088
X52304Y20888
X53104Y20888
X53104Y20088
X53904Y20088
X53904Y19288
X53104Y19288
X53104Y18488
X53104Y17688
X53904Y17688
X54704Y18488
X56304Y18488
X56304Y20088
X57104Y20088
X57669Y21049
X56424Y21455
X56374Y22003
X55188Y23901
X55588Y24994
X54661Y24994
X53715Y25440
X56360Y25222
X57948Y24630
X58499Y26696
X56988Y27729
X56388Y29378
X58928Y29378
X60537Y28854
X62800Y28754
X63424Y28457
X67302Y28412
X68067Y28754
X68676Y28829
X67481Y26594
X70161Y26704
X70971Y23165
X69575Y18436
X69342Y17856
X69936Y17538
X69846Y12763
X69126Y7787
X67172Y7982
X66372Y7982
X66372Y8782
X66372Y9582
X65572Y9582
X64772Y9582
X64772Y8782
X63972Y8782
X63972Y9582
X63972Y7982
X64772Y7982
X65572Y7982
X65572Y8782
X67172Y8782
X67172Y9582
X67172Y7182
X66372Y7182
X65572Y7182
X64772Y7182
X63972Y7182
X61996Y13959
X61654Y14482
X61976Y15113
X60979Y15103
X53046Y21679
X51446Y21709
X51354Y22969
X49820Y21049
X45781Y21404
X43457Y22771
X42315Y23869
X42085Y25501
X44054Y24471
X44765Y24452
X46594Y24471
X46355Y27238
X46228Y29378
X48768Y29378
X48895Y27250
X51435Y27250
X51308Y29378
X53848Y29378
X43688Y29378
X43815Y27250
X41148Y29378
X38608Y29378
X36068Y29378
X34341Y29378
X32665Y29378
X33180Y28174
X33830Y28169
X31877Y28154
X34236Y19906
X34434Y18051
X33742Y17424
X31660Y17340
X35761Y19107
X38837Y19050
X39573Y19964
X41021Y17780
X40498Y16400
X41730Y15683
X43095Y15138
X43840Y15189
X43851Y18178
X42723Y18110
X45060Y18263
X44283Y19112
X40894Y23393
X40041Y13073
X48525Y7917
X71735Y15539
X71926Y16653
X71139Y26594
X72284Y27617
X72284Y28467
T02
X71374Y711
X72517Y889
X72263Y2286
X72771Y3556
X73177Y4648
X72009Y4674
X71334Y5123
X71247Y6528
X72314Y5918
X74473Y4648
X75768Y4648
X76251Y5791
X71120Y3429
X70231Y2540
X70434Y1626
X69088Y1753
X68834Y711
X67539Y1168
X66294Y711
X65126Y1168
X63754Y711
X62357Y1194
X61723Y711
X60960Y1143
X60097Y693
X60099Y1651
X60239Y2453
X59281Y2921
X58877Y1651
X58674Y686
X56134Y686
X56820Y1626
X57122Y2921
X57110Y4488
X57059Y5199
X56805Y5961
X57434Y6590
X58411Y5098
X59594Y5639
X60483Y6503
X61885Y5021
X61824Y3861
X63572Y4265
X63953Y2816
X67107Y2591
X67081Y3835
X66100Y4510
X68888Y4894
X68774Y3850
X58182Y3495
X55713Y4843
X54059Y5332
X53340Y5283
X51886Y5158
X50825Y5690
X49168Y4235
X47860Y4964
X47066Y5410
X46177Y5385
X46222Y6410
X47102Y6596
X48144Y6647
X46634Y4369
X45339Y4953
X43455Y6655
X43434Y660
X40894Y660
X38354Y660
X35814Y660
X35687Y1905
X32766Y1981
X32766Y2997
X32461Y3658
X31344Y2997
X31318Y2032
X33274Y660
X31934Y5067
X32385Y6248
X36873Y5928
X38913Y4318
X38913Y2667
X45974Y660
X48514Y660
X51054Y686
X53594Y686
X54270Y4113
X30734Y660
X28194Y660
X25654Y660
X23114Y686
X23860Y1905
X21692Y1708
X21207Y874
X20574Y711
X19823Y1708
X20051Y3030
X18626Y2504
X17728Y2611
X17955Y1708
X18034Y711
X15494Y711
X16087Y1708
X16597Y2511
X15467Y2511
X14288Y2511
X14218Y1708
X12350Y1708
X12502Y2769
X13206Y2611
X13206Y3914
X13206Y5210
X13487Y6038
X12410Y4761
X10414Y2718
X10482Y1708
X10414Y711
X12954Y711
X7137Y711
X7137Y2718
X7985Y4018
X7540Y4761
X17742Y5210
X17483Y6038
X17742Y3914
X24257Y4445
X23437Y5690
X27568Y4826
X29020Y8953
X23904Y14175
X19369Y14395
X17842Y13730
X16128Y13730
X16128Y15730
X17842Y15730
X17842Y17730
X17842Y19730
X17842Y21603
X15842Y21603
X15842Y19730
X13842Y19730
X13842Y21603
X11842Y21603
X11842Y19730
X11842Y17730
X11842Y15730
X11842Y13730
X11842Y11730
X11842Y9730
X9842Y9730
X7842Y9730
X7842Y11730
X9842Y11730
X9842Y13730
X7842Y13730
X7842Y15730
X9842Y15730
X9842Y17730
X7842Y17730
X7842Y19730
X7842Y21603
X9842Y21603
X9842Y19730
X13842Y17730
X15842Y17730
X15842Y11730
X13842Y11730
X13842Y9730
X15842Y9730
X17842Y9730
X17842Y11730
X24320Y21272
X25046Y20573
X25814Y21287
X26407Y21287
X27901Y19671
X25064Y26823
X23725Y27756
X32751Y26420
X33505Y26420
X34259Y26420
X35082Y26529
X35073Y25368
X34259Y25404
X33505Y25404
X32751Y25404
X31823Y24574
X32357Y21690
X34453Y20820
X35505Y22136
X36718Y22136
X38684Y22200
X38290Y25225
X38862Y26035
X36769Y25225
X35849Y25917
X41226Y25062
X42676Y25121
X42139Y19990
X41946Y18153
X40555Y18254
X40513Y19558
X37653Y19398
X36612Y18991
X36861Y17878
X37694Y16383
X37897Y15494
X37059Y15697
X36982Y14707
X36982Y13513
X35877Y13829
X35877Y12829
X34877Y12829
X34877Y13829
X34877Y14829
X33877Y14829
X33877Y13829
X33877Y12829
X32877Y13829
X32877Y14829
X31471Y14046
X35877Y14829
X39192Y14326
X41478Y14750
X41351Y13716
X41300Y11405
X41971Y10508
X42672Y9601
X43434Y9830
X44257Y9644
X44800Y10498
X45451Y10685
X45923Y9550
X46609Y9296
X47015Y9830
X47981Y10279
X50140Y9703
X49936Y11074
X49566Y12413
X47907Y13119
X46050Y13411
X45350Y15080
X42418Y15240
X38608Y17170
X38405Y12319
X39929Y10312
X39319Y9703
X41300Y9550
X41311Y8857
X43383Y8839
X42666Y7324
X44715Y6933
X44850Y7807
X38608Y7747
X32741Y8661
X31877Y8509
X35106Y18842
X45113Y19329
X46594Y19050
X47564Y19050
X48374Y19298
X47277Y20516
X47574Y21946
X48946Y21946
X48031Y24536
X50724Y24536
X53204Y24300
X54118Y23182
X57349Y23694
X59344Y23103
X59344Y22544
X60209Y22573
X60209Y23131
X59909Y20371
X59910Y19006
X60005Y17543
X60985Y17704
X60985Y17145
X61214Y20447
X64171Y20439
X64730Y20439
X66294Y20447
X67145Y19385
X66944Y18257
X64973Y18161
X63638Y19144
X63638Y19702
X63571Y21681
X63919Y25768
X64359Y26199
X66503Y26420
X68672Y25887
X68672Y25133
X68672Y24379
X69688Y24379
X69688Y25133
X69688Y25887
X69339Y23759
X68668Y23273
X69000Y22099
X67863Y22094
X68515Y21218
X69569Y20583
X70652Y22391
X70325Y23441
X67132Y15900
X65644Y15418
X65837Y14681
X65695Y13708
X65710Y12357
X65583Y11608
X64118Y11574
X62952Y11112
X62346Y10575
X62241Y13429
X63894Y13154
X62969Y15247
X63836Y16328
X64654Y16019
X67965Y14063
X68235Y11940
X67092Y11976
X70705Y11422
X58964Y11803
X58928Y12700
X57252Y11430
X56476Y11442
X58659Y8496
X59563Y8433
X60386Y8374
X60640Y9263
X61631Y7150
X59004Y6985
X58217Y21387
X48601Y14851
X74422Y14986
X74422Y12852
X74473Y9703
X74422Y8611
X73177Y8458
X73177Y9703
X72314Y9195
X72415Y10363
X71283Y10787
X71272Y9804
X71527Y8687
X71527Y7658
X72314Y7544
X76251Y7087
X76251Y8382
X76251Y9703
X75492Y9067
X74422Y17170
X75203Y20314
X76236Y20259
X76236Y21686
X76236Y22708
X76236Y24503
X76236Y25931
X75325Y25374
X74096Y25360
X72771Y25527
X73035Y26355
X72908Y23536
X72304Y23536
X72246Y21768
X71587Y21336
X71814Y20355
X71017Y18459
X74268Y21678
X72898Y29286
X71653Y29286
T03
X60387Y25546
X60387Y26846
X61687Y26846
X61037Y26196
X61687Y25546
T04
X20648Y22591
X20463Y23561
X67845Y15510
X69019Y13593
X69654Y13593
T05
X9033Y3988
X10303Y3988
X11573Y3988
X19609Y4039
X26372Y10112
X26372Y11382
X26372Y12652
X26372Y13922
X26372Y15192
X26372Y16462
X26372Y17732
X26372Y19002
X26372Y20272
X14681Y28702
X12903Y28702
T06
X69757Y22682
T07
X25309Y2151
X26579Y2151
X27849Y2151
X27849Y3421
X26579Y3421
X25309Y3421
X29119Y3421
X30389Y3421
X30389Y2151
X29119Y2151
T08
X72884Y12499
X72884Y17499
T09
X37744Y3581
X40284Y3581
X42824Y3581
X45364Y3581
X47904Y3581
X50444Y3581
X52984Y3581
X55524Y3581
X55524Y26441
X52984Y26441
X50444Y26441
X47904Y26441
X45364Y26441
X42824Y26441
X40284Y26441
X37744Y26441
T10
X8145Y28245
X10685Y28245
X17054Y28245
X19594Y28245
X64481Y22313
X66481Y22313
T11
X75584Y11494
X75584Y18504
T12
X74968Y2032
X74968Y27967
T13
X6258Y4341
X6258Y5078
X6258Y5814
X6258Y6551
X6258Y7288
X6258Y23545
X6258Y24282
X6258Y25018
X6258Y25755
X6258Y26491
T14
X1905Y2032
X1905Y27967
M30
