G04*
G04 #@! TF.GenerationSoftware,Altium Limited,Altium Designer,19.1.9 (167)*
G04*
G04 Layer_Physical_Order=3*
G04 Layer_Color=16440176*
%FSLAX43Y43*%
%MOMM*%
G71*
G01*
G75*
%ADD11C,0.100*%
%ADD13C,0.254*%
%ADD14C,0.508*%
%ADD15C,0.127*%
%ADD16C,0.200*%
%ADD18C,0.150*%
%ADD20C,0.203*%
%ADD22C,0.178*%
%ADD23C,0.180*%
%ADD24C,0.381*%
%ADD56C,1.000*%
%ADD138C,0.152*%
%ADD147C,0.406*%
%ADD155C,0.813*%
%ADD157C,1.600*%
%ADD158C,1.524*%
%ADD160C,1.250*%
G04:AMPARAMS|DCode=161|XSize=1.25mm|YSize=1.25mm|CornerRadius=0.625mm|HoleSize=0mm|Usage=FLASHONLY|Rotation=90.000|XOffset=0mm|YOffset=0mm|HoleType=Round|Shape=RoundedRectangle|*
%AMROUNDEDRECTD161*
21,1,1.250,0.000,0,0,90.0*
21,1,0.000,1.250,0,0,90.0*
1,1,1.250,0.000,0.000*
1,1,1.250,0.000,0.000*
1,1,1.250,0.000,0.000*
1,1,1.250,0.000,0.000*
%
%ADD161ROUNDEDRECTD161*%
%ADD162C,1.550*%
%ADD163C,1.700*%
%ADD167C,3.600*%
%ADD168C,0.508*%
%ADD169C,0.406*%
%ADD170C,0.610*%
%ADD171C,0.600*%
%ADD172C,0.457*%
G36*
X75558Y29499D02*
X75814Y29393D01*
X76044Y29239D01*
X76240Y29043D01*
X76394Y28812D01*
X76500Y28556D01*
X76555Y28284D01*
X76555Y28146D01*
X76555Y19685D01*
X75089Y19685D01*
X74908Y19866D01*
X74908Y20385D01*
X75499Y20976D01*
X75555Y21060D01*
X75574Y21159D01*
X75574Y22541D01*
X75574Y22541D01*
X75574Y22541D01*
X75564Y22593D01*
X75555Y22640D01*
X75555Y22640D01*
X75555Y22640D01*
X75528Y22680D01*
X75499Y22724D01*
X75499Y22724D01*
X75499Y22724D01*
X73518Y24704D01*
X73518Y25476D01*
X73517Y25480D01*
X73518Y25484D01*
X73507Y25530D01*
X73498Y25575D01*
X73496Y25579D01*
X73495Y25583D01*
X73468Y25621D01*
X73442Y25659D01*
X73439Y25662D01*
X73436Y25665D01*
X73093Y25987D01*
X73054Y26012D01*
X73015Y26038D01*
X73011Y26039D01*
X73007Y26041D01*
X72961Y26048D01*
X72916Y26057D01*
X72242Y26057D01*
X72143Y26038D01*
X72059Y25982D01*
X71674Y25596D01*
X71617Y25512D01*
X71598Y25413D01*
X71598Y22948D01*
X70488Y21838D01*
X70432Y21754D01*
X70412Y21654D01*
X70412Y18403D01*
X70383Y18378D01*
X70380Y18372D01*
X70375Y18369D01*
X70350Y18332D01*
X70323Y18296D01*
X70322Y18290D01*
X70318Y18285D01*
X70310Y18241D01*
X70299Y18198D01*
X70300Y18192D01*
X70299Y18186D01*
X70299Y14183D01*
X70173Y14143D01*
X70145Y14185D01*
X70145Y14185D01*
X70145Y14185D01*
X69902Y14427D01*
X69902Y16322D01*
X69883Y16421D01*
X69826Y16505D01*
X68711Y17620D01*
X68715Y18461D01*
X70023Y19769D01*
X70079Y19853D01*
X70099Y19952D01*
X70099Y20708D01*
X70089Y20759D01*
X70079Y20807D01*
X70079Y20807D01*
X70079Y20807D01*
X70051Y20849D01*
X70023Y20891D01*
X69828Y21086D01*
X69828Y21086D01*
X69828Y21086D01*
X69788Y21113D01*
X69744Y21142D01*
X69744Y21142D01*
X69744Y21142D01*
X69696Y21152D01*
X69645Y21162D01*
X69645Y21162D01*
X69645Y21162D01*
X69079Y21162D01*
X69033Y21218D01*
X68993Y21416D01*
X68881Y21584D01*
X68713Y21697D01*
X68515Y21736D01*
X68316Y21697D01*
X68148Y21584D01*
X68036Y21416D01*
X67997Y21218D01*
X67997Y20693D01*
X67730Y20427D01*
X66718Y20427D01*
X66693Y20422D01*
X66668Y20422D01*
X66644Y20412D01*
X66619Y20407D01*
X66598Y20393D01*
X66574Y20383D01*
X66556Y20365D01*
X66535Y20351D01*
X66521Y20330D01*
X66503Y20311D01*
X66474Y20267D01*
X66391Y20212D01*
X66294Y20193D01*
X66197Y20212D01*
X66137Y20252D01*
X66114Y20262D01*
X66092Y20276D01*
X66067Y20281D01*
X66044Y20291D01*
X66018Y20291D01*
X65993Y20296D01*
X65968Y20291D01*
X65943Y20291D01*
X65919Y20281D01*
X65894Y20276D01*
X65873Y20262D01*
X65849Y20252D01*
X65831Y20234D01*
X65810Y20220D01*
X63961Y18371D01*
X61182Y18371D01*
X60459Y19088D01*
X60459Y19088D01*
X60392Y19189D01*
X60389Y19204D01*
X60276Y19372D01*
X60108Y19484D01*
X59910Y19524D01*
X59712Y19484D01*
X59544Y19372D01*
X59432Y19204D01*
X59416Y19126D01*
X59348Y19098D01*
X59264Y19114D01*
X59180Y19098D01*
X59166Y19088D01*
X58309Y19088D01*
X58226Y19215D01*
X58241Y19288D01*
X58215Y19417D01*
X58142Y19526D01*
X58033Y19599D01*
X57904Y19625D01*
X57775Y19599D01*
X57666Y19526D01*
X57593Y19417D01*
X57567Y19288D01*
X57504Y19234D01*
X57441Y19288D01*
X57415Y19417D01*
X57342Y19526D01*
X57233Y19599D01*
X57104Y19625D01*
X56975Y19599D01*
X56866Y19526D01*
X56793Y19417D01*
X56767Y19288D01*
X56782Y19215D01*
X56724Y19112D01*
X56715Y19102D01*
X56690Y19084D01*
X56636Y19074D01*
X56573Y19032D01*
X56356Y18814D01*
X56304Y18825D01*
X56175Y18799D01*
X56066Y18726D01*
X55993Y18617D01*
X55967Y18488D01*
X55993Y18359D01*
X56066Y18250D01*
X56124Y18211D01*
X56148Y18072D01*
X56144Y18056D01*
X55930Y17842D01*
X55779Y17871D01*
X55742Y17926D01*
X55633Y17999D01*
X55504Y18025D01*
X55375Y17999D01*
X55266Y17926D01*
X55193Y17817D01*
X55167Y17688D01*
X55184Y17605D01*
X55106Y17478D01*
X53726Y17478D01*
X53632Y17572D01*
X53632Y17772D01*
X53605Y18265D01*
X53624Y18364D01*
X53624Y18745D01*
X53624Y18745D01*
X53624Y18745D01*
X53617Y18785D01*
X53605Y18844D01*
X53605Y18844D01*
X53605Y18844D01*
X53549Y18928D01*
X53549Y18928D01*
X53549Y18928D01*
X53437Y19040D01*
X53415Y19159D01*
X53441Y19288D01*
X53415Y19417D01*
X53342Y19526D01*
X53233Y19599D01*
X53104Y19625D01*
X52975Y19599D01*
X52866Y19526D01*
X52793Y19417D01*
X52767Y19288D01*
X52776Y19243D01*
X52681Y19116D01*
X50694Y19116D01*
X50599Y19243D01*
X50608Y19288D01*
X50582Y19417D01*
X50509Y19526D01*
X50459Y19559D01*
X50433Y19712D01*
X51787Y21066D01*
X51904Y21057D01*
X51980Y20951D01*
X51967Y20888D01*
X51993Y20759D01*
X52066Y20650D01*
X52175Y20577D01*
X52304Y20551D01*
X52433Y20577D01*
X52542Y20650D01*
X52615Y20759D01*
X52641Y20888D01*
X52704Y20945D01*
X52767Y20888D01*
X52793Y20759D01*
X52866Y20650D01*
X52975Y20577D01*
X53104Y20551D01*
X53233Y20577D01*
X53342Y20650D01*
X53415Y20759D01*
X53441Y20888D01*
X53426Y20964D01*
X53507Y21091D01*
X54893Y21091D01*
X54907Y21082D01*
X54991Y21065D01*
X55075Y21082D01*
X55305Y21082D01*
X55704Y20684D01*
X55704Y20468D01*
X55720Y20384D01*
X55768Y20313D01*
X55839Y20265D01*
X55856Y20262D01*
X55978Y20140D01*
X55967Y20088D01*
X55993Y19959D01*
X56066Y19850D01*
X56175Y19777D01*
X56304Y19751D01*
X56433Y19777D01*
X56542Y19850D01*
X56615Y19959D01*
X56620Y19984D01*
X56632Y19998D01*
X56753Y20041D01*
X56779Y20027D01*
X56793Y19959D01*
X56866Y19850D01*
X56975Y19777D01*
X57104Y19751D01*
X57233Y19777D01*
X57342Y19850D01*
X57415Y19959D01*
X57441Y20088D01*
X57415Y20217D01*
X57342Y20326D01*
X57233Y20399D01*
X57104Y20425D01*
X57039Y20541D01*
X57039Y24181D01*
X57811Y24181D01*
X58309Y23683D01*
X58444Y23593D01*
X58826Y23211D01*
X58826Y22330D01*
X59129Y22026D01*
X59394Y22026D01*
X59690Y21730D01*
X59690Y21730D01*
X59794Y21675D01*
X59794Y20866D01*
X59711Y20849D01*
X59543Y20737D01*
X59431Y20569D01*
X59391Y20371D01*
X59431Y20173D01*
X59543Y20005D01*
X59711Y19892D01*
X59909Y19853D01*
X60107Y19892D01*
X60275Y20005D01*
X60388Y20173D01*
X60410Y20286D01*
X60502Y20377D01*
X60591Y20512D01*
X60623Y20670D01*
X60623Y22278D01*
X60687Y22374D01*
X60727Y22573D01*
X60687Y22771D01*
X60633Y22852D01*
X60687Y22933D01*
X60727Y23131D01*
X60687Y23330D01*
X60604Y23455D01*
X60591Y23516D01*
X60502Y23650D01*
X59883Y24269D01*
X59749Y24359D01*
X59590Y24390D01*
X58774Y24390D01*
X58408Y24756D01*
X58408Y25945D01*
X58791Y26329D01*
X59604Y27142D01*
X67215Y27142D01*
X68155Y26202D01*
X68226Y26154D01*
X68311Y26137D01*
X69791Y26137D01*
X70751Y25177D01*
X70751Y23568D01*
X70641Y23494D01*
X70540Y23343D01*
X70505Y23165D01*
X70540Y22986D01*
X70641Y22835D01*
X70793Y22734D01*
X70971Y22699D01*
X71149Y22734D01*
X71301Y22835D01*
X71402Y22986D01*
X71437Y23165D01*
X71402Y23343D01*
X71301Y23494D01*
X71191Y23568D01*
X71191Y25268D01*
X71191Y25987D01*
X71468Y26264D01*
X71569Y26415D01*
X71605Y26594D01*
X71569Y26772D01*
X71468Y26923D01*
X71317Y27024D01*
X71139Y27060D01*
X71010Y27034D01*
X70718Y27326D01*
X70646Y27373D01*
X70562Y27390D01*
X68434Y27390D01*
X67749Y28076D01*
X67677Y28124D01*
X67593Y28141D01*
X58341Y28141D01*
X58256Y28124D01*
X58185Y28076D01*
X57000Y26891D01*
X56952Y26820D01*
X56936Y26736D01*
X56936Y25503D01*
X55800Y24368D01*
X54995Y24368D01*
X54660Y24033D01*
X54224Y24033D01*
X49657Y24033D01*
X49558Y24014D01*
X49474Y23958D01*
X49474Y23958D01*
X48051Y22535D01*
X47995Y22451D01*
X47995Y22451D01*
X47985Y22397D01*
X47976Y22352D01*
X47976Y21959D01*
X47680Y21663D01*
X47054Y21663D01*
X46955Y21643D01*
X46955Y21643D01*
X46871Y21587D01*
X45765Y20482D01*
X45709Y20398D01*
X45690Y20299D01*
X45690Y18268D01*
X45486Y18064D01*
X45105Y18064D01*
X45080Y18059D01*
X45040Y18059D01*
X45015Y18064D01*
X44938Y18064D01*
X44078Y18924D01*
X44078Y19099D01*
X44076Y19112D01*
X44078Y19125D01*
X44078Y20367D01*
X44059Y20466D01*
X44002Y20550D01*
X42220Y22332D01*
X42220Y23470D01*
X42200Y23569D01*
X42144Y23653D01*
X41763Y24034D01*
X41679Y24090D01*
X41580Y24110D01*
X40843Y24110D01*
X40744Y24090D01*
X40660Y24034D01*
X40330Y23704D01*
X40274Y23620D01*
X40254Y23520D01*
X40254Y21793D01*
X40274Y21694D01*
X40330Y21610D01*
X40889Y21051D01*
X40889Y19540D01*
X40658Y19309D01*
X40563Y19309D01*
X40538Y19304D01*
X40514Y19304D01*
X40514Y19304D01*
X40488Y19304D01*
X40463Y19309D01*
X40259Y19309D01*
X40160Y19289D01*
X40076Y19233D01*
X39695Y18852D01*
X39674Y18821D01*
X38788Y18821D01*
X38161Y19448D01*
X38132Y19596D01*
X38020Y19764D01*
X37852Y19876D01*
X37703Y19906D01*
X36367Y21242D01*
X34736Y21242D01*
X34651Y21299D01*
X34453Y21338D01*
X34255Y21299D01*
X34170Y21242D01*
X32240Y21242D01*
X32240Y21242D01*
X32237Y21234D01*
X29247Y21234D01*
X28672Y21809D01*
X28667Y21838D01*
X28566Y21989D01*
X28414Y22090D01*
X28386Y22096D01*
X28065Y22416D01*
X27931Y22506D01*
X27772Y22538D01*
X22585Y22538D01*
X21268Y23854D01*
X21134Y23944D01*
X20975Y23975D01*
X20841Y23975D01*
X20745Y24049D01*
X20609Y24105D01*
X20463Y24125D01*
X20317Y24105D01*
X20181Y24049D01*
X20064Y23960D01*
X19975Y23843D01*
X19919Y23707D01*
X19899Y23561D01*
X19906Y23508D01*
X19914Y23444D01*
X19914Y23444D01*
X19914Y22569D01*
X20149Y22334D01*
X20159Y22309D01*
X20249Y22193D01*
X20366Y22103D01*
X20502Y22047D01*
X20648Y22028D01*
X21923Y22028D01*
X22120Y21830D01*
X22255Y21740D01*
X22413Y21709D01*
X24338Y21709D01*
X24632Y21415D01*
X24632Y20867D01*
X24568Y20771D01*
X24528Y20573D01*
X24568Y20375D01*
X24680Y20206D01*
X24848Y20094D01*
X25046Y20055D01*
X25245Y20094D01*
X25413Y20206D01*
X25525Y20375D01*
X25564Y20573D01*
X25525Y20771D01*
X25461Y20867D01*
X25461Y21415D01*
X25755Y21709D01*
X26458Y21709D01*
X26662Y21505D01*
X26662Y21108D01*
X26492Y20938D01*
X26372Y20938D01*
X26200Y20916D01*
X26039Y20849D01*
X25901Y20743D01*
X25795Y20605D01*
X25729Y20445D01*
X25706Y20272D01*
X25729Y20100D01*
X25795Y19939D01*
X25901Y19801D01*
X26021Y19709D01*
X26031Y19637D01*
X26021Y19565D01*
X25901Y19473D01*
X25795Y19335D01*
X25754Y19235D01*
X25581Y19235D01*
X25492Y19218D01*
X25416Y19167D01*
X24245Y17996D01*
X24194Y17920D01*
X24176Y17831D01*
X24176Y10529D01*
X24072Y10462D01*
X24049Y10465D01*
X23876Y10499D01*
X23698Y10464D01*
X23550Y10365D01*
X23526Y10370D01*
X23423Y10407D01*
X23423Y18574D01*
X23406Y18663D01*
X23355Y18739D01*
X19161Y22933D01*
X19161Y24503D01*
X19367Y24710D01*
X27136Y24710D01*
X29888Y21958D01*
X29865Y21844D01*
X29901Y21666D01*
X30002Y21514D01*
X30153Y21413D01*
X30331Y21378D01*
X30510Y21413D01*
X30661Y21514D01*
X30762Y21666D01*
X30798Y21844D01*
X30762Y22022D01*
X30661Y22174D01*
X30510Y22275D01*
X30331Y22310D01*
X30218Y22288D01*
X27608Y24897D01*
X27656Y25015D01*
X30025Y25015D01*
X31179Y23861D01*
X31254Y23810D01*
X31344Y23793D01*
X37984Y23793D01*
X38073Y23810D01*
X38149Y23861D01*
X38575Y24288D01*
X42886Y24288D01*
X42976Y24305D01*
X43051Y24356D01*
X43481Y24786D01*
X53721Y24786D01*
X54182Y25246D01*
X54182Y26694D01*
X53709Y27166D01*
X53497Y27329D01*
X53250Y27431D01*
X52984Y27466D01*
X52719Y27431D01*
X52472Y27329D01*
X52260Y27166D01*
X52097Y26954D01*
X51995Y26707D01*
X51960Y26441D01*
X51960Y25647D01*
X51564Y25252D01*
X43385Y25252D01*
X43296Y25234D01*
X43220Y25184D01*
X42790Y24754D01*
X38479Y24754D01*
X38390Y24736D01*
X38314Y24685D01*
X37887Y24259D01*
X31440Y24259D01*
X30286Y25412D01*
X30211Y25463D01*
X30122Y25481D01*
X23316Y25481D01*
X23267Y25598D01*
X24206Y26537D01*
X24320Y26514D01*
X24498Y26549D01*
X24649Y26650D01*
X24751Y26802D01*
X24786Y26980D01*
X24763Y27094D01*
X24912Y27242D01*
X28791Y27242D01*
X29136Y26897D01*
X29212Y26847D01*
X29301Y26829D01*
X36501Y26829D01*
X36590Y26847D01*
X36666Y26897D01*
X36967Y27199D01*
X38957Y27199D01*
X39260Y26896D01*
X39260Y25926D01*
X39769Y25417D01*
X41560Y25417D01*
X41654Y25323D01*
X41755Y25172D01*
X41906Y25071D01*
X42085Y25035D01*
X42263Y25071D01*
X42414Y25172D01*
X42515Y25323D01*
X42539Y25441D01*
X42559Y25452D01*
X42824Y25417D01*
X43090Y25452D01*
X43121Y25465D01*
X45068Y25465D01*
X45099Y25452D01*
X45364Y25417D01*
X50486Y25417D01*
X50493Y25423D01*
X50710Y25452D01*
X50957Y25554D01*
X51169Y25717D01*
X51332Y25929D01*
X51434Y26176D01*
X51469Y26441D01*
X51440Y26665D01*
X51438Y26710D01*
X51532Y26803D01*
X51613Y26819D01*
X51765Y26920D01*
X51866Y27071D01*
X51901Y27250D01*
X51866Y27428D01*
X51765Y27579D01*
X51613Y27680D01*
X51435Y27716D01*
X51321Y27693D01*
X49909Y29105D01*
X49833Y29156D01*
X49744Y29174D01*
X22881Y29174D01*
X22792Y29156D01*
X22716Y29105D01*
X20590Y26979D01*
X16531Y26979D01*
X15558Y27952D01*
X15347Y28163D01*
X15347Y29419D01*
X15481Y29553D01*
X75147Y29553D01*
X75286Y29553D01*
X75558Y29499D01*
X75558Y29499D02*
G37*
G36*
X72916Y25799D02*
X73259Y25476D01*
X73259Y24597D01*
X75316Y22541D01*
X75316Y21159D01*
X73856Y19700D01*
X73170Y19700D01*
X71476Y18006D01*
X71476Y16730D01*
X71460Y16653D01*
X71476Y16576D01*
X71476Y16438D01*
X71725Y16188D01*
X71919Y16188D01*
X71926Y16187D01*
X71934Y16188D01*
X72111Y16188D01*
X72227Y16304D01*
X72256Y16323D01*
X72276Y16353D01*
X72425Y16502D01*
X73247Y16502D01*
X73628Y16121D01*
X73628Y13640D01*
X73374Y13386D01*
X72884Y13386D01*
X72884Y13386D01*
X72883Y13386D01*
X72036Y13386D01*
X71857Y13207D01*
X71857Y10998D01*
X71806Y10947D01*
X71811Y10941D01*
X71360Y10490D01*
X70993Y10490D01*
X70688Y10185D01*
X70688Y9500D01*
X71044Y9144D01*
X71476Y9144D01*
X71806Y8814D01*
X71806Y8560D01*
X71450Y8204D01*
X70942Y8204D01*
X70688Y7950D01*
X70688Y6553D01*
X70733Y6509D01*
X70768Y6330D01*
X70881Y6162D01*
X71049Y6049D01*
X71228Y6014D01*
X71722Y5519D01*
X71722Y5124D01*
X68428Y1829D01*
X61646Y1829D01*
X59411Y4064D01*
X56464Y4064D01*
X56338Y4191D01*
X56249Y4306D01*
X56231Y4320D01*
X56231Y5034D01*
X56127Y5138D01*
X56079Y5210D01*
X56007Y5258D01*
X55903Y5361D01*
X55505Y5361D01*
X55367Y5224D01*
X55347Y5210D01*
X55333Y5189D01*
X55192Y5048D01*
X55192Y4695D01*
X54810Y4314D01*
X54800Y4306D01*
X54792Y4296D01*
X54353Y3857D01*
X54170Y3857D01*
X54026Y4001D01*
X54026Y4388D01*
X54605Y4967D01*
X54605Y5544D01*
X53849Y6300D01*
X51405Y6300D01*
X51132Y6027D01*
X51132Y5285D01*
X51003Y5156D01*
X48489Y5156D01*
X47636Y6009D01*
X47636Y6875D01*
X47043Y7468D01*
X45739Y7468D01*
X44943Y6672D01*
X44384Y6672D01*
X43953Y7104D01*
X43953Y9771D01*
X44181Y10000D01*
X44505Y10000D01*
X44704Y9801D01*
X44704Y9474D01*
X45364Y8814D01*
X46431Y8814D01*
X46609Y8778D01*
X46787Y8814D01*
X47015Y8814D01*
X47533Y9332D01*
X47533Y10125D01*
X47310Y10348D01*
X46193Y10348D01*
X45969Y10571D01*
X45969Y11259D01*
X46115Y11405D01*
X47347Y11405D01*
X47906Y10846D01*
X47906Y10846D01*
X47915Y10837D01*
X48108Y10837D01*
X48108Y10837D01*
X48108Y10837D01*
X48429Y10837D01*
X48438Y10846D01*
X48438Y10846D01*
X48703Y11111D01*
X48703Y13324D01*
X48031Y13995D01*
X44900Y13995D01*
X43394Y12489D01*
X43394Y11219D01*
X43097Y10922D01*
X42294Y10922D01*
X41961Y11255D01*
X41961Y13411D01*
X42875Y14326D01*
X42875Y15010D01*
X42897Y15042D01*
X42936Y15240D01*
X42897Y15438D01*
X42875Y15470D01*
X42875Y17418D01*
X43180Y17723D01*
X43180Y18065D01*
X43189Y18110D01*
X43180Y18155D01*
X43180Y18313D01*
X42824Y18669D01*
X41956Y18669D01*
X41946Y18671D01*
X41936Y18669D01*
X41326Y18669D01*
X40874Y18217D01*
X40843Y18211D01*
X40691Y18110D01*
X40607Y17983D01*
X40107Y17983D01*
X39878Y18212D01*
X39878Y18669D01*
X40259Y19050D01*
X40463Y19050D01*
X40513Y19040D01*
X40563Y19050D01*
X40765Y19050D01*
X41148Y19433D01*
X41148Y21158D01*
X40513Y21793D01*
X40513Y23520D01*
X40843Y23851D01*
X41580Y23851D01*
X41961Y23470D01*
X41961Y22225D01*
X43819Y20367D01*
X43819Y19125D01*
X43817Y19112D01*
X43819Y19099D01*
X43819Y18817D01*
X44831Y17805D01*
X45015Y17805D01*
X45060Y17796D01*
X45105Y17805D01*
X45593Y17805D01*
X45949Y18161D01*
X45949Y20299D01*
X47054Y21404D01*
X47787Y21404D01*
X48235Y21852D01*
X48235Y22352D01*
X49657Y23774D01*
X54224Y23774D01*
X54424Y23574D01*
X54424Y22249D01*
X54221Y22046D01*
X51306Y22046D01*
X51109Y21848D01*
X51109Y21105D01*
X48819Y18814D01*
X48819Y15926D01*
X49513Y15232D01*
X49513Y14403D01*
X50632Y13284D01*
X52376Y13284D01*
X52641Y13548D01*
X52641Y13827D01*
X52443Y14025D01*
X51774Y14025D01*
X50653Y15145D01*
X50341Y15145D01*
X49889Y15597D01*
X49889Y15597D01*
X49449Y16036D01*
X49449Y18466D01*
X49840Y18857D01*
X53254Y18857D01*
X53365Y18745D01*
X53365Y18364D01*
X53213Y18212D01*
X52857Y18212D01*
X52639Y17994D01*
X52639Y17007D01*
X52955Y16692D01*
X57204Y16691D01*
X57302Y16594D01*
X57302Y15993D01*
X57210Y15900D01*
X56931Y15900D01*
X56615Y16217D01*
X56542Y16326D01*
X56433Y16399D01*
X56407Y16425D01*
X56165Y16425D01*
X55969Y16229D01*
X55969Y16094D01*
X55967Y16088D01*
X55969Y16082D01*
X55969Y15294D01*
X55967Y15288D01*
X55969Y15282D01*
X55968Y14494D01*
X55967Y14488D01*
X55968Y14482D01*
X55968Y14308D01*
X56340Y13937D01*
X57258Y13937D01*
X57523Y13672D01*
X56612Y12761D01*
X54321Y12761D01*
X54235Y12859D01*
X54241Y12888D01*
X54215Y13017D01*
X54142Y13126D01*
X54033Y13199D01*
X53904Y13225D01*
X53775Y13199D01*
X53666Y13126D01*
X53593Y13017D01*
X53567Y12888D01*
X53593Y12759D01*
X53666Y12650D01*
X53775Y12577D01*
X53904Y12551D01*
X53956Y12562D01*
X54088Y12430D01*
X54151Y12387D01*
X54225Y12373D01*
X56693Y12373D01*
X56767Y12387D01*
X56830Y12430D01*
X57789Y13388D01*
X59993Y13388D01*
X60376Y13005D01*
X60376Y11709D01*
X60681Y11405D01*
X61265Y11405D01*
X61595Y11735D01*
X61595Y12065D01*
X62563Y13033D01*
X62607Y13062D01*
X62636Y13106D01*
X65329Y15799D01*
X66167Y15799D01*
X66599Y15367D01*
X66599Y14478D01*
X68842Y12235D01*
X70003Y12235D01*
X70558Y12790D01*
X70558Y18186D01*
X70671Y18289D01*
X70671Y21654D01*
X71857Y22840D01*
X71857Y25413D01*
X72242Y25799D01*
X72916Y25799D01*
X72916Y25799D02*
G37*
G36*
X69840Y20708D02*
X69840Y19952D01*
X68456Y18569D01*
X68452Y17513D01*
X69643Y16322D01*
X69643Y14320D01*
X69961Y14001D01*
X69961Y13414D01*
X69808Y13261D01*
X68870Y13264D01*
X68709Y13425D01*
X68709Y14172D01*
X67564Y15316D01*
X67564Y15585D01*
X67611Y15702D01*
X67640Y15732D01*
X67640Y15850D01*
X67650Y15900D01*
X67640Y15950D01*
X67640Y16383D01*
X67180Y16843D01*
X63850Y16843D01*
X63836Y16846D01*
X63821Y16843D01*
X60906Y16843D01*
X60731Y17018D01*
X60731Y17996D01*
X60848Y18112D01*
X64068Y18112D01*
X65993Y20037D01*
X66096Y19968D01*
X66294Y19929D01*
X66492Y19968D01*
X66660Y20081D01*
X66718Y20168D01*
X68250Y20168D01*
X68985Y20903D01*
X69645Y20903D01*
X69840Y20708D01*
X69840Y20708D02*
G37*
G36*
X57059Y18026D02*
X57770Y17315D01*
X58888Y17315D01*
X59091Y17518D01*
X59370Y17518D01*
X59523Y17366D01*
X59523Y17366D01*
X59523Y17086D01*
X59370Y16934D01*
X57288Y16934D01*
X57254Y16941D01*
X57204Y16950D01*
X53063Y16950D01*
X52898Y17115D01*
X52898Y17802D01*
X52995Y17899D01*
X53376Y17899D01*
X53503Y17772D01*
X53503Y17518D01*
X53673Y17348D01*
X55619Y17348D01*
X55678Y17407D01*
X55742Y17450D01*
X55785Y17514D01*
X56297Y18026D01*
X57059Y18026D01*
X57059Y18026D02*
G37*
G36*
X59697Y18150D02*
X59769Y18102D01*
X59853Y18085D01*
X59990Y18085D01*
X60268Y17808D01*
X60268Y17335D01*
X60186Y17253D01*
X59808Y17253D01*
X59635Y17426D01*
X59630Y17438D01*
X59621Y17447D01*
X59614Y17458D01*
X59462Y17610D01*
X59420Y17638D01*
X59370Y17648D01*
X59317Y17648D01*
X59258Y17659D01*
X59199Y17648D01*
X59091Y17648D01*
X59042Y17638D01*
X59000Y17610D01*
X58834Y17444D01*
X57824Y17444D01*
X57223Y18045D01*
X57226Y18094D01*
X57256Y18192D01*
X57342Y18250D01*
X57415Y18359D01*
X57441Y18488D01*
X57424Y18573D01*
X57501Y18700D01*
X59147Y18700D01*
X59697Y18150D01*
X59697Y18150D02*
G37*
G36*
X59980Y16629D02*
X59980Y15291D01*
X59413Y14724D01*
X58143Y14724D01*
X58142Y14726D01*
X58033Y14799D01*
X57904Y14825D01*
X57775Y14799D01*
X57666Y14726D01*
X57606Y14636D01*
X57567Y14597D01*
X57567Y14343D01*
X57440Y14216D01*
X56678Y14216D01*
X56627Y14267D01*
X56627Y14420D01*
X56641Y14488D01*
X56627Y14556D01*
X56627Y14819D01*
X56627Y15220D01*
X56641Y15288D01*
X56627Y15356D01*
X56627Y15454D01*
X56741Y15568D01*
X56840Y15487D01*
X56793Y15417D01*
X56767Y15288D01*
X56793Y15159D01*
X56866Y15050D01*
X56975Y14977D01*
X57104Y14951D01*
X57233Y14977D01*
X57342Y15050D01*
X57415Y15159D01*
X57441Y15288D01*
X57415Y15417D01*
X57342Y15526D01*
X57385Y15644D01*
X57404Y15672D01*
X57541Y15809D01*
X57604Y15829D01*
X57683Y15838D01*
X57775Y15777D01*
X57904Y15751D01*
X58033Y15777D01*
X58142Y15850D01*
X58215Y15959D01*
X58241Y16088D01*
X58215Y16217D01*
X58142Y16326D01*
X58033Y16399D01*
X57904Y16425D01*
X57775Y16399D01*
X57688Y16341D01*
X57606Y16367D01*
X57561Y16397D01*
X57561Y16594D01*
X57561Y16594D01*
X57561Y16594D01*
X57556Y16619D01*
X57556Y16619D01*
X57700Y16756D01*
X59853Y16756D01*
X59980Y16629D01*
X59980Y16629D02*
G37*
G36*
X29612Y15319D02*
X29630Y15230D01*
X29680Y15154D01*
X29807Y15027D01*
X29883Y14977D01*
X29972Y14959D01*
X30329Y14959D01*
X30646Y14643D01*
X30646Y14313D01*
X30628Y14224D01*
X30628Y12924D01*
X30590Y12885D01*
X30078Y12885D01*
X30078Y13716D01*
X30060Y13805D01*
X30010Y13881D01*
X29883Y14008D01*
X29807Y14058D01*
X29718Y14076D01*
X29210Y14076D01*
X29121Y14058D01*
X29045Y14008D01*
X28918Y13881D01*
X28868Y13805D01*
X28850Y13716D01*
X28850Y12885D01*
X28554Y12885D01*
X28554Y13691D01*
X28536Y13780D01*
X28486Y13855D01*
X28333Y14008D01*
X28258Y14058D01*
X28169Y14076D01*
X27711Y14076D01*
X27622Y14058D01*
X27547Y14008D01*
X27394Y13855D01*
X27344Y13780D01*
X27326Y13691D01*
X27326Y12885D01*
X26990Y12885D01*
X26949Y12985D01*
X26843Y13123D01*
X26723Y13215D01*
X26713Y13287D01*
X26723Y13359D01*
X26843Y13451D01*
X26949Y13589D01*
X27016Y13750D01*
X27038Y13922D01*
X27016Y14095D01*
X26949Y14255D01*
X26843Y14393D01*
X26723Y14485D01*
X26713Y14557D01*
X26723Y14629D01*
X26843Y14721D01*
X26949Y14859D01*
X26990Y14959D01*
X27432Y14959D01*
X27521Y14977D01*
X27597Y15027D01*
X27724Y15154D01*
X27774Y15230D01*
X27792Y15319D01*
X27792Y15896D01*
X28088Y15896D01*
X28088Y15319D01*
X28106Y15230D01*
X28156Y15154D01*
X28283Y15027D01*
X28359Y14977D01*
X28448Y14959D01*
X28956Y14959D01*
X29045Y14977D01*
X29121Y15027D01*
X29248Y15154D01*
X29298Y15230D01*
X29316Y15319D01*
X29316Y15896D01*
X29612Y15896D01*
X29612Y15319D01*
X29612Y15319D02*
G37*
G36*
X60906Y16584D02*
X63255Y16584D01*
X63343Y16457D01*
X63318Y16328D01*
X63357Y16130D01*
X63469Y15962D01*
X63637Y15850D01*
X63836Y15810D01*
X64034Y15850D01*
X64202Y15962D01*
X64314Y16130D01*
X64354Y16328D01*
X64328Y16457D01*
X64416Y16584D01*
X67073Y16584D01*
X67381Y16276D01*
X67381Y15950D01*
X67386Y15925D01*
X67386Y15875D01*
X67381Y15850D01*
X67381Y15824D01*
X67357Y15792D01*
X67301Y15656D01*
X67281Y15510D01*
X67301Y15364D01*
X67305Y15354D01*
X67305Y15316D01*
X67325Y15217D01*
X67381Y15133D01*
X68450Y14064D01*
X68450Y13425D01*
X68457Y13388D01*
X68469Y13326D01*
X68525Y13242D01*
X68687Y13081D01*
X68729Y13053D01*
X68770Y13025D01*
X68771Y13025D01*
X68771Y13024D01*
X68820Y13015D01*
X68870Y13005D01*
X69807Y13002D01*
X69808Y13002D01*
X69808Y13002D01*
X69857Y13012D01*
X69907Y13022D01*
X69907Y13022D01*
X69907Y13022D01*
X69949Y13050D01*
X69991Y13077D01*
X69991Y13078D01*
X69991Y13078D01*
X70145Y13231D01*
X70278Y13207D01*
X70299Y13193D01*
X70299Y12897D01*
X69896Y12494D01*
X68949Y12494D01*
X66858Y14585D01*
X66858Y15367D01*
X66838Y15466D01*
X66782Y15550D01*
X66350Y15982D01*
X66266Y16038D01*
X66167Y16058D01*
X65329Y16058D01*
X65230Y16038D01*
X65146Y15982D01*
X62453Y13289D01*
X62439Y13268D01*
X62421Y13250D01*
X62420Y13249D01*
X62419Y13248D01*
X62401Y13230D01*
X62380Y13216D01*
X61412Y12248D01*
X61356Y12164D01*
X61336Y12065D01*
X61336Y11842D01*
X61158Y11664D01*
X60788Y11664D01*
X60635Y11817D01*
X60635Y13005D01*
X60615Y13104D01*
X60559Y13188D01*
X60271Y13475D01*
X61585Y14789D01*
X61646Y14783D01*
X61798Y14682D01*
X61976Y14647D01*
X62154Y14682D01*
X62306Y14783D01*
X62407Y14935D01*
X62442Y15113D01*
X62407Y15291D01*
X62306Y15443D01*
X62154Y15544D01*
X61976Y15579D01*
X61798Y15544D01*
X61646Y15443D01*
X61568Y15326D01*
X61511Y15314D01*
X61440Y15266D01*
X60002Y13828D01*
X59414Y13828D01*
X59328Y13955D01*
X59341Y14021D01*
X59315Y14150D01*
X59304Y14167D01*
X59317Y14192D01*
X59404Y14285D01*
X59488Y14268D01*
X59572Y14285D01*
X59644Y14332D01*
X60644Y15332D01*
X60691Y15403D01*
X60708Y15488D01*
X60708Y16517D01*
X60743Y16548D01*
X60835Y16599D01*
X60906Y16584D01*
X60906Y16584D02*
G37*
G36*
X46330Y13665D02*
X46330Y13210D01*
X45249Y12129D01*
X45159Y11995D01*
X45128Y11836D01*
X45128Y11426D01*
X44905Y11204D01*
X43948Y11204D01*
X43653Y11499D01*
X43653Y12382D01*
X45008Y13736D01*
X46258Y13736D01*
X46330Y13665D01*
X46330Y13665D02*
G37*
G36*
X40068Y16222D02*
X40169Y16071D01*
X40320Y15970D01*
X40440Y15850D01*
X40894Y15850D01*
X41935Y14808D01*
X41935Y13752D01*
X41778Y13594D01*
X41722Y13510D01*
X41702Y13411D01*
X41702Y11255D01*
X41722Y11156D01*
X41751Y11111D01*
X41755Y11090D01*
X41739Y10991D01*
X41719Y10950D01*
X41664Y10913D01*
X40981Y10913D01*
X39282Y12612D01*
X39148Y12702D01*
X38989Y12733D01*
X38699Y12733D01*
X38603Y12798D01*
X38405Y12837D01*
X38207Y12798D01*
X38039Y12685D01*
X37926Y12517D01*
X37887Y12319D01*
X37926Y12121D01*
X38039Y11953D01*
X38207Y11840D01*
X38405Y11801D01*
X38603Y11840D01*
X38699Y11905D01*
X38817Y11905D01*
X40516Y10206D01*
X40650Y10116D01*
X40809Y10085D01*
X40809Y10085D01*
X41240Y10085D01*
X41557Y9767D01*
X41557Y9279D01*
X41557Y7699D01*
X41173Y7315D01*
X37922Y7315D01*
X37617Y7620D01*
X37622Y9322D01*
X37622Y12781D01*
X38783Y13943D01*
X38834Y14018D01*
X38852Y14108D01*
X38852Y16223D01*
X38834Y16312D01*
X38783Y16387D01*
X38176Y16995D01*
X38176Y17399D01*
X38289Y17512D01*
X38778Y17512D01*
X40068Y16222D01*
X40068Y16222D02*
G37*
G36*
X76422Y19423D02*
X76555Y19290D01*
X76555Y19079D01*
X76536Y18984D01*
X76536Y18934D01*
X76526Y18884D01*
X76526Y18809D01*
X76526Y11189D01*
X76526Y11114D01*
X76536Y11065D01*
X76536Y11015D01*
X76555Y10920D01*
X76555Y10412D01*
X76422Y10279D01*
X73882Y10279D01*
X72231Y11930D01*
X72231Y12819D01*
X72485Y13073D01*
X73628Y13073D01*
X73882Y13327D01*
X73882Y13615D01*
X73887Y13640D01*
X73887Y16121D01*
X73882Y16146D01*
X73882Y16629D01*
X73628Y16883D01*
X72358Y16883D01*
X72104Y17137D01*
X72104Y18268D01*
X73259Y19423D01*
X76422Y19423D01*
X76422Y19423D02*
G37*
G36*
X33906Y19576D02*
X33906Y19576D01*
X33906Y19576D01*
X34043Y19439D01*
X34951Y19439D01*
X35296Y19100D01*
X35330Y18929D01*
X35431Y18777D01*
X35528Y18713D01*
X35528Y18296D01*
X35545Y18207D01*
X35596Y18132D01*
X36631Y17096D01*
X36707Y17046D01*
X36796Y17028D01*
X37484Y17028D01*
X38386Y16126D01*
X38386Y14204D01*
X37224Y13043D01*
X37173Y12967D01*
X37156Y12878D01*
X37156Y9418D01*
X35997Y8259D01*
X34263Y8259D01*
X33842Y8681D01*
X33842Y9345D01*
X33151Y10035D01*
X33151Y10035D01*
X33151Y10035D01*
X33024Y10162D01*
X33024Y10259D01*
X33024Y10389D01*
X33024Y11151D01*
X33007Y11240D01*
X32956Y11315D01*
X32804Y11468D01*
X32728Y11518D01*
X32639Y11536D01*
X31022Y11536D01*
X30933Y11518D01*
X30857Y11468D01*
X30054Y10664D01*
X28592Y10664D01*
X28503Y10647D01*
X28428Y10596D01*
X28315Y10483D01*
X27965Y10833D01*
X27889Y10883D01*
X27800Y10901D01*
X27485Y10901D01*
X27396Y10883D01*
X27320Y10833D01*
X27032Y10545D01*
X26948Y10535D01*
X26873Y10545D01*
X26843Y10583D01*
X26723Y10675D01*
X26713Y10747D01*
X26723Y10819D01*
X26843Y10911D01*
X26949Y11049D01*
X26990Y11149D01*
X29289Y11149D01*
X29378Y11167D01*
X29454Y11217D01*
X30069Y11832D01*
X33422Y11832D01*
X33422Y11049D01*
X33440Y10960D01*
X33490Y10884D01*
X33617Y10757D01*
X33693Y10707D01*
X33782Y10689D01*
X34290Y10689D01*
X34379Y10707D01*
X34455Y10757D01*
X34582Y10884D01*
X34632Y10960D01*
X34650Y11049D01*
X34650Y11832D01*
X34946Y11832D01*
X34946Y11049D01*
X34964Y10960D01*
X35014Y10884D01*
X35141Y10757D01*
X35217Y10707D01*
X35306Y10689D01*
X35814Y10689D01*
X35903Y10707D01*
X35979Y10757D01*
X36106Y10884D01*
X36156Y10960D01*
X36174Y11049D01*
X36174Y11637D01*
X36207Y11670D01*
X36449Y11670D01*
X36470Y11649D01*
X36470Y10358D01*
X35775Y9664D01*
X35662Y9686D01*
X35483Y9651D01*
X35332Y9550D01*
X35231Y9399D01*
X35195Y9220D01*
X35231Y9042D01*
X35332Y8891D01*
X35483Y8790D01*
X35662Y8754D01*
X35840Y8790D01*
X35991Y8891D01*
X36092Y9042D01*
X36128Y9220D01*
X36105Y9334D01*
X36868Y10097D01*
X36918Y10172D01*
X36936Y10262D01*
X36936Y11746D01*
X36918Y11835D01*
X36868Y11911D01*
X36711Y12068D01*
X36635Y12118D01*
X36464Y12289D01*
X36077Y12289D01*
X36068Y12298D01*
X31974Y12298D01*
X31094Y13178D01*
X31094Y14127D01*
X32482Y15515D01*
X35585Y15515D01*
X35675Y15533D01*
X35750Y15583D01*
X35953Y15786D01*
X36004Y15862D01*
X36022Y15951D01*
X36022Y17043D01*
X36004Y17133D01*
X35953Y17208D01*
X35572Y17589D01*
X35572Y17589D01*
X34596Y18565D01*
X33574Y19587D01*
X31067Y19587D01*
X30978Y19570D01*
X30902Y19519D01*
X30671Y19288D01*
X30620Y19212D01*
X30603Y19123D01*
X30603Y16708D01*
X30590Y16695D01*
X30078Y16695D01*
X30078Y18796D01*
X30060Y18885D01*
X30010Y18961D01*
X29883Y19088D01*
X29807Y19138D01*
X29718Y19156D01*
X29667Y19156D01*
X29608Y19268D01*
X29626Y19295D01*
X29661Y19474D01*
X29626Y19652D01*
X29525Y19803D01*
X29374Y19904D01*
X29195Y19940D01*
X29017Y19904D01*
X28866Y19803D01*
X28765Y19652D01*
X28729Y19474D01*
X28765Y19295D01*
X28866Y19144D01*
X28924Y19105D01*
X28936Y18979D01*
X28918Y18961D01*
X28868Y18885D01*
X28850Y18796D01*
X28850Y16734D01*
X28812Y16695D01*
X28554Y16695D01*
X28554Y18161D01*
X28536Y18250D01*
X28486Y18326D01*
X28405Y18407D01*
X28359Y18453D01*
X28385Y18588D01*
X28421Y18643D01*
X28457Y18821D01*
X28421Y19000D01*
X28320Y19151D01*
X28169Y19252D01*
X27991Y19288D01*
X27812Y19252D01*
X27661Y19151D01*
X27560Y19000D01*
X27525Y18821D01*
X27560Y18643D01*
X27576Y18619D01*
X27530Y18459D01*
X27521Y18453D01*
X27394Y18326D01*
X27344Y18250D01*
X27326Y18161D01*
X27326Y16734D01*
X27288Y16695D01*
X26990Y16695D01*
X26949Y16795D01*
X26843Y16933D01*
X26723Y17025D01*
X26713Y17097D01*
X26723Y17169D01*
X26843Y17261D01*
X26949Y17399D01*
X27016Y17560D01*
X27038Y17732D01*
X27016Y17905D01*
X26949Y18065D01*
X26843Y18203D01*
X26723Y18295D01*
X26713Y18367D01*
X26723Y18439D01*
X26843Y18531D01*
X26949Y18669D01*
X27016Y18830D01*
X27038Y19002D01*
X27016Y19175D01*
X26949Y19335D01*
X26843Y19473D01*
X26723Y19565D01*
X26713Y19637D01*
X26723Y19709D01*
X26843Y19801D01*
X26949Y19939D01*
X27016Y20100D01*
X27016Y20104D01*
X33378Y20104D01*
X33906Y19576D01*
X33906Y19576D02*
G37*
G36*
X25779Y18708D02*
X25795Y18669D01*
X25901Y18531D01*
X26021Y18439D01*
X26031Y18367D01*
X26021Y18295D01*
X25901Y18203D01*
X25795Y18065D01*
X25729Y17905D01*
X25717Y17817D01*
X24981Y17081D01*
X24931Y17006D01*
X24913Y16916D01*
X24913Y9804D01*
X24931Y9714D01*
X24981Y9639D01*
X25692Y8928D01*
X25767Y8878D01*
X25856Y8860D01*
X27788Y8860D01*
X27877Y8878D01*
X27952Y8928D01*
X28740Y9716D01*
X29715Y9716D01*
X29814Y9589D01*
X29796Y9500D01*
X29831Y9321D01*
X29932Y9170D01*
X30084Y9069D01*
X30262Y9033D01*
X30440Y9069D01*
X30592Y9170D01*
X30693Y9321D01*
X30728Y9500D01*
X30710Y9589D01*
X30809Y9716D01*
X31115Y9716D01*
X31201Y9619D01*
X31182Y9525D01*
X31218Y9347D01*
X31319Y9195D01*
X31344Y9179D01*
X31344Y8433D01*
X31344Y8433D01*
X31329Y8312D01*
X31292Y8259D01*
X27323Y8259D01*
X27304Y8357D01*
X27203Y8508D01*
X27052Y8609D01*
X26873Y8645D01*
X26695Y8609D01*
X26544Y8508D01*
X26443Y8357D01*
X26407Y8179D01*
X26411Y8161D01*
X26294Y8098D01*
X24642Y9749D01*
X24642Y17734D01*
X25637Y18728D01*
X25779Y18708D01*
X25779Y18708D02*
G37*
G36*
X43783Y9967D02*
X43769Y9954D01*
X43713Y9870D01*
X43694Y9771D01*
X43694Y7104D01*
X43713Y7005D01*
X43769Y6921D01*
X44201Y6489D01*
X44285Y6433D01*
X44384Y6413D01*
X44943Y6413D01*
X45042Y6433D01*
X45126Y6489D01*
X45846Y7209D01*
X46936Y7209D01*
X47377Y6768D01*
X47377Y6009D01*
X47396Y5910D01*
X47452Y5826D01*
X48305Y4973D01*
X48389Y4917D01*
X48489Y4897D01*
X51003Y4897D01*
X51102Y4917D01*
X51186Y4973D01*
X51315Y5102D01*
X51371Y5186D01*
X51391Y5285D01*
X51391Y5920D01*
X51512Y6041D01*
X52557Y6041D01*
X52781Y5817D01*
X52781Y4778D01*
X52472Y4469D01*
X52260Y4306D01*
X52097Y4094D01*
X51995Y3847D01*
X51960Y3581D01*
X51995Y3316D01*
X52097Y3069D01*
X52260Y2857D01*
X52366Y2776D01*
X52322Y2649D01*
X51106Y2649D01*
X51063Y2776D01*
X51169Y2857D01*
X51332Y3069D01*
X51434Y3316D01*
X51469Y3581D01*
X51434Y3847D01*
X51332Y4094D01*
X51169Y4306D01*
X50957Y4469D01*
X50710Y4571D01*
X50444Y4606D01*
X50179Y4571D01*
X49932Y4469D01*
X49720Y4306D01*
X49557Y4094D01*
X49455Y3847D01*
X49420Y3581D01*
X49455Y3316D01*
X49557Y3069D01*
X49720Y2857D01*
X49826Y2776D01*
X49783Y2649D01*
X48566Y2649D01*
X48523Y2776D01*
X48629Y2857D01*
X48792Y3069D01*
X48894Y3316D01*
X48929Y3581D01*
X48894Y3847D01*
X48792Y4094D01*
X48629Y4306D01*
X48417Y4469D01*
X48170Y4571D01*
X47904Y4606D01*
X47639Y4571D01*
X47392Y4469D01*
X47180Y4306D01*
X47017Y4094D01*
X46915Y3847D01*
X46880Y3581D01*
X46915Y3316D01*
X47017Y3069D01*
X47180Y2857D01*
X47286Y2776D01*
X47243Y2649D01*
X46026Y2649D01*
X45983Y2776D01*
X46089Y2857D01*
X46252Y3069D01*
X46354Y3316D01*
X46389Y3581D01*
X46354Y3847D01*
X46252Y4094D01*
X46089Y4306D01*
X45877Y4469D01*
X45792Y4504D01*
X45753Y4658D01*
X45818Y4755D01*
X45857Y4953D01*
X45818Y5151D01*
X45712Y5310D01*
X45720Y5367D01*
X45745Y5446D01*
X45813Y5459D01*
X45947Y5549D01*
X46307Y5909D01*
X46420Y5931D01*
X46588Y6043D01*
X46700Y6211D01*
X46740Y6410D01*
X46700Y6608D01*
X46588Y6776D01*
X46420Y6888D01*
X46222Y6928D01*
X46023Y6888D01*
X45855Y6776D01*
X45743Y6608D01*
X45721Y6495D01*
X45482Y6256D01*
X43098Y6256D01*
X43080Y6274D01*
X43080Y7030D01*
X43144Y7126D01*
X43184Y7324D01*
X43144Y7522D01*
X43080Y7618D01*
X43080Y8585D01*
X43048Y8744D01*
X42959Y8878D01*
X42386Y9451D01*
X42386Y9810D01*
X42660Y10085D01*
X43734Y10085D01*
X43783Y9967D01*
X43783Y9967D02*
G37*
G36*
X44375Y4622D02*
X44375Y3847D01*
X44340Y3581D01*
X44375Y3316D01*
X44477Y3069D01*
X44640Y2857D01*
X44746Y2776D01*
X44702Y2649D01*
X43486Y2649D01*
X43443Y2776D01*
X43549Y2857D01*
X43712Y3069D01*
X43814Y3316D01*
X43849Y3581D01*
X43814Y3847D01*
X43712Y4094D01*
X43549Y4306D01*
X43337Y4469D01*
X43090Y4571D01*
X42824Y4606D01*
X42559Y4571D01*
X42312Y4469D01*
X42100Y4306D01*
X41937Y4094D01*
X41172Y4094D01*
X41009Y4306D01*
X40797Y4469D01*
X40550Y4571D01*
X40284Y4606D01*
X40019Y4571D01*
X39772Y4469D01*
X39560Y4306D01*
X39397Y4094D01*
X39295Y3847D01*
X39260Y3581D01*
X39260Y3581D01*
X39268Y2591D01*
X39070Y2392D01*
X37816Y2392D01*
X36863Y3345D01*
X36863Y3970D01*
X37867Y4974D01*
X44023Y4974D01*
X44375Y4622D01*
X44375Y4622D02*
G37*
G36*
X12113Y29435D02*
X11926Y29248D01*
X11875Y29172D01*
X11857Y29083D01*
X11857Y27960D01*
X10351Y26454D01*
X10301Y26379D01*
X10297Y26363D01*
X10186Y26288D01*
X10085Y26137D01*
X10050Y25959D01*
X10085Y25780D01*
X10186Y25629D01*
X10338Y25528D01*
X10516Y25493D01*
X10630Y25515D01*
X13577Y22568D01*
X13653Y22518D01*
X13742Y22500D01*
X17298Y22500D01*
X21967Y17831D01*
X21967Y8983D01*
X21984Y8894D01*
X22035Y8818D01*
X22756Y8097D01*
X22707Y7980D01*
X22115Y7980D01*
X21777Y8318D01*
X21701Y8369D01*
X21612Y8386D01*
X9474Y8386D01*
X9384Y8369D01*
X9309Y8318D01*
X7472Y6482D01*
X7358Y6504D01*
X7180Y6469D01*
X7029Y6368D01*
X6928Y6216D01*
X6892Y6038D01*
X6928Y5860D01*
X7029Y5708D01*
X7180Y5607D01*
X7358Y5572D01*
X7537Y5607D01*
X7688Y5708D01*
X7789Y5860D01*
X7824Y6038D01*
X7802Y6152D01*
X9570Y7920D01*
X10930Y7920D01*
X10979Y7803D01*
X8868Y5693D01*
X8818Y5617D01*
X8800Y5528D01*
X8800Y4606D01*
X8700Y4565D01*
X8562Y4459D01*
X8456Y4321D01*
X8390Y4160D01*
X8367Y3988D01*
X8390Y3815D01*
X8456Y3655D01*
X8562Y3517D01*
X8700Y3411D01*
X8861Y3344D01*
X8908Y3338D01*
X9033Y3322D01*
X9033Y3322D01*
X9033Y3322D01*
X11573Y3322D01*
X11573Y3322D01*
X11745Y3344D01*
X11906Y3411D01*
X12044Y3517D01*
X12150Y3655D01*
X12216Y3815D01*
X12239Y3988D01*
X12216Y4160D01*
X12150Y4321D01*
X12044Y4459D01*
X11906Y4565D01*
X11745Y4631D01*
X11573Y4654D01*
X11282Y4654D01*
X11282Y5847D01*
X12111Y6676D01*
X21143Y6676D01*
X21532Y6287D01*
X21608Y6236D01*
X21697Y6219D01*
X23373Y6219D01*
X23815Y5776D01*
X23815Y5443D01*
X20638Y5443D01*
X20624Y5512D01*
X20523Y5664D01*
X20371Y5765D01*
X20193Y5800D01*
X20015Y5765D01*
X19863Y5664D01*
X19762Y5512D01*
X19727Y5334D01*
X19762Y5156D01*
X19863Y5004D01*
X20015Y4903D01*
X20135Y4879D01*
X20191Y4824D01*
X20191Y4824D01*
X20308Y4745D01*
X20447Y4717D01*
X23290Y4717D01*
X23815Y4192D01*
X23815Y2569D01*
X24771Y1613D01*
X24929Y1492D01*
X25112Y1416D01*
X25309Y1390D01*
X25506Y1416D01*
X25689Y1492D01*
X25847Y1613D01*
X25968Y1771D01*
X26044Y1954D01*
X26070Y2151D01*
X26070Y2374D01*
X26342Y2647D01*
X28086Y2647D01*
X28384Y2348D01*
X28358Y2151D01*
X28384Y1954D01*
X28460Y1771D01*
X28581Y1613D01*
X28739Y1492D01*
X28922Y1416D01*
X29119Y1390D01*
X29316Y1416D01*
X29499Y1492D01*
X29657Y1613D01*
X29778Y1771D01*
X29854Y1954D01*
X29880Y2151D01*
X29879Y2422D01*
X30122Y2665D01*
X30389Y2660D01*
X30389Y2660D01*
X30506Y2676D01*
X30586Y2686D01*
X30769Y2762D01*
X30927Y2883D01*
X30980Y2953D01*
X31064Y3048D01*
X31064Y3048D01*
X32487Y4470D01*
X32487Y5486D01*
X32614Y5613D01*
X34316Y5613D01*
X35657Y4272D01*
X35657Y2591D01*
X35675Y2502D01*
X35725Y2426D01*
X36681Y1470D01*
X36757Y1420D01*
X36846Y1402D01*
X51629Y1402D01*
X51694Y1305D01*
X51845Y1204D01*
X52023Y1169D01*
X52202Y1204D01*
X52353Y1305D01*
X52417Y1402D01*
X54176Y1402D01*
X54240Y1305D01*
X54392Y1204D01*
X54570Y1169D01*
X54748Y1204D01*
X54900Y1305D01*
X55518Y1923D01*
X59314Y1923D01*
X59582Y1655D01*
X59581Y1651D01*
X59620Y1453D01*
X59733Y1285D01*
X59901Y1172D01*
X60099Y1133D01*
X60297Y1172D01*
X60465Y1285D01*
X60578Y1453D01*
X60617Y1651D01*
X60578Y1849D01*
X60465Y2017D01*
X60297Y2130D01*
X60099Y2169D01*
X60095Y2168D01*
X59720Y2542D01*
X59603Y2621D01*
X59464Y2649D01*
X59464Y2649D01*
X56991Y2649D01*
X56794Y2845D01*
X56794Y3708D01*
X56891Y3805D01*
X59303Y3805D01*
X61463Y1646D01*
X61547Y1590D01*
X61646Y1570D01*
X68428Y1570D01*
X68527Y1590D01*
X68611Y1646D01*
X71906Y4941D01*
X71962Y5025D01*
X71981Y5124D01*
X71981Y5519D01*
X71962Y5618D01*
X71906Y5702D01*
X71411Y6197D01*
X71390Y6211D01*
X71372Y6229D01*
X71348Y6239D01*
X71327Y6253D01*
X71302Y6258D01*
X71278Y6268D01*
X71150Y6293D01*
X71067Y6348D01*
X71012Y6431D01*
X70987Y6559D01*
X70977Y6583D01*
X70972Y6608D01*
X70958Y6629D01*
X70948Y6652D01*
X70947Y6653D01*
X70947Y7843D01*
X71049Y7945D01*
X71450Y7945D01*
X71549Y7965D01*
X71633Y8021D01*
X71989Y8377D01*
X72045Y8461D01*
X72065Y8560D01*
X72065Y8814D01*
X72045Y8913D01*
X71989Y8997D01*
X71659Y9327D01*
X71575Y9383D01*
X71476Y9403D01*
X71151Y9403D01*
X70947Y9607D01*
X70947Y10078D01*
X71100Y10231D01*
X71360Y10231D01*
X71459Y10251D01*
X71543Y10307D01*
X71983Y10747D01*
X72695Y10747D01*
X73417Y10025D01*
X73857Y10025D01*
X73882Y10020D01*
X76300Y10020D01*
X76555Y9765D01*
X76555Y1717D01*
X76555Y1592D01*
X76506Y1346D01*
X76410Y1115D01*
X76271Y907D01*
X76094Y730D01*
X75886Y591D01*
X75654Y495D01*
X75409Y446D01*
X6717Y446D01*
X6717Y7393D01*
X6720Y7404D01*
X6720Y23431D01*
X6717Y23442D01*
X6717Y29553D01*
X12065Y29553D01*
X12113Y29435D01*
X12113Y29435D02*
G37*
G36*
X261671Y-110862D02*
X261761Y-110877D01*
X261865Y-110921D01*
X261954Y-110981D01*
X262043Y-111085D01*
X262103Y-111204D01*
X262133Y-111383D01*
X262133Y-111412D01*
X262118Y-111472D01*
X262103Y-111561D01*
X262058Y-111665D01*
X261999Y-111770D01*
X261895Y-111859D01*
X261761Y-111933D01*
X261582Y-111963D01*
X261537Y-111963D01*
X261493Y-111948D01*
X261448Y-111948D01*
X261299Y-111889D01*
X261240Y-111859D01*
X261165Y-111799D01*
X261165Y-111784D01*
X261136Y-111770D01*
X261076Y-111680D01*
X261017Y-111546D01*
X261002Y-111472D01*
X260987Y-111383D01*
X260987Y-111368D01*
X260987Y-111338D01*
X261017Y-111249D01*
X261076Y-111130D01*
X261165Y-111011D01*
X261180Y-110996D01*
X261195Y-110981D01*
X261284Y-110921D01*
X261418Y-110877D01*
X261493Y-110847D01*
X261612Y-110847D01*
X261671Y-110862D01*
X261671Y-110862D02*
G37*
G36*
X258055Y-110356D02*
X258174Y-110356D01*
X258457Y-110400D01*
X258769Y-110445D01*
X259127Y-110520D01*
X259484Y-110624D01*
X259826Y-110772D01*
X262996Y-115803D01*
X262996Y-115817D01*
X262996Y-115847D01*
X262981Y-115892D01*
X262981Y-115966D01*
X262951Y-116130D01*
X262907Y-116353D01*
X262907Y-116368D01*
X262892Y-116398D01*
X262877Y-116457D01*
X262862Y-116547D01*
X262847Y-116636D01*
X262817Y-116740D01*
X262743Y-116978D01*
X259990Y-112662D01*
X259975Y-112648D01*
X259960Y-112618D01*
X259915Y-112558D01*
X259856Y-112499D01*
X259781Y-112439D01*
X259692Y-112380D01*
X259603Y-112350D01*
X259499Y-112335D01*
X259454Y-112335D01*
X259409Y-112350D01*
X259350Y-112380D01*
X259275Y-112410D01*
X259201Y-112469D01*
X259127Y-112543D01*
X259037Y-112648D01*
X258115Y-113913D01*
X261359Y-119002D01*
X261344Y-119017D01*
X261284Y-119062D01*
X261195Y-119136D01*
X261076Y-119211D01*
X260927Y-119330D01*
X260749Y-119434D01*
X260540Y-119568D01*
X260317Y-119687D01*
X260049Y-119821D01*
X259766Y-119955D01*
X259454Y-120059D01*
X259127Y-120163D01*
X258769Y-120252D01*
X258397Y-120327D01*
X258010Y-120371D01*
X257609Y-120386D01*
X257504Y-120386D01*
X257400Y-120371D01*
X257237Y-120356D01*
X257043Y-120342D01*
X256820Y-120297D01*
X256582Y-120252D01*
X256299Y-120178D01*
X256016Y-120089D01*
X255704Y-119984D01*
X255391Y-119850D01*
X255064Y-119687D01*
X254736Y-119493D01*
X254409Y-119285D01*
X254096Y-119032D01*
X253784Y-118734D01*
X255153Y-116844D01*
X255168Y-116829D01*
X255183Y-116785D01*
X255213Y-116695D01*
X255227Y-116621D01*
X255242Y-116547D01*
X255242Y-116517D01*
X255227Y-116442D01*
X255183Y-116309D01*
X255094Y-116145D01*
X254082Y-114567D01*
X252579Y-116666D01*
X252579Y-116651D01*
X252579Y-116636D01*
X252549Y-116547D01*
X252519Y-116428D01*
X252489Y-116249D01*
X252459Y-116041D01*
X252430Y-115817D01*
X252415Y-115550D01*
X252400Y-115282D01*
X252400Y-115252D01*
X252400Y-115192D01*
X252415Y-115088D01*
X252430Y-114954D01*
X252445Y-114776D01*
X252474Y-114582D01*
X252519Y-114359D01*
X252579Y-114121D01*
X252653Y-113868D01*
X252757Y-113585D01*
X252876Y-113302D01*
X253010Y-113020D01*
X253174Y-112737D01*
X253367Y-112439D01*
X253590Y-112157D01*
X253843Y-111889D01*
X253858Y-111874D01*
X253918Y-111814D01*
X254007Y-111740D01*
X254126Y-111651D01*
X254275Y-111531D01*
X254469Y-111398D01*
X254677Y-111264D01*
X254915Y-111115D01*
X255183Y-110966D01*
X255480Y-110832D01*
X255808Y-110698D01*
X256150Y-110579D01*
X256522Y-110490D01*
X256909Y-110400D01*
X257326Y-110356D01*
X257757Y-110341D01*
X257951Y-110341D01*
X258055Y-110356D01*
X258055Y-110356D02*
G37*
G36*
X263308Y-121815D02*
X263383Y-121815D01*
X263427Y-121830D01*
X263442Y-121830D01*
X263472Y-121845D01*
X263561Y-121889D01*
X263621Y-121934D01*
X263665Y-121993D01*
X263710Y-122083D01*
X263740Y-122172D01*
X263740Y-122187D01*
X263740Y-122202D01*
X263755Y-122246D01*
X263755Y-122321D01*
X263755Y-122395D01*
X263770Y-122485D01*
X263770Y-122604D01*
X263770Y-122738D01*
X261895Y-122693D01*
X261880Y-122693D01*
X261835Y-122708D01*
X261761Y-122723D01*
X261686Y-122767D01*
X261597Y-122857D01*
X261537Y-122976D01*
X261478Y-123139D01*
X261463Y-123258D01*
X261463Y-123377D01*
X261463Y-123764D01*
X261463Y-123794D01*
X261463Y-123869D01*
X261493Y-123988D01*
X261523Y-124107D01*
X261567Y-124226D01*
X261642Y-124345D01*
X261746Y-124419D01*
X261805Y-124434D01*
X261880Y-124449D01*
X263799Y-124449D01*
X263799Y-124479D01*
X263799Y-124538D01*
X263799Y-124628D01*
X263785Y-124747D01*
X263770Y-124851D01*
X263755Y-124970D01*
X263725Y-125059D01*
X263695Y-125133D01*
X263695Y-125148D01*
X263665Y-125163D01*
X263621Y-125193D01*
X263561Y-125223D01*
X263487Y-125267D01*
X263368Y-125297D01*
X263234Y-125312D01*
X263055Y-125327D01*
X261656Y-125327D01*
X261537Y-125312D01*
X261403Y-125282D01*
X261255Y-125238D01*
X261106Y-125163D01*
X260972Y-125074D01*
X260868Y-124955D01*
X260868Y-124940D01*
X260838Y-124895D01*
X260823Y-124836D01*
X260793Y-124747D01*
X260764Y-124613D01*
X260734Y-124464D01*
X260719Y-124300D01*
X260704Y-124092D01*
X260704Y-123065D01*
X260704Y-123050D01*
X260704Y-123020D01*
X260704Y-122976D01*
X260704Y-122916D01*
X260734Y-122767D01*
X260764Y-122589D01*
X260808Y-122395D01*
X260883Y-122217D01*
X260987Y-122053D01*
X261121Y-121934D01*
X261136Y-121934D01*
X261165Y-121919D01*
X261210Y-121889D01*
X261284Y-121859D01*
X261374Y-121845D01*
X261493Y-121815D01*
X261612Y-121800D01*
X263130Y-121800D01*
X263308Y-121815D01*
X263308Y-121815D02*
G37*
G36*
X267237Y-125297D02*
X266493Y-125297D01*
X266493Y-123988D01*
X264945Y-123988D01*
X264945Y-125297D01*
X264261Y-125297D01*
X264261Y-121830D01*
X264945Y-121830D01*
X264945Y-123065D01*
X266493Y-123065D01*
X266493Y-121830D01*
X267237Y-121830D01*
X267237Y-125297D01*
X267237Y-125297D02*
G37*
G36*
X247534Y-120714D02*
X247593Y-120728D01*
X247682Y-120758D01*
X247757Y-120833D01*
X247831Y-120922D01*
X247891Y-121056D01*
X247921Y-121234D01*
X248382Y-125297D01*
X247519Y-125297D01*
X247281Y-122380D01*
X247266Y-122380D01*
X246373Y-124717D01*
X246373Y-124732D01*
X246343Y-124776D01*
X246298Y-124836D01*
X246254Y-124910D01*
X246179Y-124985D01*
X246090Y-125044D01*
X245971Y-125089D01*
X245852Y-125104D01*
X245792Y-125104D01*
X245718Y-125089D01*
X245644Y-125059D01*
X245554Y-125014D01*
X245465Y-124940D01*
X245376Y-124851D01*
X245316Y-124717D01*
X244438Y-122425D01*
X244423Y-122425D01*
X244170Y-125297D01*
X243322Y-125297D01*
X243768Y-121190D01*
X243768Y-121175D01*
X243783Y-121115D01*
X243813Y-121041D01*
X243843Y-120937D01*
X243902Y-120848D01*
X243992Y-120773D01*
X244096Y-120714D01*
X244230Y-120699D01*
X244304Y-120699D01*
X244379Y-120728D01*
X244483Y-120758D01*
X244572Y-120818D01*
X244676Y-120892D01*
X244780Y-121011D01*
X244855Y-121160D01*
X245837Y-123675D01*
X245852Y-123675D01*
X246849Y-121160D01*
X246864Y-121145D01*
X246879Y-121086D01*
X246923Y-121011D01*
X246998Y-120922D01*
X247087Y-120848D01*
X247191Y-120773D01*
X247325Y-120714D01*
X247474Y-120699D01*
X247489Y-120699D01*
X247534Y-120714D01*
X247534Y-120714D02*
G37*
G36*
X271359Y-121845D02*
X271464Y-121859D01*
X271598Y-121904D01*
X271746Y-121979D01*
X271865Y-122083D01*
X271984Y-122232D01*
X272059Y-122425D01*
X272059Y-122440D01*
X272074Y-122470D01*
X272074Y-122514D01*
X272089Y-122589D01*
X272104Y-122678D01*
X272104Y-122782D01*
X272118Y-122901D01*
X272118Y-123035D01*
X272118Y-123303D01*
X272118Y-123333D01*
X272118Y-123407D01*
X272104Y-123511D01*
X272089Y-123645D01*
X272029Y-123943D01*
X271984Y-124077D01*
X271910Y-124196D01*
X271910Y-124211D01*
X271880Y-124226D01*
X271791Y-124300D01*
X271642Y-124389D01*
X271553Y-124404D01*
X271449Y-124419D01*
X269722Y-124419D01*
X269722Y-125297D01*
X269008Y-125297D01*
X269008Y-121830D01*
X271285Y-121830D01*
X271359Y-121845D01*
X271359Y-121845D02*
G37*
G36*
X268547Y-125297D02*
X267743Y-125297D01*
X267743Y-121830D01*
X268547Y-121830D01*
X268547Y-125297D01*
X268547Y-125297D02*
G37*
G36*
X256046Y-121845D02*
X256165Y-121889D01*
X256284Y-121964D01*
X256344Y-122008D01*
X256403Y-122083D01*
X256463Y-122172D01*
X256522Y-122261D01*
X256567Y-122395D01*
X256597Y-122529D01*
X256626Y-122693D01*
X256626Y-122871D01*
X256626Y-123080D01*
X256626Y-123095D01*
X256626Y-123110D01*
X256626Y-123199D01*
X256612Y-123318D01*
X256582Y-123467D01*
X256537Y-123616D01*
X256463Y-123749D01*
X256373Y-123869D01*
X256239Y-123943D01*
X256239Y-123958D01*
X256254Y-123958D01*
X256299Y-123988D01*
X256359Y-124032D01*
X256433Y-124092D01*
X256507Y-124181D01*
X256567Y-124315D01*
X256612Y-124494D01*
X256626Y-124717D01*
X256626Y-125297D01*
X255897Y-125297D01*
X255897Y-124881D01*
X255897Y-124866D01*
X255897Y-124836D01*
X255897Y-124791D01*
X255897Y-124732D01*
X255882Y-124613D01*
X255882Y-124553D01*
X255867Y-124523D01*
X255853Y-124508D01*
X255808Y-124449D01*
X255733Y-124404D01*
X255614Y-124389D01*
X254320Y-124389D01*
X254320Y-125297D01*
X253590Y-125297D01*
X253590Y-121830D01*
X255972Y-121830D01*
X256046Y-121845D01*
X256046Y-121845D02*
G37*
G36*
X249632Y-125297D02*
X248813Y-125297D01*
X248813Y-121830D01*
X249632Y-121830D01*
X249632Y-125297D01*
X249632Y-125297D02*
G37*
G36*
X259469Y-121815D02*
X259603Y-121845D01*
X259737Y-121874D01*
X259871Y-121934D01*
X259990Y-122008D01*
X260079Y-122112D01*
X260094Y-122127D01*
X260109Y-122172D01*
X260153Y-122246D01*
X260198Y-122351D01*
X260228Y-122485D01*
X260272Y-122633D01*
X260287Y-122827D01*
X260302Y-123050D01*
X260302Y-124077D01*
X260302Y-124092D01*
X260302Y-124122D01*
X260302Y-124166D01*
X260302Y-124226D01*
X260272Y-124389D01*
X260243Y-124583D01*
X260183Y-124791D01*
X260094Y-124985D01*
X259960Y-125148D01*
X259885Y-125208D01*
X259796Y-125253D01*
X259781Y-125253D01*
X259766Y-125267D01*
X259722Y-125282D01*
X259662Y-125282D01*
X259588Y-125297D01*
X259499Y-125312D01*
X259275Y-125327D01*
X257996Y-125327D01*
X257891Y-125312D01*
X257772Y-125282D01*
X257623Y-125238D01*
X257490Y-125178D01*
X257356Y-125104D01*
X257251Y-124985D01*
X257237Y-124970D01*
X257222Y-124925D01*
X257192Y-124866D01*
X257162Y-124761D01*
X257117Y-124642D01*
X257088Y-124479D01*
X257073Y-124300D01*
X257058Y-124077D01*
X257058Y-123050D01*
X257058Y-123035D01*
X257058Y-123005D01*
X257058Y-122946D01*
X257073Y-122886D01*
X257088Y-122708D01*
X257132Y-122514D01*
X257207Y-122291D01*
X257311Y-122098D01*
X257370Y-122023D01*
X257460Y-121949D01*
X257549Y-121889D01*
X257653Y-121845D01*
X257668Y-121845D01*
X257683Y-121830D01*
X257772Y-121815D01*
X257921Y-121800D01*
X259380Y-121800D01*
X259469Y-121815D01*
X259469Y-121815D02*
G37*
G36*
X252400Y-121815D02*
X252579Y-121815D01*
X252727Y-121830D01*
X252861Y-121845D01*
X252906Y-121859D01*
X252936Y-121874D01*
X252951Y-121874D01*
X252965Y-121904D01*
X252995Y-121949D01*
X253040Y-122023D01*
X253070Y-122127D01*
X253099Y-122276D01*
X253114Y-122455D01*
X253129Y-122693D01*
X251224Y-122693D01*
X251150Y-122708D01*
X251046Y-122752D01*
X250942Y-122827D01*
X250927Y-122857D01*
X250912Y-122886D01*
X250882Y-122946D01*
X250867Y-123020D01*
X250837Y-123110D01*
X250822Y-123229D01*
X250822Y-123377D01*
X250822Y-123764D01*
X250822Y-123779D01*
X250822Y-123824D01*
X250822Y-123898D01*
X250837Y-123973D01*
X250852Y-124151D01*
X250867Y-124226D01*
X250882Y-124285D01*
X250897Y-124315D01*
X250956Y-124360D01*
X251075Y-124419D01*
X251150Y-124434D01*
X251239Y-124449D01*
X253174Y-124449D01*
X253174Y-124464D01*
X253174Y-124523D01*
X253174Y-124613D01*
X253159Y-124717D01*
X253129Y-124940D01*
X253099Y-125029D01*
X253070Y-125104D01*
X253070Y-125119D01*
X253040Y-125133D01*
X252995Y-125178D01*
X252936Y-125208D01*
X252861Y-125253D01*
X252742Y-125297D01*
X252608Y-125312D01*
X252430Y-125327D01*
X251031Y-125327D01*
X250927Y-125312D01*
X250808Y-125297D01*
X250659Y-125253D01*
X250525Y-125208D01*
X250406Y-125133D01*
X250302Y-125044D01*
X250287Y-125029D01*
X250272Y-124985D01*
X250227Y-124925D01*
X250183Y-124821D01*
X250138Y-124687D01*
X250108Y-124523D01*
X250078Y-124315D01*
X250063Y-124077D01*
X250063Y-123050D01*
X250063Y-123035D01*
X250063Y-123005D01*
X250063Y-122946D01*
X250078Y-122871D01*
X250108Y-122693D01*
X250153Y-122470D01*
X250242Y-122261D01*
X250361Y-122053D01*
X250450Y-121979D01*
X250540Y-121904D01*
X250659Y-121845D01*
X250778Y-121815D01*
X250808Y-121815D01*
X250867Y-121800D01*
X252236Y-121800D01*
X252400Y-121815D01*
X252400Y-121815D02*
G37*
%LPC*%
G36*
X68332Y29394D02*
X60847Y29394D01*
X60763Y29377D01*
X60692Y29329D01*
X60659Y29296D01*
X60537Y29321D01*
X60359Y29285D01*
X60208Y29184D01*
X60107Y29033D01*
X60071Y28854D01*
X60107Y28676D01*
X60208Y28525D01*
X60359Y28424D01*
X60537Y28388D01*
X60716Y28424D01*
X60867Y28525D01*
X60968Y28676D01*
X61004Y28854D01*
X61003Y28855D01*
X61084Y28953D01*
X62244Y28953D01*
X62348Y28826D01*
X62334Y28754D01*
X62369Y28576D01*
X62470Y28425D01*
X62621Y28324D01*
X62800Y28288D01*
X62978Y28324D01*
X63130Y28425D01*
X63231Y28576D01*
X63247Y28656D01*
X67620Y28656D01*
X67636Y28576D01*
X67737Y28425D01*
X67888Y28324D01*
X68067Y28288D01*
X68245Y28324D01*
X68396Y28425D01*
X68416Y28454D01*
X68498Y28398D01*
X68676Y28363D01*
X68855Y28398D01*
X69006Y28500D01*
X69107Y28651D01*
X69142Y28829D01*
X69107Y29008D01*
X69006Y29159D01*
X68855Y29260D01*
X68676Y29295D01*
X68547Y29270D01*
X68488Y29329D01*
X68416Y29377D01*
X68332Y29394D01*
X68332Y29394D02*
G37*
G36*
X72284Y28933D02*
X72105Y28897D01*
X71954Y28796D01*
X71853Y28645D01*
X71818Y28467D01*
X71853Y28288D01*
X71954Y28137D01*
X72002Y28105D01*
X72002Y27978D01*
X71954Y27946D01*
X71853Y27795D01*
X71818Y27617D01*
X71853Y27438D01*
X71954Y27287D01*
X72105Y27186D01*
X72284Y27150D01*
X72462Y27186D01*
X72613Y27287D01*
X72714Y27438D01*
X72750Y27617D01*
X72714Y27795D01*
X72613Y27946D01*
X72566Y27978D01*
X72566Y28105D01*
X72613Y28137D01*
X72714Y28288D01*
X72750Y28467D01*
X72714Y28645D01*
X72613Y28796D01*
X72462Y28897D01*
X72284Y28933D01*
X72284Y28933D02*
G37*
G36*
X20146Y29349D02*
X19042Y29349D01*
X18490Y28797D01*
X18490Y27693D01*
X19042Y27141D01*
X20146Y27141D01*
X20698Y27693D01*
X20698Y28797D01*
X20146Y29349D01*
X20146Y29349D02*
G37*
G36*
X17054Y29358D02*
X16766Y29320D01*
X16497Y29209D01*
X16267Y29032D01*
X16090Y28801D01*
X15978Y28533D01*
X15940Y28245D01*
X15978Y27956D01*
X16090Y27688D01*
X16267Y27457D01*
X16497Y27280D01*
X16766Y27169D01*
X17054Y27131D01*
X17342Y27169D01*
X17611Y27280D01*
X17841Y27457D01*
X18018Y27688D01*
X18130Y27956D01*
X18168Y28245D01*
X18130Y28533D01*
X18018Y28801D01*
X17841Y29032D01*
X17611Y29209D01*
X17342Y29320D01*
X17054Y29358D01*
X17054Y29358D02*
G37*
G36*
X29210Y26628D02*
X29032Y26593D01*
X28880Y26492D01*
X28779Y26340D01*
X28744Y26162D01*
X28779Y25984D01*
X28880Y25832D01*
X29032Y25731D01*
X29210Y25696D01*
X29388Y25731D01*
X29540Y25832D01*
X29641Y25984D01*
X29676Y26162D01*
X29641Y26340D01*
X29540Y26492D01*
X29388Y26593D01*
X29210Y26628D01*
X29210Y26628D02*
G37*
G36*
X56540Y27457D02*
X54508Y27457D01*
X54508Y25425D01*
X56540Y25425D01*
X56540Y27457D01*
X56540Y27457D02*
G37*
G36*
X30044Y24516D02*
X29865Y24481D01*
X29714Y24380D01*
X29613Y24229D01*
X29578Y24050D01*
X29613Y23872D01*
X29714Y23721D01*
X29865Y23620D01*
X30044Y23584D01*
X30222Y23620D01*
X30373Y23721D01*
X30474Y23872D01*
X30510Y24050D01*
X30474Y24229D01*
X30373Y24380D01*
X30222Y24481D01*
X30044Y24516D01*
X30044Y24516D02*
G37*
G36*
X23875Y24219D02*
X23697Y24184D01*
X23546Y24083D01*
X23444Y23931D01*
X23409Y23753D01*
X23444Y23575D01*
X23546Y23423D01*
X23697Y23322D01*
X23875Y23287D01*
X24054Y23322D01*
X24205Y23423D01*
X24306Y23575D01*
X24341Y23753D01*
X24306Y23931D01*
X24205Y24083D01*
X24054Y24184D01*
X23875Y24219D01*
X23875Y24219D02*
G37*
G36*
X69757Y23348D02*
X69585Y23325D01*
X69424Y23259D01*
X69286Y23153D01*
X69180Y23015D01*
X69114Y22854D01*
X69091Y22682D01*
X69114Y22510D01*
X69180Y22349D01*
X69286Y22211D01*
X69424Y22105D01*
X69585Y22039D01*
X69757Y22016D01*
X69930Y22039D01*
X70090Y22105D01*
X70228Y22211D01*
X70334Y22349D01*
X70401Y22510D01*
X70423Y22682D01*
X70401Y22854D01*
X70334Y23015D01*
X70228Y23153D01*
X70090Y23259D01*
X69930Y23325D01*
X69757Y23348D01*
X69757Y23348D02*
G37*
G36*
X38684Y22718D02*
X38486Y22678D01*
X38318Y22566D01*
X38206Y22398D01*
X38166Y22200D01*
X38206Y22001D01*
X38318Y21833D01*
X38486Y21721D01*
X38684Y21682D01*
X38882Y21721D01*
X39050Y21833D01*
X39163Y22001D01*
X39202Y22200D01*
X39163Y22398D01*
X39050Y22566D01*
X38882Y22678D01*
X38684Y22718D01*
X38684Y22718D02*
G37*
G36*
X58217Y21775D02*
X58068Y21746D01*
X57942Y21661D01*
X57858Y21535D01*
X57845Y21470D01*
X57845Y21469D01*
X57712Y21378D01*
X57707Y21378D01*
X57669Y21385D01*
X57540Y21360D01*
X57431Y21287D01*
X57358Y21177D01*
X57332Y21049D01*
X57358Y20920D01*
X57431Y20811D01*
X57540Y20738D01*
X57669Y20712D01*
X57797Y20738D01*
X57907Y20811D01*
X57980Y20920D01*
X57982Y20933D01*
X58068Y21028D01*
X58217Y20998D01*
X58365Y21028D01*
X58491Y21112D01*
X58576Y21238D01*
X58605Y21387D01*
X58576Y21535D01*
X58491Y21661D01*
X58365Y21746D01*
X58217Y21775D01*
X58217Y21775D02*
G37*
G36*
X67535Y23367D02*
X65427Y23367D01*
X65427Y21259D01*
X67535Y21259D01*
X67535Y23367D01*
X67535Y23367D02*
G37*
G36*
X45781Y21870D02*
X45603Y21835D01*
X45452Y21734D01*
X45351Y21583D01*
X45315Y21404D01*
X45351Y21226D01*
X45452Y21075D01*
X45603Y20974D01*
X45781Y20938D01*
X45960Y20974D01*
X46111Y21075D01*
X46212Y21226D01*
X46248Y21404D01*
X46212Y21583D01*
X46111Y21734D01*
X45960Y21835D01*
X45781Y21870D01*
X45781Y21870D02*
G37*
G36*
X53904Y20425D02*
X53775Y20399D01*
X53666Y20326D01*
X53593Y20217D01*
X53567Y20088D01*
X53593Y19959D01*
X53666Y19850D01*
X53775Y19777D01*
X53904Y19751D01*
X54033Y19777D01*
X54142Y19850D01*
X54215Y19959D01*
X54241Y20088D01*
X54215Y20217D01*
X54142Y20326D01*
X54033Y20399D01*
X53904Y20425D01*
X53904Y20425D02*
G37*
G36*
X53104Y20425D02*
X52975Y20399D01*
X52866Y20326D01*
X52793Y20217D01*
X52767Y20088D01*
X52793Y19959D01*
X52866Y19850D01*
X52975Y19777D01*
X53104Y19751D01*
X53233Y19777D01*
X53342Y19850D01*
X53415Y19959D01*
X53441Y20088D01*
X53415Y20217D01*
X53342Y20326D01*
X53233Y20399D01*
X53104Y20425D01*
X53104Y20425D02*
G37*
G36*
X39573Y20431D02*
X39395Y20395D01*
X39244Y20294D01*
X39143Y20143D01*
X39107Y19964D01*
X39143Y19786D01*
X39244Y19635D01*
X39395Y19534D01*
X39573Y19498D01*
X39752Y19534D01*
X39903Y19635D01*
X40004Y19786D01*
X40039Y19964D01*
X40004Y20143D01*
X39903Y20294D01*
X39752Y20395D01*
X39573Y20431D01*
X39573Y20431D02*
G37*
G36*
X53904Y19625D02*
X53775Y19599D01*
X53666Y19526D01*
X53593Y19417D01*
X53567Y19288D01*
X53593Y19159D01*
X53666Y19050D01*
X53775Y18977D01*
X53904Y18951D01*
X54033Y18977D01*
X54142Y19050D01*
X54215Y19159D01*
X54241Y19288D01*
X54215Y19417D01*
X54142Y19526D01*
X54033Y19599D01*
X53904Y19625D01*
X53904Y19625D02*
G37*
G36*
X64568Y26724D02*
X63722Y26724D01*
X63623Y26704D01*
X63539Y26648D01*
X61330Y24439D01*
X61274Y24355D01*
X61255Y24256D01*
X61255Y20951D01*
X61274Y20852D01*
X61330Y20768D01*
X62196Y19902D01*
X62280Y19846D01*
X63154Y18972D01*
X63159Y18945D01*
X63271Y18777D01*
X63439Y18665D01*
X63466Y18660D01*
X63500Y18626D01*
X63852Y18626D01*
X65125Y19898D01*
X65130Y19902D01*
X65294Y20066D01*
X65351Y20150D01*
X65370Y20249D01*
X65370Y20710D01*
X65351Y20809D01*
X65294Y20893D01*
X65294Y20893D01*
X64986Y21202D01*
X64986Y21202D01*
X64986Y21202D01*
X64902Y21258D01*
X64835Y21271D01*
X64802Y21277D01*
X63312Y21277D01*
X63046Y21544D01*
X63045Y22786D01*
X64942Y24682D01*
X64942Y24682D01*
X64970Y24724D01*
X64998Y24767D01*
X65018Y24866D01*
X65018Y26275D01*
X64998Y26374D01*
X64942Y26458D01*
X64752Y26648D01*
X64668Y26704D01*
X64568Y26724D01*
X64568Y26724D02*
G37*
G36*
X69575Y18902D02*
X69397Y18866D01*
X69246Y18765D01*
X69145Y18614D01*
X69109Y18436D01*
X69142Y18272D01*
X69012Y18186D01*
X68911Y18035D01*
X68876Y17856D01*
X68911Y17678D01*
X69012Y17527D01*
X69164Y17426D01*
X69342Y17390D01*
X69520Y17426D01*
X69672Y17527D01*
X69773Y17678D01*
X69808Y17856D01*
X69776Y18019D01*
X69905Y18106D01*
X70006Y18257D01*
X70042Y18436D01*
X70006Y18614D01*
X69905Y18765D01*
X69754Y18866D01*
X69575Y18902D01*
X69575Y18902D02*
G37*
%LPD*%
G36*
X64759Y26275D02*
X64759Y24866D01*
X62787Y22894D01*
X62787Y21437D01*
X63205Y21018D01*
X64802Y21018D01*
X65111Y20710D01*
X65111Y20249D01*
X64947Y20085D01*
X62379Y20085D01*
X61514Y20951D01*
X61514Y24256D01*
X63722Y26465D01*
X64568Y26465D01*
X64759Y26275D01*
X64759Y26275D02*
G37*
%LPC*%
G36*
X51354Y23435D02*
X51176Y23400D01*
X51025Y23299D01*
X50924Y23147D01*
X50888Y22969D01*
X50924Y22791D01*
X51025Y22639D01*
X51176Y22538D01*
X51354Y22503D01*
X51533Y22538D01*
X51684Y22639D01*
X51785Y22791D01*
X51821Y22969D01*
X51785Y23147D01*
X51684Y23299D01*
X51533Y23400D01*
X51354Y23435D01*
X51354Y23435D02*
G37*
G36*
X48946Y22464D02*
X48748Y22424D01*
X48580Y22312D01*
X48467Y22144D01*
X48428Y21946D01*
X48467Y21747D01*
X48580Y21579D01*
X48748Y21467D01*
X48946Y21428D01*
X49144Y21467D01*
X49312Y21579D01*
X49424Y21747D01*
X49464Y21946D01*
X49424Y22144D01*
X49312Y22312D01*
X49144Y22424D01*
X48946Y22464D01*
X48946Y22464D02*
G37*
G36*
X72246Y22285D02*
X72048Y22246D01*
X71880Y22134D01*
X71767Y21966D01*
X71728Y21768D01*
X71767Y21569D01*
X71880Y21401D01*
X72048Y21289D01*
X72246Y21250D01*
X72444Y21289D01*
X72612Y21401D01*
X72724Y21569D01*
X72764Y21768D01*
X72724Y21966D01*
X72612Y22134D01*
X72444Y22246D01*
X72246Y22285D01*
X72246Y22285D02*
G37*
G36*
X74268Y22196D02*
X74070Y22157D01*
X73901Y22045D01*
X73789Y21877D01*
X73750Y21678D01*
X73789Y21480D01*
X73901Y21312D01*
X74070Y21200D01*
X74268Y21160D01*
X74466Y21200D01*
X74634Y21312D01*
X74746Y21480D01*
X74786Y21678D01*
X74746Y21877D01*
X74634Y22045D01*
X74466Y22157D01*
X74268Y22196D01*
X74268Y22196D02*
G37*
G36*
X49820Y21385D02*
X49691Y21360D01*
X49582Y21287D01*
X49509Y21177D01*
X49483Y21049D01*
X49509Y20920D01*
X49582Y20811D01*
X49691Y20738D01*
X49820Y20712D01*
X49949Y20738D01*
X50058Y20811D01*
X50131Y20920D01*
X50157Y21049D01*
X50131Y21177D01*
X50058Y21287D01*
X49949Y21360D01*
X49820Y21385D01*
X49820Y21385D02*
G37*
G36*
X47277Y21034D02*
X47079Y20995D01*
X46911Y20882D01*
X46799Y20714D01*
X46759Y20516D01*
X46799Y20318D01*
X46911Y20150D01*
X47079Y20037D01*
X47277Y19998D01*
X47475Y20037D01*
X47643Y20150D01*
X47756Y20318D01*
X47795Y20516D01*
X47756Y20714D01*
X47643Y20882D01*
X47475Y20995D01*
X47277Y21034D01*
X47277Y21034D02*
G37*
G36*
X71814Y20873D02*
X71616Y20834D01*
X71448Y20722D01*
X71335Y20554D01*
X71296Y20355D01*
X71335Y20157D01*
X71448Y19989D01*
X71616Y19877D01*
X71814Y19837D01*
X72012Y19877D01*
X72180Y19989D01*
X72292Y20157D01*
X72332Y20355D01*
X72292Y20554D01*
X72180Y20722D01*
X72012Y20834D01*
X71814Y20873D01*
X71814Y20873D02*
G37*
G36*
X48374Y19816D02*
X48176Y19777D01*
X48008Y19665D01*
X47896Y19497D01*
X47856Y19298D01*
X47896Y19100D01*
X48008Y18932D01*
X48176Y18820D01*
X48374Y18780D01*
X48572Y18820D01*
X48740Y18932D01*
X48853Y19100D01*
X48892Y19298D01*
X48853Y19497D01*
X48740Y19665D01*
X48572Y19777D01*
X48374Y19816D01*
X48374Y19816D02*
G37*
G36*
X50419Y17812D02*
X50290Y17786D01*
X50181Y17713D01*
X50108Y17604D01*
X50082Y17475D01*
X50108Y17346D01*
X50181Y17237D01*
X50290Y17164D01*
X50419Y17139D01*
X50548Y17164D01*
X50657Y17237D01*
X50730Y17346D01*
X50756Y17475D01*
X50730Y17604D01*
X50657Y17713D01*
X50548Y17786D01*
X50419Y17812D01*
X50419Y17812D02*
G37*
G36*
X53904Y16425D02*
X53775Y16399D01*
X53666Y16326D01*
X53593Y16217D01*
X53567Y16088D01*
X53593Y15959D01*
X53666Y15850D01*
X53775Y15777D01*
X53904Y15751D01*
X54033Y15777D01*
X54142Y15850D01*
X54215Y15959D01*
X54241Y16088D01*
X54215Y16217D01*
X54142Y16326D01*
X54033Y16399D01*
X53904Y16425D01*
X53904Y16425D02*
G37*
G36*
X50013Y16491D02*
X49884Y16465D01*
X49775Y16392D01*
X49702Y16283D01*
X49676Y16154D01*
X49702Y16026D01*
X49775Y15916D01*
X49884Y15843D01*
X50013Y15818D01*
X50119Y15839D01*
X50189Y15787D01*
X50224Y15746D01*
X50209Y15672D01*
X50235Y15543D01*
X50308Y15434D01*
X50417Y15361D01*
X50546Y15335D01*
X50675Y15361D01*
X50784Y15434D01*
X50857Y15543D01*
X50883Y15672D01*
X50857Y15801D01*
X50784Y15910D01*
X50675Y15983D01*
X50546Y16008D01*
X50439Y15987D01*
X50370Y16039D01*
X50335Y16080D01*
X50349Y16154D01*
X50324Y16283D01*
X50251Y16392D01*
X50141Y16465D01*
X50013Y16491D01*
X50013Y16491D02*
G37*
G36*
X71735Y16005D02*
X71557Y15970D01*
X71406Y15869D01*
X71305Y15718D01*
X71269Y15539D01*
X71305Y15361D01*
X71406Y15210D01*
X71557Y15109D01*
X71735Y15073D01*
X71914Y15109D01*
X72065Y15210D01*
X72166Y15361D01*
X72202Y15539D01*
X72166Y15718D01*
X72065Y15869D01*
X71914Y15970D01*
X71735Y16005D01*
X71735Y16005D02*
G37*
G36*
X55504Y15625D02*
X55375Y15599D01*
X55266Y15526D01*
X55193Y15417D01*
X55167Y15288D01*
X55193Y15159D01*
X55266Y15050D01*
X55375Y14977D01*
X55504Y14951D01*
X55633Y14977D01*
X55742Y15050D01*
X55815Y15159D01*
X55841Y15288D01*
X55815Y15417D01*
X55742Y15526D01*
X55633Y15599D01*
X55504Y15625D01*
X55504Y15625D02*
G37*
G36*
X53904Y15625D02*
X53775Y15599D01*
X53666Y15526D01*
X53593Y15417D01*
X53567Y15288D01*
X53593Y15159D01*
X53666Y15050D01*
X53775Y14977D01*
X53904Y14951D01*
X54033Y14977D01*
X54142Y15050D01*
X54215Y15159D01*
X54241Y15288D01*
X54215Y15417D01*
X54142Y15526D01*
X54033Y15599D01*
X53904Y15625D01*
X53904Y15625D02*
G37*
G36*
X43840Y15655D02*
X43662Y15620D01*
X43511Y15519D01*
X43410Y15368D01*
X43374Y15189D01*
X43410Y15011D01*
X43511Y14860D01*
X43662Y14759D01*
X43840Y14723D01*
X44019Y14759D01*
X44170Y14860D01*
X44271Y15011D01*
X44307Y15189D01*
X44271Y15368D01*
X44170Y15519D01*
X44019Y15620D01*
X43840Y15655D01*
X43840Y15655D02*
G37*
G36*
X45350Y15598D02*
X45151Y15558D01*
X44983Y15446D01*
X44871Y15278D01*
X44832Y15080D01*
X44871Y14881D01*
X44983Y14713D01*
X45151Y14601D01*
X45350Y14562D01*
X45548Y14601D01*
X45716Y14713D01*
X45828Y14881D01*
X45868Y15080D01*
X45828Y15278D01*
X45716Y15446D01*
X45548Y15558D01*
X45350Y15598D01*
X45350Y15598D02*
G37*
G36*
X48601Y15369D02*
X48403Y15330D01*
X48235Y15217D01*
X48122Y15049D01*
X48083Y14851D01*
X48122Y14653D01*
X48235Y14485D01*
X48403Y14372D01*
X48601Y14333D01*
X48799Y14372D01*
X48967Y14485D01*
X49079Y14653D01*
X49119Y14851D01*
X49079Y15049D01*
X48967Y15217D01*
X48799Y15330D01*
X48601Y15369D01*
X48601Y15369D02*
G37*
G36*
X65837Y15199D02*
X65639Y15160D01*
X65471Y15047D01*
X65359Y14879D01*
X65319Y14681D01*
X65359Y14483D01*
X65471Y14315D01*
X65487Y14304D01*
X65466Y14166D01*
X65329Y14074D01*
X65216Y13906D01*
X65177Y13708D01*
X65216Y13510D01*
X65329Y13342D01*
X65497Y13229D01*
X65695Y13190D01*
X65893Y13229D01*
X66061Y13342D01*
X66174Y13510D01*
X66213Y13708D01*
X66174Y13906D01*
X66061Y14074D01*
X66045Y14085D01*
X66067Y14223D01*
X66204Y14315D01*
X66316Y14483D01*
X66355Y14681D01*
X66316Y14879D01*
X66204Y15047D01*
X66036Y15160D01*
X65837Y15199D01*
X65837Y15199D02*
G37*
G36*
X63894Y13672D02*
X63695Y13633D01*
X63527Y13520D01*
X63415Y13352D01*
X63376Y13154D01*
X63415Y12956D01*
X63527Y12788D01*
X63695Y12675D01*
X63894Y12636D01*
X64092Y12675D01*
X64260Y12788D01*
X64372Y12956D01*
X64412Y13154D01*
X64372Y13352D01*
X64260Y13520D01*
X64092Y13633D01*
X63894Y13672D01*
X63894Y13672D02*
G37*
G36*
X57709Y12478D02*
X57580Y12452D01*
X57471Y12379D01*
X57398Y12270D01*
X57372Y12141D01*
X57390Y12050D01*
X57325Y11962D01*
X57294Y11940D01*
X57252Y11948D01*
X57053Y11909D01*
X56966Y11850D01*
X56855Y11812D01*
X56772Y11855D01*
X56674Y11920D01*
X56476Y11959D01*
X56278Y11920D01*
X56110Y11808D01*
X55997Y11640D01*
X55958Y11442D01*
X55997Y11243D01*
X56110Y11075D01*
X56278Y10963D01*
X56476Y10924D01*
X56674Y10963D01*
X56761Y11021D01*
X56789Y11031D01*
X56810Y11013D01*
X56813Y11001D01*
X56792Y10860D01*
X56693Y10794D01*
X56592Y10643D01*
X56557Y10465D01*
X56592Y10286D01*
X56693Y10135D01*
X56845Y10034D01*
X57023Y9999D01*
X57201Y10034D01*
X57353Y10135D01*
X57454Y10286D01*
X57489Y10465D01*
X57454Y10643D01*
X57353Y10794D01*
X57343Y10801D01*
X57370Y10936D01*
X57450Y10951D01*
X57618Y11064D01*
X57730Y11232D01*
X57770Y11430D01*
X57730Y11628D01*
X57694Y11682D01*
X57696Y11701D01*
X57758Y11814D01*
X57838Y11830D01*
X57947Y11903D01*
X58020Y12012D01*
X58045Y12141D01*
X58020Y12270D01*
X57947Y12379D01*
X57838Y12452D01*
X57709Y12478D01*
X57709Y12478D02*
G37*
G36*
X49566Y12931D02*
X49368Y12891D01*
X49200Y12779D01*
X49087Y12611D01*
X49048Y12413D01*
X49087Y12214D01*
X49200Y12046D01*
X49368Y11934D01*
X49566Y11895D01*
X49764Y11934D01*
X49932Y12046D01*
X50045Y12214D01*
X50084Y12413D01*
X50045Y12611D01*
X49932Y12779D01*
X49764Y12891D01*
X49566Y12931D01*
X49566Y12931D02*
G37*
G36*
X67092Y12545D02*
X66874Y12502D01*
X66690Y12378D01*
X66566Y12194D01*
X66523Y11976D01*
X66566Y11758D01*
X66690Y11574D01*
X66874Y11450D01*
X67092Y11407D01*
X67310Y11450D01*
X67494Y11574D01*
X67618Y11758D01*
X67661Y11976D01*
X67618Y12194D01*
X67494Y12378D01*
X67310Y12502D01*
X67092Y12545D01*
X67092Y12545D02*
G37*
G36*
X58928Y13088D02*
X58779Y13059D01*
X58653Y12975D01*
X58569Y12849D01*
X58540Y12700D01*
X58569Y12551D01*
X58653Y12425D01*
X58707Y12389D01*
X58703Y12239D01*
X58598Y12169D01*
X58485Y12001D01*
X58446Y11803D01*
X58485Y11605D01*
X58598Y11437D01*
X58766Y11324D01*
X58964Y11285D01*
X59162Y11324D01*
X59330Y11437D01*
X59443Y11605D01*
X59482Y11803D01*
X59443Y12001D01*
X59330Y12169D01*
X59189Y12264D01*
X59172Y12364D01*
X59177Y12408D01*
X59203Y12425D01*
X59287Y12551D01*
X59316Y12700D01*
X59287Y12849D01*
X59203Y12975D01*
X59077Y13059D01*
X58928Y13088D01*
X58928Y13088D02*
G37*
G36*
X65710Y12875D02*
X65512Y12836D01*
X65344Y12723D01*
X65232Y12555D01*
X65192Y12357D01*
X65232Y12159D01*
X65312Y12038D01*
X65217Y11974D01*
X65104Y11806D01*
X65065Y11608D01*
X65104Y11410D01*
X65217Y11242D01*
X65385Y11129D01*
X65583Y11090D01*
X65781Y11129D01*
X65949Y11242D01*
X66061Y11410D01*
X66101Y11608D01*
X66061Y11806D01*
X65981Y11927D01*
X66077Y11991D01*
X66189Y12159D01*
X66228Y12357D01*
X66189Y12555D01*
X66077Y12723D01*
X65909Y12836D01*
X65710Y12875D01*
X65710Y12875D02*
G37*
G36*
X64118Y12092D02*
X63919Y12053D01*
X63751Y11940D01*
X63639Y11772D01*
X63600Y11574D01*
X63639Y11376D01*
X63751Y11208D01*
X63919Y11096D01*
X64118Y11056D01*
X64316Y11096D01*
X64484Y11208D01*
X64596Y11376D01*
X64636Y11574D01*
X64596Y11772D01*
X64484Y11940D01*
X64316Y12053D01*
X64118Y12092D01*
X64118Y12092D02*
G37*
G36*
X52603Y11541D02*
X52425Y11505D01*
X52274Y11404D01*
X52173Y11253D01*
X52137Y11074D01*
X52173Y10896D01*
X52274Y10745D01*
X52425Y10644D01*
X52603Y10608D01*
X52782Y10644D01*
X52933Y10745D01*
X53034Y10896D01*
X53070Y11074D01*
X53034Y11253D01*
X52933Y11404D01*
X52782Y11505D01*
X52603Y11541D01*
X52603Y11541D02*
G37*
G36*
X49936Y11592D02*
X49738Y11553D01*
X49570Y11441D01*
X49458Y11273D01*
X49418Y11074D01*
X49458Y10876D01*
X49570Y10708D01*
X49738Y10596D01*
X49936Y10556D01*
X50135Y10596D01*
X50303Y10708D01*
X50415Y10876D01*
X50454Y11074D01*
X50415Y11273D01*
X50303Y11441D01*
X50135Y11553D01*
X49936Y11592D01*
X49936Y11592D02*
G37*
G36*
X62346Y11093D02*
X62148Y11054D01*
X61980Y10942D01*
X61867Y10774D01*
X61828Y10575D01*
X61867Y10377D01*
X61980Y10209D01*
X62148Y10097D01*
X62346Y10057D01*
X62544Y10097D01*
X62712Y10209D01*
X62824Y10377D01*
X62864Y10575D01*
X62824Y10774D01*
X62712Y10942D01*
X62544Y11054D01*
X62346Y11093D01*
X62346Y11093D02*
G37*
G36*
X67365Y10048D02*
X65572Y10048D01*
X65572Y10048D01*
X65572Y10048D01*
X64772Y10048D01*
X64772Y10048D01*
X64772Y10048D01*
X63972Y10048D01*
X63972Y10048D01*
X63972Y10048D01*
X63718Y10048D01*
X63506Y9836D01*
X63506Y6141D01*
X63731Y5916D01*
X67460Y5916D01*
X67639Y6094D01*
X67639Y9775D01*
X67365Y10048D01*
X67365Y10048D02*
G37*
G36*
X58202Y10745D02*
X58024Y10710D01*
X57872Y10609D01*
X57771Y10457D01*
X57736Y10279D01*
X57771Y10101D01*
X57872Y9949D01*
X58024Y9848D01*
X58202Y9813D01*
X58380Y9848D01*
X58532Y9949D01*
X58633Y10101D01*
X58668Y10279D01*
X58633Y10457D01*
X58532Y10609D01*
X58380Y10710D01*
X58202Y10745D01*
X58202Y10745D02*
G37*
G36*
X50140Y10221D02*
X49941Y10181D01*
X49773Y10069D01*
X49661Y9901D01*
X49622Y9703D01*
X49661Y9505D01*
X49773Y9337D01*
X49941Y9224D01*
X50140Y9185D01*
X50338Y9224D01*
X50506Y9337D01*
X50618Y9505D01*
X50658Y9703D01*
X50618Y9901D01*
X50506Y10069D01*
X50338Y10181D01*
X50140Y10221D01*
X50140Y10221D02*
G37*
G36*
X59563Y8951D02*
X59365Y8911D01*
X59197Y8799D01*
X59084Y8631D01*
X59045Y8433D01*
X59084Y8235D01*
X59197Y8067D01*
X59365Y7954D01*
X59563Y7915D01*
X59761Y7954D01*
X59929Y8067D01*
X60036Y7997D01*
X60188Y7895D01*
X60386Y7856D01*
X60585Y7895D01*
X60753Y8008D01*
X60865Y8176D01*
X60904Y8374D01*
X60865Y8572D01*
X60753Y8740D01*
X60585Y8853D01*
X60386Y8892D01*
X60188Y8853D01*
X60020Y8740D01*
X59914Y8809D01*
X59761Y8911D01*
X59563Y8951D01*
X59563Y8951D02*
G37*
G36*
X48525Y8383D02*
X48346Y8347D01*
X48195Y8246D01*
X48094Y8095D01*
X48058Y7917D01*
X48094Y7738D01*
X48195Y7587D01*
X48346Y7486D01*
X48525Y7451D01*
X48703Y7486D01*
X48854Y7587D01*
X48955Y7738D01*
X48991Y7917D01*
X48955Y8095D01*
X48854Y8246D01*
X48703Y8347D01*
X48525Y8383D01*
X48525Y8383D02*
G37*
G36*
X44850Y8325D02*
X44652Y8285D01*
X44484Y8173D01*
X44371Y8005D01*
X44332Y7807D01*
X44371Y7608D01*
X44484Y7440D01*
X44652Y7328D01*
X44850Y7289D01*
X45048Y7328D01*
X45216Y7440D01*
X45329Y7608D01*
X45368Y7807D01*
X45329Y8005D01*
X45216Y8173D01*
X45048Y8285D01*
X44850Y8325D01*
X44850Y8325D02*
G37*
G36*
X59004Y7503D02*
X58806Y7464D01*
X58638Y7351D01*
X58526Y7183D01*
X58486Y6985D01*
X58526Y6787D01*
X58638Y6619D01*
X58806Y6506D01*
X59004Y6467D01*
X59202Y6506D01*
X59370Y6619D01*
X59483Y6787D01*
X59522Y6985D01*
X59483Y7183D01*
X59370Y7351D01*
X59202Y7464D01*
X59004Y7503D01*
X59004Y7503D02*
G37*
G36*
X57434Y6978D02*
X57285Y6949D01*
X57159Y6864D01*
X57075Y6738D01*
X57045Y6590D01*
X57075Y6441D01*
X57113Y6383D01*
X57134Y6352D01*
X57043Y6260D01*
X57012Y6281D01*
X56954Y6320D01*
X56805Y6349D01*
X56656Y6320D01*
X56530Y6236D01*
X56446Y6110D01*
X56417Y5961D01*
X56446Y5812D01*
X56530Y5686D01*
X56601Y5639D01*
X56655Y5595D01*
X56634Y5477D01*
X56580Y5397D01*
X56541Y5199D01*
X56580Y5001D01*
X56693Y4833D01*
X56861Y4720D01*
X57059Y4681D01*
X57257Y4720D01*
X57425Y4833D01*
X57538Y5001D01*
X57577Y5199D01*
X57538Y5397D01*
X57425Y5565D01*
X57257Y5678D01*
X57207Y5687D01*
X57168Y5782D01*
X57166Y5825D01*
X57193Y5961D01*
X57164Y6110D01*
X57125Y6168D01*
X57104Y6199D01*
X57196Y6290D01*
X57227Y6269D01*
X57285Y6231D01*
X57434Y6201D01*
X57582Y6231D01*
X57708Y6315D01*
X57793Y6441D01*
X57822Y6590D01*
X57793Y6738D01*
X57708Y6864D01*
X57582Y6949D01*
X57434Y6978D01*
X57434Y6978D02*
G37*
G36*
X60483Y7021D02*
X60285Y6981D01*
X60117Y6869D01*
X60005Y6701D01*
X59965Y6503D01*
X60005Y6304D01*
X60117Y6136D01*
X60285Y6024D01*
X60483Y5985D01*
X60682Y6024D01*
X60850Y6136D01*
X60962Y6304D01*
X61001Y6503D01*
X60962Y6701D01*
X60850Y6869D01*
X60682Y6981D01*
X60483Y7021D01*
X60483Y7021D02*
G37*
G36*
X59594Y6157D02*
X59396Y6117D01*
X59228Y6005D01*
X59116Y5837D01*
X59076Y5639D01*
X59116Y5441D01*
X59228Y5273D01*
X59396Y5160D01*
X59594Y5121D01*
X59793Y5160D01*
X59961Y5273D01*
X60073Y5441D01*
X60112Y5639D01*
X60073Y5837D01*
X59961Y6005D01*
X59793Y6117D01*
X59594Y6157D01*
X59594Y6157D02*
G37*
G36*
X58411Y5615D02*
X58213Y5576D01*
X58045Y5464D01*
X57933Y5296D01*
X57893Y5098D01*
X57933Y4899D01*
X58045Y4731D01*
X58213Y4619D01*
X58411Y4580D01*
X58609Y4619D01*
X58777Y4731D01*
X58890Y4899D01*
X58929Y5098D01*
X58890Y5296D01*
X58777Y5464D01*
X58609Y5576D01*
X58411Y5615D01*
X58411Y5615D02*
G37*
G36*
X61824Y4379D02*
X61625Y4339D01*
X61457Y4227D01*
X61345Y4059D01*
X61306Y3861D01*
X61345Y3663D01*
X61457Y3495D01*
X61625Y3382D01*
X61824Y3343D01*
X62022Y3382D01*
X62190Y3495D01*
X62302Y3663D01*
X62342Y3861D01*
X62302Y4059D01*
X62190Y4227D01*
X62022Y4339D01*
X61824Y4379D01*
X61824Y4379D02*
G37*
G36*
X68774Y4368D02*
X68576Y4328D01*
X68408Y4216D01*
X68296Y4048D01*
X68256Y3850D01*
X68296Y3651D01*
X68408Y3483D01*
X68576Y3371D01*
X68774Y3332D01*
X68972Y3371D01*
X69141Y3483D01*
X69253Y3651D01*
X69292Y3850D01*
X69253Y4048D01*
X69141Y4216D01*
X68972Y4328D01*
X68774Y4368D01*
X68774Y4368D02*
G37*
G36*
X67081Y4353D02*
X66883Y4314D01*
X66715Y4202D01*
X66603Y4034D01*
X66563Y3835D01*
X66603Y3637D01*
X66715Y3469D01*
X66883Y3357D01*
X67081Y3317D01*
X67280Y3357D01*
X67448Y3469D01*
X67560Y3637D01*
X67599Y3835D01*
X67560Y4034D01*
X67448Y4202D01*
X67280Y4314D01*
X67081Y4353D01*
X67081Y4353D02*
G37*
G36*
X63953Y3334D02*
X63755Y3294D01*
X63587Y3182D01*
X63474Y3014D01*
X63435Y2816D01*
X63474Y2617D01*
X63587Y2449D01*
X63755Y2337D01*
X63953Y2298D01*
X64151Y2337D01*
X64319Y2449D01*
X64431Y2617D01*
X64471Y2816D01*
X64431Y3014D01*
X64319Y3182D01*
X64151Y3294D01*
X63953Y3334D01*
X63953Y3334D02*
G37*
G36*
X67107Y3109D02*
X66909Y3069D01*
X66741Y2957D01*
X66628Y2789D01*
X66589Y2591D01*
X66628Y2393D01*
X66741Y2225D01*
X66909Y2112D01*
X67107Y2073D01*
X67305Y2112D01*
X67473Y2225D01*
X67585Y2393D01*
X67625Y2591D01*
X67585Y2789D01*
X67473Y2957D01*
X67305Y3069D01*
X67107Y3109D01*
X67107Y3109D02*
G37*
G36*
X67145Y19903D02*
X66947Y19863D01*
X66779Y19751D01*
X66666Y19583D01*
X66627Y19385D01*
X66666Y19187D01*
X66779Y19019D01*
X66947Y18906D01*
X67145Y18867D01*
X67343Y18906D01*
X67511Y19019D01*
X67623Y19187D01*
X67663Y19385D01*
X67623Y19583D01*
X67511Y19751D01*
X67343Y19863D01*
X67145Y19903D01*
X67145Y19903D02*
G37*
G36*
X66944Y18775D02*
X66745Y18736D01*
X66577Y18623D01*
X66465Y18455D01*
X66426Y18257D01*
X66465Y18059D01*
X66577Y17891D01*
X66745Y17778D01*
X66944Y17739D01*
X67142Y17778D01*
X67310Y17891D01*
X67422Y18059D01*
X67462Y18257D01*
X67422Y18455D01*
X67310Y18623D01*
X67142Y18736D01*
X66944Y18775D01*
X66944Y18775D02*
G37*
G36*
X59345Y15823D02*
X59216Y15797D01*
X59107Y15724D01*
X59077Y15679D01*
X58958Y15646D01*
X58923Y15660D01*
X58839Y15716D01*
X58710Y15742D01*
X58581Y15716D01*
X58472Y15643D01*
X58399Y15534D01*
X58373Y15405D01*
X58399Y15276D01*
X58472Y15167D01*
X58581Y15094D01*
X58710Y15068D01*
X58839Y15094D01*
X58948Y15167D01*
X58978Y15212D01*
X59097Y15245D01*
X59132Y15231D01*
X59216Y15175D01*
X59345Y15149D01*
X59474Y15175D01*
X59583Y15248D01*
X59656Y15357D01*
X59682Y15486D01*
X59656Y15615D01*
X59583Y15724D01*
X59474Y15797D01*
X59345Y15823D01*
X59345Y15823D02*
G37*
G36*
X57904Y15625D02*
X57775Y15599D01*
X57666Y15526D01*
X57593Y15417D01*
X57567Y15288D01*
X57593Y15159D01*
X57666Y15050D01*
X57775Y14977D01*
X57904Y14951D01*
X58033Y14977D01*
X58142Y15050D01*
X58215Y15159D01*
X58241Y15288D01*
X58215Y15417D01*
X58142Y15526D01*
X58033Y15599D01*
X57904Y15625D01*
X57904Y15625D02*
G37*
G36*
X44494Y12692D02*
X44316Y12657D01*
X44165Y12556D01*
X44064Y12405D01*
X44028Y12226D01*
X44064Y12048D01*
X44165Y11897D01*
X44316Y11796D01*
X44494Y11760D01*
X44673Y11796D01*
X44824Y11897D01*
X44925Y12048D01*
X44961Y12226D01*
X44925Y12405D01*
X44824Y12556D01*
X44673Y12657D01*
X44494Y12692D01*
X44494Y12692D02*
G37*
G36*
X40041Y13539D02*
X39863Y13504D01*
X39711Y13403D01*
X39610Y13251D01*
X39575Y13073D01*
X39610Y12895D01*
X39711Y12743D01*
X39863Y12642D01*
X40041Y12607D01*
X40219Y12642D01*
X40371Y12743D01*
X40472Y12895D01*
X40507Y13073D01*
X40472Y13251D01*
X40371Y13403D01*
X40219Y13504D01*
X40041Y13539D01*
X40041Y13539D02*
G37*
G36*
X38441Y10009D02*
X38262Y9973D01*
X38111Y9872D01*
X38010Y9721D01*
X37975Y9542D01*
X38010Y9364D01*
X38111Y9213D01*
X38262Y9112D01*
X38441Y9076D01*
X38619Y9112D01*
X38770Y9213D01*
X38871Y9364D01*
X38907Y9542D01*
X38871Y9721D01*
X38770Y9872D01*
X38619Y9973D01*
X38441Y10009D01*
X38441Y10009D02*
G37*
G36*
X29020Y9471D02*
X28821Y9432D01*
X28653Y9320D01*
X28541Y9152D01*
X28502Y8953D01*
X28541Y8755D01*
X28653Y8587D01*
X28821Y8475D01*
X29020Y8436D01*
X29218Y8475D01*
X29386Y8587D01*
X29498Y8755D01*
X29537Y8953D01*
X29498Y9152D01*
X29386Y9320D01*
X29218Y9432D01*
X29020Y9471D01*
X29020Y9471D02*
G37*
G36*
X8697Y29349D02*
X7593Y29349D01*
X7041Y28797D01*
X7041Y27693D01*
X7593Y27141D01*
X8697Y27141D01*
X9249Y27693D01*
X9249Y28797D01*
X8697Y29349D01*
X8697Y29349D02*
G37*
G36*
X12548Y6504D02*
X12369Y6469D01*
X12218Y6368D01*
X12117Y6216D01*
X12081Y6038D01*
X12117Y5860D01*
X12218Y5708D01*
X12369Y5607D01*
X12548Y5572D01*
X12726Y5607D01*
X12877Y5708D01*
X12978Y5860D01*
X13014Y6038D01*
X12978Y6216D01*
X12877Y6368D01*
X12726Y6469D01*
X12548Y6504D01*
X12548Y6504D02*
G37*
G36*
X22830Y4433D02*
X22652Y4398D01*
X22500Y4297D01*
X22399Y4145D01*
X22364Y3967D01*
X22399Y3789D01*
X22500Y3637D01*
X22652Y3536D01*
X22830Y3501D01*
X23008Y3536D01*
X23160Y3637D01*
X23261Y3789D01*
X23296Y3967D01*
X23261Y4145D01*
X23160Y4297D01*
X23008Y4398D01*
X22830Y4433D01*
X22830Y4433D02*
G37*
G36*
X19609Y4705D02*
X19436Y4682D01*
X19276Y4615D01*
X19138Y4510D01*
X19032Y4372D01*
X18965Y4211D01*
X18943Y4039D01*
X18965Y3866D01*
X19032Y3706D01*
X19138Y3568D01*
X19276Y3462D01*
X19436Y3395D01*
X19609Y3372D01*
X19781Y3395D01*
X19942Y3462D01*
X20080Y3568D01*
X20186Y3706D01*
X20252Y3866D01*
X20275Y4039D01*
X20252Y4211D01*
X20186Y4372D01*
X20080Y4510D01*
X19942Y4615D01*
X19781Y4682D01*
X19609Y4705D01*
X19609Y4705D02*
G37*
G36*
X261582Y-110936D02*
X261508Y-110936D01*
X261418Y-110966D01*
X261329Y-110996D01*
X261240Y-111040D01*
X261150Y-111130D01*
X261091Y-111234D01*
X261076Y-111383D01*
X261076Y-111398D01*
X261076Y-111412D01*
X261091Y-111502D01*
X261136Y-111621D01*
X261225Y-111740D01*
X261255Y-111755D01*
X261329Y-111799D01*
X261433Y-111859D01*
X261582Y-111874D01*
X261597Y-111874D01*
X261656Y-111859D01*
X261731Y-111844D01*
X261820Y-111814D01*
X261895Y-111755D01*
X261969Y-111665D01*
X262029Y-111546D01*
X262043Y-111383D01*
X262043Y-111368D01*
X262043Y-111308D01*
X262014Y-111234D01*
X261984Y-111159D01*
X261924Y-111070D01*
X261850Y-111011D01*
X261731Y-110951D01*
X261582Y-110936D01*
X261582Y-110936D02*
G37*
%LPD*%
G36*
X261701Y-111100D02*
X261790Y-111145D01*
X261805Y-111204D01*
X261820Y-111264D01*
X261820Y-111293D01*
X261805Y-111353D01*
X261746Y-111427D01*
X261716Y-111442D01*
X261656Y-111457D01*
X261835Y-111740D01*
X261731Y-111740D01*
X261552Y-111457D01*
X261448Y-111457D01*
X261448Y-111740D01*
X261344Y-111740D01*
X261344Y-111070D01*
X261627Y-111070D01*
X261701Y-111100D01*
X261701Y-111100D02*
G37*
%LPC*%
G36*
X261612Y-111159D02*
X261448Y-111159D01*
X261448Y-111368D01*
X261627Y-111368D01*
X261671Y-111353D01*
X261701Y-111323D01*
X261716Y-111264D01*
X261716Y-111249D01*
X261701Y-111204D01*
X261671Y-111174D01*
X261612Y-111159D01*
X261612Y-111159D02*
G37*
G36*
X255927Y-112320D02*
X255882Y-112320D01*
X255838Y-112335D01*
X255778Y-112365D01*
X255704Y-112395D01*
X255614Y-112454D01*
X255540Y-112529D01*
X255451Y-112633D01*
X254543Y-113898D01*
X257251Y-118169D01*
X257266Y-118184D01*
X257296Y-118228D01*
X257341Y-118288D01*
X257400Y-118362D01*
X257460Y-118437D01*
X257534Y-118496D01*
X257623Y-118541D01*
X257698Y-118556D01*
X257743Y-118556D01*
X257787Y-118541D01*
X257862Y-118526D01*
X257936Y-118481D01*
X258010Y-118437D01*
X258085Y-118362D01*
X258159Y-118273D01*
X259112Y-116919D01*
X256403Y-112648D01*
X256388Y-112633D01*
X256373Y-112603D01*
X256329Y-112543D01*
X256269Y-112484D01*
X256195Y-112424D01*
X256120Y-112365D01*
X256031Y-112335D01*
X255927Y-112320D01*
X255927Y-112320D02*
G37*
G36*
X271092Y-122678D02*
X269722Y-122678D01*
X269722Y-123556D01*
X271166Y-123556D01*
X271211Y-123541D01*
X271255Y-123511D01*
X271285Y-123467D01*
X271330Y-123407D01*
X271345Y-123318D01*
X271359Y-123199D01*
X271359Y-123065D01*
X271359Y-123050D01*
X271359Y-123005D01*
X271345Y-122946D01*
X271330Y-122871D01*
X271300Y-122797D01*
X271240Y-122738D01*
X271181Y-122693D01*
X271092Y-122678D01*
X271092Y-122678D02*
G37*
G36*
X255585Y-122678D02*
X254320Y-122678D01*
X254320Y-123541D01*
X255704Y-123541D01*
X255748Y-123526D01*
X255808Y-123496D01*
X255853Y-123452D01*
X255897Y-123377D01*
X255927Y-123288D01*
X255942Y-123169D01*
X255942Y-123065D01*
X255942Y-123050D01*
X255942Y-123005D01*
X255927Y-122946D01*
X255897Y-122871D01*
X255853Y-122797D01*
X255793Y-122738D01*
X255704Y-122693D01*
X255585Y-122678D01*
X255585Y-122678D02*
G37*
G36*
X259186Y-122678D02*
X258219Y-122678D01*
X258129Y-122693D01*
X258010Y-122752D01*
X257951Y-122782D01*
X257906Y-122842D01*
X257891Y-122871D01*
X257876Y-122916D01*
X257862Y-122961D01*
X257832Y-123035D01*
X257817Y-123124D01*
X257802Y-123243D01*
X257802Y-123377D01*
X257802Y-123764D01*
X257802Y-123779D01*
X257802Y-123824D01*
X257802Y-123898D01*
X257817Y-123973D01*
X257832Y-124151D01*
X257847Y-124241D01*
X257876Y-124300D01*
X257891Y-124330D01*
X257951Y-124375D01*
X258055Y-124419D01*
X258204Y-124449D01*
X259156Y-124449D01*
X259216Y-124434D01*
X259290Y-124419D01*
X259365Y-124360D01*
X259454Y-124285D01*
X259513Y-124166D01*
X259573Y-123988D01*
X259588Y-123883D01*
X259588Y-123764D01*
X259588Y-123377D01*
X259588Y-123363D01*
X259588Y-123318D01*
X259588Y-123243D01*
X259573Y-123169D01*
X259528Y-122991D01*
X259484Y-122901D01*
X259439Y-122842D01*
X259439Y-122827D01*
X259409Y-122812D01*
X259350Y-122752D01*
X259246Y-122708D01*
X259186Y-122678D01*
X259186Y-122678D02*
G37*
%LPD*%
D11*
X274322Y-116797D02*
X356142Y-116797D01*
X331322Y-112297D02*
X331322Y-109297D01*
X356142Y-112297D02*
X356142Y-112297D01*
X331322Y-112297D02*
X356142Y-112297D01*
X350022Y-131897D02*
X350022Y-131297D01*
X352482Y-133932D02*
X352482Y-132662D01*
X349942Y-133932D02*
X349942Y-132662D01*
X347402Y-133932D02*
X347402Y-132662D01*
X355022Y-133932D02*
X355022Y-132662D01*
X344862Y-133932D02*
X344862Y-132662D01*
X344862Y-133297D02*
X355022Y-133297D01*
X355022Y-132097D02*
X355022Y-131097D01*
X345022Y-132097D02*
X345022Y-131097D01*
X345022Y-131597D02*
X355022Y-131597D01*
X341555Y-132897D02*
X341222Y-133364D01*
X341722Y-133364D01*
X341555Y-132897D02*
X341555Y-133597D01*
X342045Y-132897D02*
X341945Y-132931D01*
X341879Y-133031D01*
X341845Y-133197D01*
X341845Y-133297D01*
X341879Y-133464D01*
X341945Y-133564D01*
X342045Y-133597D01*
X342112Y-133597D01*
X342212Y-133564D01*
X342278Y-133464D01*
X342312Y-133297D01*
X342312Y-133197D01*
X342278Y-133031D01*
X342212Y-132931D01*
X342112Y-132897D01*
X342045Y-132897D01*
X342668Y-132897D02*
X342568Y-132931D01*
X342502Y-133031D01*
X342468Y-133197D01*
X342468Y-133297D01*
X342502Y-133464D01*
X342568Y-133564D01*
X342668Y-133597D01*
X342735Y-133597D01*
X342835Y-133564D01*
X342902Y-133464D01*
X342935Y-133297D01*
X342935Y-133197D01*
X342902Y-133031D01*
X342835Y-132931D01*
X342735Y-132897D01*
X342668Y-132897D01*
X343092Y-133131D02*
X343092Y-133597D01*
X343092Y-133264D02*
X343192Y-133164D01*
X343258Y-133131D01*
X343358Y-133131D01*
X343425Y-133164D01*
X343458Y-133264D01*
X343458Y-133597D01*
X343458Y-133264D02*
X343558Y-133164D01*
X343625Y-133131D01*
X343725Y-133131D01*
X343791Y-133164D01*
X343825Y-133264D01*
X343825Y-133597D01*
X344111Y-132897D02*
X344145Y-132931D01*
X344178Y-132897D01*
X344145Y-132864D01*
X344111Y-132897D01*
X344145Y-133131D02*
X344145Y-133597D01*
X344301Y-132897D02*
X344301Y-133597D01*
X341322Y-131331D02*
X341389Y-131297D01*
X341489Y-131197D01*
X341489Y-131897D01*
X342035Y-131197D02*
X341935Y-131231D01*
X341869Y-131331D01*
X341835Y-131497D01*
X341835Y-131597D01*
X341869Y-131764D01*
X341935Y-131864D01*
X342035Y-131897D01*
X342102Y-131897D01*
X342202Y-131864D01*
X342268Y-131764D01*
X342302Y-131597D01*
X342302Y-131497D01*
X342268Y-131331D01*
X342202Y-131231D01*
X342102Y-131197D01*
X342035Y-131197D01*
X342458Y-131431D02*
X342458Y-131897D01*
X342458Y-131564D02*
X342558Y-131464D01*
X342625Y-131431D01*
X342725Y-131431D01*
X342792Y-131464D01*
X342825Y-131564D01*
X342825Y-131897D01*
X342825Y-131564D02*
X342925Y-131464D01*
X342992Y-131431D01*
X343092Y-131431D01*
X343158Y-131464D01*
X343192Y-131564D01*
X343192Y-131897D01*
X343412Y-131431D02*
X343412Y-131897D01*
X343412Y-131564D02*
X343512Y-131464D01*
X343578Y-131431D01*
X343678Y-131431D01*
X343745Y-131464D01*
X343778Y-131564D01*
X343778Y-131897D01*
X343778Y-131564D02*
X343878Y-131464D01*
X343945Y-131431D01*
X344045Y-131431D01*
X344111Y-131464D01*
X344145Y-131564D01*
X344145Y-131897D01*
D13*
X245322Y87203D02*
X245322Y91703D01*
X336322Y87203D02*
X336322Y91703D01*
X234322Y87203D02*
X355822Y87203D01*
X234322Y87203D02*
X234322Y91703D01*
X336322Y91703D02*
X336322Y96203D01*
X257822Y91703D02*
X257822Y96203D01*
X245322Y91703D02*
X245322Y96203D01*
X234322Y91703D02*
X355822Y91703D01*
X234322Y91703D02*
X234322Y96203D01*
X257822Y87203D02*
X257822Y91703D01*
X341322Y94226D02*
X341322Y92703D01*
X342084Y92703D01*
X342338Y92957D01*
X342338Y93972D01*
X342084Y94226D01*
X341322Y94226D01*
X343099Y93718D02*
X343607Y93718D01*
X343861Y93465D01*
X343861Y92703D01*
X343099Y92703D01*
X342846Y92957D01*
X343099Y93211D01*
X343861Y93211D01*
X344623Y93972D02*
X344623Y93718D01*
X344369Y93718D01*
X344877Y93718D01*
X344623Y93718D01*
X344623Y92957D01*
X344877Y92703D01*
X346400Y92703D02*
X345893Y92703D01*
X345639Y92957D01*
X345639Y93465D01*
X345893Y93718D01*
X346400Y93718D01*
X346654Y93465D01*
X346654Y93211D01*
X345639Y93211D01*
X294338Y93972D02*
X294084Y94226D01*
X293576Y94226D01*
X293322Y93972D01*
X293322Y92957D01*
X293576Y92703D01*
X294084Y92703D01*
X294338Y92957D01*
X295099Y92703D02*
X295607Y92703D01*
X295861Y92957D01*
X295861Y93465D01*
X295607Y93718D01*
X295099Y93718D01*
X294846Y93465D01*
X294846Y92957D01*
X295099Y92703D01*
X296369Y92703D02*
X296369Y93718D01*
X296623Y93718D01*
X296877Y93465D01*
X296877Y92703D01*
X296877Y93465D01*
X297131Y93718D01*
X297385Y93465D01*
X297385Y92703D01*
X297893Y92703D02*
X297893Y93718D01*
X298146Y93718D01*
X298400Y93465D01*
X298400Y92703D01*
X298400Y93465D01*
X298654Y93718D01*
X298908Y93465D01*
X298908Y92703D01*
X300178Y92703D02*
X299670Y92703D01*
X299416Y92957D01*
X299416Y93465D01*
X299670Y93718D01*
X300178Y93718D01*
X300432Y93465D01*
X300432Y93211D01*
X299416Y93211D01*
X300940Y92703D02*
X300940Y93718D01*
X301701Y93718D01*
X301955Y93465D01*
X301955Y92703D01*
X302717Y93972D02*
X302717Y93718D01*
X302463Y93718D01*
X302971Y93718D01*
X302717Y93718D01*
X302717Y92957D01*
X302971Y92703D01*
X303733Y92703D02*
X304494Y92703D01*
X304748Y92957D01*
X304494Y93211D01*
X303987Y93211D01*
X303733Y93465D01*
X303987Y93718D01*
X304748Y93718D01*
X247838Y94726D02*
X246822Y94726D01*
X246822Y93203D01*
X247838Y93203D01*
X246822Y93965D02*
X247330Y93965D01*
X249361Y94472D02*
X249107Y94726D01*
X248599Y94726D01*
X248346Y94472D01*
X248346Y93457D01*
X248599Y93203D01*
X249107Y93203D01*
X249361Y93457D01*
X250631Y94726D02*
X250123Y94726D01*
X249869Y94472D01*
X249869Y93457D01*
X250123Y93203D01*
X250631Y93203D01*
X250885Y93457D01*
X250885Y94472D01*
X250631Y94726D01*
X236822Y93203D02*
X236822Y94726D01*
X237584Y94726D01*
X237838Y94472D01*
X237838Y93965D01*
X237584Y93711D01*
X236822Y93711D01*
X237330Y93711D02*
X237838Y93203D01*
X239361Y94726D02*
X238346Y94726D01*
X238346Y93203D01*
X239361Y93203D01*
X238346Y93965D02*
X238853Y93965D01*
X239869Y94726D02*
X239869Y93711D01*
X240377Y93203D01*
X240885Y93711D01*
X240885Y94726D01*
D14*
X37625Y19398D02*
X39878Y17145D01*
X40809Y10499D02*
X45265Y10499D01*
X20463Y23561D02*
X20975Y23561D01*
X22413Y22123D01*
X24510Y22123D02*
X25046Y21586D01*
X24510Y22123D02*
X25583Y22123D01*
X22413Y22123D02*
X24510Y22123D01*
X24257Y4445D02*
X27187Y4445D01*
X27568Y4826D01*
X34453Y20820D02*
X36076Y20820D01*
X29075Y20820D02*
X34453Y20820D01*
X36076Y20820D02*
X36612Y20284D01*
X28236Y21659D02*
X29075Y20820D01*
X36612Y18991D02*
X36612Y20284D01*
X25046Y21586D02*
X25583Y22123D01*
X27772Y22123D01*
X25046Y20573D02*
X25046Y21586D01*
X27772Y22123D02*
X28236Y21659D01*
X36612Y18128D02*
X36612Y18991D01*
X36612Y18128D02*
X36861Y17878D01*
X60209Y23131D02*
X60209Y23357D01*
X59590Y23976D02*
X60209Y23357D01*
X58602Y23976D02*
X59590Y23976D01*
X60209Y22573D02*
X60209Y23131D01*
X60209Y20670D02*
X60209Y22573D01*
X59909Y20371D02*
X60209Y20670D01*
X57948Y24630D02*
X58602Y23976D01*
X41946Y17236D02*
X41946Y18153D01*
X36612Y18991D02*
X37018Y19398D01*
X37625Y19398D01*
X45654Y5842D02*
X46222Y6410D01*
X36873Y5928D02*
X36960Y5842D01*
X42666Y6102D02*
X42666Y7324D01*
X45265Y10499D02*
X45451Y10685D01*
X42666Y7324D02*
X42666Y8585D01*
X41971Y9279D02*
X42666Y8585D01*
X41971Y9279D02*
X41971Y10355D01*
X46825Y13119D02*
X47907Y13119D01*
X45451Y10685D02*
X45542Y10776D01*
X45542Y11836D01*
X46825Y13119D01*
X42666Y6102D02*
X42926Y5842D01*
X45654Y5842D01*
X36960Y5842D02*
X42926Y5842D01*
X39878Y17145D02*
X41855Y17145D01*
X41946Y17236D01*
X42418Y16764D01*
X42418Y15240D02*
X42418Y16764D01*
X38405Y12319D02*
X38989Y12319D01*
X40809Y10499D01*
D15*
X67945Y28876D02*
X68067Y28754D01*
X62922Y28876D02*
X67945Y28876D01*
X62800Y28754D02*
X62922Y28876D01*
X68332Y29173D02*
X68676Y28829D01*
X60847Y29173D02*
X68332Y29173D01*
X60533Y28859D02*
X60847Y29173D01*
X58341Y27920D02*
X67593Y27920D01*
X57156Y26736D02*
X58341Y27920D01*
X57156Y25412D02*
X57156Y26736D01*
X55611Y23867D02*
X57156Y25412D01*
X57435Y26620D02*
X58456Y27641D01*
X55924Y23784D02*
X57435Y25296D01*
X57435Y26620D01*
X57715Y26504D02*
X58572Y27362D01*
X57715Y25180D02*
X57715Y26504D01*
X56819Y24284D02*
X57715Y25180D01*
X58572Y27362D02*
X67306Y27362D01*
X58456Y27641D02*
X67422Y27641D01*
X55924Y20468D02*
X55924Y23784D01*
X55924Y20468D02*
X56304Y20088D01*
X55611Y21905D02*
X55611Y23867D01*
X54991Y21285D02*
X55611Y21905D01*
X51694Y21285D02*
X54991Y21285D01*
X60093Y13608D02*
X61595Y15111D01*
X57734Y13608D02*
X60093Y13608D01*
X61974Y15111D02*
X61976Y15113D01*
X61595Y15111D02*
X61974Y15111D01*
X57904Y14488D02*
X59488Y14488D01*
X56693Y12567D02*
X57734Y13608D01*
X68343Y27170D02*
X70562Y27170D01*
X67593Y27920D02*
X68343Y27170D01*
X67422Y27641D02*
X68359Y26704D01*
X67306Y27362D02*
X68311Y26357D01*
X69882Y26357D01*
X68359Y26704D02*
X70161Y26704D01*
X69882Y26357D02*
X70971Y25268D01*
X70562Y27170D02*
X71139Y26594D01*
X70971Y23165D02*
X70971Y25268D01*
X56819Y20373D02*
X56819Y24284D01*
X56819Y20373D02*
X57104Y20088D01*
X60082Y18305D02*
X60488Y17899D01*
X59853Y18305D02*
X60082Y18305D01*
X60488Y15488D02*
X60488Y17899D01*
X59264Y18894D02*
X59853Y18305D01*
X59488Y14488D02*
X60488Y15488D01*
X49147Y18738D02*
X51694Y21285D01*
X49147Y16027D02*
X49147Y18738D01*
X54225Y12567D02*
X56693Y12567D01*
X53904Y12888D02*
X54225Y12567D01*
X57833Y16586D02*
X57836Y16586D01*
X57498Y16251D02*
X57833Y16586D01*
X57267Y15694D02*
X57376Y15694D01*
X56944Y15694D02*
X57267Y15694D01*
X57498Y15928D02*
X57498Y15928D01*
X57498Y15816D02*
X57498Y15928D01*
X57376Y15694D02*
X57498Y15816D01*
X57498Y15928D02*
X57498Y16251D01*
X56304Y18488D02*
X56710Y18894D01*
X59264Y18894D01*
X50449Y14117D02*
X51074Y14117D01*
X51504Y13688D01*
X49733Y14834D02*
X49733Y15441D01*
X49147Y16027D02*
X49733Y15441D01*
X56744Y15494D02*
X56944Y15694D01*
X57267Y15694D02*
X57416Y15545D01*
X57531Y15545D01*
X49733Y14834D02*
X50449Y14117D01*
X1734Y29999D02*
G03*
X0Y28264I0J-1734D01*
G01*
X77000Y28146D02*
G03*
X75147Y29999I-1853J0D01*
G01*
X75283Y0D02*
G03*
X77000Y1717I0J1717D01*
G01*
X0Y1649D02*
G03*
X1649Y0I1649J0D01*
G01*
X-1Y7341D02*
X6274Y7341D01*
X-1Y1702D02*
X-1Y7341D01*
X6274Y7341D02*
X6274Y23495D01*
X0Y23495D02*
X6274Y23495D01*
X0Y23495D02*
X0Y28264D01*
X1649Y-0D02*
X75283Y0D01*
X1734Y29999D02*
X75147Y29999D01*
X77000Y1717D02*
X77000Y28146D01*
X274322Y-134717D02*
X274322Y-109297D01*
X240322Y-134717D02*
X240322Y-109297D01*
X356142Y-109297D01*
X297722Y96423D02*
X297722Y101503D01*
X234222Y96423D02*
X234222Y101503D01*
X170722Y96423D02*
X170722Y101503D01*
X107222Y96423D02*
X107222Y101503D01*
X-14698Y96423D02*
X356142Y96423D01*
X-19778Y101503D02*
X361222Y101503D01*
X43722Y96423D02*
X43722Y101503D01*
X356142Y-134717D02*
X356142Y96423D01*
X361222Y-139797D02*
X361222Y101503D01*
X356142Y41178D02*
X361222Y41178D01*
X356142Y-19147D02*
X361222Y-19147D01*
X356142Y-79472D02*
X361222Y-79472D01*
X297722Y-139797D02*
X297722Y-134717D01*
X234222Y-139797D02*
X234222Y-134717D01*
X170722Y-139797D02*
X170722Y-134717D01*
X107222Y-139797D02*
X107222Y-134717D01*
X356142Y-134717D02*
X356142Y-104237D01*
X-19778Y-139797D02*
X-19778Y101503D01*
X-19778Y-139797D02*
X361222Y-139797D01*
X-14698Y-134717D02*
X-14698Y96423D01*
X-14698Y-134717D02*
X356142Y-134717D01*
X-19778Y41178D02*
X-14698Y41178D01*
X-19778Y-19147D02*
X-14698Y-19147D01*
X-19778Y-79472D02*
X-14698Y-79472D01*
X43722Y-139797D02*
X43722Y-134717D01*
X206282Y-134717D02*
X241842Y-134717D01*
X274322Y-130297D02*
X356142Y-130297D01*
X274322Y-124297D02*
X356142Y-124297D01*
X340822Y-134717D02*
X340822Y-124297D01*
X302322Y-134717D02*
X302322Y-118297D01*
X274322Y-118297D02*
X356142Y-118297D01*
X320322Y-130297D02*
X320322Y-124297D01*
X333322Y-134717D02*
X333322Y-130297D01*
X304138Y-119427D02*
X304084Y-119318D01*
X303975Y-119209D01*
X303866Y-119154D01*
X303648Y-119154D01*
X303540Y-119209D01*
X303431Y-119318D01*
X303376Y-119427D01*
X303322Y-119590D01*
X303322Y-119862D01*
X303376Y-120025D01*
X303431Y-120134D01*
X303540Y-120243D01*
X303648Y-120297D01*
X303866Y-120297D01*
X303975Y-120243D01*
X304084Y-120134D01*
X304138Y-120025D01*
X304138Y-119862D01*
X303866Y-119862D02*
X304138Y-119862D01*
X305107Y-119154D02*
X304399Y-119154D01*
X304399Y-120297D01*
X305107Y-120297D01*
X304399Y-119699D02*
X304835Y-119699D01*
X305297Y-119154D02*
X305297Y-120297D01*
X305297Y-119154D02*
X305787Y-119154D01*
X305950Y-119209D01*
X306005Y-119263D01*
X306059Y-119372D01*
X306059Y-119481D01*
X306005Y-119590D01*
X305950Y-119644D01*
X305787Y-119699D01*
X305297Y-119699D01*
X305678Y-119699D02*
X306059Y-120297D01*
X306315Y-119154D02*
X306315Y-120297D01*
X306315Y-119154D02*
X306805Y-119154D01*
X306968Y-119209D01*
X307022Y-119263D01*
X307077Y-119372D01*
X307077Y-119481D01*
X307022Y-119590D01*
X306968Y-119644D01*
X306805Y-119699D01*
X306315Y-119699D02*
X306805Y-119699D01*
X306968Y-119753D01*
X307022Y-119807D01*
X307077Y-119916D01*
X307077Y-120080D01*
X307022Y-120188D01*
X306968Y-120243D01*
X306805Y-120297D01*
X306315Y-120297D01*
X308040Y-119154D02*
X307333Y-119154D01*
X307333Y-120297D01*
X308040Y-120297D01*
X307333Y-119699D02*
X307768Y-119699D01*
X308230Y-119154D02*
X308230Y-120297D01*
X308230Y-119154D02*
X308720Y-119154D01*
X308883Y-119209D01*
X308938Y-119263D01*
X308992Y-119372D01*
X308992Y-119481D01*
X308938Y-119590D01*
X308883Y-119644D01*
X308720Y-119699D01*
X308230Y-119699D01*
X308611Y-119699D02*
X308992Y-120297D01*
X310146Y-119154D02*
X310146Y-120297D01*
X310146Y-119154D02*
X310853Y-119154D01*
X310146Y-119699D02*
X310581Y-119699D01*
X310984Y-119154D02*
X310984Y-120297D01*
X311223Y-119154D02*
X311223Y-120297D01*
X311876Y-120297D01*
X312709Y-119154D02*
X312001Y-119154D01*
X312001Y-120297D01*
X312709Y-120297D01*
X312001Y-119699D02*
X312437Y-119699D01*
X312954Y-119535D02*
X312899Y-119590D01*
X312954Y-119644D01*
X313008Y-119590D01*
X312954Y-119535D01*
X312954Y-120188D02*
X312899Y-120243D01*
X312954Y-120297D01*
X313008Y-120243D01*
X312954Y-120188D01*
X275322Y-133031D02*
X275564Y-134047D01*
X275806Y-133031D02*
X275564Y-134047D01*
X275806Y-133031D02*
X276048Y-134047D01*
X276289Y-133031D02*
X276048Y-134047D01*
X276493Y-133031D02*
X276493Y-134047D01*
X276493Y-133031D02*
X276928Y-133031D01*
X277073Y-133080D01*
X277121Y-133128D01*
X277170Y-133225D01*
X277170Y-133322D01*
X277121Y-133418D01*
X277073Y-133467D01*
X276928Y-133515D01*
X276493Y-133515D02*
X276928Y-133515D01*
X277073Y-133563D01*
X277121Y-133612D01*
X277170Y-133709D01*
X277170Y-133854D01*
X277121Y-133950D01*
X277073Y-133999D01*
X276928Y-134047D01*
X276493Y-134047D01*
X278074Y-133031D02*
X277397Y-134047D01*
X277397Y-133031D02*
X278074Y-133031D01*
X277397Y-134047D02*
X278074Y-134047D01*
X278785Y-133031D02*
X278302Y-133709D01*
X279027Y-133709D01*
X278785Y-133031D02*
X278785Y-134047D01*
X279787Y-133031D02*
X279303Y-133031D01*
X279255Y-133467D01*
X279303Y-133418D01*
X279448Y-133370D01*
X279593Y-133370D01*
X279738Y-133418D01*
X279835Y-133515D01*
X279883Y-133660D01*
X279883Y-133757D01*
X279835Y-133902D01*
X279738Y-133999D01*
X279593Y-134047D01*
X279448Y-134047D01*
X279303Y-133999D01*
X279255Y-133950D01*
X279206Y-133854D01*
X280111Y-133225D02*
X280207Y-133177D01*
X280353Y-133031D01*
X280353Y-134047D01*
X282379Y-133273D02*
X282331Y-133177D01*
X282234Y-133080D01*
X282137Y-133031D01*
X281944Y-133031D01*
X281847Y-133080D01*
X281750Y-133177D01*
X281702Y-133273D01*
X281654Y-133418D01*
X281654Y-133660D01*
X281702Y-133805D01*
X281750Y-133902D01*
X281847Y-133999D01*
X281944Y-134047D01*
X282137Y-134047D01*
X282234Y-133999D01*
X282331Y-133902D01*
X282379Y-133805D01*
X282665Y-133370D02*
X282665Y-133854D01*
X282713Y-133999D01*
X282810Y-134047D01*
X282955Y-134047D01*
X283052Y-133999D01*
X283197Y-133854D01*
X283197Y-133370D02*
X283197Y-134047D01*
X283463Y-133370D02*
X283463Y-134047D01*
X283463Y-133660D02*
X283511Y-133515D01*
X283608Y-133418D01*
X283705Y-133370D01*
X283850Y-133370D01*
X284038Y-133031D02*
X284087Y-133080D01*
X284135Y-133031D01*
X284087Y-132983D01*
X284038Y-133031D01*
X284087Y-133370D02*
X284087Y-134047D01*
X284556Y-133370D02*
X284459Y-133418D01*
X284362Y-133515D01*
X284314Y-133660D01*
X284314Y-133757D01*
X284362Y-133902D01*
X284459Y-133999D01*
X284556Y-134047D01*
X284701Y-134047D01*
X284798Y-133999D01*
X284895Y-133902D01*
X284943Y-133757D01*
X284943Y-133660D01*
X284895Y-133515D01*
X284798Y-133418D01*
X284701Y-133370D01*
X284556Y-133370D01*
X285697Y-133515D02*
X285649Y-133418D01*
X285504Y-133370D01*
X285359Y-133370D01*
X285214Y-133418D01*
X285165Y-133515D01*
X285214Y-133612D01*
X285311Y-133660D01*
X285552Y-133709D01*
X285649Y-133757D01*
X285697Y-133854D01*
X285697Y-133902D01*
X285649Y-133999D01*
X285504Y-134047D01*
X285359Y-134047D01*
X285214Y-133999D01*
X285165Y-133902D01*
X286007Y-133031D02*
X286055Y-133080D01*
X286104Y-133031D01*
X286055Y-132983D01*
X286007Y-133031D01*
X286055Y-133370D02*
X286055Y-134047D01*
X286428Y-133031D02*
X286428Y-133854D01*
X286476Y-133999D01*
X286573Y-134047D01*
X286670Y-134047D01*
X286283Y-133370D02*
X286621Y-133370D01*
X286863Y-133370D02*
X287153Y-134047D01*
X287444Y-133370D02*
X287153Y-134047D01*
X287057Y-134241D01*
X286960Y-134337D01*
X286863Y-134386D01*
X286815Y-134386D01*
X288411Y-133031D02*
X288411Y-134047D01*
X288411Y-133031D02*
X288846Y-133031D01*
X288992Y-133080D01*
X289040Y-133128D01*
X289088Y-133225D01*
X289088Y-133322D01*
X289040Y-133418D01*
X288992Y-133467D01*
X288846Y-133515D01*
X288411Y-133515D02*
X288846Y-133515D01*
X288992Y-133563D01*
X289040Y-133612D01*
X289088Y-133709D01*
X289088Y-133854D01*
X289040Y-133950D01*
X288992Y-133999D01*
X288846Y-134047D01*
X288411Y-134047D01*
X289557Y-133370D02*
X289461Y-133418D01*
X289364Y-133515D01*
X289316Y-133660D01*
X289316Y-133757D01*
X289364Y-133902D01*
X289461Y-133999D01*
X289557Y-134047D01*
X289703Y-134047D01*
X289799Y-133999D01*
X289896Y-133902D01*
X289944Y-133757D01*
X289944Y-133660D01*
X289896Y-133515D01*
X289799Y-133418D01*
X289703Y-133370D01*
X289557Y-133370D01*
X290747Y-133370D02*
X290747Y-134047D01*
X290747Y-133515D02*
X290651Y-133418D01*
X290554Y-133370D01*
X290409Y-133370D01*
X290312Y-133418D01*
X290215Y-133515D01*
X290167Y-133660D01*
X290167Y-133757D01*
X290215Y-133902D01*
X290312Y-133999D01*
X290409Y-134047D01*
X290554Y-134047D01*
X290651Y-133999D01*
X290747Y-133902D01*
X291018Y-133370D02*
X291018Y-134047D01*
X291018Y-133660D02*
X291067Y-133515D01*
X291163Y-133418D01*
X291260Y-133370D01*
X291405Y-133370D01*
X292078Y-133031D02*
X292078Y-134047D01*
X292078Y-133515D02*
X291981Y-133418D01*
X291884Y-133370D01*
X291739Y-133370D01*
X291642Y-133418D01*
X291546Y-133515D01*
X291497Y-133660D01*
X291497Y-133757D01*
X291546Y-133902D01*
X291642Y-133999D01*
X291739Y-134047D01*
X291884Y-134047D01*
X291981Y-133999D01*
X292078Y-133902D01*
X292348Y-133612D02*
X293219Y-133612D01*
X293519Y-133031D02*
X293519Y-134047D01*
X293519Y-133031D02*
X293954Y-133031D01*
X294099Y-133080D01*
X294148Y-133128D01*
X294196Y-133225D01*
X294196Y-133322D01*
X294148Y-133418D01*
X294099Y-133467D01*
X293954Y-133515D01*
X293519Y-133515D01*
X293858Y-133515D02*
X294196Y-134047D01*
X294907Y-133031D02*
X294424Y-133709D01*
X295149Y-133709D01*
X294907Y-133031D02*
X294907Y-134047D01*
X295376Y-133950D02*
X295328Y-133999D01*
X295376Y-134047D01*
X295425Y-133999D01*
X295376Y-133950D01*
X295647Y-133563D02*
X296083Y-133563D01*
X296228Y-133515D01*
X296276Y-133467D01*
X296325Y-133370D01*
X296325Y-133225D01*
X296276Y-133128D01*
X296228Y-133080D01*
X296083Y-133031D01*
X295647Y-133031D01*
X295647Y-134047D01*
X297132Y-133515D02*
X297036Y-133418D01*
X296939Y-133370D01*
X296794Y-133370D01*
X296697Y-133418D01*
X296600Y-133515D01*
X296552Y-133660D01*
X296552Y-133757D01*
X296600Y-133902D01*
X296697Y-133999D01*
X296794Y-134047D01*
X296939Y-134047D01*
X297036Y-133999D01*
X297132Y-133902D01*
X297350Y-133031D02*
X297350Y-134047D01*
X297350Y-133515D02*
X297447Y-133418D01*
X297543Y-133370D01*
X297689Y-133370D01*
X297785Y-133418D01*
X297882Y-133515D01*
X297930Y-133660D01*
X297930Y-133757D01*
X297882Y-133902D01*
X297785Y-133999D01*
X297689Y-134047D01*
X297543Y-134047D01*
X297447Y-133999D01*
X297350Y-133902D01*
X298148Y-133031D02*
X298148Y-134047D01*
X298148Y-133031D02*
X298487Y-133031D01*
X298632Y-133080D01*
X298729Y-133177D01*
X298777Y-133273D01*
X298825Y-133418D01*
X298825Y-133660D01*
X298777Y-133805D01*
X298729Y-133902D01*
X298632Y-133999D01*
X298487Y-134047D01*
X298148Y-134047D01*
X299294Y-133370D02*
X299198Y-133418D01*
X299101Y-133515D01*
X299053Y-133660D01*
X299053Y-133757D01*
X299101Y-133902D01*
X299198Y-133999D01*
X299294Y-134047D01*
X299440Y-134047D01*
X299536Y-133999D01*
X299633Y-133902D01*
X299681Y-133757D01*
X299681Y-133660D01*
X299633Y-133515D01*
X299536Y-133418D01*
X299440Y-133370D01*
X299294Y-133370D01*
X300484Y-133515D02*
X300388Y-133418D01*
X300291Y-133370D01*
X300146Y-133370D01*
X300049Y-133418D01*
X299952Y-133515D01*
X299904Y-133660D01*
X299904Y-133757D01*
X299952Y-133902D01*
X300049Y-133999D01*
X300146Y-134047D01*
X300291Y-134047D01*
X300388Y-133999D01*
X300484Y-133902D01*
X276029Y-125154D02*
X275322Y-125154D01*
X275322Y-126297D01*
X276029Y-126297D01*
X275322Y-125699D02*
X275757Y-125699D01*
X276220Y-125154D02*
X276220Y-126297D01*
X276220Y-125154D02*
X276982Y-126297D01*
X276982Y-125154D02*
X276982Y-126297D01*
X278114Y-125427D02*
X278059Y-125318D01*
X277950Y-125209D01*
X277842Y-125154D01*
X277624Y-125154D01*
X277515Y-125209D01*
X277406Y-125318D01*
X277352Y-125427D01*
X277297Y-125590D01*
X277297Y-125862D01*
X277352Y-126025D01*
X277406Y-126134D01*
X277515Y-126243D01*
X277624Y-126297D01*
X277842Y-126297D01*
X277950Y-126243D01*
X278059Y-126134D01*
X278114Y-126025D01*
X278114Y-125862D01*
X277842Y-125862D02*
X278114Y-125862D01*
X278375Y-125154D02*
X278375Y-126297D01*
X278614Y-125154D02*
X278614Y-126297D01*
X278614Y-125154D02*
X279376Y-126297D01*
X279376Y-125154D02*
X279376Y-126297D01*
X280399Y-125154D02*
X279692Y-125154D01*
X279692Y-126297D01*
X280399Y-126297D01*
X279692Y-125699D02*
X280127Y-125699D01*
X281297Y-125154D02*
X280590Y-125154D01*
X280590Y-126297D01*
X281297Y-126297D01*
X280590Y-125699D02*
X281025Y-125699D01*
X281487Y-125154D02*
X281487Y-126297D01*
X281487Y-125154D02*
X281977Y-125154D01*
X282140Y-125209D01*
X282195Y-125263D01*
X282249Y-125372D01*
X282249Y-125481D01*
X282195Y-125590D01*
X282140Y-125644D01*
X281977Y-125699D01*
X281487Y-125699D01*
X281868Y-125699D02*
X282249Y-126297D01*
X282559Y-125535D02*
X282505Y-125590D01*
X282559Y-125644D01*
X282614Y-125590D01*
X282559Y-125535D01*
X282559Y-126188D02*
X282505Y-126243D01*
X282559Y-126297D01*
X282614Y-126243D01*
X282559Y-126188D01*
X275703Y-110654D02*
X275703Y-111797D01*
X275322Y-110654D02*
X276084Y-110654D01*
X276220Y-110654D02*
X276220Y-111797D01*
X276840Y-110654D02*
X276840Y-111797D01*
X276459Y-110654D02*
X277221Y-110654D01*
X277357Y-110654D02*
X277357Y-111797D01*
X278010Y-111797D01*
X278843Y-110654D02*
X278135Y-110654D01*
X278135Y-111797D01*
X278843Y-111797D01*
X278135Y-111199D02*
X278571Y-111199D01*
X279088Y-111035D02*
X279033Y-111090D01*
X279088Y-111144D01*
X279142Y-111090D01*
X279088Y-111035D01*
X279088Y-111688D02*
X279033Y-111743D01*
X279088Y-111797D01*
X279142Y-111743D01*
X279088Y-111688D01*
X275322Y-119753D02*
X275812Y-119753D01*
X275975Y-119699D01*
X276029Y-119644D01*
X276084Y-119535D01*
X276084Y-119372D01*
X276029Y-119263D01*
X275975Y-119209D01*
X275812Y-119154D01*
X275322Y-119154D01*
X275322Y-120297D01*
X277156Y-119427D02*
X277101Y-119318D01*
X276993Y-119209D01*
X276884Y-119154D01*
X276666Y-119154D01*
X276557Y-119209D01*
X276448Y-119318D01*
X276394Y-119427D01*
X276340Y-119590D01*
X276340Y-119862D01*
X276394Y-120025D01*
X276448Y-120134D01*
X276557Y-120243D01*
X276666Y-120297D01*
X276884Y-120297D01*
X276993Y-120243D01*
X277101Y-120134D01*
X277156Y-120025D01*
X277477Y-119154D02*
X277477Y-120297D01*
X277477Y-119154D02*
X277967Y-119154D01*
X278130Y-119209D01*
X278184Y-119263D01*
X278239Y-119372D01*
X278239Y-119481D01*
X278184Y-119590D01*
X278130Y-119644D01*
X277967Y-119699D01*
X277477Y-119699D02*
X277967Y-119699D01*
X278130Y-119753D01*
X278184Y-119807D01*
X278239Y-119916D01*
X278239Y-120080D01*
X278184Y-120188D01*
X278130Y-120243D01*
X277967Y-120297D01*
X277477Y-120297D01*
X279392Y-119154D02*
X279392Y-120297D01*
X279392Y-119154D02*
X279773Y-119154D01*
X279937Y-119209D01*
X280045Y-119318D01*
X280100Y-119427D01*
X280154Y-119590D01*
X280154Y-119862D01*
X280100Y-120025D01*
X280045Y-120134D01*
X279937Y-120243D01*
X279773Y-120297D01*
X279392Y-120297D01*
X281117Y-119154D02*
X280410Y-119154D01*
X280410Y-120297D01*
X281117Y-120297D01*
X280410Y-119699D02*
X280845Y-119699D01*
X282070Y-119318D02*
X281961Y-119209D01*
X281798Y-119154D01*
X281580Y-119154D01*
X281417Y-119209D01*
X281308Y-119318D01*
X281308Y-119427D01*
X281362Y-119535D01*
X281417Y-119590D01*
X281526Y-119644D01*
X281852Y-119753D01*
X281961Y-119807D01*
X282015Y-119862D01*
X282070Y-119971D01*
X282070Y-120134D01*
X281961Y-120243D01*
X281798Y-120297D01*
X281580Y-120297D01*
X281417Y-120243D01*
X281308Y-120134D01*
X282325Y-119154D02*
X282325Y-120297D01*
X283381Y-119427D02*
X283327Y-119318D01*
X283218Y-119209D01*
X283109Y-119154D01*
X282891Y-119154D01*
X282783Y-119209D01*
X282674Y-119318D01*
X282619Y-119427D01*
X282565Y-119590D01*
X282565Y-119862D01*
X282619Y-120025D01*
X282674Y-120134D01*
X282783Y-120243D01*
X282891Y-120297D01*
X283109Y-120297D01*
X283218Y-120243D01*
X283327Y-120134D01*
X283381Y-120025D01*
X283381Y-119862D01*
X283109Y-119862D02*
X283381Y-119862D01*
X283642Y-119154D02*
X283642Y-120297D01*
X283642Y-119154D02*
X284404Y-120297D01*
X284404Y-119154D02*
X284404Y-120297D01*
X285427Y-119154D02*
X284720Y-119154D01*
X284720Y-120297D01*
X285427Y-120297D01*
X284720Y-119699D02*
X285155Y-119699D01*
X285618Y-119154D02*
X285618Y-120297D01*
X285618Y-119154D02*
X286107Y-119154D01*
X286271Y-119209D01*
X286325Y-119263D01*
X286380Y-119372D01*
X286380Y-119481D01*
X286325Y-119590D01*
X286271Y-119644D01*
X286107Y-119699D01*
X285618Y-119699D01*
X285999Y-119699D02*
X286380Y-120297D01*
X286690Y-119535D02*
X286635Y-119590D01*
X286690Y-119644D01*
X286744Y-119590D01*
X286690Y-119535D01*
X286690Y-120188D02*
X286635Y-120243D01*
X286690Y-120297D01*
X286744Y-120243D01*
X286690Y-120188D01*
X275322Y-131503D02*
X275812Y-131503D01*
X275975Y-131449D01*
X276029Y-131394D01*
X276084Y-131285D01*
X276084Y-131122D01*
X276029Y-131013D01*
X275975Y-130959D01*
X275812Y-130904D01*
X275322Y-130904D01*
X275322Y-132047D01*
X277156Y-131177D02*
X277101Y-131068D01*
X276993Y-130959D01*
X276884Y-130904D01*
X276666Y-130904D01*
X276557Y-130959D01*
X276448Y-131068D01*
X276394Y-131177D01*
X276340Y-131340D01*
X276340Y-131612D01*
X276394Y-131775D01*
X276448Y-131884D01*
X276557Y-131993D01*
X276666Y-132047D01*
X276884Y-132047D01*
X276993Y-131993D01*
X277101Y-131884D01*
X277156Y-131775D01*
X277477Y-130904D02*
X277477Y-132047D01*
X277477Y-130904D02*
X277967Y-130904D01*
X278130Y-130959D01*
X278184Y-131013D01*
X278239Y-131122D01*
X278239Y-131231D01*
X278184Y-131340D01*
X278130Y-131394D01*
X277967Y-131449D01*
X277477Y-131449D02*
X277967Y-131449D01*
X278130Y-131503D01*
X278184Y-131557D01*
X278239Y-131666D01*
X278239Y-131830D01*
X278184Y-131938D01*
X278130Y-131993D01*
X277967Y-132047D01*
X277477Y-132047D01*
X279392Y-130904D02*
X279392Y-132047D01*
X279392Y-130904D02*
X280100Y-130904D01*
X279392Y-131449D02*
X279828Y-131449D01*
X280230Y-130904D02*
X280230Y-132047D01*
X280470Y-130904D02*
X280470Y-132047D01*
X281123Y-132047D01*
X281955Y-130904D02*
X281248Y-130904D01*
X281248Y-132047D01*
X281955Y-132047D01*
X281248Y-131449D02*
X281683Y-131449D01*
X283044Y-130904D02*
X283044Y-132047D01*
X283044Y-130904D02*
X283806Y-132047D01*
X283806Y-130904D02*
X283806Y-132047D01*
X284992Y-132047D02*
X284557Y-130904D01*
X284121Y-132047D01*
X284284Y-131666D02*
X284829Y-131666D01*
X285259Y-130904D02*
X285259Y-132047D01*
X285259Y-130904D02*
X285694Y-132047D01*
X286129Y-130904D02*
X285694Y-132047D01*
X286129Y-130904D02*
X286129Y-132047D01*
X287163Y-130904D02*
X286456Y-130904D01*
X286456Y-132047D01*
X287163Y-132047D01*
X286456Y-131449D02*
X286891Y-131449D01*
X287408Y-131285D02*
X287354Y-131340D01*
X287408Y-131394D01*
X287462Y-131340D01*
X287408Y-131285D01*
X287408Y-131938D02*
X287354Y-131993D01*
X287408Y-132047D01*
X287462Y-131993D01*
X287408Y-131938D01*
X303322Y-125154D02*
X303322Y-126297D01*
X303322Y-125154D02*
X303812Y-125154D01*
X303975Y-125209D01*
X304029Y-125263D01*
X304084Y-125372D01*
X304084Y-125481D01*
X304029Y-125590D01*
X303975Y-125644D01*
X303812Y-125699D01*
X303322Y-125699D02*
X303812Y-125699D01*
X303975Y-125753D01*
X304029Y-125807D01*
X304084Y-125916D01*
X304084Y-126080D01*
X304029Y-126188D01*
X303975Y-126243D01*
X303812Y-126297D01*
X303322Y-126297D01*
X304666Y-125154D02*
X304557Y-125209D01*
X304448Y-125318D01*
X304394Y-125427D01*
X304340Y-125590D01*
X304340Y-125862D01*
X304394Y-126025D01*
X304448Y-126134D01*
X304557Y-126243D01*
X304666Y-126297D01*
X304884Y-126297D01*
X304993Y-126243D01*
X305101Y-126134D01*
X305156Y-126025D01*
X305210Y-125862D01*
X305210Y-125590D01*
X305156Y-125427D01*
X305101Y-125318D01*
X304993Y-125209D01*
X304884Y-125154D01*
X304666Y-125154D01*
X306348Y-126297D02*
X305912Y-125154D01*
X305477Y-126297D01*
X305640Y-125916D02*
X306184Y-125916D01*
X306614Y-125154D02*
X306614Y-126297D01*
X306614Y-125154D02*
X307104Y-125154D01*
X307267Y-125209D01*
X307322Y-125263D01*
X307376Y-125372D01*
X307376Y-125481D01*
X307322Y-125590D01*
X307267Y-125644D01*
X307104Y-125699D01*
X306614Y-125699D01*
X306995Y-125699D02*
X307376Y-126297D01*
X307632Y-125154D02*
X307632Y-126297D01*
X307632Y-125154D02*
X308013Y-125154D01*
X308176Y-125209D01*
X308285Y-125318D01*
X308339Y-125427D01*
X308394Y-125590D01*
X308394Y-125862D01*
X308339Y-126025D01*
X308285Y-126134D01*
X308176Y-126243D01*
X308013Y-126297D01*
X307632Y-126297D01*
X309547Y-125154D02*
X309547Y-126297D01*
X309547Y-125154D02*
X310309Y-126297D01*
X310309Y-125154D02*
X310309Y-126297D01*
X310625Y-125154D02*
X310625Y-125971D01*
X310679Y-126134D01*
X310788Y-126243D01*
X310951Y-126297D01*
X311060Y-126297D01*
X311223Y-126243D01*
X311332Y-126134D01*
X311387Y-125971D01*
X311387Y-125154D01*
X311702Y-125154D02*
X311702Y-126297D01*
X311702Y-125154D02*
X312138Y-126297D01*
X312573Y-125154D02*
X312138Y-126297D01*
X312573Y-125154D02*
X312573Y-126297D01*
X312899Y-125154D02*
X312899Y-126297D01*
X312899Y-125154D02*
X313389Y-125154D01*
X313552Y-125209D01*
X313607Y-125263D01*
X313661Y-125372D01*
X313661Y-125481D01*
X313607Y-125590D01*
X313552Y-125644D01*
X313389Y-125699D01*
X312899Y-125699D02*
X313389Y-125699D01*
X313552Y-125753D01*
X313607Y-125807D01*
X313661Y-125916D01*
X313661Y-126080D01*
X313607Y-126188D01*
X313552Y-126243D01*
X313389Y-126297D01*
X312899Y-126297D01*
X314624Y-125154D02*
X313917Y-125154D01*
X313917Y-126297D01*
X314624Y-126297D01*
X313917Y-125699D02*
X314352Y-125699D01*
X314815Y-125154D02*
X314815Y-126297D01*
X314815Y-125154D02*
X315305Y-125154D01*
X315468Y-125209D01*
X315522Y-125263D01*
X315577Y-125372D01*
X315577Y-125481D01*
X315522Y-125590D01*
X315468Y-125644D01*
X315305Y-125699D01*
X314815Y-125699D01*
X315196Y-125699D02*
X315577Y-126297D01*
X315887Y-125535D02*
X315832Y-125590D01*
X315887Y-125644D01*
X315941Y-125590D01*
X315887Y-125535D01*
X315887Y-126188D02*
X315832Y-126243D01*
X315887Y-126297D01*
X315941Y-126243D01*
X315887Y-126188D01*
X342022Y-125154D02*
X342022Y-126297D01*
X342022Y-125154D02*
X342403Y-125154D01*
X342566Y-125209D01*
X342675Y-125318D01*
X342729Y-125427D01*
X342784Y-125590D01*
X342784Y-125862D01*
X342729Y-126025D01*
X342675Y-126134D01*
X342566Y-126243D01*
X342403Y-126297D01*
X342022Y-126297D01*
X343910Y-126297D02*
X343475Y-125154D01*
X343040Y-126297D01*
X343203Y-125916D02*
X343747Y-125916D01*
X344558Y-125154D02*
X344558Y-126297D01*
X344177Y-125154D02*
X344939Y-125154D01*
X345782Y-125154D02*
X345075Y-125154D01*
X345075Y-126297D01*
X345782Y-126297D01*
X345075Y-125699D02*
X345510Y-125699D01*
X346027Y-125535D02*
X345973Y-125590D01*
X346027Y-125644D01*
X346082Y-125590D01*
X346027Y-125535D01*
X346027Y-126188D02*
X345973Y-126243D01*
X346027Y-126297D01*
X346082Y-126243D01*
X346027Y-126188D01*
X303322Y-130654D02*
X303322Y-131797D01*
X303975Y-131797D01*
X304971Y-131797D02*
X304535Y-130654D01*
X304100Y-131797D01*
X304263Y-131416D02*
X304808Y-131416D01*
X305237Y-130654D02*
X305673Y-131199D01*
X305673Y-131797D01*
X306108Y-130654D02*
X305673Y-131199D01*
X306962Y-130654D02*
X306255Y-130654D01*
X306255Y-131797D01*
X306962Y-131797D01*
X306255Y-131199D02*
X306690Y-131199D01*
X307153Y-130654D02*
X307153Y-131797D01*
X307153Y-130654D02*
X307643Y-130654D01*
X307806Y-130709D01*
X307860Y-130763D01*
X307915Y-130872D01*
X307915Y-130981D01*
X307860Y-131090D01*
X307806Y-131144D01*
X307643Y-131199D01*
X307153Y-131199D01*
X307534Y-131199D02*
X307915Y-131797D01*
X309068Y-130654D02*
X309068Y-131797D01*
X309068Y-130654D02*
X309830Y-131797D01*
X309830Y-130654D02*
X309830Y-131797D01*
X311017Y-131797D02*
X310581Y-130654D01*
X310146Y-131797D01*
X310309Y-131416D02*
X310853Y-131416D01*
X311283Y-130654D02*
X311283Y-131797D01*
X311283Y-130654D02*
X311719Y-131797D01*
X312154Y-130654D02*
X311719Y-131797D01*
X312154Y-130654D02*
X312154Y-131797D01*
X313188Y-130654D02*
X312480Y-130654D01*
X312480Y-131797D01*
X313188Y-131797D01*
X312480Y-131199D02*
X312916Y-131199D01*
X313433Y-131035D02*
X313378Y-131090D01*
X313433Y-131144D01*
X313487Y-131090D01*
X313433Y-131035D01*
X313433Y-131688D02*
X313378Y-131743D01*
X313433Y-131797D01*
X313487Y-131743D01*
X313433Y-131688D01*
X334072Y-130904D02*
X334072Y-132047D01*
X334072Y-130904D02*
X334562Y-130904D01*
X334725Y-130959D01*
X334779Y-131013D01*
X334834Y-131122D01*
X334834Y-131231D01*
X334779Y-131340D01*
X334725Y-131394D01*
X334562Y-131449D01*
X334072Y-131449D01*
X334453Y-131449D02*
X334834Y-132047D01*
X335797Y-130904D02*
X335090Y-130904D01*
X335090Y-132047D01*
X335797Y-132047D01*
X335090Y-131449D02*
X335525Y-131449D01*
X335987Y-130904D02*
X336423Y-132047D01*
X336858Y-130904D02*
X336423Y-132047D01*
X337059Y-131285D02*
X337005Y-131340D01*
X337059Y-131394D01*
X337114Y-131340D01*
X337059Y-131285D01*
X337059Y-131938D02*
X337005Y-131993D01*
X337059Y-132047D01*
X337114Y-131993D01*
X337059Y-131938D01*
D16*
X345108Y-110277D02*
X344322Y-110277D01*
X344322Y-111547D01*
X345108Y-111547D01*
X344322Y-110882D02*
X344806Y-110882D01*
X345320Y-110277D02*
X345803Y-111547D01*
X346287Y-110277D02*
X345803Y-111547D01*
X347236Y-110701D02*
X347176Y-110882D01*
X347055Y-111003D01*
X346874Y-111063D01*
X346813Y-111063D01*
X346632Y-111003D01*
X346511Y-110882D01*
X346450Y-110701D01*
X346450Y-110640D01*
X346511Y-110459D01*
X346632Y-110338D01*
X346813Y-110277D01*
X346874Y-110277D01*
X347055Y-110338D01*
X347176Y-110459D01*
X347236Y-110701D01*
X347236Y-111003D01*
X347176Y-111305D01*
X347055Y-111487D01*
X346874Y-111547D01*
X346753Y-111547D01*
X346571Y-111487D01*
X346511Y-111366D01*
X348307Y-110459D02*
X348246Y-110338D01*
X348065Y-110277D01*
X347944Y-110277D01*
X347762Y-110338D01*
X347641Y-110519D01*
X347581Y-110822D01*
X347581Y-111124D01*
X347641Y-111366D01*
X347762Y-111487D01*
X347944Y-111547D01*
X348004Y-111547D01*
X348186Y-111487D01*
X348307Y-111366D01*
X348367Y-111184D01*
X348367Y-111124D01*
X348307Y-110943D01*
X348186Y-110822D01*
X348004Y-110761D01*
X347944Y-110761D01*
X347762Y-110822D01*
X347641Y-110943D01*
X347581Y-111124D01*
X348645Y-110277D02*
X348645Y-111547D01*
X348645Y-110277D02*
X349189Y-110277D01*
X349371Y-110338D01*
X349431Y-110398D01*
X349492Y-110519D01*
X349492Y-110640D01*
X349431Y-110761D01*
X349371Y-110822D01*
X349189Y-110882D01*
X348645Y-110882D02*
X349189Y-110882D01*
X349371Y-110943D01*
X349431Y-111003D01*
X349492Y-111124D01*
X349492Y-111305D01*
X349431Y-111426D01*
X349371Y-111487D01*
X349189Y-111547D01*
X348645Y-111547D01*
X350562Y-110701D02*
X350501Y-110882D01*
X350380Y-111003D01*
X350199Y-111063D01*
X350139Y-111063D01*
X349957Y-111003D01*
X349836Y-110882D01*
X349776Y-110701D01*
X349776Y-110640D01*
X349836Y-110459D01*
X349957Y-110338D01*
X350139Y-110277D01*
X350199Y-110277D01*
X350380Y-110338D01*
X350501Y-110459D01*
X350562Y-110701D01*
X350562Y-111003D01*
X350501Y-111305D01*
X350380Y-111487D01*
X350199Y-111547D01*
X350078Y-111547D01*
X349897Y-111487D01*
X349836Y-111366D01*
X351511Y-110277D02*
X350906Y-111124D01*
X351813Y-111124D01*
X351511Y-110277D02*
X351511Y-111547D01*
X353005Y-111547D02*
X352521Y-110277D01*
X352037Y-111547D01*
X352219Y-111124D02*
X352823Y-111124D01*
D18*
X302822Y-132548D02*
X303393Y-134047D01*
X303965Y-132548D02*
X303393Y-134047D01*
X305229Y-132905D02*
X305157Y-132762D01*
X305014Y-132619D01*
X304872Y-132548D01*
X304586Y-132548D01*
X304443Y-132619D01*
X304300Y-132762D01*
X304229Y-132905D01*
X304157Y-133119D01*
X304157Y-133476D01*
X304229Y-133690D01*
X304300Y-133833D01*
X304443Y-133976D01*
X304586Y-134047D01*
X304872Y-134047D01*
X305014Y-133976D01*
X305157Y-133833D01*
X305229Y-133690D01*
X306721Y-132905D02*
X306650Y-132762D01*
X306507Y-132619D01*
X306364Y-132548D01*
X306078Y-132548D01*
X305936Y-132619D01*
X305793Y-132762D01*
X305721Y-132905D01*
X305650Y-133119D01*
X305650Y-133476D01*
X305721Y-133690D01*
X305793Y-133833D01*
X305936Y-133976D01*
X306078Y-134047D01*
X306364Y-134047D01*
X306507Y-133976D01*
X306650Y-133833D01*
X306721Y-133690D01*
X322518Y-132525D02*
X322518Y-133795D01*
X322518Y-132525D02*
X323062Y-132525D01*
X323243Y-132586D01*
X323304Y-132646D01*
X323364Y-132767D01*
X323364Y-132888D01*
X323304Y-133009D01*
X323243Y-133070D01*
X323062Y-133130D01*
X322518Y-133130D02*
X323062Y-133130D01*
X323243Y-133190D01*
X323304Y-133251D01*
X323364Y-133372D01*
X323364Y-133553D01*
X323304Y-133674D01*
X323243Y-133735D01*
X323062Y-133795D01*
X322518Y-133795D01*
X324011Y-132525D02*
X323890Y-132586D01*
X323769Y-132707D01*
X323709Y-132828D01*
X323648Y-133009D01*
X323648Y-133311D01*
X323709Y-133493D01*
X323769Y-133614D01*
X323890Y-133735D01*
X324011Y-133795D01*
X324253Y-133795D01*
X324374Y-133735D01*
X324495Y-133614D01*
X324555Y-133493D01*
X324616Y-133311D01*
X324616Y-133009D01*
X324555Y-132828D01*
X324495Y-132707D01*
X324374Y-132586D01*
X324253Y-132525D01*
X324011Y-132525D01*
X325879Y-133795D02*
X325396Y-132525D01*
X324912Y-133795D01*
X325093Y-133372D02*
X325698Y-133372D01*
X326176Y-132525D02*
X326176Y-133795D01*
X326176Y-132525D02*
X326720Y-132525D01*
X326901Y-132586D01*
X326962Y-132646D01*
X327022Y-132767D01*
X327022Y-132888D01*
X326962Y-133009D01*
X326901Y-133070D01*
X326720Y-133130D01*
X326176Y-133130D01*
X326599Y-133130D02*
X327022Y-133795D01*
X327306Y-132525D02*
X327306Y-133795D01*
X327306Y-132525D02*
X327729Y-132525D01*
X327911Y-132586D01*
X328032Y-132707D01*
X328092Y-132828D01*
X328153Y-133009D01*
X328153Y-133311D01*
X328092Y-133493D01*
X328032Y-133614D01*
X327911Y-133735D01*
X327729Y-133795D01*
X327306Y-133795D01*
X329858Y-132284D02*
X329737Y-132404D01*
X329616Y-132586D01*
X329495Y-132828D01*
X329435Y-133130D01*
X329435Y-133372D01*
X329495Y-133674D01*
X329616Y-133916D01*
X329737Y-134097D01*
X329858Y-134218D01*
X329737Y-132404D02*
X329616Y-132646D01*
X329555Y-132828D01*
X329495Y-133130D01*
X329495Y-133372D01*
X329555Y-133674D01*
X329616Y-133856D01*
X329737Y-134097D01*
X330100Y-132525D02*
X330100Y-133795D01*
X330100Y-132525D02*
X330583Y-133795D01*
X331067Y-132525D02*
X330583Y-133795D01*
X331067Y-132525D02*
X331067Y-133795D01*
X331490Y-132828D02*
X331490Y-132767D01*
X331551Y-132646D01*
X331611Y-132586D01*
X331732Y-132525D01*
X331974Y-132525D01*
X332095Y-132586D01*
X332155Y-132646D01*
X332216Y-132767D01*
X332216Y-132888D01*
X332155Y-133009D01*
X332034Y-133190D01*
X331430Y-133795D01*
X332276Y-133795D01*
X332560Y-132284D02*
X332681Y-132404D01*
X332802Y-132586D01*
X332923Y-132828D01*
X332984Y-133130D01*
X332984Y-133372D01*
X332923Y-133674D01*
X332802Y-133916D01*
X332681Y-134097D01*
X332560Y-134218D01*
X332681Y-132404D02*
X332802Y-132646D01*
X332863Y-132828D01*
X332923Y-133130D01*
X332923Y-133372D01*
X332863Y-133674D01*
X332802Y-133856D01*
X332681Y-134097D01*
X342022Y-128083D02*
X342165Y-128012D01*
X342379Y-127798D01*
X342379Y-129297D01*
X343122Y-129511D02*
X344122Y-127798D01*
X344222Y-128083D02*
X344364Y-128012D01*
X344579Y-127798D01*
X344579Y-129297D01*
X346321Y-127798D02*
X345607Y-129297D01*
X345321Y-127798D02*
X346321Y-127798D01*
X346657Y-129511D02*
X347657Y-127798D01*
X347828Y-128155D02*
X347828Y-128083D01*
X347899Y-127940D01*
X347971Y-127869D01*
X348114Y-127798D01*
X348399Y-127798D01*
X348542Y-127869D01*
X348613Y-127940D01*
X348685Y-128083D01*
X348685Y-128226D01*
X348613Y-128369D01*
X348471Y-128583D01*
X347757Y-129297D01*
X348756Y-129297D01*
X349520Y-127798D02*
X349306Y-127869D01*
X349163Y-128083D01*
X349092Y-128440D01*
X349092Y-128654D01*
X349163Y-129012D01*
X349306Y-129226D01*
X349520Y-129297D01*
X349663Y-129297D01*
X349877Y-129226D01*
X350020Y-129012D01*
X350092Y-128654D01*
X350092Y-128440D01*
X350020Y-128083D01*
X349877Y-127869D01*
X349663Y-127798D01*
X349520Y-127798D01*
X350499Y-128155D02*
X350499Y-128083D01*
X350570Y-127940D01*
X350642Y-127869D01*
X350784Y-127798D01*
X351070Y-127798D01*
X351213Y-127869D01*
X351284Y-127940D01*
X351356Y-128083D01*
X351356Y-128226D01*
X351284Y-128369D01*
X351141Y-128583D01*
X350427Y-129297D01*
X351427Y-129297D01*
X351834Y-128155D02*
X351834Y-128083D01*
X351906Y-127940D01*
X351977Y-127869D01*
X352120Y-127798D01*
X352405Y-127798D01*
X352548Y-127869D01*
X352620Y-127940D01*
X352691Y-128083D01*
X352691Y-128226D01*
X352620Y-128369D01*
X352477Y-128583D01*
X351763Y-129297D01*
X352763Y-129297D01*
X332322Y-110821D02*
X332750Y-110821D01*
X332893Y-110773D01*
X332941Y-110726D01*
X332989Y-110631D01*
X332989Y-110488D01*
X332941Y-110393D01*
X332893Y-110345D01*
X332750Y-110297D01*
X332322Y-110297D01*
X332322Y-111297D01*
X333974Y-111297D02*
X333593Y-110297D01*
X333212Y-111297D01*
X333355Y-110964D02*
X333831Y-110964D01*
X334207Y-110297D02*
X334207Y-111297D01*
X334207Y-110297D02*
X334636Y-110297D01*
X334779Y-110345D01*
X334826Y-110393D01*
X334874Y-110488D01*
X334874Y-110583D01*
X334826Y-110678D01*
X334779Y-110726D01*
X334636Y-110773D01*
X334207Y-110773D01*
X334541Y-110773D02*
X334874Y-111297D01*
X335431Y-110297D02*
X335431Y-111297D01*
X335098Y-110297D02*
X335764Y-110297D01*
X336669Y-110297D02*
X336669Y-111297D01*
X336669Y-110297D02*
X337335Y-111297D01*
X337335Y-110297D02*
X337335Y-111297D01*
X337611Y-110297D02*
X337611Y-111012D01*
X337659Y-111154D01*
X337754Y-111250D01*
X337897Y-111297D01*
X337992Y-111297D01*
X338135Y-111250D01*
X338230Y-111154D01*
X338278Y-111012D01*
X338278Y-110297D01*
X338554Y-110297D02*
X338554Y-111297D01*
X338554Y-110297D02*
X338935Y-111297D01*
X339316Y-110297D02*
X338935Y-111297D01*
X339316Y-110297D02*
X339316Y-111297D01*
X339601Y-110297D02*
X339601Y-111297D01*
X339601Y-110297D02*
X340030Y-110297D01*
X340173Y-110345D01*
X340220Y-110393D01*
X340268Y-110488D01*
X340268Y-110583D01*
X340220Y-110678D01*
X340173Y-110726D01*
X340030Y-110773D01*
X339601Y-110773D02*
X340030Y-110773D01*
X340173Y-110821D01*
X340220Y-110869D01*
X340268Y-110964D01*
X340268Y-111107D01*
X340220Y-111202D01*
X340173Y-111250D01*
X340030Y-111297D01*
X339601Y-111297D01*
X341111Y-110297D02*
X340492Y-110297D01*
X340492Y-111297D01*
X341111Y-111297D01*
X340492Y-110773D02*
X340873Y-110773D01*
X341277Y-110297D02*
X341277Y-111297D01*
X341277Y-110297D02*
X341706Y-110297D01*
X341849Y-110345D01*
X341896Y-110393D01*
X341944Y-110488D01*
X341944Y-110583D01*
X341896Y-110678D01*
X341849Y-110726D01*
X341706Y-110773D01*
X341277Y-110773D01*
X341611Y-110773D02*
X341944Y-111297D01*
X342215Y-110631D02*
X342168Y-110678D01*
X342215Y-110726D01*
X342263Y-110678D01*
X342215Y-110631D01*
X342215Y-111202D02*
X342168Y-111250D01*
X342215Y-111297D01*
X342263Y-111250D01*
X342215Y-111202D01*
D20*
X44094Y6350D02*
X45288Y6350D01*
X28499Y8369D02*
X29464Y8369D01*
D22*
X338192Y-132441D02*
X337478Y-133441D01*
X338549Y-133441D01*
X338192Y-132441D02*
X338192Y-133941D01*
X338885Y-133798D02*
X338814Y-133869D01*
X338885Y-133941D01*
X338957Y-133869D01*
X338885Y-133798D01*
X339714Y-132441D02*
X339499Y-132512D01*
X339356Y-132727D01*
X339285Y-133084D01*
X339285Y-133298D01*
X339356Y-133655D01*
X339499Y-133869D01*
X339714Y-133941D01*
X339856Y-133941D01*
X340071Y-133869D01*
X340213Y-133655D01*
X340285Y-133298D01*
X340285Y-133084D01*
X340213Y-132727D01*
X340071Y-132512D01*
X339856Y-132441D01*
X339714Y-132441D01*
X11498Y99640D02*
X11667Y99724D01*
X11921Y99978D01*
X11921Y98201D01*
X74972Y99555D02*
X74972Y99640D01*
X75057Y99809D01*
X75142Y99894D01*
X75311Y99978D01*
X75650Y99978D01*
X75819Y99894D01*
X75904Y99809D01*
X75988Y99640D01*
X75988Y99471D01*
X75904Y99301D01*
X75734Y99047D01*
X74888Y98201D01*
X76073Y98201D01*
X138286Y99978D02*
X139218Y99978D01*
X138710Y99301D01*
X138964Y99301D01*
X139133Y99217D01*
X139218Y99132D01*
X139302Y98878D01*
X139302Y98709D01*
X139218Y98455D01*
X139048Y98285D01*
X138794Y98201D01*
X138540Y98201D01*
X138286Y98285D01*
X138202Y98370D01*
X138117Y98539D01*
X202633Y99978D02*
X201786Y98793D01*
X203056Y98793D01*
X202633Y99978D02*
X202633Y98201D01*
X266277Y99978D02*
X265430Y99978D01*
X265345Y99217D01*
X265430Y99301D01*
X265684Y99386D01*
X265938Y99386D01*
X266192Y99301D01*
X266361Y99132D01*
X266446Y98878D01*
X266446Y98709D01*
X266361Y98455D01*
X266192Y98285D01*
X265938Y98201D01*
X265684Y98201D01*
X265430Y98285D01*
X265345Y98370D01*
X265261Y98539D01*
X329904Y99724D02*
X329819Y99894D01*
X329565Y99978D01*
X329396Y99978D01*
X329142Y99894D01*
X328972Y99640D01*
X328888Y99217D01*
X328888Y98793D01*
X328972Y98455D01*
X329142Y98285D01*
X329396Y98201D01*
X329480Y98201D01*
X329734Y98285D01*
X329904Y98455D01*
X329988Y98709D01*
X329988Y98793D01*
X329904Y99047D01*
X329734Y99217D01*
X329480Y99301D01*
X329396Y99301D01*
X329142Y99217D01*
X328972Y99047D01*
X328888Y98793D01*
X359401Y69169D02*
X358724Y70946D01*
X358047Y69169D01*
X358301Y69761D02*
X359147Y69761D01*
X358047Y10494D02*
X358047Y8717D01*
X358047Y10494D02*
X358809Y10494D01*
X359063Y10410D01*
X359147Y10325D01*
X359232Y10156D01*
X359232Y9986D01*
X359147Y9817D01*
X359063Y9732D01*
X358809Y9648D01*
X358047Y9648D02*
X358809Y9648D01*
X359063Y9563D01*
X359147Y9478D01*
X359232Y9309D01*
X359232Y9055D01*
X359147Y8886D01*
X359063Y8801D01*
X358809Y8717D01*
X358047Y8717D01*
X359317Y-50254D02*
X359232Y-50085D01*
X359063Y-49915D01*
X358893Y-49831D01*
X358555Y-49831D01*
X358386Y-49915D01*
X358216Y-50085D01*
X358132Y-50254D01*
X358047Y-50508D01*
X358047Y-50931D01*
X358132Y-51185D01*
X358216Y-51354D01*
X358386Y-51524D01*
X358555Y-51608D01*
X358893Y-51608D01*
X359063Y-51524D01*
X359232Y-51354D01*
X359317Y-51185D01*
X358047Y-110029D02*
X358047Y-111806D01*
X358047Y-110029D02*
X358640Y-110029D01*
X358893Y-110113D01*
X359063Y-110283D01*
X359147Y-110452D01*
X359232Y-110706D01*
X359232Y-111129D01*
X359147Y-111383D01*
X359063Y-111552D01*
X358893Y-111722D01*
X358640Y-111806D01*
X358047Y-111806D01*
X-16519Y69169D02*
X-17196Y70946D01*
X-17873Y69169D01*
X-17619Y69761D02*
X-16773Y69761D01*
X-17873Y10494D02*
X-17873Y8717D01*
X-17873Y10494D02*
X-17111Y10494D01*
X-16857Y10410D01*
X-16773Y10325D01*
X-16688Y10156D01*
X-16688Y9986D01*
X-16773Y9817D01*
X-16857Y9732D01*
X-17111Y9648D01*
X-17873Y9648D02*
X-17111Y9648D01*
X-16857Y9563D01*
X-16773Y9478D01*
X-16688Y9309D01*
X-16688Y9055D01*
X-16773Y8886D01*
X-16857Y8801D01*
X-17111Y8717D01*
X-17873Y8717D01*
X-16603Y-50254D02*
X-16688Y-50085D01*
X-16857Y-49915D01*
X-17027Y-49831D01*
X-17365Y-49831D01*
X-17534Y-49915D01*
X-17704Y-50085D01*
X-17788Y-50254D01*
X-17873Y-50508D01*
X-17873Y-50931D01*
X-17788Y-51185D01*
X-17704Y-51354D01*
X-17534Y-51524D01*
X-17365Y-51608D01*
X-17027Y-51608D01*
X-16857Y-51524D01*
X-16688Y-51354D01*
X-16603Y-51185D01*
X-17873Y-110029D02*
X-17873Y-111806D01*
X-17873Y-110029D02*
X-17280Y-110029D01*
X-17027Y-110113D01*
X-16857Y-110283D01*
X-16773Y-110452D01*
X-16688Y-110706D01*
X-16688Y-111129D01*
X-16773Y-111383D01*
X-16857Y-111552D01*
X-17027Y-111722D01*
X-17280Y-111806D01*
X-17873Y-111806D01*
X11498Y-136580D02*
X11667Y-136496D01*
X11921Y-136242D01*
X11921Y-138019D01*
X74972Y-136665D02*
X74972Y-136580D01*
X75057Y-136411D01*
X75142Y-136326D01*
X75311Y-136242D01*
X75650Y-136242D01*
X75819Y-136326D01*
X75904Y-136411D01*
X75988Y-136580D01*
X75988Y-136749D01*
X75904Y-136919D01*
X75734Y-137173D01*
X74888Y-138019D01*
X76073Y-138019D01*
X138286Y-136242D02*
X139218Y-136242D01*
X138710Y-136919D01*
X138964Y-136919D01*
X139133Y-137003D01*
X139218Y-137088D01*
X139302Y-137342D01*
X139302Y-137511D01*
X139218Y-137765D01*
X139048Y-137935D01*
X138794Y-138019D01*
X138540Y-138019D01*
X138286Y-137935D01*
X138202Y-137850D01*
X138117Y-137681D01*
X202633Y-136242D02*
X201786Y-137427D01*
X203056Y-137427D01*
X202633Y-136242D02*
X202633Y-138019D01*
X266277Y-136242D02*
X265430Y-136242D01*
X265345Y-137003D01*
X265430Y-136919D01*
X265684Y-136834D01*
X265938Y-136834D01*
X266192Y-136919D01*
X266361Y-137088D01*
X266446Y-137342D01*
X266446Y-137511D01*
X266361Y-137765D01*
X266192Y-137935D01*
X265938Y-138019D01*
X265684Y-138019D01*
X265430Y-137935D01*
X265345Y-137850D01*
X265261Y-137681D01*
X329904Y-136496D02*
X329819Y-136326D01*
X329565Y-136242D01*
X329396Y-136242D01*
X329142Y-136326D01*
X328972Y-136580D01*
X328888Y-137003D01*
X328888Y-137427D01*
X328972Y-137765D01*
X329142Y-137935D01*
X329396Y-138019D01*
X329480Y-138019D01*
X329734Y-137935D01*
X329904Y-137765D01*
X329988Y-137511D01*
X329988Y-137427D01*
X329904Y-137173D01*
X329734Y-137003D01*
X329480Y-136919D01*
X329396Y-136919D01*
X329142Y-137003D01*
X328972Y-137173D01*
X328888Y-137427D01*
X245592Y-132443D02*
X245507Y-132274D01*
X245338Y-132104D01*
X245168Y-132020D01*
X244830Y-132020D01*
X244661Y-132104D01*
X244491Y-132274D01*
X244407Y-132443D01*
X244322Y-132697D01*
X244322Y-133120D01*
X244407Y-133374D01*
X244491Y-133543D01*
X244661Y-133713D01*
X244830Y-133797D01*
X245168Y-133797D01*
X245338Y-133713D01*
X245507Y-133543D01*
X245592Y-133374D01*
X246091Y-132020D02*
X246091Y-133797D01*
X246091Y-132951D02*
X246345Y-132697D01*
X246514Y-132612D01*
X246768Y-132612D01*
X246938Y-132697D01*
X247022Y-132951D01*
X247022Y-133797D01*
X248504Y-132612D02*
X248504Y-133797D01*
X248504Y-132866D02*
X248334Y-132697D01*
X248165Y-132612D01*
X247911Y-132612D01*
X247742Y-132697D01*
X247572Y-132866D01*
X247488Y-133120D01*
X247488Y-133289D01*
X247572Y-133543D01*
X247742Y-133713D01*
X247911Y-133797D01*
X248165Y-133797D01*
X248334Y-133713D01*
X248504Y-133543D01*
X248978Y-132612D02*
X248978Y-133797D01*
X248978Y-132951D02*
X249232Y-132697D01*
X249401Y-132612D01*
X249655Y-132612D01*
X249824Y-132697D01*
X249909Y-132951D01*
X249909Y-133797D01*
X251390Y-132020D02*
X251390Y-133797D01*
X251390Y-132866D02*
X251221Y-132697D01*
X251052Y-132612D01*
X250798Y-132612D01*
X250628Y-132697D01*
X250459Y-132866D01*
X250374Y-133120D01*
X250374Y-133289D01*
X250459Y-133543D01*
X250628Y-133713D01*
X250798Y-133797D01*
X251052Y-133797D01*
X251221Y-133713D01*
X251390Y-133543D01*
X251864Y-132020D02*
X251864Y-133797D01*
X252237Y-133120D02*
X253252Y-133120D01*
X253252Y-132951D01*
X253168Y-132781D01*
X253083Y-132697D01*
X252914Y-132612D01*
X252660Y-132612D01*
X252491Y-132697D01*
X252321Y-132866D01*
X252237Y-133120D01*
X252237Y-133289D01*
X252321Y-133543D01*
X252491Y-133713D01*
X252660Y-133797D01*
X252914Y-133797D01*
X253083Y-133713D01*
X253252Y-133543D01*
X253633Y-132612D02*
X253633Y-133797D01*
X253633Y-133120D02*
X253718Y-132866D01*
X253887Y-132697D01*
X254057Y-132612D01*
X254311Y-132612D01*
X254641Y-133713D02*
X254556Y-133797D01*
X254471Y-133713D01*
X254556Y-133628D01*
X254641Y-133713D01*
X254641Y-133882D01*
X254556Y-134051D01*
X254471Y-134136D01*
X257781Y-133797D02*
X257104Y-132020D01*
X256427Y-133797D01*
X256681Y-133205D02*
X257527Y-133205D01*
X259381Y-132020D02*
X258196Y-133797D01*
X258196Y-132020D02*
X259381Y-132020D01*
X258196Y-133797D02*
X259381Y-133797D01*
X262995Y-132020D02*
X262742Y-132104D01*
X262657Y-132274D01*
X262657Y-132443D01*
X262742Y-132612D01*
X262911Y-132697D01*
X263249Y-132781D01*
X263503Y-132866D01*
X263673Y-133035D01*
X263757Y-133205D01*
X263757Y-133459D01*
X263673Y-133628D01*
X263588Y-133713D01*
X263334Y-133797D01*
X262995Y-133797D01*
X262742Y-133713D01*
X262657Y-133628D01*
X262572Y-133459D01*
X262572Y-133205D01*
X262657Y-133035D01*
X262826Y-132866D01*
X263080Y-132781D01*
X263419Y-132697D01*
X263588Y-132612D01*
X263673Y-132443D01*
X263673Y-132274D01*
X263588Y-132104D01*
X263334Y-132020D01*
X262995Y-132020D01*
X265171Y-132020D02*
X264324Y-132020D01*
X264240Y-132781D01*
X264324Y-132697D01*
X264578Y-132612D01*
X264832Y-132612D01*
X265086Y-132697D01*
X265256Y-132866D01*
X265340Y-133120D01*
X265340Y-133289D01*
X265256Y-133543D01*
X265086Y-133713D01*
X264832Y-133797D01*
X264578Y-133797D01*
X264324Y-133713D01*
X264240Y-133628D01*
X264155Y-133459D01*
X265823Y-132443D02*
X265823Y-132358D01*
X265907Y-132189D01*
X265992Y-132104D01*
X266161Y-132020D01*
X266500Y-132020D01*
X266669Y-132104D01*
X266754Y-132189D01*
X266839Y-132358D01*
X266839Y-132527D01*
X266754Y-132697D01*
X266585Y-132951D01*
X265738Y-133797D01*
X266923Y-133797D01*
X267406Y-132443D02*
X267406Y-132358D01*
X267490Y-132189D01*
X267575Y-132104D01*
X267744Y-132020D01*
X268083Y-132020D01*
X268252Y-132104D01*
X268337Y-132189D01*
X268421Y-132358D01*
X268421Y-132527D01*
X268337Y-132697D01*
X268167Y-132951D01*
X267321Y-133797D01*
X268506Y-133797D01*
X269750Y-132020D02*
X268904Y-133205D01*
X270174Y-133205D01*
X269750Y-132020D02*
X269750Y-133797D01*
X243407Y-129943D02*
X243407Y-129858D01*
X243491Y-129689D01*
X243576Y-129604D01*
X243745Y-129520D01*
X244084Y-129520D01*
X244253Y-129604D01*
X244338Y-129689D01*
X244422Y-129858D01*
X244422Y-130027D01*
X244338Y-130197D01*
X244168Y-130451D01*
X243322Y-131297D01*
X244507Y-131297D01*
X245074Y-129520D02*
X246005Y-129520D01*
X245497Y-130197D01*
X245751Y-130197D01*
X245921Y-130281D01*
X246005Y-130366D01*
X246090Y-130620D01*
X246090Y-130789D01*
X246005Y-131043D01*
X245836Y-131213D01*
X245582Y-131297D01*
X245328Y-131297D01*
X245074Y-131213D01*
X244990Y-131128D01*
X244905Y-130959D01*
X247504Y-129520D02*
X246657Y-129520D01*
X246573Y-130281D01*
X246657Y-130197D01*
X246911Y-130112D01*
X247165Y-130112D01*
X247419Y-130197D01*
X247588Y-130366D01*
X247673Y-130620D01*
X247673Y-130789D01*
X247588Y-131043D01*
X247419Y-131213D01*
X247165Y-131297D01*
X246911Y-131297D01*
X246657Y-131213D01*
X246573Y-131128D01*
X246488Y-130959D01*
X249087Y-129520D02*
X248240Y-129520D01*
X248155Y-130281D01*
X248240Y-130197D01*
X248494Y-130112D01*
X248748Y-130112D01*
X249002Y-130197D01*
X249171Y-130366D01*
X249256Y-130620D01*
X249256Y-130789D01*
X249171Y-131043D01*
X249002Y-131213D01*
X248748Y-131297D01*
X248494Y-131297D01*
X248240Y-131213D01*
X248155Y-131128D01*
X248071Y-130959D01*
X251050Y-129520D02*
X251474Y-131297D01*
X251897Y-129520D02*
X251474Y-131297D01*
X251897Y-129520D02*
X252320Y-131297D01*
X252743Y-129520D02*
X252320Y-131297D01*
X253184Y-131128D02*
X253099Y-131213D01*
X253184Y-131297D01*
X253268Y-131213D01*
X253184Y-131128D01*
X256324Y-129943D02*
X256239Y-129774D01*
X256070Y-129604D01*
X255901Y-129520D01*
X255562Y-129520D01*
X255393Y-129604D01*
X255224Y-129774D01*
X255139Y-129943D01*
X255054Y-130197D01*
X255054Y-130620D01*
X255139Y-130874D01*
X255224Y-131043D01*
X255393Y-131213D01*
X255562Y-131297D01*
X255901Y-131297D01*
X256070Y-131213D01*
X256239Y-131043D01*
X256324Y-130874D01*
X256823Y-129520D02*
X256823Y-131297D01*
X256823Y-130451D02*
X257077Y-130197D01*
X257247Y-130112D01*
X257501Y-130112D01*
X257670Y-130197D01*
X257755Y-130451D01*
X257755Y-131297D01*
X259236Y-130112D02*
X259236Y-131297D01*
X259236Y-130366D02*
X259067Y-130197D01*
X258897Y-130112D01*
X258643Y-130112D01*
X258474Y-130197D01*
X258305Y-130366D01*
X258220Y-130620D01*
X258220Y-130789D01*
X258305Y-131043D01*
X258474Y-131213D01*
X258643Y-131297D01*
X258897Y-131297D01*
X259067Y-131213D01*
X259236Y-131043D01*
X259710Y-130112D02*
X259710Y-131297D01*
X259710Y-130451D02*
X259964Y-130197D01*
X260133Y-130112D01*
X260387Y-130112D01*
X260556Y-130197D01*
X260641Y-130451D01*
X260641Y-131297D01*
X262122Y-129520D02*
X262122Y-131297D01*
X262122Y-130366D02*
X261953Y-130197D01*
X261784Y-130112D01*
X261530Y-130112D01*
X261361Y-130197D01*
X261191Y-130366D01*
X261107Y-130620D01*
X261107Y-130789D01*
X261191Y-131043D01*
X261361Y-131213D01*
X261530Y-131297D01*
X261784Y-131297D01*
X261953Y-131213D01*
X262122Y-131043D01*
X262596Y-129520D02*
X262596Y-131297D01*
X262969Y-130620D02*
X263985Y-130620D01*
X263985Y-130451D01*
X263900Y-130281D01*
X263815Y-130197D01*
X263646Y-130112D01*
X263392Y-130112D01*
X263223Y-130197D01*
X263054Y-130366D01*
X262969Y-130620D01*
X262969Y-130789D01*
X263054Y-131043D01*
X263223Y-131213D01*
X263392Y-131297D01*
X263646Y-131297D01*
X263815Y-131213D01*
X263985Y-131043D01*
X264366Y-130112D02*
X264366Y-131297D01*
X264366Y-130620D02*
X264450Y-130366D01*
X264620Y-130197D01*
X264789Y-130112D01*
X265043Y-130112D01*
X266600Y-129520D02*
X266600Y-131297D01*
X266600Y-129520D02*
X267362Y-129520D01*
X267616Y-129604D01*
X267701Y-129689D01*
X267785Y-129858D01*
X267785Y-130027D01*
X267701Y-130197D01*
X267616Y-130281D01*
X267362Y-130366D01*
X266600Y-130366D02*
X267362Y-130366D01*
X267616Y-130451D01*
X267701Y-130535D01*
X267785Y-130705D01*
X267785Y-130959D01*
X267701Y-131128D01*
X267616Y-131213D01*
X267362Y-131297D01*
X266600Y-131297D01*
X268183Y-129520D02*
X268183Y-131297D01*
X268556Y-130112D02*
X269064Y-131297D01*
X269572Y-130112D02*
X269064Y-131297D01*
X270875Y-129520D02*
X270875Y-131297D01*
X270875Y-130366D02*
X270706Y-130197D01*
X270536Y-130112D01*
X270283Y-130112D01*
X270113Y-130197D01*
X269944Y-130366D01*
X269859Y-130620D01*
X269859Y-130789D01*
X269944Y-131043D01*
X270113Y-131213D01*
X270283Y-131297D01*
X270536Y-131297D01*
X270706Y-131213D01*
X270875Y-131043D01*
X271434Y-131128D02*
X271349Y-131213D01*
X271434Y-131297D01*
X271518Y-131213D01*
X271434Y-131128D01*
X242092Y-126780D02*
X242092Y-128557D01*
X242092Y-126780D02*
X242769Y-128557D01*
X243446Y-126780D02*
X242769Y-128557D01*
X243446Y-126780D02*
X243446Y-128557D01*
X244124Y-126780D02*
X244208Y-126864D01*
X244293Y-126780D01*
X244208Y-126695D01*
X244124Y-126780D01*
X244208Y-127372D02*
X244208Y-128557D01*
X245622Y-127626D02*
X245453Y-127457D01*
X245283Y-127372D01*
X245029Y-127372D01*
X244860Y-127457D01*
X244691Y-127626D01*
X244606Y-127880D01*
X244606Y-128049D01*
X244691Y-128303D01*
X244860Y-128473D01*
X245029Y-128557D01*
X245283Y-128557D01*
X245453Y-128473D01*
X245622Y-128303D01*
X246003Y-127372D02*
X246003Y-128557D01*
X246003Y-127880D02*
X246087Y-127626D01*
X246257Y-127457D01*
X246426Y-127372D01*
X246680Y-127372D01*
X247264Y-127372D02*
X247095Y-127457D01*
X246925Y-127626D01*
X246841Y-127880D01*
X246841Y-128049D01*
X246925Y-128303D01*
X247095Y-128473D01*
X247264Y-128557D01*
X247518Y-128557D01*
X247687Y-128473D01*
X247857Y-128303D01*
X247941Y-128049D01*
X247941Y-127880D01*
X247857Y-127626D01*
X247687Y-127457D01*
X247518Y-127372D01*
X247264Y-127372D01*
X249346Y-127626D02*
X249177Y-127457D01*
X249008Y-127372D01*
X248754Y-127372D01*
X248585Y-127457D01*
X248415Y-127626D01*
X248331Y-127880D01*
X248331Y-128049D01*
X248415Y-128303D01*
X248585Y-128473D01*
X248754Y-128557D01*
X249008Y-128557D01*
X249177Y-128473D01*
X249346Y-128303D01*
X249727Y-126780D02*
X249727Y-128557D01*
X249727Y-127711D02*
X249981Y-127457D01*
X250151Y-127372D01*
X250404Y-127372D01*
X250574Y-127457D01*
X250658Y-127711D01*
X250658Y-128557D01*
X251293Y-126780D02*
X251378Y-126864D01*
X251463Y-126780D01*
X251378Y-126695D01*
X251293Y-126780D01*
X251378Y-127372D02*
X251378Y-128557D01*
X251776Y-127372D02*
X251776Y-129150D01*
X251776Y-127626D02*
X251945Y-127457D01*
X252114Y-127372D01*
X252368Y-127372D01*
X252538Y-127457D01*
X252707Y-127626D01*
X252792Y-127880D01*
X252792Y-128049D01*
X252707Y-128303D01*
X252538Y-128473D01*
X252368Y-128557D01*
X252114Y-128557D01*
X251945Y-128473D01*
X251776Y-128303D01*
X255162Y-126780D02*
X255162Y-128557D01*
X254569Y-126780D02*
X255754Y-126780D01*
X255966Y-127880D02*
X256982Y-127880D01*
X256982Y-127711D01*
X256897Y-127541D01*
X256812Y-127457D01*
X256643Y-127372D01*
X256389Y-127372D01*
X256220Y-127457D01*
X256051Y-127626D01*
X255966Y-127880D01*
X255966Y-128049D01*
X256051Y-128303D01*
X256220Y-128473D01*
X256389Y-128557D01*
X256643Y-128557D01*
X256812Y-128473D01*
X256982Y-128303D01*
X258378Y-127626D02*
X258209Y-127457D01*
X258040Y-127372D01*
X257786Y-127372D01*
X257617Y-127457D01*
X257447Y-127626D01*
X257363Y-127880D01*
X257363Y-128049D01*
X257447Y-128303D01*
X257617Y-128473D01*
X257786Y-128557D01*
X258040Y-128557D01*
X258209Y-128473D01*
X258378Y-128303D01*
X258759Y-126780D02*
X258759Y-128557D01*
X258759Y-127711D02*
X259013Y-127457D01*
X259183Y-127372D01*
X259436Y-127372D01*
X259606Y-127457D01*
X259690Y-127711D01*
X259690Y-128557D01*
X260156Y-127372D02*
X260156Y-128557D01*
X260156Y-127711D02*
X260410Y-127457D01*
X260579Y-127372D01*
X260833Y-127372D01*
X261002Y-127457D01*
X261087Y-127711D01*
X261087Y-128557D01*
X261976Y-127372D02*
X261807Y-127457D01*
X261637Y-127626D01*
X261553Y-127880D01*
X261553Y-128049D01*
X261637Y-128303D01*
X261807Y-128473D01*
X261976Y-128557D01*
X262230Y-128557D01*
X262399Y-128473D01*
X262568Y-128303D01*
X262653Y-128049D01*
X262653Y-127880D01*
X262568Y-127626D01*
X262399Y-127457D01*
X262230Y-127372D01*
X261976Y-127372D01*
X263043Y-126780D02*
X263043Y-128557D01*
X263838Y-127372D02*
X263669Y-127457D01*
X263500Y-127626D01*
X263415Y-127880D01*
X263415Y-128049D01*
X263500Y-128303D01*
X263669Y-128473D01*
X263838Y-128557D01*
X264092Y-128557D01*
X264261Y-128473D01*
X264431Y-128303D01*
X264515Y-128049D01*
X264515Y-127880D01*
X264431Y-127626D01*
X264261Y-127457D01*
X264092Y-127372D01*
X263838Y-127372D01*
X265921Y-127372D02*
X265921Y-128726D01*
X265836Y-128980D01*
X265751Y-129065D01*
X265582Y-129150D01*
X265328Y-129150D01*
X265159Y-129065D01*
X265921Y-127626D02*
X265751Y-127457D01*
X265582Y-127372D01*
X265328Y-127372D01*
X265159Y-127457D01*
X264989Y-127626D01*
X264905Y-127880D01*
X264905Y-128049D01*
X264989Y-128303D01*
X265159Y-128473D01*
X265328Y-128557D01*
X265582Y-128557D01*
X265751Y-128473D01*
X265921Y-128303D01*
X266479Y-127372D02*
X266987Y-128557D01*
X267495Y-127372D02*
X266987Y-128557D01*
X266818Y-128896D01*
X266649Y-129065D01*
X266479Y-129150D01*
X266395Y-129150D01*
X269188Y-126780D02*
X269188Y-128557D01*
X269560Y-127372D02*
X269560Y-128557D01*
X269560Y-127711D02*
X269814Y-127457D01*
X269984Y-127372D01*
X270238Y-127372D01*
X270407Y-127457D01*
X270492Y-127711D01*
X270492Y-128557D01*
X271973Y-127626D02*
X271804Y-127457D01*
X271634Y-127372D01*
X271380Y-127372D01*
X271211Y-127457D01*
X271042Y-127626D01*
X270957Y-127880D01*
X270957Y-128049D01*
X271042Y-128303D01*
X271211Y-128473D01*
X271380Y-128557D01*
X271634Y-128557D01*
X271804Y-128473D01*
X271973Y-128303D01*
X272438Y-128388D02*
X272354Y-128473D01*
X272438Y-128557D01*
X272523Y-128473D01*
X272438Y-128388D01*
X275322Y-121520D02*
X275322Y-123297D01*
X275322Y-121520D02*
X276084Y-121520D01*
X276338Y-121604D01*
X276422Y-121689D01*
X276507Y-121858D01*
X276507Y-122027D01*
X276422Y-122197D01*
X276338Y-122281D01*
X276084Y-122366D01*
X275322Y-122366D02*
X276084Y-122366D01*
X276338Y-122451D01*
X276422Y-122535D01*
X276507Y-122705D01*
X276507Y-122959D01*
X276422Y-123128D01*
X276338Y-123213D01*
X276084Y-123297D01*
X275322Y-123297D01*
X278259Y-123297D02*
X277582Y-121520D01*
X276905Y-123297D01*
X277159Y-122705D02*
X278005Y-122705D01*
X278674Y-121520D02*
X278674Y-123297D01*
X279690Y-123297D01*
X281239Y-123297D02*
X280562Y-121520D01*
X279885Y-123297D01*
X280139Y-122705D02*
X280985Y-122705D01*
X282500Y-121520D02*
X282500Y-122874D01*
X282416Y-123128D01*
X282331Y-123213D01*
X282162Y-123297D01*
X281992Y-123297D01*
X281823Y-123213D01*
X281738Y-123128D01*
X281654Y-122874D01*
X281654Y-122705D01*
X282957Y-121520D02*
X282957Y-123297D01*
X284726Y-121520D02*
X284726Y-123297D01*
X284726Y-121520D02*
X285912Y-123297D01*
X285912Y-121520D02*
X285912Y-123297D01*
X287757Y-123297D02*
X287080Y-121520D01*
X286402Y-123297D01*
X286656Y-122705D02*
X287503Y-122705D01*
X288172Y-121520D02*
X288172Y-123297D01*
X288172Y-121520D02*
X288933Y-121520D01*
X289187Y-121604D01*
X289272Y-121689D01*
X289357Y-121858D01*
X289357Y-122027D01*
X289272Y-122197D01*
X289187Y-122281D01*
X288933Y-122366D01*
X288172Y-122366D01*
X288764Y-122366D02*
X289357Y-123297D01*
X291109Y-123297D02*
X290432Y-121520D01*
X289755Y-123297D01*
X290009Y-122705D02*
X290855Y-122705D01*
X291524Y-121520D02*
X292201Y-122366D01*
X292201Y-123297D01*
X292878Y-121520D02*
X292201Y-122366D01*
X294461Y-123297D02*
X293784Y-121520D01*
X293107Y-123297D01*
X293361Y-122705D02*
X294207Y-122705D01*
X294876Y-121520D02*
X294876Y-123297D01*
X294876Y-121520D02*
X296061Y-123297D01*
X296061Y-121520D02*
X296061Y-123297D01*
X297906Y-123297D02*
X297229Y-121520D01*
X296552Y-123297D01*
X296806Y-122705D02*
X297652Y-122705D01*
X275322Y-127520D02*
X275322Y-129297D01*
X275322Y-127520D02*
X276084Y-127520D01*
X276338Y-127604D01*
X276422Y-127689D01*
X276507Y-127858D01*
X276507Y-128027D01*
X276422Y-128197D01*
X276338Y-128281D01*
X276084Y-128366D01*
X275322Y-128366D01*
X275915Y-128366D02*
X276507Y-129297D01*
X276905Y-127520D02*
X276905Y-129297D01*
X277277Y-127520D02*
X277277Y-129297D01*
X277277Y-127520D02*
X278462Y-129297D01*
X278462Y-127520D02*
X278462Y-129297D01*
X278953Y-127520D02*
X278953Y-128789D01*
X279038Y-129043D01*
X279207Y-129213D01*
X279461Y-129297D01*
X279631Y-129297D01*
X279885Y-129213D01*
X280054Y-129043D01*
X280139Y-128789D01*
X280139Y-127520D01*
X283296Y-127943D02*
X283211Y-127774D01*
X283042Y-127604D01*
X282873Y-127520D01*
X282534Y-127520D01*
X282365Y-127604D01*
X282195Y-127774D01*
X282111Y-127943D01*
X282026Y-128197D01*
X282026Y-128620D01*
X282111Y-128874D01*
X282195Y-129043D01*
X282365Y-129213D01*
X282534Y-129297D01*
X282873Y-129297D01*
X283042Y-129213D01*
X283211Y-129043D01*
X283296Y-128874D01*
X283795Y-127520D02*
X283795Y-129297D01*
X284811Y-129297D01*
X286106Y-127520D02*
X285006Y-127520D01*
X285006Y-129297D01*
X286106Y-129297D01*
X285006Y-128366D02*
X285683Y-128366D01*
X287503Y-127520D02*
X286402Y-127520D01*
X286402Y-129297D01*
X287503Y-129297D01*
X286402Y-128366D02*
X287080Y-128366D01*
X288392Y-127520D02*
X288392Y-129297D01*
X287799Y-127520D02*
X288984Y-127520D01*
X289196Y-127520D02*
X289196Y-128789D01*
X289281Y-129043D01*
X289450Y-129213D01*
X289704Y-129297D01*
X289873Y-129297D01*
X290127Y-129213D01*
X290296Y-129043D01*
X290381Y-128789D01*
X290381Y-127520D01*
X292057Y-127774D02*
X291888Y-127604D01*
X291634Y-127520D01*
X291295Y-127520D01*
X291041Y-127604D01*
X290872Y-127774D01*
X290872Y-127943D01*
X290957Y-128112D01*
X291041Y-128197D01*
X291211Y-128281D01*
X291718Y-128451D01*
X291888Y-128535D01*
X291972Y-128620D01*
X292057Y-128789D01*
X292057Y-129043D01*
X291888Y-129213D01*
X291634Y-129297D01*
X291295Y-129297D01*
X291041Y-129213D01*
X290872Y-129043D01*
X303750Y-121798D02*
X303536Y-121869D01*
X303393Y-122083D01*
X303322Y-122440D01*
X303322Y-122654D01*
X303393Y-123012D01*
X303536Y-123226D01*
X303750Y-123297D01*
X303893Y-123297D01*
X304108Y-123226D01*
X304250Y-123012D01*
X304322Y-122654D01*
X304322Y-122440D01*
X304250Y-122083D01*
X304108Y-121869D01*
X303893Y-121798D01*
X303750Y-121798D01*
X305514Y-121798D02*
X304800Y-121798D01*
X304729Y-122440D01*
X304800Y-122369D01*
X305014Y-122297D01*
X305229Y-122297D01*
X305443Y-122369D01*
X305586Y-122512D01*
X305657Y-122726D01*
X305657Y-122869D01*
X305586Y-123083D01*
X305443Y-123226D01*
X305229Y-123297D01*
X305014Y-123297D01*
X304800Y-123226D01*
X304729Y-123154D01*
X304657Y-123012D01*
X305993Y-122654D02*
X307278Y-122654D01*
X307721Y-122083D02*
X307864Y-122012D01*
X308078Y-121798D01*
X308078Y-123297D01*
X308821Y-122083D02*
X308964Y-122012D01*
X309178Y-121798D01*
X309178Y-123297D01*
X310635Y-121798D02*
X309921Y-122797D01*
X310992Y-122797D01*
X310635Y-121798D02*
X310635Y-123297D01*
X311327Y-122155D02*
X311327Y-122083D01*
X311399Y-121940D01*
X311470Y-121869D01*
X311613Y-121798D01*
X311899Y-121798D01*
X312042Y-121869D01*
X312113Y-121940D01*
X312184Y-122083D01*
X312184Y-122226D01*
X312113Y-122369D01*
X311970Y-122583D01*
X311256Y-123297D01*
X312256Y-123297D01*
X312734Y-121798D02*
X313520Y-121798D01*
X313091Y-122369D01*
X313306Y-122369D01*
X313448Y-122440D01*
X313520Y-122512D01*
X313591Y-122726D01*
X313591Y-122869D01*
X313520Y-123083D01*
X313377Y-123226D01*
X313163Y-123297D01*
X312949Y-123297D01*
X312734Y-123226D01*
X312663Y-123154D01*
X312591Y-123012D01*
X313927Y-122654D02*
X315212Y-122654D01*
X315655Y-121798D02*
X315655Y-123297D01*
X315655Y-121798D02*
X316298Y-121798D01*
X316512Y-121869D01*
X316583Y-121940D01*
X316655Y-122083D01*
X316655Y-122226D01*
X316583Y-122369D01*
X316512Y-122440D01*
X316298Y-122512D01*
X315655Y-122512D01*
X316155Y-122512D02*
X316655Y-123297D01*
X317705Y-121798D02*
X316991Y-122797D01*
X318062Y-122797D01*
X317705Y-121798D02*
X317705Y-123297D01*
X318397Y-123154D02*
X318326Y-123226D01*
X318397Y-123297D01*
X318469Y-123226D01*
X318397Y-123154D01*
X319868Y-122155D02*
X319797Y-122012D01*
X319654Y-121869D01*
X319511Y-121798D01*
X319226Y-121798D01*
X319083Y-121869D01*
X318940Y-122012D01*
X318869Y-122155D01*
X318797Y-122369D01*
X318797Y-122726D01*
X318869Y-122940D01*
X318940Y-123083D01*
X319083Y-123226D01*
X319226Y-123297D01*
X319511Y-123297D01*
X319654Y-123226D01*
X319797Y-123083D01*
X319868Y-122940D01*
X319868Y-122726D01*
X319511Y-122726D02*
X319868Y-122726D01*
X320283Y-122155D02*
X320283Y-122083D01*
X320354Y-121940D01*
X320425Y-121869D01*
X320568Y-121798D01*
X320854Y-121798D01*
X320997Y-121869D01*
X321068Y-121940D01*
X321140Y-122083D01*
X321140Y-122226D01*
X321068Y-122369D01*
X320925Y-122583D01*
X320211Y-123297D01*
X321211Y-123297D01*
D23*
X303779Y-127698D02*
X303551Y-127774D01*
X303398Y-128002D01*
X303322Y-128383D01*
X303322Y-128612D01*
X303398Y-128992D01*
X303551Y-129221D01*
X303779Y-129297D01*
X303931Y-129297D01*
X304160Y-129221D01*
X304312Y-128992D01*
X304388Y-128612D01*
X304388Y-128383D01*
X304312Y-128002D01*
X304160Y-127774D01*
X303931Y-127698D01*
X303779Y-127698D01*
X305508Y-127698D02*
X304746Y-128764D01*
X305889Y-128764D01*
X305508Y-127698D02*
X305508Y-129297D01*
X306171Y-128612D02*
X307542Y-128612D01*
X308014Y-128002D02*
X308167Y-127926D01*
X308395Y-127698D01*
X308395Y-129297D01*
X309187Y-128002D02*
X309340Y-127926D01*
X309568Y-127698D01*
X309568Y-129297D01*
X311122Y-127698D02*
X310361Y-128764D01*
X311503Y-128764D01*
X311122Y-127698D02*
X311122Y-129297D01*
X311861Y-128078D02*
X311861Y-128002D01*
X311937Y-127850D01*
X312013Y-127774D01*
X312166Y-127698D01*
X312471Y-127698D01*
X312623Y-127774D01*
X312699Y-127850D01*
X312775Y-128002D01*
X312775Y-128155D01*
X312699Y-128307D01*
X312547Y-128535D01*
X311785Y-129297D01*
X312851Y-129297D01*
X313362Y-127698D02*
X314200Y-127698D01*
X313743Y-128307D01*
X313971Y-128307D01*
X314124Y-128383D01*
X314200Y-128459D01*
X314276Y-128688D01*
X314276Y-128840D01*
X314200Y-129069D01*
X314047Y-129221D01*
X313819Y-129297D01*
X313590Y-129297D01*
X313362Y-129221D01*
X313286Y-129145D01*
X313209Y-128992D01*
D24*
X275322Y-113298D02*
X275917Y-115797D01*
X276512Y-113298D02*
X275917Y-115797D01*
X276512Y-113298D02*
X277107Y-115797D01*
X277702Y-113298D02*
X277107Y-115797D01*
X278202Y-113298D02*
X278202Y-115797D01*
X278202Y-113298D02*
X279274Y-113298D01*
X279631Y-113417D01*
X279750Y-113536D01*
X279869Y-113774D01*
X279869Y-114012D01*
X279750Y-114250D01*
X279631Y-114369D01*
X279274Y-114488D01*
X278202Y-114488D02*
X279274Y-114488D01*
X279631Y-114607D01*
X279750Y-114726D01*
X279869Y-114964D01*
X279869Y-115321D01*
X279750Y-115559D01*
X279631Y-115678D01*
X279274Y-115797D01*
X278202Y-115797D01*
X282094Y-113298D02*
X280428Y-115797D01*
X280428Y-113298D02*
X282094Y-113298D01*
X280428Y-115797D02*
X282094Y-115797D01*
X283844Y-113298D02*
X282654Y-114964D01*
X284439Y-114964D01*
X283844Y-113298D02*
X283844Y-115797D01*
X286308Y-113298D02*
X285118Y-113298D01*
X284999Y-114369D01*
X285118Y-114250D01*
X285475Y-114131D01*
X285832Y-114131D01*
X286189Y-114250D01*
X286427Y-114488D01*
X286546Y-114845D01*
X286546Y-115083D01*
X286427Y-115440D01*
X286189Y-115678D01*
X285832Y-115797D01*
X285475Y-115797D01*
X285118Y-115678D01*
X284999Y-115559D01*
X284879Y-115321D01*
X287105Y-113774D02*
X287343Y-113655D01*
X287700Y-113298D01*
X287700Y-115797D01*
X292687Y-113893D02*
X292568Y-113655D01*
X292330Y-113417D01*
X292092Y-113298D01*
X291616Y-113298D01*
X291378Y-113417D01*
X291140Y-113655D01*
X291021Y-113893D01*
X290902Y-114250D01*
X290902Y-114845D01*
X291021Y-115202D01*
X291140Y-115440D01*
X291378Y-115678D01*
X291616Y-115797D01*
X292092Y-115797D01*
X292330Y-115678D01*
X292568Y-115440D01*
X292687Y-115202D01*
X293390Y-113298D02*
X293390Y-115083D01*
X293509Y-115440D01*
X293747Y-115678D01*
X294104Y-115797D01*
X294342Y-115797D01*
X294699Y-115678D01*
X294937Y-115440D01*
X295056Y-115083D01*
X295056Y-113298D01*
X295746Y-113298D02*
X295746Y-115797D01*
X295746Y-113298D02*
X296817Y-113298D01*
X297174Y-113417D01*
X297293Y-113536D01*
X297413Y-113774D01*
X297413Y-114012D01*
X297293Y-114250D01*
X297174Y-114369D01*
X296817Y-114488D01*
X295746Y-114488D01*
X296579Y-114488D02*
X297413Y-115797D01*
X297972Y-113298D02*
X297972Y-115797D01*
X299210Y-113298D02*
X298972Y-113417D01*
X298734Y-113655D01*
X298615Y-113893D01*
X298496Y-114250D01*
X298496Y-114845D01*
X298615Y-115202D01*
X298734Y-115440D01*
X298972Y-115678D01*
X299210Y-115797D01*
X299686Y-115797D01*
X299924Y-115678D01*
X300162Y-115440D01*
X300281Y-115202D01*
X300400Y-114845D01*
X300400Y-114250D01*
X300281Y-113893D01*
X300162Y-113655D01*
X299924Y-113417D01*
X299686Y-113298D01*
X299210Y-113298D01*
X302649Y-113655D02*
X302411Y-113417D01*
X302054Y-113298D01*
X301578Y-113298D01*
X301221Y-113417D01*
X300983Y-113655D01*
X300983Y-113893D01*
X301102Y-114131D01*
X301221Y-114250D01*
X301459Y-114369D01*
X302173Y-114607D01*
X302411Y-114726D01*
X302530Y-114845D01*
X302649Y-115083D01*
X302649Y-115440D01*
X302411Y-115678D01*
X302054Y-115797D01*
X301578Y-115797D01*
X301221Y-115678D01*
X300983Y-115440D01*
X303209Y-113298D02*
X303209Y-115797D01*
X304566Y-113298D02*
X304566Y-115797D01*
X303733Y-113298D02*
X305399Y-113298D01*
X305696Y-113298D02*
X306649Y-114488D01*
X306649Y-115797D01*
X307601Y-113298D02*
X306649Y-114488D01*
X309886Y-113298D02*
X309886Y-115797D01*
X309886Y-113298D02*
X310957Y-113298D01*
X311314Y-113417D01*
X311433Y-113536D01*
X311552Y-113774D01*
X311552Y-114012D01*
X311433Y-114250D01*
X311314Y-114369D01*
X310957Y-114488D01*
X309886Y-114488D02*
X310957Y-114488D01*
X311314Y-114607D01*
X311433Y-114726D01*
X311552Y-114964D01*
X311552Y-115321D01*
X311433Y-115559D01*
X311314Y-115678D01*
X310957Y-115797D01*
X309886Y-115797D01*
X312826Y-113298D02*
X312588Y-113417D01*
X312350Y-113655D01*
X312231Y-113893D01*
X312112Y-114250D01*
X312112Y-114845D01*
X312231Y-115202D01*
X312350Y-115440D01*
X312588Y-115678D01*
X312826Y-115797D01*
X313302Y-115797D01*
X313540Y-115678D01*
X313778Y-115440D01*
X313897Y-115202D01*
X314016Y-114845D01*
X314016Y-114250D01*
X313897Y-113893D01*
X313778Y-113655D01*
X313540Y-113417D01*
X313302Y-113298D01*
X312826Y-113298D01*
X316504Y-115797D02*
X315551Y-113298D01*
X314599Y-115797D01*
X314956Y-114964D02*
X316147Y-114964D01*
X317087Y-113298D02*
X317087Y-115797D01*
X317087Y-113298D02*
X318158Y-113298D01*
X318515Y-113417D01*
X318634Y-113536D01*
X318753Y-113774D01*
X318753Y-114012D01*
X318634Y-114250D01*
X318515Y-114369D01*
X318158Y-114488D01*
X317087Y-114488D01*
X317920Y-114488D02*
X318753Y-115797D01*
X319313Y-113298D02*
X319313Y-115797D01*
X319313Y-113298D02*
X320146Y-113298D01*
X320503Y-113417D01*
X320741Y-113655D01*
X320860Y-113893D01*
X320979Y-114250D01*
X320979Y-114845D01*
X320860Y-115202D01*
X320741Y-115440D01*
X320503Y-115678D01*
X320146Y-115797D01*
X319313Y-115797D01*
D56*
X27849Y2151D02*
D03*
X26579Y2151D02*
D03*
X30389Y3421D02*
D03*
X30389Y2151D02*
D03*
D138*
X15519Y24943D02*
X27233Y24943D01*
X16078Y25248D02*
X30122Y25248D01*
X16383Y25552D02*
X22892Y25552D01*
X22516Y25857D02*
X24472Y27813D01*
X16713Y25857D02*
X22516Y25857D01*
X20870Y26441D02*
X23064Y28636D01*
X20687Y26746D02*
X22881Y28940D01*
X22892Y25552D02*
X24320Y26980D01*
X23190Y10108D02*
X23190Y18574D01*
X17736Y24028D02*
X23190Y18574D01*
X15646Y24028D02*
X17736Y24028D01*
X22858Y10010D02*
X22858Y18355D01*
X17666Y23546D02*
X22858Y18355D01*
X15075Y23546D02*
X17666Y23546D01*
X22504Y9109D02*
X22504Y18156D01*
X17521Y23139D02*
X22504Y18156D01*
X14408Y23139D02*
X17521Y23139D01*
X22200Y8983D02*
X22200Y17928D01*
X17395Y22733D02*
X22200Y17928D01*
X13742Y22733D02*
X17395Y22733D01*
X17272Y26441D02*
X20870Y26441D01*
X16435Y26746D02*
X20687Y26746D01*
X13818Y27508D02*
X16078Y25248D01*
X13818Y27508D02*
X13818Y27788D01*
X17120Y26289D02*
X17272Y26441D01*
X15393Y27788D02*
X16435Y26746D01*
X70176Y13075D02*
X70222Y13122D01*
X70222Y14409D01*
X37719Y2159D02*
X40259Y2159D01*
X43385Y25019D02*
X53295Y25019D01*
X42886Y24521D02*
X43385Y25019D01*
X38479Y24521D02*
X42886Y24521D01*
X37984Y24026D02*
X38479Y24521D01*
X31344Y24026D02*
X37984Y24026D01*
X30122Y25248D02*
X31344Y24026D01*
X15926Y26645D02*
X16713Y25857D01*
X15977Y25959D02*
X16383Y25552D01*
X12903Y27559D02*
X15519Y24943D01*
X27233Y24943D02*
X30331Y21844D01*
X23391Y28247D02*
X29226Y28247D01*
X22935Y27791D02*
X23391Y28247D01*
X22935Y27398D02*
X22935Y27791D01*
X28888Y27475D02*
X29301Y27062D01*
X36501Y27062D01*
X24320Y26980D02*
X24815Y27475D01*
X29525Y27418D02*
X36192Y27418D01*
X29750Y27722D02*
X35921Y27722D01*
X29226Y28247D02*
X29750Y27722D01*
X35921Y27722D02*
X36378Y28179D01*
X36192Y27418D02*
X36512Y27737D01*
X29130Y27813D02*
X29525Y27418D01*
X24815Y27475D02*
X28888Y27475D01*
X36501Y27062D02*
X36871Y27432D01*
X24472Y27813D02*
X29130Y27813D01*
X23064Y28636D02*
X47509Y28636D01*
X22881Y28940D02*
X49744Y28940D01*
X21697Y6452D02*
X24530Y6452D01*
X21240Y6909D02*
X21697Y6452D01*
X23890Y6796D02*
X24079Y6985D01*
X21937Y6796D02*
X23890Y6796D01*
X21345Y7387D02*
X21937Y6796D01*
X21892Y7290D02*
X23393Y7290D01*
X21408Y7774D02*
X21892Y7290D01*
X22504Y9109D02*
X23232Y8382D01*
X21612Y8153D02*
X22018Y7747D01*
X24054Y7747D01*
X23105Y8077D02*
X24209Y8077D01*
X22200Y8983D02*
X23105Y8077D01*
X23232Y8382D02*
X24335Y8382D01*
X14542Y27788D02*
X15393Y27788D01*
X36512Y27737D02*
X43328Y27737D01*
X36378Y28179D02*
X45414Y28179D01*
X46355Y27238D01*
X40917Y27432D02*
X41584Y26765D01*
X36871Y27432D02*
X40917Y27432D01*
X41584Y26002D02*
X41584Y26765D01*
X43328Y27737D02*
X43815Y27250D01*
X49744Y28940D02*
X51435Y27250D01*
X47509Y28636D02*
X48895Y27250D01*
X41584Y26002D02*
X42085Y25501D01*
X23622Y9246D02*
X23903Y9246D01*
X22858Y10010D02*
X23622Y9246D01*
X23903Y9246D02*
X26037Y7112D01*
X23748Y9550D02*
X24029Y9550D01*
X23190Y10108D02*
X23748Y9550D01*
X24029Y9550D02*
X26163Y7417D01*
X11680Y7387D02*
X21345Y7387D01*
X9957Y5664D02*
X11680Y7387D01*
X11279Y7774D02*
X21408Y7774D01*
X9033Y5528D02*
X11279Y7774D01*
X12014Y6909D02*
X21240Y6909D01*
X11049Y5944D02*
X12014Y6909D01*
X11049Y4512D02*
X11049Y5944D01*
X11049Y4512D02*
X11573Y3988D01*
X9474Y8153D02*
X21612Y8153D01*
X36846Y1635D02*
X52023Y1635D01*
X45085Y5207D02*
X45339Y4953D01*
X53295Y25019D02*
X53715Y25440D01*
X12903Y27559D02*
X12903Y28702D01*
X26437Y20337D02*
X33804Y20337D01*
X26372Y20272D02*
X26437Y20337D01*
X33804Y20337D02*
X34236Y19906D01*
X34434Y18051D02*
X34434Y18363D01*
X33620Y19177D02*
X34434Y18363D01*
X32512Y19177D02*
X33620Y19177D01*
X36703Y10262D02*
X36703Y11746D01*
X36546Y11903D02*
X36703Y11746D01*
X36111Y11903D02*
X36546Y11903D01*
X35941Y11733D02*
X36111Y11903D01*
X35941Y11049D02*
X35941Y11733D01*
X31660Y17340D02*
X31660Y19179D01*
X31485Y19354D02*
X31660Y19179D01*
X31067Y19354D02*
X31485Y19354D01*
X30836Y19123D02*
X31067Y19354D01*
X30836Y16612D02*
X30836Y19123D01*
X32334Y16203D02*
X32334Y17805D01*
X32216Y16085D02*
X32334Y16203D01*
X31908Y16085D02*
X32216Y16085D01*
X35761Y18296D02*
X36796Y17261D01*
X35761Y18296D02*
X35761Y19107D01*
X37580Y17261D02*
X38619Y16223D01*
X36796Y17261D02*
X37580Y17261D01*
X32385Y19050D02*
X32512Y19177D01*
X32385Y18618D02*
X32385Y19050D01*
X32385Y18618D02*
X32512Y18491D01*
X32817Y18491D01*
X32944Y18364D01*
X32944Y18059D02*
X32944Y18364D01*
X32842Y17958D02*
X32944Y18059D01*
X32487Y17958D02*
X32842Y17958D01*
X32334Y17805D02*
X32487Y17958D01*
X52023Y1635D02*
X54570Y1635D01*
X35890Y2591D02*
X36846Y1635D01*
X7358Y6038D02*
X9474Y8153D01*
X13919Y29464D02*
X14681Y28702D01*
X12471Y29464D02*
X13919Y29464D01*
X12090Y29083D02*
X12471Y29464D01*
X12090Y27864D02*
X12090Y29083D01*
X10516Y26289D02*
X12090Y27864D01*
X10516Y25959D02*
X10516Y26289D01*
X12662Y25959D02*
X15075Y23546D01*
X11589Y25959D02*
X14408Y23139D01*
X10516Y25959D02*
X13742Y22733D01*
X13030Y26645D02*
X15646Y24028D01*
X9957Y4334D02*
X9957Y5664D01*
X9957Y4334D02*
X10303Y3988D01*
X9033Y3988D02*
X9033Y5528D01*
X31958Y10211D02*
X32639Y10211D01*
X33452Y6807D02*
X35890Y4369D01*
X25910Y6807D02*
X33452Y6807D01*
X24335Y8382D02*
X25910Y6807D01*
X31242Y6477D02*
X31572Y6147D01*
X25809Y6477D02*
X31242Y6477D01*
X24209Y8077D02*
X25809Y6477D01*
X24054Y7747D02*
X25730Y6071D01*
X29058Y6071D01*
X29083Y6045D01*
X30389Y3421D02*
X30389Y4739D01*
X29083Y6045D02*
X30389Y4739D01*
X26037Y7112D02*
X33794Y7112D01*
X28643Y9949D02*
X31225Y9949D01*
X27788Y9093D02*
X28643Y9949D01*
X31225Y9949D02*
X31648Y9525D01*
X32639Y10211D02*
X32791Y10363D01*
X32791Y11151D01*
X33794Y7112D02*
X34580Y6326D01*
X26163Y7417D02*
X34100Y7417D01*
X36630Y4887D01*
X26341Y7722D02*
X34343Y7722D01*
X24409Y9653D02*
X26341Y7722D01*
X34343Y7722D02*
X36858Y5207D01*
X29845Y12779D02*
X29845Y13716D01*
X29718Y13843D02*
X29845Y13716D01*
X29210Y13843D02*
X29718Y13843D01*
X29083Y13716D02*
X29210Y13843D01*
X29083Y12779D02*
X29083Y13716D01*
X27711Y13843D02*
X28169Y13843D01*
X27559Y13691D02*
X27711Y13843D01*
X27559Y12779D02*
X27559Y13691D01*
X28321Y12779D02*
X28321Y13691D01*
X28169Y13843D02*
X28321Y13691D01*
X25962Y17732D02*
X26372Y17732D01*
X25146Y16916D02*
X25962Y17732D01*
X25146Y9804D02*
X25146Y16916D01*
X35408Y17424D02*
X35789Y17043D01*
X35789Y15951D02*
X35789Y17043D01*
X35585Y15748D02*
X35789Y15951D01*
X32385Y15748D02*
X35585Y15748D01*
X33742Y17424D02*
X35408Y17424D01*
X33655Y11049D02*
X33655Y11938D01*
X33655Y11049D02*
X33782Y10922D01*
X34290Y10922D01*
X34417Y11049D01*
X34417Y11938D01*
X27026Y8026D02*
X36093Y8026D01*
X35890Y2591D02*
X35890Y4369D01*
X36093Y8026D02*
X37389Y9322D01*
X30150Y10431D02*
X31022Y11303D01*
X29972Y12065D02*
X33528Y12065D01*
X38619Y14108D02*
X38619Y16223D01*
X37389Y12878D02*
X38619Y14108D01*
X37389Y9322D02*
X37389Y12878D01*
X30861Y14224D02*
X32385Y15748D01*
X36630Y4528D02*
X36630Y4887D01*
X26873Y8179D02*
X27026Y8026D01*
X24409Y9653D02*
X24409Y17831D01*
X34580Y6326D02*
X36195Y4711D01*
X26035Y9423D02*
X27584Y9423D01*
X25856Y9093D02*
X27788Y9093D01*
X26372Y16462D02*
X27384Y16462D01*
X28908Y16462D02*
X29083Y16637D01*
X27559Y16637D02*
X27559Y18161D01*
X27384Y16462D02*
X27559Y16637D01*
X29210Y16129D02*
X29718Y16129D01*
X29083Y16002D02*
X29210Y16129D01*
X28321Y16589D02*
X28321Y18161D01*
X29718Y16129D02*
X29845Y16002D01*
X28321Y16589D02*
X28448Y16462D01*
X28908Y16462D01*
X29083Y18796D02*
X29210Y18923D01*
X29718Y18923D01*
X29083Y16637D02*
X29083Y18796D01*
X29718Y18923D02*
X29845Y18796D01*
X28194Y18288D02*
X28321Y18161D01*
X27559Y18161D02*
X27686Y18288D01*
X28194Y18288D01*
X29083Y15319D02*
X29083Y16002D01*
X28956Y15192D02*
X29083Y15319D01*
X26372Y15192D02*
X27432Y15192D01*
X29845Y15319D02*
X29845Y16002D01*
X29845Y15319D02*
X29972Y15192D01*
X28321Y15319D02*
X28448Y15192D01*
X28321Y15319D02*
X28321Y16002D01*
X27432Y15192D02*
X27559Y15319D01*
X27559Y16002D01*
X28194Y16129D02*
X28321Y16002D01*
X27559Y16002D02*
X27686Y16129D01*
X28194Y16129D01*
X28448Y15192D02*
X28956Y15192D01*
X29845Y16589D02*
X29845Y18796D01*
X29845Y16589D02*
X29972Y16462D01*
X30686Y16462D01*
X30836Y16612D01*
X31483Y16510D02*
X31908Y16085D01*
X30988Y15928D02*
X31369Y15547D01*
X30988Y15928D02*
X30988Y16256D01*
X31242Y16510D01*
X31483Y16510D01*
X28448Y12652D02*
X28956Y12652D01*
X27432Y12652D02*
X27559Y12779D01*
X28321Y12779D02*
X28448Y12652D01*
X28956Y12652D02*
X29083Y12779D01*
X26372Y12652D02*
X27432Y12652D01*
X29972Y15192D02*
X31194Y15192D01*
X31369Y15367D01*
X31369Y15547D01*
X26372Y11382D02*
X29289Y11382D01*
X28225Y10243D02*
X28404Y10243D01*
X27686Y9525D02*
X27686Y9705D01*
X27584Y9423D02*
X27686Y9525D01*
X28404Y10243D02*
X28592Y10431D01*
X29289Y11382D02*
X29972Y12065D01*
X34417Y11938D02*
X34544Y12065D01*
X33528Y12065D02*
X33655Y11938D01*
X35052Y12065D02*
X35179Y11938D01*
X34544Y12065D02*
X35052Y12065D01*
X36630Y3248D02*
X36630Y4528D01*
X36195Y2921D02*
X36195Y4711D01*
X36195Y2921D02*
X36703Y2413D01*
X36630Y3248D02*
X37719Y2159D01*
X28592Y10431D02*
X30150Y10431D01*
X27178Y10213D02*
X27686Y9705D01*
X27178Y10213D02*
X27178Y10361D01*
X27485Y10668D01*
X27800Y10668D01*
X28225Y10243D01*
X25146Y9804D02*
X25856Y9093D01*
X25502Y9957D02*
X26035Y9423D01*
X25581Y19002D02*
X26372Y19002D01*
X25632Y18367D02*
X26960Y18367D01*
X25819Y19637D02*
X26960Y19637D01*
X25781Y8712D02*
X27203Y8712D01*
X27457Y8458D01*
X24841Y9652D02*
X25781Y8712D01*
X24841Y17577D02*
X25632Y18367D01*
X24841Y9652D02*
X24841Y17577D01*
X26953Y13287D02*
X26960Y13287D01*
X26953Y14557D02*
X26960Y14557D01*
X26953Y17097D02*
X26960Y17097D01*
X36858Y5207D02*
X45085Y5207D01*
X30861Y12827D02*
X30861Y14224D01*
X30686Y12652D02*
X30861Y12827D01*
X29845Y12779D02*
X29972Y12652D01*
X30686Y12652D01*
X31022Y11303D02*
X32639Y11303D01*
X32791Y11151D01*
X25502Y9957D02*
X25502Y13792D01*
X25632Y13922D01*
X26372Y13922D01*
X24409Y17831D02*
X25581Y19002D01*
X35662Y9220D02*
X36703Y10262D01*
X35814Y10922D02*
X35941Y11049D01*
X35179Y11049D02*
X35179Y11938D01*
X35179Y11049D02*
X35306Y10922D01*
X35814Y10922D01*
D147*
X20193Y5334D02*
X20447Y5080D01*
X26810Y5080D01*
X27166Y5436D01*
X28677Y5436D01*
X28702Y5461D01*
X60099Y1651D02*
X60133Y1617D01*
X40295Y3570D02*
X41579Y2286D01*
X59464Y2286D01*
X60099Y1651D01*
D155*
X26372Y11382D02*
D03*
X26372Y12652D02*
D03*
X26372Y13922D02*
D03*
X26372Y16462D02*
D03*
X26372Y17732D02*
D03*
X26372Y19002D02*
D03*
X26372Y20272D02*
D03*
X26372Y15192D02*
D03*
X11573Y3988D02*
D03*
X9033Y3988D02*
D03*
X10303Y3988D02*
D03*
X12903Y28702D02*
D03*
X14681Y28702D02*
D03*
D157*
X64481Y22313D02*
D03*
D158*
X37744Y3581D02*
D03*
X37744Y26441D02*
D03*
X40284Y3581D02*
D03*
D160*
X72884Y17499D02*
D03*
D161*
X72884Y12499D02*
D03*
D162*
X75584Y11494D02*
D03*
X75584Y18504D02*
D03*
D163*
X10685Y28245D02*
D03*
D167*
X74968Y2032D02*
D03*
X74968Y27967D02*
D03*
D168*
X7842Y13730D02*
D03*
X7842Y15730D02*
D03*
X19369Y14395D02*
D03*
X54270Y4113D02*
D03*
X35073Y25368D02*
D03*
X35687Y1905D02*
D03*
X38913Y2667D02*
D03*
X62241Y13429D02*
D03*
X60640Y9263D02*
D03*
X62952Y11112D02*
D03*
X67092Y11976D02*
D03*
X67965Y14063D02*
D03*
X20051Y3030D02*
D03*
X69339Y23759D02*
D03*
X69000Y22099D02*
D03*
X67863Y22094D02*
D03*
X75325Y25374D02*
D03*
X73035Y26355D02*
D03*
X42676Y25121D02*
D03*
X38290Y25225D02*
D03*
X36769Y25225D02*
D03*
X35106Y18842D02*
D03*
X31823Y24574D02*
D03*
X60097Y693D02*
D03*
X60239Y2453D02*
D03*
X75492Y9067D02*
D03*
X74096Y25360D02*
D03*
X72908Y23536D02*
D03*
X72304Y23536D02*
D03*
X72771Y25527D02*
D03*
X69569Y20583D02*
D03*
X76236Y25931D02*
D03*
X76236Y20259D02*
D03*
X33505Y25404D02*
D03*
X32751Y25404D02*
D03*
X34259Y25404D02*
D03*
X69688Y25887D02*
D03*
X69688Y24379D02*
D03*
X69688Y25133D02*
D03*
X68672Y25133D02*
D03*
X68672Y24379D02*
D03*
X68672Y25887D02*
D03*
X66503Y26420D02*
D03*
X68668Y23273D02*
D03*
X70652Y22391D02*
D03*
X70325Y23441D02*
D03*
X71587Y21336D02*
D03*
X47860Y4964D02*
D03*
X49168Y4235D02*
D03*
X51886Y5158D02*
D03*
X7985Y4018D02*
D03*
X10482Y1708D02*
D03*
X12350Y1708D02*
D03*
X14218Y1708D02*
D03*
X16087Y1708D02*
D03*
X17955Y1708D02*
D03*
X19823Y1708D02*
D03*
X18626Y2504D02*
D03*
X12502Y2769D02*
D03*
X45113Y19329D02*
D03*
X41226Y25062D02*
D03*
X25064Y26823D02*
D03*
X63571Y21681D02*
D03*
X71017Y18459D02*
D03*
X66294Y20447D02*
D03*
X64171Y20439D02*
D03*
X64730Y20439D02*
D03*
X76236Y21686D02*
D03*
X24257Y4445D02*
D03*
X54118Y23182D02*
D03*
X35849Y25917D02*
D03*
X44800Y10498D02*
D03*
X21692Y1708D02*
D03*
X23904Y14175D02*
D03*
X45339Y4953D02*
D03*
X44257Y9644D02*
D03*
X32766Y1981D02*
D03*
X57349Y23694D02*
D03*
X63919Y25768D02*
D03*
X64359Y26199D02*
D03*
X68235Y11940D02*
D03*
X60960Y1143D02*
D03*
X72314Y9195D02*
D03*
X71272Y9804D02*
D03*
X71527Y7658D02*
D03*
X71527Y8687D02*
D03*
X72314Y7544D02*
D03*
X34453Y20820D02*
D03*
X34259Y26420D02*
D03*
X32751Y26420D02*
D03*
X33505Y26420D02*
D03*
X60985Y17145D02*
D03*
X25046Y20573D02*
D03*
X24320Y21272D02*
D03*
X35082Y26529D02*
D03*
X26407Y21287D02*
D03*
X25814Y21287D02*
D03*
X27901Y19671D02*
D03*
X75203Y20314D02*
D03*
X16128Y13730D02*
D03*
X16128Y15730D02*
D03*
X12410Y4761D02*
D03*
X7137Y711D02*
D03*
X7137Y2718D02*
D03*
X17742Y5210D02*
D03*
X17483Y6038D02*
D03*
X13487Y6038D02*
D03*
X76236Y22708D02*
D03*
X76236Y24503D02*
D03*
X74422Y14986D02*
D03*
X74422Y12852D02*
D03*
X74422Y17170D02*
D03*
X53204Y24300D02*
D03*
X47564Y19050D02*
D03*
X42139Y19990D02*
D03*
X46594Y19050D02*
D03*
X10414Y2718D02*
D03*
X18034Y711D02*
D03*
X16597Y2511D02*
D03*
X11842Y15730D02*
D03*
X11842Y13730D02*
D03*
X7540Y4761D02*
D03*
X23437Y5690D02*
D03*
X27568Y4826D02*
D03*
X13206Y3914D02*
D03*
X15467Y2511D02*
D03*
X17742Y3914D02*
D03*
X17728Y2611D02*
D03*
X13206Y5210D02*
D03*
X13206Y2611D02*
D03*
X14288Y2511D02*
D03*
X40555Y18254D02*
D03*
X72898Y29286D02*
D03*
X61214Y20447D02*
D03*
X59909Y20371D02*
D03*
X71247Y6528D02*
D03*
X71334Y5123D02*
D03*
X37897Y15494D02*
D03*
X37059Y15697D02*
D03*
X37694Y16383D02*
D03*
X38608Y17170D02*
D03*
X36982Y14707D02*
D03*
X33877Y12829D02*
D03*
X46222Y6410D02*
D03*
X42666Y7324D02*
D03*
X45451Y10685D02*
D03*
X41946Y18153D02*
D03*
X60209Y23131D02*
D03*
X60209Y22573D02*
D03*
X36861Y17878D02*
D03*
X37653Y19398D02*
D03*
X41971Y10508D02*
D03*
X63572Y4265D02*
D03*
X66100Y4510D02*
D03*
X58659Y8496D02*
D03*
X48144Y6647D02*
D03*
X44715Y6933D02*
D03*
X68888Y4894D02*
D03*
X65644Y15418D02*
D03*
X36612Y18991D02*
D03*
X61631Y7150D02*
D03*
X47981Y10279D02*
D03*
X57110Y4488D02*
D03*
X61885Y5021D02*
D03*
X71283Y10787D02*
D03*
X70705Y11422D02*
D03*
X60099Y1651D02*
D03*
X42418Y15240D02*
D03*
X36873Y5928D02*
D03*
X47907Y13119D02*
D03*
X50825Y5690D02*
D03*
X64973Y18161D02*
D03*
X38405Y12319D02*
D03*
X21207Y874D02*
D03*
X34877Y14829D02*
D03*
X34877Y13829D02*
D03*
X34877Y12829D02*
D03*
X35877Y12829D02*
D03*
X35877Y13829D02*
D03*
X35877Y14829D02*
D03*
X33877Y13829D02*
D03*
X33877Y14829D02*
D03*
X32877Y13829D02*
D03*
X32877Y14829D02*
D03*
X41311Y8857D02*
D03*
X62969Y15247D02*
D03*
X60005Y17543D02*
D03*
X32357Y21690D02*
D03*
X47102Y6596D02*
D03*
X31471Y14046D02*
D03*
X40513Y19558D02*
D03*
X41478Y14750D02*
D03*
X43383Y8839D02*
D03*
X20574Y711D02*
D03*
X15494Y711D02*
D03*
X12954Y711D02*
D03*
X10414Y711D02*
D03*
X68834Y711D02*
D03*
X66294Y711D02*
D03*
X63754Y711D02*
D03*
X61723Y711D02*
D03*
X58674Y686D02*
D03*
X56134Y686D02*
D03*
X71374Y711D02*
D03*
X39929Y10312D02*
D03*
X39319Y9703D02*
D03*
X41300Y9550D02*
D03*
X38913Y4318D02*
D03*
X57122Y2921D02*
D03*
X58182Y3495D02*
D03*
X72415Y10363D02*
D03*
X73177Y9703D02*
D03*
X74473Y9703D02*
D03*
X76251Y9703D02*
D03*
X76251Y8382D02*
D03*
X76251Y7087D02*
D03*
X76251Y5791D02*
D03*
X73177Y4648D02*
D03*
X74473Y4648D02*
D03*
X75768Y4648D02*
D03*
X72771Y3556D02*
D03*
X72263Y2286D02*
D03*
X72517Y889D02*
D03*
X69088Y1753D02*
D03*
X70231Y2540D02*
D03*
X71120Y3429D02*
D03*
X70434Y1626D02*
D03*
X72009Y4674D02*
D03*
X72314Y5918D02*
D03*
X74422Y8611D02*
D03*
X73177Y8458D02*
D03*
X62357Y1194D02*
D03*
X65126Y1168D02*
D03*
X67539Y1168D02*
D03*
X56820Y1626D02*
D03*
X58877Y1651D02*
D03*
X59281Y2921D02*
D03*
X31318Y2032D02*
D03*
X31344Y2997D02*
D03*
X23860Y1905D02*
D03*
X36982Y13513D02*
D03*
X39192Y14326D02*
D03*
X41351Y13716D02*
D03*
X41300Y11405D02*
D03*
X46050Y13411D02*
D03*
X46177Y5385D02*
D03*
X46634Y4369D02*
D03*
X47066Y5410D02*
D03*
X47574Y21946D02*
D03*
X50724Y24536D02*
D03*
X48031Y24536D02*
D03*
X7842Y9730D02*
D03*
X9842Y9730D02*
D03*
X11842Y9730D02*
D03*
X11842Y11730D02*
D03*
X9842Y11730D02*
D03*
X7842Y11730D02*
D03*
X9842Y13730D02*
D03*
X9842Y15730D02*
D03*
X7842Y17730D02*
D03*
X9842Y17730D02*
D03*
X11842Y17730D02*
D03*
X7842Y21603D02*
D03*
X9842Y21603D02*
D03*
X11842Y21603D02*
D03*
X11842Y19730D02*
D03*
X9842Y19730D02*
D03*
X7842Y19730D02*
D03*
X13842Y19730D02*
D03*
X15842Y19730D02*
D03*
X17842Y19730D02*
D03*
X17842Y21603D02*
D03*
X15842Y21603D02*
D03*
X13842Y21603D02*
D03*
X17842Y17730D02*
D03*
X15842Y17730D02*
D03*
X13842Y17730D02*
D03*
X13842Y11730D02*
D03*
X15842Y11730D02*
D03*
X17842Y11730D02*
D03*
X17842Y9730D02*
D03*
X15842Y9730D02*
D03*
X13842Y9730D02*
D03*
X17842Y13730D02*
D03*
X17842Y15730D02*
D03*
X38862Y26035D02*
D03*
X64654Y16019D02*
D03*
X67132Y15900D02*
D03*
X60985Y17704D02*
D03*
X36718Y22136D02*
D03*
X35505Y22136D02*
D03*
X38608Y7747D02*
D03*
X71653Y29286D02*
D03*
X43455Y6655D02*
D03*
X32461Y3658D02*
D03*
X32766Y2997D02*
D03*
X42672Y9601D02*
D03*
X43434Y9830D02*
D03*
D169*
X22695Y23398D02*
D03*
X21200Y24169D02*
D03*
X22695Y24414D02*
D03*
X21011Y27710D02*
D03*
X20824Y24506D02*
D03*
X21583Y21270D02*
D03*
X62800Y28754D02*
D03*
X55588Y24994D02*
D03*
X56360Y25222D02*
D03*
X31958Y10211D02*
D03*
X40259Y2159D02*
D03*
X60741Y13557D02*
D03*
X61996Y13959D02*
D03*
X60979Y15103D02*
D03*
X61654Y14482D02*
D03*
X57904Y14488D02*
D03*
X57104Y14488D02*
D03*
X57104Y13688D02*
D03*
X51504Y20088D02*
D03*
X52304Y20088D02*
D03*
X28890Y26782D02*
D03*
X27840Y27022D02*
D03*
X59599Y12209D02*
D03*
X68067Y28754D02*
D03*
X68676Y28829D02*
D03*
X70161Y26704D02*
D03*
X70971Y23165D02*
D03*
X71139Y26594D02*
D03*
X15926Y26645D02*
D03*
X30988Y29378D02*
D03*
X29699Y26630D02*
D03*
X63424Y28457D02*
D03*
X58928Y29378D02*
D03*
X56388Y29378D02*
D03*
X24320Y26980D02*
D03*
X22935Y27398D02*
D03*
X34341Y29378D02*
D03*
X32665Y29378D02*
D03*
X27698Y25680D02*
D03*
X29311Y29378D02*
D03*
X18191Y29206D02*
D03*
X20613Y29278D02*
D03*
X41554Y4318D02*
D03*
X44120Y2946D02*
D03*
X15977Y25959D02*
D03*
X17120Y26289D02*
D03*
X67481Y26594D02*
D03*
X69846Y12763D02*
D03*
X42315Y23869D02*
D03*
X53715Y25440D02*
D03*
X61976Y15113D02*
D03*
X30331Y21844D02*
D03*
X42085Y25501D02*
D03*
X34236Y19906D02*
D03*
X35761Y19107D02*
D03*
X29394Y24091D02*
D03*
X28236Y21659D02*
D03*
X54570Y1635D02*
D03*
X52023Y1635D02*
D03*
X7125Y26864D02*
D03*
X7137Y6985D02*
D03*
X15697Y29032D02*
D03*
X51714Y2997D02*
D03*
X49174Y2997D02*
D03*
X60537Y28854D02*
D03*
X14542Y27788D02*
D03*
X13818Y27788D02*
D03*
X12662Y25959D02*
D03*
X11589Y25959D02*
D03*
X10516Y25959D02*
D03*
X13030Y26645D02*
D03*
X13385Y15336D02*
D03*
X13385Y14136D02*
D03*
X14585Y14136D02*
D03*
X14585Y15336D02*
D03*
X20193Y5334D02*
D03*
X29083Y6045D02*
D03*
X31648Y9525D02*
D03*
X23393Y7290D02*
D03*
X24079Y6985D02*
D03*
X24530Y6452D02*
D03*
X31572Y6147D02*
D03*
X28702Y5461D02*
D03*
X26873Y8179D02*
D03*
X7358Y6038D02*
D03*
X30912Y9500D02*
D03*
X30328Y11582D02*
D03*
X34434Y18051D02*
D03*
X53104Y17688D02*
D03*
X56304Y17688D02*
D03*
X57104Y20088D02*
D03*
X56304Y20088D02*
D03*
X51504Y13688D02*
D03*
X53904Y12888D02*
D03*
X57104Y17688D02*
D03*
X56304Y18488D02*
D03*
X57948Y24630D02*
D03*
X36630Y4528D02*
D03*
X34580Y6326D02*
D03*
X59258Y16434D02*
D03*
X53104Y18488D02*
D03*
X57104Y16088D02*
D03*
X55504Y16088D02*
D03*
X53904Y14488D02*
D03*
X56246Y12971D02*
D03*
X46188Y11041D02*
D03*
X43851Y18178D02*
D03*
X33742Y17424D02*
D03*
X31660Y17340D02*
D03*
X35662Y9220D02*
D03*
X46355Y27238D02*
D03*
X48895Y27250D02*
D03*
X51435Y27250D02*
D03*
X43815Y27250D02*
D03*
X36703Y2413D02*
D03*
X42648Y11125D02*
D03*
X43095Y15138D02*
D03*
X53904Y17688D02*
D03*
X58704Y17688D02*
D03*
X57904Y17688D02*
D03*
X54704Y18488D02*
D03*
X57904Y18488D02*
D03*
X44054Y24471D02*
D03*
X46594Y24471D02*
D03*
X44673Y11477D02*
D03*
X33924Y3901D02*
D03*
X34724Y3901D02*
D03*
X34724Y3101D02*
D03*
X33924Y3101D02*
D03*
X58704Y18488D02*
D03*
X44765Y24452D02*
D03*
X43457Y22771D02*
D03*
X60945Y11955D02*
D03*
X51598Y5834D02*
D03*
X52363Y4688D02*
D03*
X69936Y17538D02*
D03*
X44283Y19112D02*
D03*
X27457Y8458D02*
D03*
X38608Y29378D02*
D03*
X41148Y29378D02*
D03*
X43688Y29378D02*
D03*
X46228Y29378D02*
D03*
X48768Y29378D02*
D03*
X51308Y29378D02*
D03*
X53848Y29378D02*
D03*
X26953Y13287D02*
D03*
X26953Y14557D02*
D03*
X26953Y17097D02*
D03*
X26953Y10747D02*
D03*
X38837Y19050D02*
D03*
X36068Y29378D02*
D03*
X30226Y13970D02*
D03*
X30328Y18161D02*
D03*
X44120Y4318D02*
D03*
X46634Y2997D02*
D03*
X56988Y27729D02*
D03*
X59258Y17323D02*
D03*
X40894Y23393D02*
D03*
X67302Y28412D02*
D03*
X60884Y12700D02*
D03*
X45060Y18263D02*
D03*
X54661Y24994D02*
D03*
D170*
X20463Y23561D02*
D03*
X69019Y13593D02*
D03*
X69654Y13593D02*
D03*
X67845Y15510D02*
D03*
D171*
X60387Y25546D02*
D03*
X61687Y26846D02*
D03*
X60387Y26846D02*
D03*
X61037Y26196D02*
D03*
X61687Y25546D02*
D03*
D172*
X28194Y660D02*
D03*
X40894Y660D02*
D03*
X69126Y7787D02*
D03*
X38354Y660D02*
D03*
X48514Y660D02*
D03*
X51054Y686D02*
D03*
X35814Y660D02*
D03*
X33274Y660D02*
D03*
X30734Y660D02*
D03*
X25654Y660D02*
D03*
X23114Y686D02*
D03*
X53594Y686D02*
D03*
X45974Y660D02*
D03*
X43434Y660D02*
D03*
M02*
