G04*
G04 #@! TF.GenerationSoftware,Altium Limited,Altium Designer,19.1.9 (167)*
G04*
G04 Layer_Color=16711935*
%FSLAX43Y43*%
%MOMM*%
G71*
G01*
G75*
%ADD11C,0.100*%
%ADD13C,0.254*%
%ADD15C,0.127*%
%ADD16C,0.200*%
%ADD18C,0.150*%
%ADD22C,0.178*%
%ADD23C,0.180*%
%ADD24C,0.381*%
%ADD87C,0.902*%
G04:AMPARAMS|DCode=93|XSize=1.002mm|YSize=0.902mm|CornerRadius=0.251mm|HoleSize=0mm|Usage=FLASHONLY|Rotation=180.000|XOffset=0mm|YOffset=0mm|HoleType=Round|Shape=RoundedRectangle|*
%AMROUNDEDRECTD93*
21,1,1.002,0.400,0,0,180.0*
21,1,0.500,0.902,0,0,180.0*
1,1,0.502,-0.250,0.200*
1,1,0.502,0.250,0.200*
1,1,0.502,0.250,-0.200*
1,1,0.502,-0.250,-0.200*
%
%ADD93ROUNDEDRECTD93*%
G04:AMPARAMS|DCode=94|XSize=0.652mm|YSize=0.702mm|CornerRadius=0.188mm|HoleSize=0mm|Usage=FLASHONLY|Rotation=180.000|XOffset=0mm|YOffset=0mm|HoleType=Round|Shape=RoundedRectangle|*
%AMROUNDEDRECTD94*
21,1,0.652,0.325,0,0,180.0*
21,1,0.275,0.702,0,0,180.0*
1,1,0.377,-0.138,0.163*
1,1,0.377,0.138,0.163*
1,1,0.377,0.138,-0.163*
1,1,0.377,-0.138,-0.163*
%
%ADD94ROUNDEDRECTD94*%
G04:AMPARAMS|DCode=106|XSize=0.652mm|YSize=0.702mm|CornerRadius=0.188mm|HoleSize=0mm|Usage=FLASHONLY|Rotation=90.000|XOffset=0mm|YOffset=0mm|HoleType=Round|Shape=RoundedRectangle|*
%AMROUNDEDRECTD106*
21,1,0.652,0.325,0,0,90.0*
21,1,0.275,0.702,0,0,90.0*
1,1,0.377,0.163,0.138*
1,1,0.377,0.163,-0.138*
1,1,0.377,-0.163,-0.138*
1,1,0.377,-0.163,0.138*
%
%ADD106ROUNDEDRECTD106*%
%ADD107R,1.152X0.752*%
G04:AMPARAMS|DCode=111|XSize=0.402mm|YSize=0.427mm|CornerRadius=0.132mm|HoleSize=0mm|Usage=FLASHONLY|Rotation=270.000|XOffset=0mm|YOffset=0mm|HoleType=Round|Shape=RoundedRectangle|*
%AMROUNDEDRECTD111*
21,1,0.402,0.163,0,0,270.0*
21,1,0.138,0.427,0,0,270.0*
1,1,0.265,-0.081,-0.069*
1,1,0.265,-0.081,0.069*
1,1,0.265,0.081,0.069*
1,1,0.265,0.081,-0.069*
%
%ADD111ROUNDEDRECTD111*%
%ADD113C,2.016*%
%ADD124C,0.914*%
%ADD125R,1.702X1.702*%
%ADD126C,1.702*%
%ADD127C,1.626*%
%ADD128R,1.626X1.626*%
%ADD129C,1.352*%
G04:AMPARAMS|DCode=130|XSize=1.352mm|YSize=1.352mm|CornerRadius=0.676mm|HoleSize=0mm|Usage=FLASHONLY|Rotation=90.000|XOffset=0mm|YOffset=0mm|HoleType=Round|Shape=RoundedRectangle|*
%AMROUNDEDRECTD130*
21,1,1.352,0.000,0,0,90.0*
21,1,0.000,1.352,0,0,90.0*
1,1,1.352,0.000,0.000*
1,1,1.352,0.000,0.000*
1,1,1.352,0.000,0.000*
1,1,1.352,0.000,0.000*
%
%ADD130ROUNDEDRECTD130*%
%ADD131C,1.652*%
%ADD132C,1.102*%
%ADD133C,1.802*%
%ADD134P,1.950X8X202.5*%
%ADD135C,0.354*%
%ADD136C,3.100*%
%ADD196R,1.800X0.700*%
%ADD197R,3.799X2.611*%
%ADD198R,3.000X3.000*%
%ADD199C,0.502*%
G04:AMPARAMS|DCode=200|XSize=1.002mm|YSize=0.902mm|CornerRadius=0.251mm|HoleSize=0mm|Usage=FLASHONLY|Rotation=270.000|XOffset=0mm|YOffset=0mm|HoleType=Round|Shape=RoundedRectangle|*
%AMROUNDEDRECTD200*
21,1,1.002,0.400,0,0,270.0*
21,1,0.500,0.902,0,0,270.0*
1,1,0.502,-0.200,-0.250*
1,1,0.502,-0.200,0.250*
1,1,0.502,0.200,0.250*
1,1,0.502,0.200,-0.250*
%
%ADD200ROUNDEDRECTD200*%
G04:AMPARAMS|DCode=201|XSize=0.377mm|YSize=0.402mm|CornerRadius=0.12mm|HoleSize=0mm|Usage=FLASHONLY|Rotation=0.000|XOffset=0mm|YOffset=0mm|HoleType=Round|Shape=RoundedRectangle|*
%AMROUNDEDRECTD201*
21,1,0.377,0.163,0,0,0.0*
21,1,0.138,0.402,0,0,0.0*
1,1,0.239,0.069,-0.081*
1,1,0.239,-0.069,-0.081*
1,1,0.239,-0.069,0.081*
1,1,0.239,0.069,0.081*
%
%ADD201ROUNDEDRECTD201*%
G04:AMPARAMS|DCode=202|XSize=1.502mm|YSize=1.002mm|CornerRadius=0.276mm|HoleSize=0mm|Usage=FLASHONLY|Rotation=0.000|XOffset=0mm|YOffset=0mm|HoleType=Round|Shape=RoundedRectangle|*
%AMROUNDEDRECTD202*
21,1,1.502,0.450,0,0,0.0*
21,1,0.950,1.002,0,0,0.0*
1,1,0.552,0.475,-0.225*
1,1,0.552,-0.475,-0.225*
1,1,0.552,-0.475,0.225*
1,1,0.552,0.475,0.225*
%
%ADD202ROUNDEDRECTD202*%
%ADD203C,0.902*%
%ADD204C,1.118*%
%ADD205R,0.752X0.602*%
%ADD206R,0.702X0.522*%
%ADD207R,4.102X3.502*%
%ADD208R,0.552X1.202*%
%ADD209R,0.402X0.832*%
%ADD210R,0.832X0.402*%
%ADD211R,2.602X2.602*%
%ADD212R,1.702X2.202*%
%ADD213R,0.702X0.452*%
%ADD214O,1.550X0.550*%
%ADD215R,0.452X0.602*%
G04:AMPARAMS|DCode=216|XSize=0.532mm|YSize=0.602mm|CornerRadius=0.158mm|HoleSize=0mm|Usage=FLASHONLY|Rotation=180.000|XOffset=0mm|YOffset=0mm|HoleType=Round|Shape=RoundedRectangle|*
%AMROUNDEDRECTD216*
21,1,0.532,0.285,0,0,180.0*
21,1,0.215,0.602,0,0,180.0*
1,1,0.317,-0.108,0.142*
1,1,0.317,0.108,0.142*
1,1,0.317,0.108,-0.142*
1,1,0.317,-0.108,-0.142*
%
%ADD216ROUNDEDRECTD216*%
%ADD217R,3.252X3.252*%
%ADD218R,0.452X1.102*%
%ADD219R,1.102X0.452*%
G04:AMPARAMS|DCode=220|XSize=0.377mm|YSize=0.402mm|CornerRadius=0.12mm|HoleSize=0mm|Usage=FLASHONLY|Rotation=90.000|XOffset=0mm|YOffset=0mm|HoleType=Round|Shape=RoundedRectangle|*
%AMROUNDEDRECTD220*
21,1,0.377,0.163,0,0,90.0*
21,1,0.138,0.402,0,0,90.0*
1,1,0.239,0.081,0.069*
1,1,0.239,0.081,-0.069*
1,1,0.239,-0.081,-0.069*
1,1,0.239,-0.081,0.069*
%
%ADD220ROUNDEDRECTD220*%
%ADD221R,0.522X0.702*%
G36*
X261671Y-110862D02*
X261761Y-110877D01*
X261865Y-110921D01*
X261954Y-110981D01*
X262043Y-111085D01*
X262103Y-111204D01*
X262133Y-111383D01*
X262133Y-111412D01*
X262118Y-111472D01*
X262103Y-111561D01*
X262058Y-111665D01*
X261999Y-111770D01*
X261895Y-111859D01*
X261761Y-111933D01*
X261582Y-111963D01*
X261537Y-111963D01*
X261493Y-111948D01*
X261448Y-111948D01*
X261299Y-111889D01*
X261240Y-111859D01*
X261165Y-111799D01*
X261165Y-111784D01*
X261136Y-111770D01*
X261076Y-111680D01*
X261017Y-111546D01*
X261002Y-111472D01*
X260987Y-111383D01*
X260987Y-111368D01*
X260987Y-111338D01*
X261017Y-111249D01*
X261076Y-111130D01*
X261165Y-111011D01*
X261180Y-110996D01*
X261195Y-110981D01*
X261284Y-110921D01*
X261418Y-110877D01*
X261493Y-110847D01*
X261612Y-110847D01*
X261671Y-110862D01*
X261671Y-110862D02*
G37*
G36*
X258055Y-110356D02*
X258174Y-110356D01*
X258457Y-110400D01*
X258769Y-110445D01*
X259127Y-110520D01*
X259484Y-110624D01*
X259826Y-110772D01*
X262996Y-115803D01*
X262996Y-115817D01*
X262996Y-115847D01*
X262981Y-115892D01*
X262981Y-115966D01*
X262951Y-116130D01*
X262907Y-116353D01*
X262907Y-116368D01*
X262892Y-116398D01*
X262877Y-116457D01*
X262862Y-116547D01*
X262847Y-116636D01*
X262817Y-116740D01*
X262743Y-116978D01*
X259990Y-112662D01*
X259975Y-112648D01*
X259960Y-112618D01*
X259915Y-112558D01*
X259856Y-112499D01*
X259781Y-112439D01*
X259692Y-112380D01*
X259603Y-112350D01*
X259499Y-112335D01*
X259454Y-112335D01*
X259409Y-112350D01*
X259350Y-112380D01*
X259275Y-112410D01*
X259201Y-112469D01*
X259127Y-112543D01*
X259037Y-112648D01*
X258115Y-113913D01*
X261359Y-119002D01*
X261344Y-119017D01*
X261284Y-119062D01*
X261195Y-119136D01*
X261076Y-119211D01*
X260927Y-119330D01*
X260749Y-119434D01*
X260540Y-119568D01*
X260317Y-119687D01*
X260049Y-119821D01*
X259766Y-119955D01*
X259454Y-120059D01*
X259127Y-120163D01*
X258769Y-120252D01*
X258397Y-120327D01*
X258010Y-120371D01*
X257609Y-120386D01*
X257504Y-120386D01*
X257400Y-120371D01*
X257237Y-120356D01*
X257043Y-120342D01*
X256820Y-120297D01*
X256582Y-120252D01*
X256299Y-120178D01*
X256016Y-120089D01*
X255704Y-119984D01*
X255391Y-119850D01*
X255064Y-119687D01*
X254736Y-119493D01*
X254409Y-119285D01*
X254096Y-119032D01*
X253784Y-118734D01*
X255153Y-116844D01*
X255168Y-116829D01*
X255183Y-116785D01*
X255213Y-116695D01*
X255227Y-116621D01*
X255242Y-116547D01*
X255242Y-116517D01*
X255227Y-116442D01*
X255183Y-116309D01*
X255094Y-116145D01*
X254082Y-114567D01*
X252579Y-116666D01*
X252579Y-116651D01*
X252579Y-116636D01*
X252549Y-116547D01*
X252519Y-116428D01*
X252489Y-116249D01*
X252459Y-116041D01*
X252430Y-115817D01*
X252415Y-115550D01*
X252400Y-115282D01*
X252400Y-115252D01*
X252400Y-115192D01*
X252415Y-115088D01*
X252430Y-114954D01*
X252445Y-114776D01*
X252474Y-114582D01*
X252519Y-114359D01*
X252579Y-114121D01*
X252653Y-113868D01*
X252757Y-113585D01*
X252876Y-113302D01*
X253010Y-113020D01*
X253174Y-112737D01*
X253367Y-112439D01*
X253590Y-112157D01*
X253843Y-111889D01*
X253858Y-111874D01*
X253918Y-111814D01*
X254007Y-111740D01*
X254126Y-111651D01*
X254275Y-111531D01*
X254469Y-111398D01*
X254677Y-111264D01*
X254915Y-111115D01*
X255183Y-110966D01*
X255480Y-110832D01*
X255808Y-110698D01*
X256150Y-110579D01*
X256522Y-110490D01*
X256909Y-110400D01*
X257326Y-110356D01*
X257757Y-110341D01*
X257951Y-110341D01*
X258055Y-110356D01*
X258055Y-110356D02*
G37*
G36*
X263308Y-121815D02*
X263383Y-121815D01*
X263427Y-121830D01*
X263442Y-121830D01*
X263472Y-121845D01*
X263561Y-121889D01*
X263621Y-121934D01*
X263665Y-121993D01*
X263710Y-122083D01*
X263740Y-122172D01*
X263740Y-122187D01*
X263740Y-122202D01*
X263755Y-122246D01*
X263755Y-122321D01*
X263755Y-122395D01*
X263770Y-122485D01*
X263770Y-122604D01*
X263770Y-122738D01*
X261895Y-122693D01*
X261880Y-122693D01*
X261835Y-122708D01*
X261761Y-122723D01*
X261686Y-122767D01*
X261597Y-122857D01*
X261537Y-122976D01*
X261478Y-123139D01*
X261463Y-123258D01*
X261463Y-123377D01*
X261463Y-123764D01*
X261463Y-123794D01*
X261463Y-123869D01*
X261493Y-123988D01*
X261523Y-124107D01*
X261567Y-124226D01*
X261642Y-124345D01*
X261746Y-124419D01*
X261805Y-124434D01*
X261880Y-124449D01*
X263799Y-124449D01*
X263799Y-124479D01*
X263799Y-124538D01*
X263799Y-124628D01*
X263785Y-124747D01*
X263770Y-124851D01*
X263755Y-124970D01*
X263725Y-125059D01*
X263695Y-125133D01*
X263695Y-125148D01*
X263665Y-125163D01*
X263621Y-125193D01*
X263561Y-125223D01*
X263487Y-125267D01*
X263368Y-125297D01*
X263234Y-125312D01*
X263055Y-125327D01*
X261656Y-125327D01*
X261537Y-125312D01*
X261403Y-125282D01*
X261255Y-125238D01*
X261106Y-125163D01*
X260972Y-125074D01*
X260868Y-124955D01*
X260868Y-124940D01*
X260838Y-124895D01*
X260823Y-124836D01*
X260793Y-124747D01*
X260764Y-124613D01*
X260734Y-124464D01*
X260719Y-124300D01*
X260704Y-124092D01*
X260704Y-123065D01*
X260704Y-123050D01*
X260704Y-123020D01*
X260704Y-122976D01*
X260704Y-122916D01*
X260734Y-122767D01*
X260764Y-122589D01*
X260808Y-122395D01*
X260883Y-122217D01*
X260987Y-122053D01*
X261121Y-121934D01*
X261136Y-121934D01*
X261165Y-121919D01*
X261210Y-121889D01*
X261284Y-121859D01*
X261374Y-121845D01*
X261493Y-121815D01*
X261612Y-121800D01*
X263130Y-121800D01*
X263308Y-121815D01*
X263308Y-121815D02*
G37*
G36*
X267237Y-125297D02*
X266493Y-125297D01*
X266493Y-123988D01*
X264945Y-123988D01*
X264945Y-125297D01*
X264261Y-125297D01*
X264261Y-121830D01*
X264945Y-121830D01*
X264945Y-123065D01*
X266493Y-123065D01*
X266493Y-121830D01*
X267237Y-121830D01*
X267237Y-125297D01*
X267237Y-125297D02*
G37*
G36*
X247534Y-120714D02*
X247593Y-120728D01*
X247682Y-120758D01*
X247757Y-120833D01*
X247831Y-120922D01*
X247891Y-121056D01*
X247921Y-121234D01*
X248382Y-125297D01*
X247519Y-125297D01*
X247281Y-122380D01*
X247266Y-122380D01*
X246373Y-124717D01*
X246373Y-124732D01*
X246343Y-124776D01*
X246298Y-124836D01*
X246254Y-124910D01*
X246179Y-124985D01*
X246090Y-125044D01*
X245971Y-125089D01*
X245852Y-125104D01*
X245792Y-125104D01*
X245718Y-125089D01*
X245644Y-125059D01*
X245554Y-125014D01*
X245465Y-124940D01*
X245376Y-124851D01*
X245316Y-124717D01*
X244438Y-122425D01*
X244423Y-122425D01*
X244170Y-125297D01*
X243322Y-125297D01*
X243768Y-121190D01*
X243768Y-121175D01*
X243783Y-121115D01*
X243813Y-121041D01*
X243843Y-120937D01*
X243902Y-120848D01*
X243992Y-120773D01*
X244096Y-120714D01*
X244230Y-120699D01*
X244304Y-120699D01*
X244379Y-120728D01*
X244483Y-120758D01*
X244572Y-120818D01*
X244676Y-120892D01*
X244780Y-121011D01*
X244855Y-121160D01*
X245837Y-123675D01*
X245852Y-123675D01*
X246849Y-121160D01*
X246864Y-121145D01*
X246879Y-121086D01*
X246923Y-121011D01*
X246998Y-120922D01*
X247087Y-120848D01*
X247191Y-120773D01*
X247325Y-120714D01*
X247474Y-120699D01*
X247489Y-120699D01*
X247534Y-120714D01*
X247534Y-120714D02*
G37*
G36*
X271359Y-121845D02*
X271464Y-121859D01*
X271598Y-121904D01*
X271746Y-121979D01*
X271865Y-122083D01*
X271984Y-122232D01*
X272059Y-122425D01*
X272059Y-122440D01*
X272074Y-122470D01*
X272074Y-122514D01*
X272089Y-122589D01*
X272104Y-122678D01*
X272104Y-122782D01*
X272118Y-122901D01*
X272118Y-123035D01*
X272118Y-123303D01*
X272118Y-123333D01*
X272118Y-123407D01*
X272104Y-123511D01*
X272089Y-123645D01*
X272029Y-123943D01*
X271984Y-124077D01*
X271910Y-124196D01*
X271910Y-124211D01*
X271880Y-124226D01*
X271791Y-124300D01*
X271642Y-124389D01*
X271553Y-124404D01*
X271449Y-124419D01*
X269722Y-124419D01*
X269722Y-125297D01*
X269008Y-125297D01*
X269008Y-121830D01*
X271285Y-121830D01*
X271359Y-121845D01*
X271359Y-121845D02*
G37*
G36*
X268547Y-125297D02*
X267743Y-125297D01*
X267743Y-121830D01*
X268547Y-121830D01*
X268547Y-125297D01*
X268547Y-125297D02*
G37*
G36*
X256046Y-121845D02*
X256165Y-121889D01*
X256284Y-121964D01*
X256344Y-122008D01*
X256403Y-122083D01*
X256463Y-122172D01*
X256522Y-122261D01*
X256567Y-122395D01*
X256597Y-122529D01*
X256626Y-122693D01*
X256626Y-122871D01*
X256626Y-123080D01*
X256626Y-123095D01*
X256626Y-123110D01*
X256626Y-123199D01*
X256612Y-123318D01*
X256582Y-123467D01*
X256537Y-123616D01*
X256463Y-123749D01*
X256373Y-123869D01*
X256239Y-123943D01*
X256239Y-123958D01*
X256254Y-123958D01*
X256299Y-123988D01*
X256359Y-124032D01*
X256433Y-124092D01*
X256507Y-124181D01*
X256567Y-124315D01*
X256612Y-124494D01*
X256626Y-124717D01*
X256626Y-125297D01*
X255897Y-125297D01*
X255897Y-124881D01*
X255897Y-124866D01*
X255897Y-124836D01*
X255897Y-124791D01*
X255897Y-124732D01*
X255882Y-124613D01*
X255882Y-124553D01*
X255867Y-124523D01*
X255853Y-124508D01*
X255808Y-124449D01*
X255733Y-124404D01*
X255614Y-124389D01*
X254320Y-124389D01*
X254320Y-125297D01*
X253590Y-125297D01*
X253590Y-121830D01*
X255972Y-121830D01*
X256046Y-121845D01*
X256046Y-121845D02*
G37*
G36*
X249632Y-125297D02*
X248813Y-125297D01*
X248813Y-121830D01*
X249632Y-121830D01*
X249632Y-125297D01*
X249632Y-125297D02*
G37*
G36*
X259469Y-121815D02*
X259603Y-121845D01*
X259737Y-121874D01*
X259871Y-121934D01*
X259990Y-122008D01*
X260079Y-122112D01*
X260094Y-122127D01*
X260109Y-122172D01*
X260153Y-122246D01*
X260198Y-122351D01*
X260228Y-122485D01*
X260272Y-122633D01*
X260287Y-122827D01*
X260302Y-123050D01*
X260302Y-124077D01*
X260302Y-124092D01*
X260302Y-124122D01*
X260302Y-124166D01*
X260302Y-124226D01*
X260272Y-124389D01*
X260243Y-124583D01*
X260183Y-124791D01*
X260094Y-124985D01*
X259960Y-125148D01*
X259885Y-125208D01*
X259796Y-125253D01*
X259781Y-125253D01*
X259766Y-125267D01*
X259722Y-125282D01*
X259662Y-125282D01*
X259588Y-125297D01*
X259499Y-125312D01*
X259275Y-125327D01*
X257996Y-125327D01*
X257891Y-125312D01*
X257772Y-125282D01*
X257623Y-125238D01*
X257490Y-125178D01*
X257356Y-125104D01*
X257251Y-124985D01*
X257237Y-124970D01*
X257222Y-124925D01*
X257192Y-124866D01*
X257162Y-124761D01*
X257117Y-124642D01*
X257088Y-124479D01*
X257073Y-124300D01*
X257058Y-124077D01*
X257058Y-123050D01*
X257058Y-123035D01*
X257058Y-123005D01*
X257058Y-122946D01*
X257073Y-122886D01*
X257088Y-122708D01*
X257132Y-122514D01*
X257207Y-122291D01*
X257311Y-122098D01*
X257370Y-122023D01*
X257460Y-121949D01*
X257549Y-121889D01*
X257653Y-121845D01*
X257668Y-121845D01*
X257683Y-121830D01*
X257772Y-121815D01*
X257921Y-121800D01*
X259380Y-121800D01*
X259469Y-121815D01*
X259469Y-121815D02*
G37*
G36*
X252400Y-121815D02*
X252579Y-121815D01*
X252727Y-121830D01*
X252861Y-121845D01*
X252906Y-121859D01*
X252936Y-121874D01*
X252951Y-121874D01*
X252965Y-121904D01*
X252995Y-121949D01*
X253040Y-122023D01*
X253070Y-122127D01*
X253099Y-122276D01*
X253114Y-122455D01*
X253129Y-122693D01*
X251224Y-122693D01*
X251150Y-122708D01*
X251046Y-122752D01*
X250942Y-122827D01*
X250927Y-122857D01*
X250912Y-122886D01*
X250882Y-122946D01*
X250867Y-123020D01*
X250837Y-123110D01*
X250822Y-123229D01*
X250822Y-123377D01*
X250822Y-123764D01*
X250822Y-123779D01*
X250822Y-123824D01*
X250822Y-123898D01*
X250837Y-123973D01*
X250852Y-124151D01*
X250867Y-124226D01*
X250882Y-124285D01*
X250897Y-124315D01*
X250956Y-124360D01*
X251075Y-124419D01*
X251150Y-124434D01*
X251239Y-124449D01*
X253174Y-124449D01*
X253174Y-124464D01*
X253174Y-124523D01*
X253174Y-124613D01*
X253159Y-124717D01*
X253129Y-124940D01*
X253099Y-125029D01*
X253070Y-125104D01*
X253070Y-125119D01*
X253040Y-125133D01*
X252995Y-125178D01*
X252936Y-125208D01*
X252861Y-125253D01*
X252742Y-125297D01*
X252608Y-125312D01*
X252430Y-125327D01*
X251031Y-125327D01*
X250927Y-125312D01*
X250808Y-125297D01*
X250659Y-125253D01*
X250525Y-125208D01*
X250406Y-125133D01*
X250302Y-125044D01*
X250287Y-125029D01*
X250272Y-124985D01*
X250227Y-124925D01*
X250183Y-124821D01*
X250138Y-124687D01*
X250108Y-124523D01*
X250078Y-124315D01*
X250063Y-124077D01*
X250063Y-123050D01*
X250063Y-123035D01*
X250063Y-123005D01*
X250063Y-122946D01*
X250078Y-122871D01*
X250108Y-122693D01*
X250153Y-122470D01*
X250242Y-122261D01*
X250361Y-122053D01*
X250450Y-121979D01*
X250540Y-121904D01*
X250659Y-121845D01*
X250778Y-121815D01*
X250808Y-121815D01*
X250867Y-121800D01*
X252236Y-121800D01*
X252400Y-121815D01*
X252400Y-121815D02*
G37*
%LPC*%
G36*
X261582Y-110936D02*
X261508Y-110936D01*
X261418Y-110966D01*
X261329Y-110996D01*
X261240Y-111040D01*
X261150Y-111130D01*
X261091Y-111234D01*
X261076Y-111383D01*
X261076Y-111398D01*
X261076Y-111412D01*
X261091Y-111502D01*
X261136Y-111621D01*
X261225Y-111740D01*
X261255Y-111755D01*
X261329Y-111799D01*
X261433Y-111859D01*
X261582Y-111874D01*
X261597Y-111874D01*
X261656Y-111859D01*
X261731Y-111844D01*
X261820Y-111814D01*
X261895Y-111755D01*
X261969Y-111665D01*
X262029Y-111546D01*
X262043Y-111383D01*
X262043Y-111368D01*
X262043Y-111308D01*
X262014Y-111234D01*
X261984Y-111159D01*
X261924Y-111070D01*
X261850Y-111011D01*
X261731Y-110951D01*
X261582Y-110936D01*
X261582Y-110936D02*
G37*
%LPD*%
G36*
X261701Y-111100D02*
X261790Y-111145D01*
X261805Y-111204D01*
X261820Y-111264D01*
X261820Y-111293D01*
X261805Y-111353D01*
X261746Y-111427D01*
X261716Y-111442D01*
X261656Y-111457D01*
X261835Y-111740D01*
X261731Y-111740D01*
X261552Y-111457D01*
X261448Y-111457D01*
X261448Y-111740D01*
X261344Y-111740D01*
X261344Y-111070D01*
X261627Y-111070D01*
X261701Y-111100D01*
X261701Y-111100D02*
G37*
%LPC*%
G36*
X261612Y-111159D02*
X261448Y-111159D01*
X261448Y-111368D01*
X261627Y-111368D01*
X261671Y-111353D01*
X261701Y-111323D01*
X261716Y-111264D01*
X261716Y-111249D01*
X261701Y-111204D01*
X261671Y-111174D01*
X261612Y-111159D01*
X261612Y-111159D02*
G37*
G36*
X255927Y-112320D02*
X255882Y-112320D01*
X255838Y-112335D01*
X255778Y-112365D01*
X255704Y-112395D01*
X255614Y-112454D01*
X255540Y-112529D01*
X255451Y-112633D01*
X254543Y-113898D01*
X257251Y-118169D01*
X257266Y-118184D01*
X257296Y-118228D01*
X257341Y-118288D01*
X257400Y-118362D01*
X257460Y-118437D01*
X257534Y-118496D01*
X257623Y-118541D01*
X257698Y-118556D01*
X257743Y-118556D01*
X257787Y-118541D01*
X257862Y-118526D01*
X257936Y-118481D01*
X258010Y-118437D01*
X258085Y-118362D01*
X258159Y-118273D01*
X259112Y-116919D01*
X256403Y-112648D01*
X256388Y-112633D01*
X256373Y-112603D01*
X256329Y-112543D01*
X256269Y-112484D01*
X256195Y-112424D01*
X256120Y-112365D01*
X256031Y-112335D01*
X255927Y-112320D01*
X255927Y-112320D02*
G37*
G36*
X271092Y-122678D02*
X269722Y-122678D01*
X269722Y-123556D01*
X271166Y-123556D01*
X271211Y-123541D01*
X271255Y-123511D01*
X271285Y-123467D01*
X271330Y-123407D01*
X271345Y-123318D01*
X271359Y-123199D01*
X271359Y-123065D01*
X271359Y-123050D01*
X271359Y-123005D01*
X271345Y-122946D01*
X271330Y-122871D01*
X271300Y-122797D01*
X271240Y-122738D01*
X271181Y-122693D01*
X271092Y-122678D01*
X271092Y-122678D02*
G37*
G36*
X255585Y-122678D02*
X254320Y-122678D01*
X254320Y-123541D01*
X255704Y-123541D01*
X255748Y-123526D01*
X255808Y-123496D01*
X255853Y-123452D01*
X255897Y-123377D01*
X255927Y-123288D01*
X255942Y-123169D01*
X255942Y-123065D01*
X255942Y-123050D01*
X255942Y-123005D01*
X255927Y-122946D01*
X255897Y-122871D01*
X255853Y-122797D01*
X255793Y-122738D01*
X255704Y-122693D01*
X255585Y-122678D01*
X255585Y-122678D02*
G37*
G36*
X259186Y-122678D02*
X258219Y-122678D01*
X258129Y-122693D01*
X258010Y-122752D01*
X257951Y-122782D01*
X257906Y-122842D01*
X257891Y-122871D01*
X257876Y-122916D01*
X257862Y-122961D01*
X257832Y-123035D01*
X257817Y-123124D01*
X257802Y-123243D01*
X257802Y-123377D01*
X257802Y-123764D01*
X257802Y-123779D01*
X257802Y-123824D01*
X257802Y-123898D01*
X257817Y-123973D01*
X257832Y-124151D01*
X257847Y-124241D01*
X257876Y-124300D01*
X257891Y-124330D01*
X257951Y-124375D01*
X258055Y-124419D01*
X258204Y-124449D01*
X259156Y-124449D01*
X259216Y-124434D01*
X259290Y-124419D01*
X259365Y-124360D01*
X259454Y-124285D01*
X259513Y-124166D01*
X259573Y-123988D01*
X259588Y-123883D01*
X259588Y-123764D01*
X259588Y-123377D01*
X259588Y-123363D01*
X259588Y-123318D01*
X259588Y-123243D01*
X259573Y-123169D01*
X259528Y-122991D01*
X259484Y-122901D01*
X259439Y-122842D01*
X259439Y-122827D01*
X259409Y-122812D01*
X259350Y-122752D01*
X259246Y-122708D01*
X259186Y-122678D01*
X259186Y-122678D02*
G37*
%LPD*%
D11*
X274322Y-116797D02*
X356142Y-116797D01*
X331322Y-112297D02*
X331322Y-109297D01*
X356142Y-112297D02*
X356142Y-112297D01*
X331322Y-112297D02*
X356142Y-112297D01*
X350022Y-131897D02*
X350022Y-131297D01*
X352482Y-133932D02*
X352482Y-132662D01*
X349942Y-133932D02*
X349942Y-132662D01*
X347402Y-133932D02*
X347402Y-132662D01*
X355022Y-133932D02*
X355022Y-132662D01*
X344862Y-133932D02*
X344862Y-132662D01*
X344862Y-133297D02*
X355022Y-133297D01*
X355022Y-132097D02*
X355022Y-131097D01*
X345022Y-132097D02*
X345022Y-131097D01*
X345022Y-131597D02*
X355022Y-131597D01*
X341555Y-132897D02*
X341222Y-133364D01*
X341722Y-133364D01*
X341555Y-132897D02*
X341555Y-133597D01*
X342045Y-132897D02*
X341945Y-132931D01*
X341879Y-133031D01*
X341845Y-133197D01*
X341845Y-133297D01*
X341879Y-133464D01*
X341945Y-133564D01*
X342045Y-133597D01*
X342112Y-133597D01*
X342212Y-133564D01*
X342278Y-133464D01*
X342312Y-133297D01*
X342312Y-133197D01*
X342278Y-133031D01*
X342212Y-132931D01*
X342112Y-132897D01*
X342045Y-132897D01*
X342668Y-132897D02*
X342568Y-132931D01*
X342502Y-133031D01*
X342468Y-133197D01*
X342468Y-133297D01*
X342502Y-133464D01*
X342568Y-133564D01*
X342668Y-133597D01*
X342735Y-133597D01*
X342835Y-133564D01*
X342902Y-133464D01*
X342935Y-133297D01*
X342935Y-133197D01*
X342902Y-133031D01*
X342835Y-132931D01*
X342735Y-132897D01*
X342668Y-132897D01*
X343092Y-133131D02*
X343092Y-133597D01*
X343092Y-133264D02*
X343192Y-133164D01*
X343258Y-133131D01*
X343358Y-133131D01*
X343425Y-133164D01*
X343458Y-133264D01*
X343458Y-133597D01*
X343458Y-133264D02*
X343558Y-133164D01*
X343625Y-133131D01*
X343725Y-133131D01*
X343791Y-133164D01*
X343825Y-133264D01*
X343825Y-133597D01*
X344111Y-132897D02*
X344145Y-132931D01*
X344178Y-132897D01*
X344145Y-132864D01*
X344111Y-132897D01*
X344145Y-133131D02*
X344145Y-133597D01*
X344301Y-132897D02*
X344301Y-133597D01*
X341322Y-131331D02*
X341389Y-131297D01*
X341489Y-131197D01*
X341489Y-131897D01*
X342035Y-131197D02*
X341935Y-131231D01*
X341869Y-131331D01*
X341835Y-131497D01*
X341835Y-131597D01*
X341869Y-131764D01*
X341935Y-131864D01*
X342035Y-131897D01*
X342102Y-131897D01*
X342202Y-131864D01*
X342268Y-131764D01*
X342302Y-131597D01*
X342302Y-131497D01*
X342268Y-131331D01*
X342202Y-131231D01*
X342102Y-131197D01*
X342035Y-131197D01*
X342458Y-131431D02*
X342458Y-131897D01*
X342458Y-131564D02*
X342558Y-131464D01*
X342625Y-131431D01*
X342725Y-131431D01*
X342792Y-131464D01*
X342825Y-131564D01*
X342825Y-131897D01*
X342825Y-131564D02*
X342925Y-131464D01*
X342992Y-131431D01*
X343092Y-131431D01*
X343158Y-131464D01*
X343192Y-131564D01*
X343192Y-131897D01*
X343412Y-131431D02*
X343412Y-131897D01*
X343412Y-131564D02*
X343512Y-131464D01*
X343578Y-131431D01*
X343678Y-131431D01*
X343745Y-131464D01*
X343778Y-131564D01*
X343778Y-131897D01*
X343778Y-131564D02*
X343878Y-131464D01*
X343945Y-131431D01*
X344045Y-131431D01*
X344111Y-131464D01*
X344145Y-131564D01*
X344145Y-131897D01*
D13*
X245322Y87203D02*
X245322Y91703D01*
X336322Y87203D02*
X336322Y91703D01*
X234322Y87203D02*
X355822Y87203D01*
X234322Y87203D02*
X234322Y91703D01*
X336322Y91703D02*
X336322Y96203D01*
X257822Y91703D02*
X257822Y96203D01*
X245322Y91703D02*
X245322Y96203D01*
X234322Y91703D02*
X355822Y91703D01*
X234322Y91703D02*
X234322Y96203D01*
X257822Y87203D02*
X257822Y91703D01*
X341322Y94226D02*
X341322Y92703D01*
X342084Y92703D01*
X342338Y92957D01*
X342338Y93972D01*
X342084Y94226D01*
X341322Y94226D01*
X343099Y93718D02*
X343607Y93718D01*
X343861Y93465D01*
X343861Y92703D01*
X343099Y92703D01*
X342846Y92957D01*
X343099Y93211D01*
X343861Y93211D01*
X344623Y93972D02*
X344623Y93718D01*
X344369Y93718D01*
X344877Y93718D01*
X344623Y93718D01*
X344623Y92957D01*
X344877Y92703D01*
X346400Y92703D02*
X345893Y92703D01*
X345639Y92957D01*
X345639Y93465D01*
X345893Y93718D01*
X346400Y93718D01*
X346654Y93465D01*
X346654Y93211D01*
X345639Y93211D01*
X294338Y93972D02*
X294084Y94226D01*
X293576Y94226D01*
X293322Y93972D01*
X293322Y92957D01*
X293576Y92703D01*
X294084Y92703D01*
X294338Y92957D01*
X295099Y92703D02*
X295607Y92703D01*
X295861Y92957D01*
X295861Y93465D01*
X295607Y93718D01*
X295099Y93718D01*
X294846Y93465D01*
X294846Y92957D01*
X295099Y92703D01*
X296369Y92703D02*
X296369Y93718D01*
X296623Y93718D01*
X296877Y93465D01*
X296877Y92703D01*
X296877Y93465D01*
X297131Y93718D01*
X297385Y93465D01*
X297385Y92703D01*
X297893Y92703D02*
X297893Y93718D01*
X298146Y93718D01*
X298400Y93465D01*
X298400Y92703D01*
X298400Y93465D01*
X298654Y93718D01*
X298908Y93465D01*
X298908Y92703D01*
X300178Y92703D02*
X299670Y92703D01*
X299416Y92957D01*
X299416Y93465D01*
X299670Y93718D01*
X300178Y93718D01*
X300432Y93465D01*
X300432Y93211D01*
X299416Y93211D01*
X300940Y92703D02*
X300940Y93718D01*
X301701Y93718D01*
X301955Y93465D01*
X301955Y92703D01*
X302717Y93972D02*
X302717Y93718D01*
X302463Y93718D01*
X302971Y93718D01*
X302717Y93718D01*
X302717Y92957D01*
X302971Y92703D01*
X303733Y92703D02*
X304494Y92703D01*
X304748Y92957D01*
X304494Y93211D01*
X303987Y93211D01*
X303733Y93465D01*
X303987Y93718D01*
X304748Y93718D01*
X247838Y94726D02*
X246822Y94726D01*
X246822Y93203D01*
X247838Y93203D01*
X246822Y93965D02*
X247330Y93965D01*
X249361Y94472D02*
X249107Y94726D01*
X248599Y94726D01*
X248346Y94472D01*
X248346Y93457D01*
X248599Y93203D01*
X249107Y93203D01*
X249361Y93457D01*
X250631Y94726D02*
X250123Y94726D01*
X249869Y94472D01*
X249869Y93457D01*
X250123Y93203D01*
X250631Y93203D01*
X250885Y93457D01*
X250885Y94472D01*
X250631Y94726D01*
X236822Y93203D02*
X236822Y94726D01*
X237584Y94726D01*
X237838Y94472D01*
X237838Y93965D01*
X237584Y93711D01*
X236822Y93711D01*
X237330Y93711D02*
X237838Y93203D01*
X239361Y94726D02*
X238346Y94726D01*
X238346Y93203D01*
X239361Y93203D01*
X238346Y93965D02*
X238853Y93965D01*
X239869Y94726D02*
X239869Y93711D01*
X240377Y93203D01*
X240885Y93711D01*
X240885Y94726D01*
D15*
X1734Y29999D02*
G03*
X0Y28264I0J-1734D01*
G01*
X77000Y28146D02*
G03*
X75147Y29999I-1853J0D01*
G01*
X75283Y0D02*
G03*
X77000Y1717I0J1717D01*
G01*
X0Y1649D02*
G03*
X1649Y0I1649J0D01*
G01*
X-1Y7341D02*
X6274Y7341D01*
X-1Y1702D02*
X-1Y7341D01*
X6274Y7341D02*
X6274Y23495D01*
X0Y23495D02*
X6274Y23495D01*
X0Y23495D02*
X0Y28264D01*
X1649Y-0D02*
X75283Y0D01*
X1734Y29999D02*
X75147Y29999D01*
X77000Y1717D02*
X77000Y28146D01*
X274322Y-134717D02*
X274322Y-109297D01*
X240322Y-134717D02*
X240322Y-109297D01*
X356142Y-109297D01*
X297722Y96423D02*
X297722Y101503D01*
X234222Y96423D02*
X234222Y101503D01*
X170722Y96423D02*
X170722Y101503D01*
X107222Y96423D02*
X107222Y101503D01*
X-14698Y96423D02*
X356142Y96423D01*
X-19778Y101503D02*
X361222Y101503D01*
X43722Y96423D02*
X43722Y101503D01*
X356142Y-134717D02*
X356142Y96423D01*
X361222Y-139797D02*
X361222Y101503D01*
X356142Y41178D02*
X361222Y41178D01*
X356142Y-19147D02*
X361222Y-19147D01*
X356142Y-79472D02*
X361222Y-79472D01*
X297722Y-139797D02*
X297722Y-134717D01*
X234222Y-139797D02*
X234222Y-134717D01*
X170722Y-139797D02*
X170722Y-134717D01*
X107222Y-139797D02*
X107222Y-134717D01*
X356142Y-134717D02*
X356142Y-104237D01*
X-19778Y-139797D02*
X-19778Y101503D01*
X-19778Y-139797D02*
X361222Y-139797D01*
X-14698Y-134717D02*
X-14698Y96423D01*
X-14698Y-134717D02*
X356142Y-134717D01*
X-19778Y41178D02*
X-14698Y41178D01*
X-19778Y-19147D02*
X-14698Y-19147D01*
X-19778Y-79472D02*
X-14698Y-79472D01*
X43722Y-139797D02*
X43722Y-134717D01*
X206282Y-134717D02*
X241842Y-134717D01*
X274322Y-130297D02*
X356142Y-130297D01*
X274322Y-124297D02*
X356142Y-124297D01*
X340822Y-134717D02*
X340822Y-124297D01*
X302322Y-134717D02*
X302322Y-118297D01*
X274322Y-118297D02*
X356142Y-118297D01*
X320322Y-130297D02*
X320322Y-124297D01*
X333322Y-134717D02*
X333322Y-130297D01*
X304138Y-119427D02*
X304084Y-119318D01*
X303975Y-119209D01*
X303866Y-119154D01*
X303648Y-119154D01*
X303540Y-119209D01*
X303431Y-119318D01*
X303376Y-119427D01*
X303322Y-119590D01*
X303322Y-119862D01*
X303376Y-120025D01*
X303431Y-120134D01*
X303540Y-120243D01*
X303648Y-120297D01*
X303866Y-120297D01*
X303975Y-120243D01*
X304084Y-120134D01*
X304138Y-120025D01*
X304138Y-119862D01*
X303866Y-119862D02*
X304138Y-119862D01*
X305107Y-119154D02*
X304399Y-119154D01*
X304399Y-120297D01*
X305107Y-120297D01*
X304399Y-119699D02*
X304835Y-119699D01*
X305297Y-119154D02*
X305297Y-120297D01*
X305297Y-119154D02*
X305787Y-119154D01*
X305950Y-119209D01*
X306005Y-119263D01*
X306059Y-119372D01*
X306059Y-119481D01*
X306005Y-119590D01*
X305950Y-119644D01*
X305787Y-119699D01*
X305297Y-119699D01*
X305678Y-119699D02*
X306059Y-120297D01*
X306315Y-119154D02*
X306315Y-120297D01*
X306315Y-119154D02*
X306805Y-119154D01*
X306968Y-119209D01*
X307022Y-119263D01*
X307077Y-119372D01*
X307077Y-119481D01*
X307022Y-119590D01*
X306968Y-119644D01*
X306805Y-119699D01*
X306315Y-119699D02*
X306805Y-119699D01*
X306968Y-119753D01*
X307022Y-119807D01*
X307077Y-119916D01*
X307077Y-120080D01*
X307022Y-120188D01*
X306968Y-120243D01*
X306805Y-120297D01*
X306315Y-120297D01*
X308040Y-119154D02*
X307333Y-119154D01*
X307333Y-120297D01*
X308040Y-120297D01*
X307333Y-119699D02*
X307768Y-119699D01*
X308230Y-119154D02*
X308230Y-120297D01*
X308230Y-119154D02*
X308720Y-119154D01*
X308883Y-119209D01*
X308938Y-119263D01*
X308992Y-119372D01*
X308992Y-119481D01*
X308938Y-119590D01*
X308883Y-119644D01*
X308720Y-119699D01*
X308230Y-119699D01*
X308611Y-119699D02*
X308992Y-120297D01*
X310146Y-119154D02*
X310146Y-120297D01*
X310146Y-119154D02*
X310853Y-119154D01*
X310146Y-119699D02*
X310581Y-119699D01*
X310984Y-119154D02*
X310984Y-120297D01*
X311223Y-119154D02*
X311223Y-120297D01*
X311876Y-120297D01*
X312709Y-119154D02*
X312001Y-119154D01*
X312001Y-120297D01*
X312709Y-120297D01*
X312001Y-119699D02*
X312437Y-119699D01*
X312954Y-119535D02*
X312899Y-119590D01*
X312954Y-119644D01*
X313008Y-119590D01*
X312954Y-119535D01*
X312954Y-120188D02*
X312899Y-120243D01*
X312954Y-120297D01*
X313008Y-120243D01*
X312954Y-120188D01*
X275322Y-133031D02*
X275564Y-134047D01*
X275806Y-133031D02*
X275564Y-134047D01*
X275806Y-133031D02*
X276048Y-134047D01*
X276289Y-133031D02*
X276048Y-134047D01*
X276493Y-133031D02*
X276493Y-134047D01*
X276493Y-133031D02*
X276928Y-133031D01*
X277073Y-133080D01*
X277121Y-133128D01*
X277170Y-133225D01*
X277170Y-133322D01*
X277121Y-133418D01*
X277073Y-133467D01*
X276928Y-133515D01*
X276493Y-133515D02*
X276928Y-133515D01*
X277073Y-133563D01*
X277121Y-133612D01*
X277170Y-133709D01*
X277170Y-133854D01*
X277121Y-133950D01*
X277073Y-133999D01*
X276928Y-134047D01*
X276493Y-134047D01*
X278074Y-133031D02*
X277397Y-134047D01*
X277397Y-133031D02*
X278074Y-133031D01*
X277397Y-134047D02*
X278074Y-134047D01*
X278785Y-133031D02*
X278302Y-133709D01*
X279027Y-133709D01*
X278785Y-133031D02*
X278785Y-134047D01*
X279787Y-133031D02*
X279303Y-133031D01*
X279255Y-133467D01*
X279303Y-133418D01*
X279448Y-133370D01*
X279593Y-133370D01*
X279738Y-133418D01*
X279835Y-133515D01*
X279883Y-133660D01*
X279883Y-133757D01*
X279835Y-133902D01*
X279738Y-133999D01*
X279593Y-134047D01*
X279448Y-134047D01*
X279303Y-133999D01*
X279255Y-133950D01*
X279206Y-133854D01*
X280111Y-133225D02*
X280207Y-133177D01*
X280353Y-133031D01*
X280353Y-134047D01*
X282379Y-133273D02*
X282331Y-133177D01*
X282234Y-133080D01*
X282137Y-133031D01*
X281944Y-133031D01*
X281847Y-133080D01*
X281750Y-133177D01*
X281702Y-133273D01*
X281654Y-133418D01*
X281654Y-133660D01*
X281702Y-133805D01*
X281750Y-133902D01*
X281847Y-133999D01*
X281944Y-134047D01*
X282137Y-134047D01*
X282234Y-133999D01*
X282331Y-133902D01*
X282379Y-133805D01*
X282665Y-133370D02*
X282665Y-133854D01*
X282713Y-133999D01*
X282810Y-134047D01*
X282955Y-134047D01*
X283052Y-133999D01*
X283197Y-133854D01*
X283197Y-133370D02*
X283197Y-134047D01*
X283463Y-133370D02*
X283463Y-134047D01*
X283463Y-133660D02*
X283511Y-133515D01*
X283608Y-133418D01*
X283705Y-133370D01*
X283850Y-133370D01*
X284038Y-133031D02*
X284087Y-133080D01*
X284135Y-133031D01*
X284087Y-132983D01*
X284038Y-133031D01*
X284087Y-133370D02*
X284087Y-134047D01*
X284556Y-133370D02*
X284459Y-133418D01*
X284362Y-133515D01*
X284314Y-133660D01*
X284314Y-133757D01*
X284362Y-133902D01*
X284459Y-133999D01*
X284556Y-134047D01*
X284701Y-134047D01*
X284798Y-133999D01*
X284895Y-133902D01*
X284943Y-133757D01*
X284943Y-133660D01*
X284895Y-133515D01*
X284798Y-133418D01*
X284701Y-133370D01*
X284556Y-133370D01*
X285697Y-133515D02*
X285649Y-133418D01*
X285504Y-133370D01*
X285359Y-133370D01*
X285214Y-133418D01*
X285165Y-133515D01*
X285214Y-133612D01*
X285311Y-133660D01*
X285552Y-133709D01*
X285649Y-133757D01*
X285697Y-133854D01*
X285697Y-133902D01*
X285649Y-133999D01*
X285504Y-134047D01*
X285359Y-134047D01*
X285214Y-133999D01*
X285165Y-133902D01*
X286007Y-133031D02*
X286055Y-133080D01*
X286104Y-133031D01*
X286055Y-132983D01*
X286007Y-133031D01*
X286055Y-133370D02*
X286055Y-134047D01*
X286428Y-133031D02*
X286428Y-133854D01*
X286476Y-133999D01*
X286573Y-134047D01*
X286670Y-134047D01*
X286283Y-133370D02*
X286621Y-133370D01*
X286863Y-133370D02*
X287153Y-134047D01*
X287444Y-133370D02*
X287153Y-134047D01*
X287057Y-134241D01*
X286960Y-134337D01*
X286863Y-134386D01*
X286815Y-134386D01*
X288411Y-133031D02*
X288411Y-134047D01*
X288411Y-133031D02*
X288846Y-133031D01*
X288992Y-133080D01*
X289040Y-133128D01*
X289088Y-133225D01*
X289088Y-133322D01*
X289040Y-133418D01*
X288992Y-133467D01*
X288846Y-133515D01*
X288411Y-133515D02*
X288846Y-133515D01*
X288992Y-133563D01*
X289040Y-133612D01*
X289088Y-133709D01*
X289088Y-133854D01*
X289040Y-133950D01*
X288992Y-133999D01*
X288846Y-134047D01*
X288411Y-134047D01*
X289557Y-133370D02*
X289461Y-133418D01*
X289364Y-133515D01*
X289316Y-133660D01*
X289316Y-133757D01*
X289364Y-133902D01*
X289461Y-133999D01*
X289557Y-134047D01*
X289703Y-134047D01*
X289799Y-133999D01*
X289896Y-133902D01*
X289944Y-133757D01*
X289944Y-133660D01*
X289896Y-133515D01*
X289799Y-133418D01*
X289703Y-133370D01*
X289557Y-133370D01*
X290747Y-133370D02*
X290747Y-134047D01*
X290747Y-133515D02*
X290651Y-133418D01*
X290554Y-133370D01*
X290409Y-133370D01*
X290312Y-133418D01*
X290215Y-133515D01*
X290167Y-133660D01*
X290167Y-133757D01*
X290215Y-133902D01*
X290312Y-133999D01*
X290409Y-134047D01*
X290554Y-134047D01*
X290651Y-133999D01*
X290747Y-133902D01*
X291018Y-133370D02*
X291018Y-134047D01*
X291018Y-133660D02*
X291067Y-133515D01*
X291163Y-133418D01*
X291260Y-133370D01*
X291405Y-133370D01*
X292078Y-133031D02*
X292078Y-134047D01*
X292078Y-133515D02*
X291981Y-133418D01*
X291884Y-133370D01*
X291739Y-133370D01*
X291642Y-133418D01*
X291546Y-133515D01*
X291497Y-133660D01*
X291497Y-133757D01*
X291546Y-133902D01*
X291642Y-133999D01*
X291739Y-134047D01*
X291884Y-134047D01*
X291981Y-133999D01*
X292078Y-133902D01*
X292348Y-133612D02*
X293219Y-133612D01*
X293519Y-133031D02*
X293519Y-134047D01*
X293519Y-133031D02*
X293954Y-133031D01*
X294099Y-133080D01*
X294148Y-133128D01*
X294196Y-133225D01*
X294196Y-133322D01*
X294148Y-133418D01*
X294099Y-133467D01*
X293954Y-133515D01*
X293519Y-133515D01*
X293858Y-133515D02*
X294196Y-134047D01*
X294907Y-133031D02*
X294424Y-133709D01*
X295149Y-133709D01*
X294907Y-133031D02*
X294907Y-134047D01*
X295376Y-133950D02*
X295328Y-133999D01*
X295376Y-134047D01*
X295425Y-133999D01*
X295376Y-133950D01*
X295647Y-133563D02*
X296083Y-133563D01*
X296228Y-133515D01*
X296276Y-133467D01*
X296325Y-133370D01*
X296325Y-133225D01*
X296276Y-133128D01*
X296228Y-133080D01*
X296083Y-133031D01*
X295647Y-133031D01*
X295647Y-134047D01*
X297132Y-133515D02*
X297036Y-133418D01*
X296939Y-133370D01*
X296794Y-133370D01*
X296697Y-133418D01*
X296600Y-133515D01*
X296552Y-133660D01*
X296552Y-133757D01*
X296600Y-133902D01*
X296697Y-133999D01*
X296794Y-134047D01*
X296939Y-134047D01*
X297036Y-133999D01*
X297132Y-133902D01*
X297350Y-133031D02*
X297350Y-134047D01*
X297350Y-133515D02*
X297447Y-133418D01*
X297543Y-133370D01*
X297689Y-133370D01*
X297785Y-133418D01*
X297882Y-133515D01*
X297930Y-133660D01*
X297930Y-133757D01*
X297882Y-133902D01*
X297785Y-133999D01*
X297689Y-134047D01*
X297543Y-134047D01*
X297447Y-133999D01*
X297350Y-133902D01*
X298148Y-133031D02*
X298148Y-134047D01*
X298148Y-133031D02*
X298487Y-133031D01*
X298632Y-133080D01*
X298729Y-133177D01*
X298777Y-133273D01*
X298825Y-133418D01*
X298825Y-133660D01*
X298777Y-133805D01*
X298729Y-133902D01*
X298632Y-133999D01*
X298487Y-134047D01*
X298148Y-134047D01*
X299294Y-133370D02*
X299198Y-133418D01*
X299101Y-133515D01*
X299053Y-133660D01*
X299053Y-133757D01*
X299101Y-133902D01*
X299198Y-133999D01*
X299294Y-134047D01*
X299440Y-134047D01*
X299536Y-133999D01*
X299633Y-133902D01*
X299681Y-133757D01*
X299681Y-133660D01*
X299633Y-133515D01*
X299536Y-133418D01*
X299440Y-133370D01*
X299294Y-133370D01*
X300484Y-133515D02*
X300388Y-133418D01*
X300291Y-133370D01*
X300146Y-133370D01*
X300049Y-133418D01*
X299952Y-133515D01*
X299904Y-133660D01*
X299904Y-133757D01*
X299952Y-133902D01*
X300049Y-133999D01*
X300146Y-134047D01*
X300291Y-134047D01*
X300388Y-133999D01*
X300484Y-133902D01*
X276029Y-125154D02*
X275322Y-125154D01*
X275322Y-126297D01*
X276029Y-126297D01*
X275322Y-125699D02*
X275757Y-125699D01*
X276220Y-125154D02*
X276220Y-126297D01*
X276220Y-125154D02*
X276982Y-126297D01*
X276982Y-125154D02*
X276982Y-126297D01*
X278114Y-125427D02*
X278059Y-125318D01*
X277950Y-125209D01*
X277842Y-125154D01*
X277624Y-125154D01*
X277515Y-125209D01*
X277406Y-125318D01*
X277352Y-125427D01*
X277297Y-125590D01*
X277297Y-125862D01*
X277352Y-126025D01*
X277406Y-126134D01*
X277515Y-126243D01*
X277624Y-126297D01*
X277842Y-126297D01*
X277950Y-126243D01*
X278059Y-126134D01*
X278114Y-126025D01*
X278114Y-125862D01*
X277842Y-125862D02*
X278114Y-125862D01*
X278375Y-125154D02*
X278375Y-126297D01*
X278614Y-125154D02*
X278614Y-126297D01*
X278614Y-125154D02*
X279376Y-126297D01*
X279376Y-125154D02*
X279376Y-126297D01*
X280399Y-125154D02*
X279692Y-125154D01*
X279692Y-126297D01*
X280399Y-126297D01*
X279692Y-125699D02*
X280127Y-125699D01*
X281297Y-125154D02*
X280590Y-125154D01*
X280590Y-126297D01*
X281297Y-126297D01*
X280590Y-125699D02*
X281025Y-125699D01*
X281487Y-125154D02*
X281487Y-126297D01*
X281487Y-125154D02*
X281977Y-125154D01*
X282140Y-125209D01*
X282195Y-125263D01*
X282249Y-125372D01*
X282249Y-125481D01*
X282195Y-125590D01*
X282140Y-125644D01*
X281977Y-125699D01*
X281487Y-125699D01*
X281868Y-125699D02*
X282249Y-126297D01*
X282559Y-125535D02*
X282505Y-125590D01*
X282559Y-125644D01*
X282614Y-125590D01*
X282559Y-125535D01*
X282559Y-126188D02*
X282505Y-126243D01*
X282559Y-126297D01*
X282614Y-126243D01*
X282559Y-126188D01*
X275703Y-110654D02*
X275703Y-111797D01*
X275322Y-110654D02*
X276084Y-110654D01*
X276220Y-110654D02*
X276220Y-111797D01*
X276840Y-110654D02*
X276840Y-111797D01*
X276459Y-110654D02*
X277221Y-110654D01*
X277357Y-110654D02*
X277357Y-111797D01*
X278010Y-111797D01*
X278843Y-110654D02*
X278135Y-110654D01*
X278135Y-111797D01*
X278843Y-111797D01*
X278135Y-111199D02*
X278571Y-111199D01*
X279088Y-111035D02*
X279033Y-111090D01*
X279088Y-111144D01*
X279142Y-111090D01*
X279088Y-111035D01*
X279088Y-111688D02*
X279033Y-111743D01*
X279088Y-111797D01*
X279142Y-111743D01*
X279088Y-111688D01*
X275322Y-119753D02*
X275812Y-119753D01*
X275975Y-119699D01*
X276029Y-119644D01*
X276084Y-119535D01*
X276084Y-119372D01*
X276029Y-119263D01*
X275975Y-119209D01*
X275812Y-119154D01*
X275322Y-119154D01*
X275322Y-120297D01*
X277156Y-119427D02*
X277101Y-119318D01*
X276993Y-119209D01*
X276884Y-119154D01*
X276666Y-119154D01*
X276557Y-119209D01*
X276448Y-119318D01*
X276394Y-119427D01*
X276340Y-119590D01*
X276340Y-119862D01*
X276394Y-120025D01*
X276448Y-120134D01*
X276557Y-120243D01*
X276666Y-120297D01*
X276884Y-120297D01*
X276993Y-120243D01*
X277101Y-120134D01*
X277156Y-120025D01*
X277477Y-119154D02*
X277477Y-120297D01*
X277477Y-119154D02*
X277967Y-119154D01*
X278130Y-119209D01*
X278184Y-119263D01*
X278239Y-119372D01*
X278239Y-119481D01*
X278184Y-119590D01*
X278130Y-119644D01*
X277967Y-119699D01*
X277477Y-119699D02*
X277967Y-119699D01*
X278130Y-119753D01*
X278184Y-119807D01*
X278239Y-119916D01*
X278239Y-120080D01*
X278184Y-120188D01*
X278130Y-120243D01*
X277967Y-120297D01*
X277477Y-120297D01*
X279392Y-119154D02*
X279392Y-120297D01*
X279392Y-119154D02*
X279773Y-119154D01*
X279937Y-119209D01*
X280045Y-119318D01*
X280100Y-119427D01*
X280154Y-119590D01*
X280154Y-119862D01*
X280100Y-120025D01*
X280045Y-120134D01*
X279937Y-120243D01*
X279773Y-120297D01*
X279392Y-120297D01*
X281117Y-119154D02*
X280410Y-119154D01*
X280410Y-120297D01*
X281117Y-120297D01*
X280410Y-119699D02*
X280845Y-119699D01*
X282070Y-119318D02*
X281961Y-119209D01*
X281798Y-119154D01*
X281580Y-119154D01*
X281417Y-119209D01*
X281308Y-119318D01*
X281308Y-119427D01*
X281362Y-119535D01*
X281417Y-119590D01*
X281526Y-119644D01*
X281852Y-119753D01*
X281961Y-119807D01*
X282015Y-119862D01*
X282070Y-119971D01*
X282070Y-120134D01*
X281961Y-120243D01*
X281798Y-120297D01*
X281580Y-120297D01*
X281417Y-120243D01*
X281308Y-120134D01*
X282325Y-119154D02*
X282325Y-120297D01*
X283381Y-119427D02*
X283327Y-119318D01*
X283218Y-119209D01*
X283109Y-119154D01*
X282891Y-119154D01*
X282783Y-119209D01*
X282674Y-119318D01*
X282619Y-119427D01*
X282565Y-119590D01*
X282565Y-119862D01*
X282619Y-120025D01*
X282674Y-120134D01*
X282783Y-120243D01*
X282891Y-120297D01*
X283109Y-120297D01*
X283218Y-120243D01*
X283327Y-120134D01*
X283381Y-120025D01*
X283381Y-119862D01*
X283109Y-119862D02*
X283381Y-119862D01*
X283642Y-119154D02*
X283642Y-120297D01*
X283642Y-119154D02*
X284404Y-120297D01*
X284404Y-119154D02*
X284404Y-120297D01*
X285427Y-119154D02*
X284720Y-119154D01*
X284720Y-120297D01*
X285427Y-120297D01*
X284720Y-119699D02*
X285155Y-119699D01*
X285618Y-119154D02*
X285618Y-120297D01*
X285618Y-119154D02*
X286107Y-119154D01*
X286271Y-119209D01*
X286325Y-119263D01*
X286380Y-119372D01*
X286380Y-119481D01*
X286325Y-119590D01*
X286271Y-119644D01*
X286107Y-119699D01*
X285618Y-119699D01*
X285999Y-119699D02*
X286380Y-120297D01*
X286690Y-119535D02*
X286635Y-119590D01*
X286690Y-119644D01*
X286744Y-119590D01*
X286690Y-119535D01*
X286690Y-120188D02*
X286635Y-120243D01*
X286690Y-120297D01*
X286744Y-120243D01*
X286690Y-120188D01*
X275322Y-131503D02*
X275812Y-131503D01*
X275975Y-131449D01*
X276029Y-131394D01*
X276084Y-131285D01*
X276084Y-131122D01*
X276029Y-131013D01*
X275975Y-130959D01*
X275812Y-130904D01*
X275322Y-130904D01*
X275322Y-132047D01*
X277156Y-131177D02*
X277101Y-131068D01*
X276993Y-130959D01*
X276884Y-130904D01*
X276666Y-130904D01*
X276557Y-130959D01*
X276448Y-131068D01*
X276394Y-131177D01*
X276340Y-131340D01*
X276340Y-131612D01*
X276394Y-131775D01*
X276448Y-131884D01*
X276557Y-131993D01*
X276666Y-132047D01*
X276884Y-132047D01*
X276993Y-131993D01*
X277101Y-131884D01*
X277156Y-131775D01*
X277477Y-130904D02*
X277477Y-132047D01*
X277477Y-130904D02*
X277967Y-130904D01*
X278130Y-130959D01*
X278184Y-131013D01*
X278239Y-131122D01*
X278239Y-131231D01*
X278184Y-131340D01*
X278130Y-131394D01*
X277967Y-131449D01*
X277477Y-131449D02*
X277967Y-131449D01*
X278130Y-131503D01*
X278184Y-131557D01*
X278239Y-131666D01*
X278239Y-131830D01*
X278184Y-131938D01*
X278130Y-131993D01*
X277967Y-132047D01*
X277477Y-132047D01*
X279392Y-130904D02*
X279392Y-132047D01*
X279392Y-130904D02*
X280100Y-130904D01*
X279392Y-131449D02*
X279828Y-131449D01*
X280230Y-130904D02*
X280230Y-132047D01*
X280470Y-130904D02*
X280470Y-132047D01*
X281123Y-132047D01*
X281955Y-130904D02*
X281248Y-130904D01*
X281248Y-132047D01*
X281955Y-132047D01*
X281248Y-131449D02*
X281683Y-131449D01*
X283044Y-130904D02*
X283044Y-132047D01*
X283044Y-130904D02*
X283806Y-132047D01*
X283806Y-130904D02*
X283806Y-132047D01*
X284992Y-132047D02*
X284557Y-130904D01*
X284121Y-132047D01*
X284284Y-131666D02*
X284829Y-131666D01*
X285259Y-130904D02*
X285259Y-132047D01*
X285259Y-130904D02*
X285694Y-132047D01*
X286129Y-130904D02*
X285694Y-132047D01*
X286129Y-130904D02*
X286129Y-132047D01*
X287163Y-130904D02*
X286456Y-130904D01*
X286456Y-132047D01*
X287163Y-132047D01*
X286456Y-131449D02*
X286891Y-131449D01*
X287408Y-131285D02*
X287354Y-131340D01*
X287408Y-131394D01*
X287462Y-131340D01*
X287408Y-131285D01*
X287408Y-131938D02*
X287354Y-131993D01*
X287408Y-132047D01*
X287462Y-131993D01*
X287408Y-131938D01*
X303322Y-125154D02*
X303322Y-126297D01*
X303322Y-125154D02*
X303812Y-125154D01*
X303975Y-125209D01*
X304029Y-125263D01*
X304084Y-125372D01*
X304084Y-125481D01*
X304029Y-125590D01*
X303975Y-125644D01*
X303812Y-125699D01*
X303322Y-125699D02*
X303812Y-125699D01*
X303975Y-125753D01*
X304029Y-125807D01*
X304084Y-125916D01*
X304084Y-126080D01*
X304029Y-126188D01*
X303975Y-126243D01*
X303812Y-126297D01*
X303322Y-126297D01*
X304666Y-125154D02*
X304557Y-125209D01*
X304448Y-125318D01*
X304394Y-125427D01*
X304340Y-125590D01*
X304340Y-125862D01*
X304394Y-126025D01*
X304448Y-126134D01*
X304557Y-126243D01*
X304666Y-126297D01*
X304884Y-126297D01*
X304993Y-126243D01*
X305101Y-126134D01*
X305156Y-126025D01*
X305210Y-125862D01*
X305210Y-125590D01*
X305156Y-125427D01*
X305101Y-125318D01*
X304993Y-125209D01*
X304884Y-125154D01*
X304666Y-125154D01*
X306348Y-126297D02*
X305912Y-125154D01*
X305477Y-126297D01*
X305640Y-125916D02*
X306184Y-125916D01*
X306614Y-125154D02*
X306614Y-126297D01*
X306614Y-125154D02*
X307104Y-125154D01*
X307267Y-125209D01*
X307322Y-125263D01*
X307376Y-125372D01*
X307376Y-125481D01*
X307322Y-125590D01*
X307267Y-125644D01*
X307104Y-125699D01*
X306614Y-125699D01*
X306995Y-125699D02*
X307376Y-126297D01*
X307632Y-125154D02*
X307632Y-126297D01*
X307632Y-125154D02*
X308013Y-125154D01*
X308176Y-125209D01*
X308285Y-125318D01*
X308339Y-125427D01*
X308394Y-125590D01*
X308394Y-125862D01*
X308339Y-126025D01*
X308285Y-126134D01*
X308176Y-126243D01*
X308013Y-126297D01*
X307632Y-126297D01*
X309547Y-125154D02*
X309547Y-126297D01*
X309547Y-125154D02*
X310309Y-126297D01*
X310309Y-125154D02*
X310309Y-126297D01*
X310625Y-125154D02*
X310625Y-125971D01*
X310679Y-126134D01*
X310788Y-126243D01*
X310951Y-126297D01*
X311060Y-126297D01*
X311223Y-126243D01*
X311332Y-126134D01*
X311387Y-125971D01*
X311387Y-125154D01*
X311702Y-125154D02*
X311702Y-126297D01*
X311702Y-125154D02*
X312138Y-126297D01*
X312573Y-125154D02*
X312138Y-126297D01*
X312573Y-125154D02*
X312573Y-126297D01*
X312899Y-125154D02*
X312899Y-126297D01*
X312899Y-125154D02*
X313389Y-125154D01*
X313552Y-125209D01*
X313607Y-125263D01*
X313661Y-125372D01*
X313661Y-125481D01*
X313607Y-125590D01*
X313552Y-125644D01*
X313389Y-125699D01*
X312899Y-125699D02*
X313389Y-125699D01*
X313552Y-125753D01*
X313607Y-125807D01*
X313661Y-125916D01*
X313661Y-126080D01*
X313607Y-126188D01*
X313552Y-126243D01*
X313389Y-126297D01*
X312899Y-126297D01*
X314624Y-125154D02*
X313917Y-125154D01*
X313917Y-126297D01*
X314624Y-126297D01*
X313917Y-125699D02*
X314352Y-125699D01*
X314815Y-125154D02*
X314815Y-126297D01*
X314815Y-125154D02*
X315305Y-125154D01*
X315468Y-125209D01*
X315522Y-125263D01*
X315577Y-125372D01*
X315577Y-125481D01*
X315522Y-125590D01*
X315468Y-125644D01*
X315305Y-125699D01*
X314815Y-125699D01*
X315196Y-125699D02*
X315577Y-126297D01*
X315887Y-125535D02*
X315832Y-125590D01*
X315887Y-125644D01*
X315941Y-125590D01*
X315887Y-125535D01*
X315887Y-126188D02*
X315832Y-126243D01*
X315887Y-126297D01*
X315941Y-126243D01*
X315887Y-126188D01*
X342022Y-125154D02*
X342022Y-126297D01*
X342022Y-125154D02*
X342403Y-125154D01*
X342566Y-125209D01*
X342675Y-125318D01*
X342729Y-125427D01*
X342784Y-125590D01*
X342784Y-125862D01*
X342729Y-126025D01*
X342675Y-126134D01*
X342566Y-126243D01*
X342403Y-126297D01*
X342022Y-126297D01*
X343910Y-126297D02*
X343475Y-125154D01*
X343040Y-126297D01*
X343203Y-125916D02*
X343747Y-125916D01*
X344558Y-125154D02*
X344558Y-126297D01*
X344177Y-125154D02*
X344939Y-125154D01*
X345782Y-125154D02*
X345075Y-125154D01*
X345075Y-126297D01*
X345782Y-126297D01*
X345075Y-125699D02*
X345510Y-125699D01*
X346027Y-125535D02*
X345973Y-125590D01*
X346027Y-125644D01*
X346082Y-125590D01*
X346027Y-125535D01*
X346027Y-126188D02*
X345973Y-126243D01*
X346027Y-126297D01*
X346082Y-126243D01*
X346027Y-126188D01*
X303322Y-130654D02*
X303322Y-131797D01*
X303975Y-131797D01*
X304971Y-131797D02*
X304535Y-130654D01*
X304100Y-131797D01*
X304263Y-131416D02*
X304808Y-131416D01*
X305237Y-130654D02*
X305673Y-131199D01*
X305673Y-131797D01*
X306108Y-130654D02*
X305673Y-131199D01*
X306962Y-130654D02*
X306255Y-130654D01*
X306255Y-131797D01*
X306962Y-131797D01*
X306255Y-131199D02*
X306690Y-131199D01*
X307153Y-130654D02*
X307153Y-131797D01*
X307153Y-130654D02*
X307643Y-130654D01*
X307806Y-130709D01*
X307860Y-130763D01*
X307915Y-130872D01*
X307915Y-130981D01*
X307860Y-131090D01*
X307806Y-131144D01*
X307643Y-131199D01*
X307153Y-131199D01*
X307534Y-131199D02*
X307915Y-131797D01*
X309068Y-130654D02*
X309068Y-131797D01*
X309068Y-130654D02*
X309830Y-131797D01*
X309830Y-130654D02*
X309830Y-131797D01*
X311017Y-131797D02*
X310581Y-130654D01*
X310146Y-131797D01*
X310309Y-131416D02*
X310853Y-131416D01*
X311283Y-130654D02*
X311283Y-131797D01*
X311283Y-130654D02*
X311719Y-131797D01*
X312154Y-130654D02*
X311719Y-131797D01*
X312154Y-130654D02*
X312154Y-131797D01*
X313188Y-130654D02*
X312480Y-130654D01*
X312480Y-131797D01*
X313188Y-131797D01*
X312480Y-131199D02*
X312916Y-131199D01*
X313433Y-131035D02*
X313378Y-131090D01*
X313433Y-131144D01*
X313487Y-131090D01*
X313433Y-131035D01*
X313433Y-131688D02*
X313378Y-131743D01*
X313433Y-131797D01*
X313487Y-131743D01*
X313433Y-131688D01*
X334072Y-130904D02*
X334072Y-132047D01*
X334072Y-130904D02*
X334562Y-130904D01*
X334725Y-130959D01*
X334779Y-131013D01*
X334834Y-131122D01*
X334834Y-131231D01*
X334779Y-131340D01*
X334725Y-131394D01*
X334562Y-131449D01*
X334072Y-131449D01*
X334453Y-131449D02*
X334834Y-132047D01*
X335797Y-130904D02*
X335090Y-130904D01*
X335090Y-132047D01*
X335797Y-132047D01*
X335090Y-131449D02*
X335525Y-131449D01*
X335987Y-130904D02*
X336423Y-132047D01*
X336858Y-130904D02*
X336423Y-132047D01*
X337059Y-131285D02*
X337005Y-131340D01*
X337059Y-131394D01*
X337114Y-131340D01*
X337059Y-131285D01*
X337059Y-131938D02*
X337005Y-131993D01*
X337059Y-132047D01*
X337114Y-131993D01*
X337059Y-131938D01*
D16*
X345108Y-110277D02*
X344322Y-110277D01*
X344322Y-111547D01*
X345108Y-111547D01*
X344322Y-110882D02*
X344806Y-110882D01*
X345320Y-110277D02*
X345803Y-111547D01*
X346287Y-110277D02*
X345803Y-111547D01*
X347236Y-110701D02*
X347176Y-110882D01*
X347055Y-111003D01*
X346874Y-111063D01*
X346813Y-111063D01*
X346632Y-111003D01*
X346511Y-110882D01*
X346450Y-110701D01*
X346450Y-110640D01*
X346511Y-110459D01*
X346632Y-110338D01*
X346813Y-110277D01*
X346874Y-110277D01*
X347055Y-110338D01*
X347176Y-110459D01*
X347236Y-110701D01*
X347236Y-111003D01*
X347176Y-111305D01*
X347055Y-111487D01*
X346874Y-111547D01*
X346753Y-111547D01*
X346571Y-111487D01*
X346511Y-111366D01*
X348307Y-110459D02*
X348246Y-110338D01*
X348065Y-110277D01*
X347944Y-110277D01*
X347762Y-110338D01*
X347641Y-110519D01*
X347581Y-110822D01*
X347581Y-111124D01*
X347641Y-111366D01*
X347762Y-111487D01*
X347944Y-111547D01*
X348004Y-111547D01*
X348186Y-111487D01*
X348307Y-111366D01*
X348367Y-111184D01*
X348367Y-111124D01*
X348307Y-110943D01*
X348186Y-110822D01*
X348004Y-110761D01*
X347944Y-110761D01*
X347762Y-110822D01*
X347641Y-110943D01*
X347581Y-111124D01*
X348645Y-110277D02*
X348645Y-111547D01*
X348645Y-110277D02*
X349189Y-110277D01*
X349371Y-110338D01*
X349431Y-110398D01*
X349492Y-110519D01*
X349492Y-110640D01*
X349431Y-110761D01*
X349371Y-110822D01*
X349189Y-110882D01*
X348645Y-110882D02*
X349189Y-110882D01*
X349371Y-110943D01*
X349431Y-111003D01*
X349492Y-111124D01*
X349492Y-111305D01*
X349431Y-111426D01*
X349371Y-111487D01*
X349189Y-111547D01*
X348645Y-111547D01*
X350562Y-110701D02*
X350501Y-110882D01*
X350380Y-111003D01*
X350199Y-111063D01*
X350139Y-111063D01*
X349957Y-111003D01*
X349836Y-110882D01*
X349776Y-110701D01*
X349776Y-110640D01*
X349836Y-110459D01*
X349957Y-110338D01*
X350139Y-110277D01*
X350199Y-110277D01*
X350380Y-110338D01*
X350501Y-110459D01*
X350562Y-110701D01*
X350562Y-111003D01*
X350501Y-111305D01*
X350380Y-111487D01*
X350199Y-111547D01*
X350078Y-111547D01*
X349897Y-111487D01*
X349836Y-111366D01*
X351511Y-110277D02*
X350906Y-111124D01*
X351813Y-111124D01*
X351511Y-110277D02*
X351511Y-111547D01*
X353005Y-111547D02*
X352521Y-110277D01*
X352037Y-111547D01*
X352219Y-111124D02*
X352823Y-111124D01*
D18*
X302822Y-132548D02*
X302822Y-134047D01*
X302822Y-132548D02*
X303465Y-132548D01*
X303679Y-132619D01*
X303750Y-132690D01*
X303822Y-132833D01*
X303822Y-132976D01*
X303750Y-133119D01*
X303679Y-133190D01*
X303465Y-133262D01*
X302822Y-133262D02*
X303465Y-133262D01*
X303679Y-133333D01*
X303750Y-133404D01*
X303822Y-133547D01*
X303822Y-133762D01*
X303750Y-133904D01*
X303679Y-133976D01*
X303465Y-134047D01*
X302822Y-134047D01*
X304514Y-133047D02*
X304372Y-133119D01*
X304229Y-133262D01*
X304157Y-133476D01*
X304157Y-133619D01*
X304229Y-133833D01*
X304372Y-133976D01*
X304514Y-134047D01*
X304729Y-134047D01*
X304872Y-133976D01*
X305014Y-133833D01*
X305086Y-133619D01*
X305086Y-133476D01*
X305014Y-133262D01*
X304872Y-133119D01*
X304729Y-133047D01*
X304514Y-133047D01*
X305629Y-132548D02*
X305629Y-133762D01*
X305700Y-133976D01*
X305843Y-134047D01*
X305986Y-134047D01*
X305414Y-133047D02*
X305914Y-133047D01*
X306414Y-132548D02*
X306414Y-133762D01*
X306486Y-133976D01*
X306628Y-134047D01*
X306771Y-134047D01*
X306200Y-133047D02*
X306700Y-133047D01*
X307342Y-133047D02*
X307200Y-133119D01*
X307057Y-133262D01*
X306985Y-133476D01*
X306985Y-133619D01*
X307057Y-133833D01*
X307200Y-133976D01*
X307342Y-134047D01*
X307557Y-134047D01*
X307700Y-133976D01*
X307842Y-133833D01*
X307914Y-133619D01*
X307914Y-133476D01*
X307842Y-133262D01*
X307700Y-133119D01*
X307557Y-133047D01*
X307342Y-133047D01*
X308242Y-133047D02*
X308242Y-134047D01*
X308242Y-133333D02*
X308457Y-133119D01*
X308599Y-133047D01*
X308814Y-133047D01*
X308956Y-133119D01*
X309028Y-133333D01*
X309028Y-134047D01*
X309028Y-133333D02*
X309242Y-133119D01*
X309385Y-133047D01*
X309599Y-133047D01*
X309742Y-133119D01*
X309813Y-133333D01*
X309813Y-134047D01*
X312463Y-132762D02*
X312320Y-132619D01*
X312106Y-132548D01*
X311820Y-132548D01*
X311606Y-132619D01*
X311463Y-132762D01*
X311463Y-132905D01*
X311534Y-133047D01*
X311606Y-133119D01*
X311749Y-133190D01*
X312177Y-133333D01*
X312320Y-133404D01*
X312391Y-133476D01*
X312463Y-133619D01*
X312463Y-133833D01*
X312320Y-133976D01*
X312106Y-134047D01*
X311820Y-134047D01*
X311606Y-133976D01*
X311463Y-133833D01*
X313155Y-133047D02*
X313013Y-133119D01*
X312870Y-133262D01*
X312798Y-133476D01*
X312798Y-133619D01*
X312870Y-133833D01*
X313013Y-133976D01*
X313155Y-134047D01*
X313370Y-134047D01*
X313513Y-133976D01*
X313655Y-133833D01*
X313727Y-133619D01*
X313727Y-133476D01*
X313655Y-133262D01*
X313513Y-133119D01*
X313370Y-133047D01*
X313155Y-133047D01*
X314055Y-132548D02*
X314055Y-134047D01*
X315226Y-132548D02*
X315226Y-134047D01*
X315226Y-133262D02*
X315084Y-133119D01*
X314941Y-133047D01*
X314727Y-133047D01*
X314584Y-133119D01*
X314441Y-133262D01*
X314370Y-133476D01*
X314370Y-133619D01*
X314441Y-133833D01*
X314584Y-133976D01*
X314727Y-134047D01*
X314941Y-134047D01*
X315084Y-133976D01*
X315226Y-133833D01*
X315626Y-133476D02*
X316483Y-133476D01*
X316483Y-133333D01*
X316412Y-133190D01*
X316341Y-133119D01*
X316198Y-133047D01*
X315983Y-133047D01*
X315841Y-133119D01*
X315698Y-133262D01*
X315626Y-133476D01*
X315626Y-133619D01*
X315698Y-133833D01*
X315841Y-133976D01*
X315983Y-134047D01*
X316198Y-134047D01*
X316341Y-133976D01*
X316483Y-133833D01*
X316805Y-133047D02*
X316805Y-134047D01*
X316805Y-133476D02*
X316876Y-133262D01*
X317019Y-133119D01*
X317162Y-133047D01*
X317376Y-133047D01*
X322518Y-132525D02*
X322518Y-133795D01*
X322518Y-132525D02*
X323062Y-132525D01*
X323243Y-132586D01*
X323304Y-132646D01*
X323364Y-132767D01*
X323364Y-132888D01*
X323304Y-133009D01*
X323243Y-133070D01*
X323062Y-133130D01*
X322518Y-133130D02*
X323062Y-133130D01*
X323243Y-133190D01*
X323304Y-133251D01*
X323364Y-133372D01*
X323364Y-133553D01*
X323304Y-133674D01*
X323243Y-133735D01*
X323062Y-133795D01*
X322518Y-133795D01*
X324011Y-132525D02*
X323890Y-132586D01*
X323769Y-132707D01*
X323709Y-132828D01*
X323648Y-133009D01*
X323648Y-133311D01*
X323709Y-133493D01*
X323769Y-133614D01*
X323890Y-133735D01*
X324011Y-133795D01*
X324253Y-133795D01*
X324374Y-133735D01*
X324495Y-133614D01*
X324555Y-133493D01*
X324616Y-133311D01*
X324616Y-133009D01*
X324555Y-132828D01*
X324495Y-132707D01*
X324374Y-132586D01*
X324253Y-132525D01*
X324011Y-132525D01*
X325879Y-133795D02*
X325396Y-132525D01*
X324912Y-133795D01*
X325093Y-133372D02*
X325698Y-133372D01*
X326176Y-132525D02*
X326176Y-133795D01*
X326176Y-132525D02*
X326720Y-132525D01*
X326901Y-132586D01*
X326962Y-132646D01*
X327022Y-132767D01*
X327022Y-132888D01*
X326962Y-133009D01*
X326901Y-133070D01*
X326720Y-133130D01*
X326176Y-133130D01*
X326599Y-133130D02*
X327022Y-133795D01*
X327306Y-132525D02*
X327306Y-133795D01*
X327306Y-132525D02*
X327729Y-132525D01*
X327911Y-132586D01*
X328032Y-132707D01*
X328092Y-132828D01*
X328153Y-133009D01*
X328153Y-133311D01*
X328092Y-133493D01*
X328032Y-133614D01*
X327911Y-133735D01*
X327729Y-133795D01*
X327306Y-133795D01*
X329858Y-132284D02*
X329737Y-132404D01*
X329616Y-132586D01*
X329495Y-132828D01*
X329435Y-133130D01*
X329435Y-133372D01*
X329495Y-133674D01*
X329616Y-133916D01*
X329737Y-134097D01*
X329858Y-134218D01*
X329737Y-132404D02*
X329616Y-132646D01*
X329555Y-132828D01*
X329495Y-133130D01*
X329495Y-133372D01*
X329555Y-133674D01*
X329616Y-133856D01*
X329737Y-134097D01*
X330100Y-132525D02*
X330100Y-133795D01*
X330100Y-132525D02*
X330583Y-133795D01*
X331067Y-132525D02*
X330583Y-133795D01*
X331067Y-132525D02*
X331067Y-133795D01*
X331490Y-132828D02*
X331490Y-132767D01*
X331551Y-132646D01*
X331611Y-132586D01*
X331732Y-132525D01*
X331974Y-132525D01*
X332095Y-132586D01*
X332155Y-132646D01*
X332216Y-132767D01*
X332216Y-132888D01*
X332155Y-133009D01*
X332034Y-133190D01*
X331430Y-133795D01*
X332276Y-133795D01*
X332560Y-132284D02*
X332681Y-132404D01*
X332802Y-132586D01*
X332923Y-132828D01*
X332984Y-133130D01*
X332984Y-133372D01*
X332923Y-133674D01*
X332802Y-133916D01*
X332681Y-134097D01*
X332560Y-134218D01*
X332681Y-132404D02*
X332802Y-132646D01*
X332863Y-132828D01*
X332923Y-133130D01*
X332923Y-133372D01*
X332863Y-133674D01*
X332802Y-133856D01*
X332681Y-134097D01*
X342022Y-128083D02*
X342165Y-128012D01*
X342379Y-127798D01*
X342379Y-129297D01*
X343122Y-129511D02*
X344122Y-127798D01*
X344222Y-128083D02*
X344364Y-128012D01*
X344579Y-127798D01*
X344579Y-129297D01*
X346321Y-127798D02*
X345607Y-129297D01*
X345321Y-127798D02*
X346321Y-127798D01*
X346657Y-129511D02*
X347657Y-127798D01*
X347828Y-128155D02*
X347828Y-128083D01*
X347899Y-127940D01*
X347971Y-127869D01*
X348114Y-127798D01*
X348399Y-127798D01*
X348542Y-127869D01*
X348613Y-127940D01*
X348685Y-128083D01*
X348685Y-128226D01*
X348613Y-128369D01*
X348471Y-128583D01*
X347757Y-129297D01*
X348756Y-129297D01*
X349520Y-127798D02*
X349306Y-127869D01*
X349163Y-128083D01*
X349092Y-128440D01*
X349092Y-128654D01*
X349163Y-129012D01*
X349306Y-129226D01*
X349520Y-129297D01*
X349663Y-129297D01*
X349877Y-129226D01*
X350020Y-129012D01*
X350092Y-128654D01*
X350092Y-128440D01*
X350020Y-128083D01*
X349877Y-127869D01*
X349663Y-127798D01*
X349520Y-127798D01*
X350499Y-128155D02*
X350499Y-128083D01*
X350570Y-127940D01*
X350642Y-127869D01*
X350784Y-127798D01*
X351070Y-127798D01*
X351213Y-127869D01*
X351284Y-127940D01*
X351356Y-128083D01*
X351356Y-128226D01*
X351284Y-128369D01*
X351141Y-128583D01*
X350427Y-129297D01*
X351427Y-129297D01*
X351834Y-128155D02*
X351834Y-128083D01*
X351906Y-127940D01*
X351977Y-127869D01*
X352120Y-127798D01*
X352405Y-127798D01*
X352548Y-127869D01*
X352620Y-127940D01*
X352691Y-128083D01*
X352691Y-128226D01*
X352620Y-128369D01*
X352477Y-128583D01*
X351763Y-129297D01*
X352763Y-129297D01*
X332322Y-110821D02*
X332750Y-110821D01*
X332893Y-110773D01*
X332941Y-110726D01*
X332989Y-110631D01*
X332989Y-110488D01*
X332941Y-110393D01*
X332893Y-110345D01*
X332750Y-110297D01*
X332322Y-110297D01*
X332322Y-111297D01*
X333974Y-111297D02*
X333593Y-110297D01*
X333212Y-111297D01*
X333355Y-110964D02*
X333831Y-110964D01*
X334207Y-110297D02*
X334207Y-111297D01*
X334207Y-110297D02*
X334636Y-110297D01*
X334779Y-110345D01*
X334826Y-110393D01*
X334874Y-110488D01*
X334874Y-110583D01*
X334826Y-110678D01*
X334779Y-110726D01*
X334636Y-110773D01*
X334207Y-110773D01*
X334541Y-110773D02*
X334874Y-111297D01*
X335431Y-110297D02*
X335431Y-111297D01*
X335098Y-110297D02*
X335764Y-110297D01*
X336669Y-110297D02*
X336669Y-111297D01*
X336669Y-110297D02*
X337335Y-111297D01*
X337335Y-110297D02*
X337335Y-111297D01*
X337611Y-110297D02*
X337611Y-111012D01*
X337659Y-111154D01*
X337754Y-111250D01*
X337897Y-111297D01*
X337992Y-111297D01*
X338135Y-111250D01*
X338230Y-111154D01*
X338278Y-111012D01*
X338278Y-110297D01*
X338554Y-110297D02*
X338554Y-111297D01*
X338554Y-110297D02*
X338935Y-111297D01*
X339316Y-110297D02*
X338935Y-111297D01*
X339316Y-110297D02*
X339316Y-111297D01*
X339601Y-110297D02*
X339601Y-111297D01*
X339601Y-110297D02*
X340030Y-110297D01*
X340173Y-110345D01*
X340220Y-110393D01*
X340268Y-110488D01*
X340268Y-110583D01*
X340220Y-110678D01*
X340173Y-110726D01*
X340030Y-110773D01*
X339601Y-110773D02*
X340030Y-110773D01*
X340173Y-110821D01*
X340220Y-110869D01*
X340268Y-110964D01*
X340268Y-111107D01*
X340220Y-111202D01*
X340173Y-111250D01*
X340030Y-111297D01*
X339601Y-111297D01*
X341111Y-110297D02*
X340492Y-110297D01*
X340492Y-111297D01*
X341111Y-111297D01*
X340492Y-110773D02*
X340873Y-110773D01*
X341277Y-110297D02*
X341277Y-111297D01*
X341277Y-110297D02*
X341706Y-110297D01*
X341849Y-110345D01*
X341896Y-110393D01*
X341944Y-110488D01*
X341944Y-110583D01*
X341896Y-110678D01*
X341849Y-110726D01*
X341706Y-110773D01*
X341277Y-110773D01*
X341611Y-110773D02*
X341944Y-111297D01*
X342215Y-110631D02*
X342168Y-110678D01*
X342215Y-110726D01*
X342263Y-110678D01*
X342215Y-110631D01*
X342215Y-111202D02*
X342168Y-111250D01*
X342215Y-111297D01*
X342263Y-111250D01*
X342215Y-111202D01*
D22*
X338192Y-132441D02*
X337478Y-133441D01*
X338549Y-133441D01*
X338192Y-132441D02*
X338192Y-133941D01*
X338885Y-133798D02*
X338814Y-133869D01*
X338885Y-133941D01*
X338957Y-133869D01*
X338885Y-133798D01*
X339714Y-132441D02*
X339499Y-132512D01*
X339356Y-132727D01*
X339285Y-133084D01*
X339285Y-133298D01*
X339356Y-133655D01*
X339499Y-133869D01*
X339714Y-133941D01*
X339856Y-133941D01*
X340071Y-133869D01*
X340213Y-133655D01*
X340285Y-133298D01*
X340285Y-133084D01*
X340213Y-132727D01*
X340071Y-132512D01*
X339856Y-132441D01*
X339714Y-132441D01*
X338192Y-132441D02*
X337478Y-133441D01*
X338549Y-133441D01*
X338192Y-132441D02*
X338192Y-133941D01*
X338885Y-133798D02*
X338814Y-133869D01*
X338885Y-133941D01*
X338957Y-133869D01*
X338885Y-133798D01*
X339714Y-132441D02*
X339499Y-132512D01*
X339356Y-132727D01*
X339285Y-133084D01*
X339285Y-133298D01*
X339356Y-133655D01*
X339499Y-133869D01*
X339714Y-133941D01*
X339856Y-133941D01*
X340071Y-133869D01*
X340213Y-133655D01*
X340285Y-133298D01*
X340285Y-133084D01*
X340213Y-132727D01*
X340071Y-132512D01*
X339856Y-132441D01*
X339714Y-132441D01*
X11498Y99640D02*
X11667Y99724D01*
X11921Y99978D01*
X11921Y98201D01*
X74972Y99555D02*
X74972Y99640D01*
X75057Y99809D01*
X75142Y99894D01*
X75311Y99978D01*
X75650Y99978D01*
X75819Y99894D01*
X75904Y99809D01*
X75988Y99640D01*
X75988Y99471D01*
X75904Y99301D01*
X75734Y99047D01*
X74888Y98201D01*
X76073Y98201D01*
X138286Y99978D02*
X139218Y99978D01*
X138710Y99301D01*
X138964Y99301D01*
X139133Y99217D01*
X139218Y99132D01*
X139302Y98878D01*
X139302Y98709D01*
X139218Y98455D01*
X139048Y98285D01*
X138794Y98201D01*
X138540Y98201D01*
X138286Y98285D01*
X138202Y98370D01*
X138117Y98539D01*
X202633Y99978D02*
X201786Y98793D01*
X203056Y98793D01*
X202633Y99978D02*
X202633Y98201D01*
X266277Y99978D02*
X265430Y99978D01*
X265345Y99217D01*
X265430Y99301D01*
X265684Y99386D01*
X265938Y99386D01*
X266192Y99301D01*
X266361Y99132D01*
X266446Y98878D01*
X266446Y98709D01*
X266361Y98455D01*
X266192Y98285D01*
X265938Y98201D01*
X265684Y98201D01*
X265430Y98285D01*
X265345Y98370D01*
X265261Y98539D01*
X329904Y99724D02*
X329819Y99894D01*
X329565Y99978D01*
X329396Y99978D01*
X329142Y99894D01*
X328972Y99640D01*
X328888Y99217D01*
X328888Y98793D01*
X328972Y98455D01*
X329142Y98285D01*
X329396Y98201D01*
X329480Y98201D01*
X329734Y98285D01*
X329904Y98455D01*
X329988Y98709D01*
X329988Y98793D01*
X329904Y99047D01*
X329734Y99217D01*
X329480Y99301D01*
X329396Y99301D01*
X329142Y99217D01*
X328972Y99047D01*
X328888Y98793D01*
X359401Y69169D02*
X358724Y70946D01*
X358047Y69169D01*
X358301Y69761D02*
X359147Y69761D01*
X358047Y10494D02*
X358047Y8717D01*
X358047Y10494D02*
X358809Y10494D01*
X359063Y10410D01*
X359147Y10325D01*
X359232Y10156D01*
X359232Y9986D01*
X359147Y9817D01*
X359063Y9732D01*
X358809Y9648D01*
X358047Y9648D02*
X358809Y9648D01*
X359063Y9563D01*
X359147Y9478D01*
X359232Y9309D01*
X359232Y9055D01*
X359147Y8886D01*
X359063Y8801D01*
X358809Y8717D01*
X358047Y8717D01*
X359317Y-50254D02*
X359232Y-50085D01*
X359063Y-49915D01*
X358893Y-49831D01*
X358555Y-49831D01*
X358386Y-49915D01*
X358216Y-50085D01*
X358132Y-50254D01*
X358047Y-50508D01*
X358047Y-50931D01*
X358132Y-51185D01*
X358216Y-51354D01*
X358386Y-51524D01*
X358555Y-51608D01*
X358893Y-51608D01*
X359063Y-51524D01*
X359232Y-51354D01*
X359317Y-51185D01*
X358047Y-110029D02*
X358047Y-111806D01*
X358047Y-110029D02*
X358640Y-110029D01*
X358893Y-110113D01*
X359063Y-110283D01*
X359147Y-110452D01*
X359232Y-110706D01*
X359232Y-111129D01*
X359147Y-111383D01*
X359063Y-111552D01*
X358893Y-111722D01*
X358640Y-111806D01*
X358047Y-111806D01*
X-16519Y69169D02*
X-17196Y70946D01*
X-17873Y69169D01*
X-17619Y69761D02*
X-16773Y69761D01*
X-17873Y10494D02*
X-17873Y8717D01*
X-17873Y10494D02*
X-17111Y10494D01*
X-16857Y10410D01*
X-16773Y10325D01*
X-16688Y10156D01*
X-16688Y9986D01*
X-16773Y9817D01*
X-16857Y9732D01*
X-17111Y9648D01*
X-17873Y9648D02*
X-17111Y9648D01*
X-16857Y9563D01*
X-16773Y9478D01*
X-16688Y9309D01*
X-16688Y9055D01*
X-16773Y8886D01*
X-16857Y8801D01*
X-17111Y8717D01*
X-17873Y8717D01*
X-16603Y-50254D02*
X-16688Y-50085D01*
X-16857Y-49915D01*
X-17027Y-49831D01*
X-17365Y-49831D01*
X-17534Y-49915D01*
X-17704Y-50085D01*
X-17788Y-50254D01*
X-17873Y-50508D01*
X-17873Y-50931D01*
X-17788Y-51185D01*
X-17704Y-51354D01*
X-17534Y-51524D01*
X-17365Y-51608D01*
X-17027Y-51608D01*
X-16857Y-51524D01*
X-16688Y-51354D01*
X-16603Y-51185D01*
X-17873Y-110029D02*
X-17873Y-111806D01*
X-17873Y-110029D02*
X-17280Y-110029D01*
X-17027Y-110113D01*
X-16857Y-110283D01*
X-16773Y-110452D01*
X-16688Y-110706D01*
X-16688Y-111129D01*
X-16773Y-111383D01*
X-16857Y-111552D01*
X-17027Y-111722D01*
X-17280Y-111806D01*
X-17873Y-111806D01*
X11498Y-136580D02*
X11667Y-136496D01*
X11921Y-136242D01*
X11921Y-138019D01*
X74972Y-136665D02*
X74972Y-136580D01*
X75057Y-136411D01*
X75142Y-136326D01*
X75311Y-136242D01*
X75650Y-136242D01*
X75819Y-136326D01*
X75904Y-136411D01*
X75988Y-136580D01*
X75988Y-136749D01*
X75904Y-136919D01*
X75734Y-137173D01*
X74888Y-138019D01*
X76073Y-138019D01*
X138286Y-136242D02*
X139218Y-136242D01*
X138710Y-136919D01*
X138964Y-136919D01*
X139133Y-137003D01*
X139218Y-137088D01*
X139302Y-137342D01*
X139302Y-137511D01*
X139218Y-137765D01*
X139048Y-137935D01*
X138794Y-138019D01*
X138540Y-138019D01*
X138286Y-137935D01*
X138202Y-137850D01*
X138117Y-137681D01*
X202633Y-136242D02*
X201786Y-137427D01*
X203056Y-137427D01*
X202633Y-136242D02*
X202633Y-138019D01*
X266277Y-136242D02*
X265430Y-136242D01*
X265345Y-137003D01*
X265430Y-136919D01*
X265684Y-136834D01*
X265938Y-136834D01*
X266192Y-136919D01*
X266361Y-137088D01*
X266446Y-137342D01*
X266446Y-137511D01*
X266361Y-137765D01*
X266192Y-137935D01*
X265938Y-138019D01*
X265684Y-138019D01*
X265430Y-137935D01*
X265345Y-137850D01*
X265261Y-137681D01*
X329904Y-136496D02*
X329819Y-136326D01*
X329565Y-136242D01*
X329396Y-136242D01*
X329142Y-136326D01*
X328972Y-136580D01*
X328888Y-137003D01*
X328888Y-137427D01*
X328972Y-137765D01*
X329142Y-137935D01*
X329396Y-138019D01*
X329480Y-138019D01*
X329734Y-137935D01*
X329904Y-137765D01*
X329988Y-137511D01*
X329988Y-137427D01*
X329904Y-137173D01*
X329734Y-137003D01*
X329480Y-136919D01*
X329396Y-136919D01*
X329142Y-137003D01*
X328972Y-137173D01*
X328888Y-137427D01*
X245592Y-132443D02*
X245507Y-132274D01*
X245338Y-132104D01*
X245168Y-132020D01*
X244830Y-132020D01*
X244661Y-132104D01*
X244491Y-132274D01*
X244407Y-132443D01*
X244322Y-132697D01*
X244322Y-133120D01*
X244407Y-133374D01*
X244491Y-133543D01*
X244661Y-133713D01*
X244830Y-133797D01*
X245168Y-133797D01*
X245338Y-133713D01*
X245507Y-133543D01*
X245592Y-133374D01*
X246091Y-132020D02*
X246091Y-133797D01*
X246091Y-132951D02*
X246345Y-132697D01*
X246514Y-132612D01*
X246768Y-132612D01*
X246938Y-132697D01*
X247022Y-132951D01*
X247022Y-133797D01*
X248504Y-132612D02*
X248504Y-133797D01*
X248504Y-132866D02*
X248334Y-132697D01*
X248165Y-132612D01*
X247911Y-132612D01*
X247742Y-132697D01*
X247572Y-132866D01*
X247488Y-133120D01*
X247488Y-133289D01*
X247572Y-133543D01*
X247742Y-133713D01*
X247911Y-133797D01*
X248165Y-133797D01*
X248334Y-133713D01*
X248504Y-133543D01*
X248978Y-132612D02*
X248978Y-133797D01*
X248978Y-132951D02*
X249232Y-132697D01*
X249401Y-132612D01*
X249655Y-132612D01*
X249824Y-132697D01*
X249909Y-132951D01*
X249909Y-133797D01*
X251390Y-132020D02*
X251390Y-133797D01*
X251390Y-132866D02*
X251221Y-132697D01*
X251052Y-132612D01*
X250798Y-132612D01*
X250628Y-132697D01*
X250459Y-132866D01*
X250374Y-133120D01*
X250374Y-133289D01*
X250459Y-133543D01*
X250628Y-133713D01*
X250798Y-133797D01*
X251052Y-133797D01*
X251221Y-133713D01*
X251390Y-133543D01*
X251864Y-132020D02*
X251864Y-133797D01*
X252237Y-133120D02*
X253252Y-133120D01*
X253252Y-132951D01*
X253168Y-132781D01*
X253083Y-132697D01*
X252914Y-132612D01*
X252660Y-132612D01*
X252491Y-132697D01*
X252321Y-132866D01*
X252237Y-133120D01*
X252237Y-133289D01*
X252321Y-133543D01*
X252491Y-133713D01*
X252660Y-133797D01*
X252914Y-133797D01*
X253083Y-133713D01*
X253252Y-133543D01*
X253633Y-132612D02*
X253633Y-133797D01*
X253633Y-133120D02*
X253718Y-132866D01*
X253887Y-132697D01*
X254057Y-132612D01*
X254311Y-132612D01*
X254641Y-133713D02*
X254556Y-133797D01*
X254471Y-133713D01*
X254556Y-133628D01*
X254641Y-133713D01*
X254641Y-133882D01*
X254556Y-134051D01*
X254471Y-134136D01*
X257781Y-133797D02*
X257104Y-132020D01*
X256427Y-133797D01*
X256681Y-133205D02*
X257527Y-133205D01*
X259381Y-132020D02*
X258196Y-133797D01*
X258196Y-132020D02*
X259381Y-132020D01*
X258196Y-133797D02*
X259381Y-133797D01*
X262995Y-132020D02*
X262742Y-132104D01*
X262657Y-132274D01*
X262657Y-132443D01*
X262742Y-132612D01*
X262911Y-132697D01*
X263249Y-132781D01*
X263503Y-132866D01*
X263673Y-133035D01*
X263757Y-133205D01*
X263757Y-133459D01*
X263673Y-133628D01*
X263588Y-133713D01*
X263334Y-133797D01*
X262995Y-133797D01*
X262742Y-133713D01*
X262657Y-133628D01*
X262572Y-133459D01*
X262572Y-133205D01*
X262657Y-133035D01*
X262826Y-132866D01*
X263080Y-132781D01*
X263419Y-132697D01*
X263588Y-132612D01*
X263673Y-132443D01*
X263673Y-132274D01*
X263588Y-132104D01*
X263334Y-132020D01*
X262995Y-132020D01*
X265171Y-132020D02*
X264324Y-132020D01*
X264240Y-132781D01*
X264324Y-132697D01*
X264578Y-132612D01*
X264832Y-132612D01*
X265086Y-132697D01*
X265256Y-132866D01*
X265340Y-133120D01*
X265340Y-133289D01*
X265256Y-133543D01*
X265086Y-133713D01*
X264832Y-133797D01*
X264578Y-133797D01*
X264324Y-133713D01*
X264240Y-133628D01*
X264155Y-133459D01*
X265823Y-132443D02*
X265823Y-132358D01*
X265907Y-132189D01*
X265992Y-132104D01*
X266161Y-132020D01*
X266500Y-132020D01*
X266669Y-132104D01*
X266754Y-132189D01*
X266839Y-132358D01*
X266839Y-132527D01*
X266754Y-132697D01*
X266585Y-132951D01*
X265738Y-133797D01*
X266923Y-133797D01*
X267406Y-132443D02*
X267406Y-132358D01*
X267490Y-132189D01*
X267575Y-132104D01*
X267744Y-132020D01*
X268083Y-132020D01*
X268252Y-132104D01*
X268337Y-132189D01*
X268421Y-132358D01*
X268421Y-132527D01*
X268337Y-132697D01*
X268167Y-132951D01*
X267321Y-133797D01*
X268506Y-133797D01*
X269750Y-132020D02*
X268904Y-133205D01*
X270174Y-133205D01*
X269750Y-132020D02*
X269750Y-133797D01*
X243407Y-129943D02*
X243407Y-129858D01*
X243491Y-129689D01*
X243576Y-129604D01*
X243745Y-129520D01*
X244084Y-129520D01*
X244253Y-129604D01*
X244338Y-129689D01*
X244422Y-129858D01*
X244422Y-130027D01*
X244338Y-130197D01*
X244168Y-130451D01*
X243322Y-131297D01*
X244507Y-131297D01*
X245074Y-129520D02*
X246005Y-129520D01*
X245497Y-130197D01*
X245751Y-130197D01*
X245921Y-130281D01*
X246005Y-130366D01*
X246090Y-130620D01*
X246090Y-130789D01*
X246005Y-131043D01*
X245836Y-131213D01*
X245582Y-131297D01*
X245328Y-131297D01*
X245074Y-131213D01*
X244990Y-131128D01*
X244905Y-130959D01*
X247504Y-129520D02*
X246657Y-129520D01*
X246573Y-130281D01*
X246657Y-130197D01*
X246911Y-130112D01*
X247165Y-130112D01*
X247419Y-130197D01*
X247588Y-130366D01*
X247673Y-130620D01*
X247673Y-130789D01*
X247588Y-131043D01*
X247419Y-131213D01*
X247165Y-131297D01*
X246911Y-131297D01*
X246657Y-131213D01*
X246573Y-131128D01*
X246488Y-130959D01*
X249087Y-129520D02*
X248240Y-129520D01*
X248155Y-130281D01*
X248240Y-130197D01*
X248494Y-130112D01*
X248748Y-130112D01*
X249002Y-130197D01*
X249171Y-130366D01*
X249256Y-130620D01*
X249256Y-130789D01*
X249171Y-131043D01*
X249002Y-131213D01*
X248748Y-131297D01*
X248494Y-131297D01*
X248240Y-131213D01*
X248155Y-131128D01*
X248071Y-130959D01*
X251050Y-129520D02*
X251474Y-131297D01*
X251897Y-129520D02*
X251474Y-131297D01*
X251897Y-129520D02*
X252320Y-131297D01*
X252743Y-129520D02*
X252320Y-131297D01*
X253184Y-131128D02*
X253099Y-131213D01*
X253184Y-131297D01*
X253268Y-131213D01*
X253184Y-131128D01*
X256324Y-129943D02*
X256239Y-129774D01*
X256070Y-129604D01*
X255901Y-129520D01*
X255562Y-129520D01*
X255393Y-129604D01*
X255224Y-129774D01*
X255139Y-129943D01*
X255054Y-130197D01*
X255054Y-130620D01*
X255139Y-130874D01*
X255224Y-131043D01*
X255393Y-131213D01*
X255562Y-131297D01*
X255901Y-131297D01*
X256070Y-131213D01*
X256239Y-131043D01*
X256324Y-130874D01*
X256823Y-129520D02*
X256823Y-131297D01*
X256823Y-130451D02*
X257077Y-130197D01*
X257247Y-130112D01*
X257501Y-130112D01*
X257670Y-130197D01*
X257755Y-130451D01*
X257755Y-131297D01*
X259236Y-130112D02*
X259236Y-131297D01*
X259236Y-130366D02*
X259067Y-130197D01*
X258897Y-130112D01*
X258643Y-130112D01*
X258474Y-130197D01*
X258305Y-130366D01*
X258220Y-130620D01*
X258220Y-130789D01*
X258305Y-131043D01*
X258474Y-131213D01*
X258643Y-131297D01*
X258897Y-131297D01*
X259067Y-131213D01*
X259236Y-131043D01*
X259710Y-130112D02*
X259710Y-131297D01*
X259710Y-130451D02*
X259964Y-130197D01*
X260133Y-130112D01*
X260387Y-130112D01*
X260556Y-130197D01*
X260641Y-130451D01*
X260641Y-131297D01*
X262122Y-129520D02*
X262122Y-131297D01*
X262122Y-130366D02*
X261953Y-130197D01*
X261784Y-130112D01*
X261530Y-130112D01*
X261361Y-130197D01*
X261191Y-130366D01*
X261107Y-130620D01*
X261107Y-130789D01*
X261191Y-131043D01*
X261361Y-131213D01*
X261530Y-131297D01*
X261784Y-131297D01*
X261953Y-131213D01*
X262122Y-131043D01*
X262596Y-129520D02*
X262596Y-131297D01*
X262969Y-130620D02*
X263985Y-130620D01*
X263985Y-130451D01*
X263900Y-130281D01*
X263815Y-130197D01*
X263646Y-130112D01*
X263392Y-130112D01*
X263223Y-130197D01*
X263054Y-130366D01*
X262969Y-130620D01*
X262969Y-130789D01*
X263054Y-131043D01*
X263223Y-131213D01*
X263392Y-131297D01*
X263646Y-131297D01*
X263815Y-131213D01*
X263985Y-131043D01*
X264366Y-130112D02*
X264366Y-131297D01*
X264366Y-130620D02*
X264450Y-130366D01*
X264620Y-130197D01*
X264789Y-130112D01*
X265043Y-130112D01*
X266600Y-129520D02*
X266600Y-131297D01*
X266600Y-129520D02*
X267362Y-129520D01*
X267616Y-129604D01*
X267701Y-129689D01*
X267785Y-129858D01*
X267785Y-130027D01*
X267701Y-130197D01*
X267616Y-130281D01*
X267362Y-130366D01*
X266600Y-130366D02*
X267362Y-130366D01*
X267616Y-130451D01*
X267701Y-130535D01*
X267785Y-130705D01*
X267785Y-130959D01*
X267701Y-131128D01*
X267616Y-131213D01*
X267362Y-131297D01*
X266600Y-131297D01*
X268183Y-129520D02*
X268183Y-131297D01*
X268556Y-130112D02*
X269064Y-131297D01*
X269572Y-130112D02*
X269064Y-131297D01*
X270875Y-129520D02*
X270875Y-131297D01*
X270875Y-130366D02*
X270706Y-130197D01*
X270536Y-130112D01*
X270283Y-130112D01*
X270113Y-130197D01*
X269944Y-130366D01*
X269859Y-130620D01*
X269859Y-130789D01*
X269944Y-131043D01*
X270113Y-131213D01*
X270283Y-131297D01*
X270536Y-131297D01*
X270706Y-131213D01*
X270875Y-131043D01*
X271434Y-131128D02*
X271349Y-131213D01*
X271434Y-131297D01*
X271518Y-131213D01*
X271434Y-131128D01*
X242092Y-126780D02*
X242092Y-128557D01*
X242092Y-126780D02*
X242769Y-128557D01*
X243446Y-126780D02*
X242769Y-128557D01*
X243446Y-126780D02*
X243446Y-128557D01*
X244124Y-126780D02*
X244208Y-126864D01*
X244293Y-126780D01*
X244208Y-126695D01*
X244124Y-126780D01*
X244208Y-127372D02*
X244208Y-128557D01*
X245622Y-127626D02*
X245453Y-127457D01*
X245283Y-127372D01*
X245029Y-127372D01*
X244860Y-127457D01*
X244691Y-127626D01*
X244606Y-127880D01*
X244606Y-128049D01*
X244691Y-128303D01*
X244860Y-128473D01*
X245029Y-128557D01*
X245283Y-128557D01*
X245453Y-128473D01*
X245622Y-128303D01*
X246003Y-127372D02*
X246003Y-128557D01*
X246003Y-127880D02*
X246087Y-127626D01*
X246257Y-127457D01*
X246426Y-127372D01*
X246680Y-127372D01*
X247264Y-127372D02*
X247095Y-127457D01*
X246925Y-127626D01*
X246841Y-127880D01*
X246841Y-128049D01*
X246925Y-128303D01*
X247095Y-128473D01*
X247264Y-128557D01*
X247518Y-128557D01*
X247687Y-128473D01*
X247857Y-128303D01*
X247941Y-128049D01*
X247941Y-127880D01*
X247857Y-127626D01*
X247687Y-127457D01*
X247518Y-127372D01*
X247264Y-127372D01*
X249346Y-127626D02*
X249177Y-127457D01*
X249008Y-127372D01*
X248754Y-127372D01*
X248585Y-127457D01*
X248415Y-127626D01*
X248331Y-127880D01*
X248331Y-128049D01*
X248415Y-128303D01*
X248585Y-128473D01*
X248754Y-128557D01*
X249008Y-128557D01*
X249177Y-128473D01*
X249346Y-128303D01*
X249727Y-126780D02*
X249727Y-128557D01*
X249727Y-127711D02*
X249981Y-127457D01*
X250151Y-127372D01*
X250404Y-127372D01*
X250574Y-127457D01*
X250658Y-127711D01*
X250658Y-128557D01*
X251293Y-126780D02*
X251378Y-126864D01*
X251463Y-126780D01*
X251378Y-126695D01*
X251293Y-126780D01*
X251378Y-127372D02*
X251378Y-128557D01*
X251776Y-127372D02*
X251776Y-129150D01*
X251776Y-127626D02*
X251945Y-127457D01*
X252114Y-127372D01*
X252368Y-127372D01*
X252538Y-127457D01*
X252707Y-127626D01*
X252792Y-127880D01*
X252792Y-128049D01*
X252707Y-128303D01*
X252538Y-128473D01*
X252368Y-128557D01*
X252114Y-128557D01*
X251945Y-128473D01*
X251776Y-128303D01*
X255162Y-126780D02*
X255162Y-128557D01*
X254569Y-126780D02*
X255754Y-126780D01*
X255966Y-127880D02*
X256982Y-127880D01*
X256982Y-127711D01*
X256897Y-127541D01*
X256812Y-127457D01*
X256643Y-127372D01*
X256389Y-127372D01*
X256220Y-127457D01*
X256051Y-127626D01*
X255966Y-127880D01*
X255966Y-128049D01*
X256051Y-128303D01*
X256220Y-128473D01*
X256389Y-128557D01*
X256643Y-128557D01*
X256812Y-128473D01*
X256982Y-128303D01*
X258378Y-127626D02*
X258209Y-127457D01*
X258040Y-127372D01*
X257786Y-127372D01*
X257617Y-127457D01*
X257447Y-127626D01*
X257363Y-127880D01*
X257363Y-128049D01*
X257447Y-128303D01*
X257617Y-128473D01*
X257786Y-128557D01*
X258040Y-128557D01*
X258209Y-128473D01*
X258378Y-128303D01*
X258759Y-126780D02*
X258759Y-128557D01*
X258759Y-127711D02*
X259013Y-127457D01*
X259183Y-127372D01*
X259436Y-127372D01*
X259606Y-127457D01*
X259690Y-127711D01*
X259690Y-128557D01*
X260156Y-127372D02*
X260156Y-128557D01*
X260156Y-127711D02*
X260410Y-127457D01*
X260579Y-127372D01*
X260833Y-127372D01*
X261002Y-127457D01*
X261087Y-127711D01*
X261087Y-128557D01*
X261976Y-127372D02*
X261807Y-127457D01*
X261637Y-127626D01*
X261553Y-127880D01*
X261553Y-128049D01*
X261637Y-128303D01*
X261807Y-128473D01*
X261976Y-128557D01*
X262230Y-128557D01*
X262399Y-128473D01*
X262568Y-128303D01*
X262653Y-128049D01*
X262653Y-127880D01*
X262568Y-127626D01*
X262399Y-127457D01*
X262230Y-127372D01*
X261976Y-127372D01*
X263043Y-126780D02*
X263043Y-128557D01*
X263838Y-127372D02*
X263669Y-127457D01*
X263500Y-127626D01*
X263415Y-127880D01*
X263415Y-128049D01*
X263500Y-128303D01*
X263669Y-128473D01*
X263838Y-128557D01*
X264092Y-128557D01*
X264261Y-128473D01*
X264431Y-128303D01*
X264515Y-128049D01*
X264515Y-127880D01*
X264431Y-127626D01*
X264261Y-127457D01*
X264092Y-127372D01*
X263838Y-127372D01*
X265921Y-127372D02*
X265921Y-128726D01*
X265836Y-128980D01*
X265751Y-129065D01*
X265582Y-129150D01*
X265328Y-129150D01*
X265159Y-129065D01*
X265921Y-127626D02*
X265751Y-127457D01*
X265582Y-127372D01*
X265328Y-127372D01*
X265159Y-127457D01*
X264989Y-127626D01*
X264905Y-127880D01*
X264905Y-128049D01*
X264989Y-128303D01*
X265159Y-128473D01*
X265328Y-128557D01*
X265582Y-128557D01*
X265751Y-128473D01*
X265921Y-128303D01*
X266479Y-127372D02*
X266987Y-128557D01*
X267495Y-127372D02*
X266987Y-128557D01*
X266818Y-128896D01*
X266649Y-129065D01*
X266479Y-129150D01*
X266395Y-129150D01*
X269188Y-126780D02*
X269188Y-128557D01*
X269560Y-127372D02*
X269560Y-128557D01*
X269560Y-127711D02*
X269814Y-127457D01*
X269984Y-127372D01*
X270238Y-127372D01*
X270407Y-127457D01*
X270492Y-127711D01*
X270492Y-128557D01*
X271973Y-127626D02*
X271804Y-127457D01*
X271634Y-127372D01*
X271380Y-127372D01*
X271211Y-127457D01*
X271042Y-127626D01*
X270957Y-127880D01*
X270957Y-128049D01*
X271042Y-128303D01*
X271211Y-128473D01*
X271380Y-128557D01*
X271634Y-128557D01*
X271804Y-128473D01*
X271973Y-128303D01*
X272438Y-128388D02*
X272354Y-128473D01*
X272438Y-128557D01*
X272523Y-128473D01*
X272438Y-128388D01*
X275322Y-121520D02*
X275322Y-123297D01*
X275322Y-121520D02*
X276084Y-121520D01*
X276338Y-121604D01*
X276422Y-121689D01*
X276507Y-121858D01*
X276507Y-122027D01*
X276422Y-122197D01*
X276338Y-122281D01*
X276084Y-122366D01*
X275322Y-122366D02*
X276084Y-122366D01*
X276338Y-122451D01*
X276422Y-122535D01*
X276507Y-122705D01*
X276507Y-122959D01*
X276422Y-123128D01*
X276338Y-123213D01*
X276084Y-123297D01*
X275322Y-123297D01*
X278259Y-123297D02*
X277582Y-121520D01*
X276905Y-123297D01*
X277159Y-122705D02*
X278005Y-122705D01*
X278674Y-121520D02*
X278674Y-123297D01*
X279690Y-123297D01*
X281239Y-123297D02*
X280562Y-121520D01*
X279885Y-123297D01*
X280139Y-122705D02*
X280985Y-122705D01*
X282500Y-121520D02*
X282500Y-122874D01*
X282416Y-123128D01*
X282331Y-123213D01*
X282162Y-123297D01*
X281992Y-123297D01*
X281823Y-123213D01*
X281738Y-123128D01*
X281654Y-122874D01*
X281654Y-122705D01*
X282957Y-121520D02*
X282957Y-123297D01*
X284726Y-121520D02*
X284726Y-123297D01*
X284726Y-121520D02*
X285912Y-123297D01*
X285912Y-121520D02*
X285912Y-123297D01*
X287757Y-123297D02*
X287080Y-121520D01*
X286402Y-123297D01*
X286656Y-122705D02*
X287503Y-122705D01*
X288172Y-121520D02*
X288172Y-123297D01*
X288172Y-121520D02*
X288933Y-121520D01*
X289187Y-121604D01*
X289272Y-121689D01*
X289357Y-121858D01*
X289357Y-122027D01*
X289272Y-122197D01*
X289187Y-122281D01*
X288933Y-122366D01*
X288172Y-122366D01*
X288764Y-122366D02*
X289357Y-123297D01*
X291109Y-123297D02*
X290432Y-121520D01*
X289755Y-123297D01*
X290009Y-122705D02*
X290855Y-122705D01*
X291524Y-121520D02*
X292201Y-122366D01*
X292201Y-123297D01*
X292878Y-121520D02*
X292201Y-122366D01*
X294461Y-123297D02*
X293784Y-121520D01*
X293107Y-123297D01*
X293361Y-122705D02*
X294207Y-122705D01*
X294876Y-121520D02*
X294876Y-123297D01*
X294876Y-121520D02*
X296061Y-123297D01*
X296061Y-121520D02*
X296061Y-123297D01*
X297906Y-123297D02*
X297229Y-121520D01*
X296552Y-123297D01*
X296806Y-122705D02*
X297652Y-122705D01*
X275322Y-127520D02*
X275322Y-129297D01*
X275322Y-127520D02*
X276084Y-127520D01*
X276338Y-127604D01*
X276422Y-127689D01*
X276507Y-127858D01*
X276507Y-128027D01*
X276422Y-128197D01*
X276338Y-128281D01*
X276084Y-128366D01*
X275322Y-128366D01*
X275915Y-128366D02*
X276507Y-129297D01*
X276905Y-127520D02*
X276905Y-129297D01*
X277277Y-127520D02*
X277277Y-129297D01*
X277277Y-127520D02*
X278462Y-129297D01*
X278462Y-127520D02*
X278462Y-129297D01*
X278953Y-127520D02*
X278953Y-128789D01*
X279038Y-129043D01*
X279207Y-129213D01*
X279461Y-129297D01*
X279631Y-129297D01*
X279885Y-129213D01*
X280054Y-129043D01*
X280139Y-128789D01*
X280139Y-127520D01*
X283296Y-127943D02*
X283211Y-127774D01*
X283042Y-127604D01*
X282873Y-127520D01*
X282534Y-127520D01*
X282365Y-127604D01*
X282195Y-127774D01*
X282111Y-127943D01*
X282026Y-128197D01*
X282026Y-128620D01*
X282111Y-128874D01*
X282195Y-129043D01*
X282365Y-129213D01*
X282534Y-129297D01*
X282873Y-129297D01*
X283042Y-129213D01*
X283211Y-129043D01*
X283296Y-128874D01*
X283795Y-127520D02*
X283795Y-129297D01*
X284811Y-129297D01*
X286106Y-127520D02*
X285006Y-127520D01*
X285006Y-129297D01*
X286106Y-129297D01*
X285006Y-128366D02*
X285683Y-128366D01*
X287503Y-127520D02*
X286402Y-127520D01*
X286402Y-129297D01*
X287503Y-129297D01*
X286402Y-128366D02*
X287080Y-128366D01*
X288392Y-127520D02*
X288392Y-129297D01*
X287799Y-127520D02*
X288984Y-127520D01*
X289196Y-127520D02*
X289196Y-128789D01*
X289281Y-129043D01*
X289450Y-129213D01*
X289704Y-129297D01*
X289873Y-129297D01*
X290127Y-129213D01*
X290296Y-129043D01*
X290381Y-128789D01*
X290381Y-127520D01*
X292057Y-127774D02*
X291888Y-127604D01*
X291634Y-127520D01*
X291295Y-127520D01*
X291041Y-127604D01*
X290872Y-127774D01*
X290872Y-127943D01*
X290957Y-128112D01*
X291041Y-128197D01*
X291211Y-128281D01*
X291718Y-128451D01*
X291888Y-128535D01*
X291972Y-128620D01*
X292057Y-128789D01*
X292057Y-129043D01*
X291888Y-129213D01*
X291634Y-129297D01*
X291295Y-129297D01*
X291041Y-129213D01*
X290872Y-129043D01*
X303750Y-121798D02*
X303536Y-121869D01*
X303393Y-122083D01*
X303322Y-122440D01*
X303322Y-122654D01*
X303393Y-123012D01*
X303536Y-123226D01*
X303750Y-123297D01*
X303893Y-123297D01*
X304108Y-123226D01*
X304250Y-123012D01*
X304322Y-122654D01*
X304322Y-122440D01*
X304250Y-122083D01*
X304108Y-121869D01*
X303893Y-121798D01*
X303750Y-121798D01*
X305514Y-121798D02*
X304800Y-121798D01*
X304729Y-122440D01*
X304800Y-122369D01*
X305014Y-122297D01*
X305229Y-122297D01*
X305443Y-122369D01*
X305586Y-122512D01*
X305657Y-122726D01*
X305657Y-122869D01*
X305586Y-123083D01*
X305443Y-123226D01*
X305229Y-123297D01*
X305014Y-123297D01*
X304800Y-123226D01*
X304729Y-123154D01*
X304657Y-123012D01*
X305993Y-122654D02*
X307278Y-122654D01*
X307721Y-122083D02*
X307864Y-122012D01*
X308078Y-121798D01*
X308078Y-123297D01*
X308821Y-122083D02*
X308964Y-122012D01*
X309178Y-121798D01*
X309178Y-123297D01*
X310635Y-121798D02*
X309921Y-122797D01*
X310992Y-122797D01*
X310635Y-121798D02*
X310635Y-123297D01*
X311327Y-122155D02*
X311327Y-122083D01*
X311399Y-121940D01*
X311470Y-121869D01*
X311613Y-121798D01*
X311899Y-121798D01*
X312042Y-121869D01*
X312113Y-121940D01*
X312184Y-122083D01*
X312184Y-122226D01*
X312113Y-122369D01*
X311970Y-122583D01*
X311256Y-123297D01*
X312256Y-123297D01*
X312734Y-121798D02*
X313520Y-121798D01*
X313091Y-122369D01*
X313306Y-122369D01*
X313448Y-122440D01*
X313520Y-122512D01*
X313591Y-122726D01*
X313591Y-122869D01*
X313520Y-123083D01*
X313377Y-123226D01*
X313163Y-123297D01*
X312949Y-123297D01*
X312734Y-123226D01*
X312663Y-123154D01*
X312591Y-123012D01*
X313927Y-122654D02*
X315212Y-122654D01*
X315655Y-121798D02*
X315655Y-123297D01*
X315655Y-121798D02*
X316298Y-121798D01*
X316512Y-121869D01*
X316583Y-121940D01*
X316655Y-122083D01*
X316655Y-122226D01*
X316583Y-122369D01*
X316512Y-122440D01*
X316298Y-122512D01*
X315655Y-122512D01*
X316155Y-122512D02*
X316655Y-123297D01*
X317705Y-121798D02*
X316991Y-122797D01*
X318062Y-122797D01*
X317705Y-121798D02*
X317705Y-123297D01*
X318397Y-123154D02*
X318326Y-123226D01*
X318397Y-123297D01*
X318469Y-123226D01*
X318397Y-123154D01*
X319868Y-122155D02*
X319797Y-122012D01*
X319654Y-121869D01*
X319511Y-121798D01*
X319226Y-121798D01*
X319083Y-121869D01*
X318940Y-122012D01*
X318869Y-122155D01*
X318797Y-122369D01*
X318797Y-122726D01*
X318869Y-122940D01*
X318940Y-123083D01*
X319083Y-123226D01*
X319226Y-123297D01*
X319511Y-123297D01*
X319654Y-123226D01*
X319797Y-123083D01*
X319868Y-122940D01*
X319868Y-122726D01*
X319511Y-122726D02*
X319868Y-122726D01*
X320211Y-121798D02*
X320211Y-123297D01*
X320211Y-121798D02*
X320854Y-121798D01*
X321068Y-121869D01*
X321140Y-121940D01*
X321211Y-122083D01*
X321211Y-122226D01*
X321140Y-122369D01*
X321068Y-122440D01*
X320854Y-122512D01*
X320211Y-122512D02*
X320854Y-122512D01*
X321068Y-122583D01*
X321140Y-122654D01*
X321211Y-122797D01*
X321211Y-123012D01*
X321140Y-123154D01*
X321068Y-123226D01*
X320854Y-123297D01*
X320211Y-123297D01*
X322546Y-122012D02*
X322404Y-121869D01*
X322189Y-121798D01*
X321904Y-121798D01*
X321689Y-121869D01*
X321547Y-122012D01*
X321547Y-122155D01*
X321618Y-122297D01*
X321689Y-122369D01*
X321832Y-122440D01*
X322261Y-122583D01*
X322404Y-122654D01*
X322475Y-122726D01*
X322546Y-122869D01*
X322546Y-123083D01*
X322404Y-123226D01*
X322189Y-123297D01*
X321904Y-123297D01*
X321689Y-123226D01*
X321547Y-123083D01*
D23*
X303779Y-127698D02*
X303551Y-127774D01*
X303398Y-128002D01*
X303322Y-128383D01*
X303322Y-128612D01*
X303398Y-128992D01*
X303551Y-129221D01*
X303779Y-129297D01*
X303931Y-129297D01*
X304160Y-129221D01*
X304312Y-128992D01*
X304388Y-128612D01*
X304388Y-128383D01*
X304312Y-128002D01*
X304160Y-127774D01*
X303931Y-127698D01*
X303779Y-127698D01*
X305508Y-127698D02*
X304746Y-128764D01*
X305889Y-128764D01*
X305508Y-127698D02*
X305508Y-129297D01*
X306171Y-128612D02*
X307542Y-128612D01*
X308014Y-128002D02*
X308167Y-127926D01*
X308395Y-127698D01*
X308395Y-129297D01*
X309187Y-128002D02*
X309340Y-127926D01*
X309568Y-127698D01*
X309568Y-129297D01*
X311122Y-127698D02*
X310361Y-128764D01*
X311503Y-128764D01*
X311122Y-127698D02*
X311122Y-129297D01*
X311861Y-128078D02*
X311861Y-128002D01*
X311937Y-127850D01*
X312013Y-127774D01*
X312166Y-127698D01*
X312471Y-127698D01*
X312623Y-127774D01*
X312699Y-127850D01*
X312775Y-128002D01*
X312775Y-128155D01*
X312699Y-128307D01*
X312547Y-128535D01*
X311785Y-129297D01*
X312851Y-129297D01*
X313362Y-127698D02*
X314200Y-127698D01*
X313743Y-128307D01*
X313971Y-128307D01*
X314124Y-128383D01*
X314200Y-128459D01*
X314276Y-128688D01*
X314276Y-128840D01*
X314200Y-129069D01*
X314047Y-129221D01*
X313819Y-129297D01*
X313590Y-129297D01*
X313362Y-129221D01*
X313286Y-129145D01*
X313209Y-128992D01*
D24*
X275322Y-113298D02*
X275917Y-115797D01*
X276512Y-113298D02*
X275917Y-115797D01*
X276512Y-113298D02*
X277107Y-115797D01*
X277702Y-113298D02*
X277107Y-115797D01*
X278202Y-113298D02*
X278202Y-115797D01*
X278202Y-113298D02*
X279274Y-113298D01*
X279631Y-113417D01*
X279750Y-113536D01*
X279869Y-113774D01*
X279869Y-114012D01*
X279750Y-114250D01*
X279631Y-114369D01*
X279274Y-114488D01*
X278202Y-114488D02*
X279274Y-114488D01*
X279631Y-114607D01*
X279750Y-114726D01*
X279869Y-114964D01*
X279869Y-115321D01*
X279750Y-115559D01*
X279631Y-115678D01*
X279274Y-115797D01*
X278202Y-115797D01*
X282094Y-113298D02*
X280428Y-115797D01*
X280428Y-113298D02*
X282094Y-113298D01*
X280428Y-115797D02*
X282094Y-115797D01*
X283844Y-113298D02*
X282654Y-114964D01*
X284439Y-114964D01*
X283844Y-113298D02*
X283844Y-115797D01*
X286308Y-113298D02*
X285118Y-113298D01*
X284999Y-114369D01*
X285118Y-114250D01*
X285475Y-114131D01*
X285832Y-114131D01*
X286189Y-114250D01*
X286427Y-114488D01*
X286546Y-114845D01*
X286546Y-115083D01*
X286427Y-115440D01*
X286189Y-115678D01*
X285832Y-115797D01*
X285475Y-115797D01*
X285118Y-115678D01*
X284999Y-115559D01*
X284879Y-115321D01*
X287105Y-113774D02*
X287343Y-113655D01*
X287700Y-113298D01*
X287700Y-115797D01*
X292687Y-113893D02*
X292568Y-113655D01*
X292330Y-113417D01*
X292092Y-113298D01*
X291616Y-113298D01*
X291378Y-113417D01*
X291140Y-113655D01*
X291021Y-113893D01*
X290902Y-114250D01*
X290902Y-114845D01*
X291021Y-115202D01*
X291140Y-115440D01*
X291378Y-115678D01*
X291616Y-115797D01*
X292092Y-115797D01*
X292330Y-115678D01*
X292568Y-115440D01*
X292687Y-115202D01*
X293390Y-113298D02*
X293390Y-115083D01*
X293509Y-115440D01*
X293747Y-115678D01*
X294104Y-115797D01*
X294342Y-115797D01*
X294699Y-115678D01*
X294937Y-115440D01*
X295056Y-115083D01*
X295056Y-113298D01*
X295746Y-113298D02*
X295746Y-115797D01*
X295746Y-113298D02*
X296817Y-113298D01*
X297174Y-113417D01*
X297293Y-113536D01*
X297413Y-113774D01*
X297413Y-114012D01*
X297293Y-114250D01*
X297174Y-114369D01*
X296817Y-114488D01*
X295746Y-114488D01*
X296579Y-114488D02*
X297413Y-115797D01*
X297972Y-113298D02*
X297972Y-115797D01*
X299210Y-113298D02*
X298972Y-113417D01*
X298734Y-113655D01*
X298615Y-113893D01*
X298496Y-114250D01*
X298496Y-114845D01*
X298615Y-115202D01*
X298734Y-115440D01*
X298972Y-115678D01*
X299210Y-115797D01*
X299686Y-115797D01*
X299924Y-115678D01*
X300162Y-115440D01*
X300281Y-115202D01*
X300400Y-114845D01*
X300400Y-114250D01*
X300281Y-113893D01*
X300162Y-113655D01*
X299924Y-113417D01*
X299686Y-113298D01*
X299210Y-113298D01*
X302649Y-113655D02*
X302411Y-113417D01*
X302054Y-113298D01*
X301578Y-113298D01*
X301221Y-113417D01*
X300983Y-113655D01*
X300983Y-113893D01*
X301102Y-114131D01*
X301221Y-114250D01*
X301459Y-114369D01*
X302173Y-114607D01*
X302411Y-114726D01*
X302530Y-114845D01*
X302649Y-115083D01*
X302649Y-115440D01*
X302411Y-115678D01*
X302054Y-115797D01*
X301578Y-115797D01*
X301221Y-115678D01*
X300983Y-115440D01*
X303209Y-113298D02*
X303209Y-115797D01*
X304566Y-113298D02*
X304566Y-115797D01*
X303733Y-113298D02*
X305399Y-113298D01*
X305696Y-113298D02*
X306649Y-114488D01*
X306649Y-115797D01*
X307601Y-113298D02*
X306649Y-114488D01*
X309886Y-113298D02*
X309886Y-115797D01*
X309886Y-113298D02*
X310957Y-113298D01*
X311314Y-113417D01*
X311433Y-113536D01*
X311552Y-113774D01*
X311552Y-114012D01*
X311433Y-114250D01*
X311314Y-114369D01*
X310957Y-114488D01*
X309886Y-114488D02*
X310957Y-114488D01*
X311314Y-114607D01*
X311433Y-114726D01*
X311552Y-114964D01*
X311552Y-115321D01*
X311433Y-115559D01*
X311314Y-115678D01*
X310957Y-115797D01*
X309886Y-115797D01*
X312826Y-113298D02*
X312588Y-113417D01*
X312350Y-113655D01*
X312231Y-113893D01*
X312112Y-114250D01*
X312112Y-114845D01*
X312231Y-115202D01*
X312350Y-115440D01*
X312588Y-115678D01*
X312826Y-115797D01*
X313302Y-115797D01*
X313540Y-115678D01*
X313778Y-115440D01*
X313897Y-115202D01*
X314016Y-114845D01*
X314016Y-114250D01*
X313897Y-113893D01*
X313778Y-113655D01*
X313540Y-113417D01*
X313302Y-113298D01*
X312826Y-113298D01*
X316504Y-115797D02*
X315551Y-113298D01*
X314599Y-115797D01*
X314956Y-114964D02*
X316147Y-114964D01*
X317087Y-113298D02*
X317087Y-115797D01*
X317087Y-113298D02*
X318158Y-113298D01*
X318515Y-113417D01*
X318634Y-113536D01*
X318753Y-113774D01*
X318753Y-114012D01*
X318634Y-114250D01*
X318515Y-114369D01*
X318158Y-114488D01*
X317087Y-114488D01*
X317920Y-114488D02*
X318753Y-115797D01*
X319313Y-113298D02*
X319313Y-115797D01*
X319313Y-113298D02*
X320146Y-113298D01*
X320503Y-113417D01*
X320741Y-113655D01*
X320860Y-113893D01*
X320979Y-114250D01*
X320979Y-114845D01*
X320860Y-115202D01*
X320741Y-115440D01*
X320503Y-115678D01*
X320146Y-115797D01*
X319313Y-115797D01*
D87*
X74498Y23393D02*
D03*
X48804Y20185D02*
D03*
D93*
X62865Y23038D02*
D03*
X62865Y21438D02*
D03*
X60960Y21387D02*
D03*
X60960Y22987D02*
D03*
D94*
X70071Y15638D02*
D03*
X70971Y15638D02*
D03*
X18857Y26662D02*
D03*
X17957Y26662D02*
D03*
X29754Y21844D02*
D03*
X28854Y21844D02*
D03*
X42835Y27879D02*
D03*
X41935Y27879D02*
D03*
X52984Y2132D02*
D03*
X52084Y2132D02*
D03*
X55524Y2132D02*
D03*
X54624Y2132D02*
D03*
X17057Y25468D02*
D03*
X17957Y25468D02*
D03*
X17057Y24439D02*
D03*
X17957Y24439D02*
D03*
X33205Y27559D02*
D03*
X34105Y27559D02*
D03*
X47915Y27879D02*
D03*
X47015Y27879D02*
D03*
X69400Y27871D02*
D03*
X70300Y27871D02*
D03*
X72070Y24549D02*
D03*
X72970Y24549D02*
D03*
X70971Y19042D02*
D03*
X70071Y19042D02*
D03*
X70071Y16752D02*
D03*
X70971Y16752D02*
D03*
X70071Y20104D02*
D03*
X70971Y20104D02*
D03*
X70971Y21298D02*
D03*
X70071Y21298D02*
D03*
X69400Y28829D02*
D03*
X70300Y28829D02*
D03*
X64008Y12362D02*
D03*
X64908Y12362D02*
D03*
X62446Y7273D02*
D03*
X63346Y7273D02*
D03*
X62446Y8456D02*
D03*
X63346Y8456D02*
D03*
X60089Y18204D02*
D03*
X60989Y18204D02*
D03*
X59541Y7821D02*
D03*
X58641Y7821D02*
D03*
X38611Y17848D02*
D03*
X37711Y17848D02*
D03*
X37182Y9568D02*
D03*
X36282Y9568D02*
D03*
X35912Y18051D02*
D03*
X35012Y18051D02*
D03*
X34725Y19271D02*
D03*
X33825Y19271D02*
D03*
X31957Y22090D02*
D03*
X31057Y22090D02*
D03*
X29754Y18788D02*
D03*
X28854Y18788D02*
D03*
X29464Y23523D02*
D03*
X28564Y23523D02*
D03*
X24272Y21887D02*
D03*
X25172Y21887D02*
D03*
X25534Y26086D02*
D03*
X24634Y26086D02*
D03*
X22537Y4699D02*
D03*
X23437Y4699D02*
D03*
X20900Y26662D02*
D03*
X20000Y26662D02*
D03*
D106*
X66503Y25796D02*
D03*
X66503Y24896D02*
D03*
X22552Y26048D02*
D03*
X22552Y26948D02*
D03*
X23604Y26048D02*
D03*
X23604Y26948D02*
D03*
X25000Y19002D02*
D03*
X25000Y19902D02*
D03*
X60154Y15398D02*
D03*
X60154Y16298D02*
D03*
X60154Y14395D02*
D03*
X60154Y13495D02*
D03*
X71816Y25547D02*
D03*
X71816Y26447D02*
D03*
X71714Y22636D02*
D03*
X71714Y23536D02*
D03*
X70521Y8478D02*
D03*
X70521Y9378D02*
D03*
X69378Y9378D02*
D03*
X69378Y8478D02*
D03*
X68196Y11243D02*
D03*
X68196Y10343D02*
D03*
X68102Y4882D02*
D03*
X68102Y5782D02*
D03*
X67109Y10340D02*
D03*
X67109Y11240D02*
D03*
X66965Y4880D02*
D03*
X66965Y5780D02*
D03*
X66503Y28205D02*
D03*
X66503Y27305D02*
D03*
X65199Y28148D02*
D03*
X65199Y29048D02*
D03*
X64183Y28148D02*
D03*
X64183Y29048D02*
D03*
X63572Y5907D02*
D03*
X63572Y5007D02*
D03*
X62596Y12368D02*
D03*
X62596Y11468D02*
D03*
X62500Y5009D02*
D03*
X62500Y5909D02*
D03*
X61456Y11468D02*
D03*
X61456Y12368D02*
D03*
X57948Y25296D02*
D03*
X57948Y26196D02*
D03*
X57634Y27196D02*
D03*
X57634Y28096D02*
D03*
X56932Y26196D02*
D03*
X56932Y25296D02*
D03*
X50861Y6271D02*
D03*
X50861Y7171D02*
D03*
X46594Y20516D02*
D03*
X46594Y19616D02*
D03*
X42784Y19616D02*
D03*
X42784Y20516D02*
D03*
X33996Y21615D02*
D03*
X33996Y22515D02*
D03*
X31694Y26082D02*
D03*
X31694Y25182D02*
D03*
X29754Y20065D02*
D03*
X29754Y20965D02*
D03*
X27547Y24877D02*
D03*
X27547Y23977D02*
D03*
X29652Y11491D02*
D03*
X29652Y10591D02*
D03*
X28611Y20965D02*
D03*
X28611Y20065D02*
D03*
X26554Y24877D02*
D03*
X26554Y23977D02*
D03*
X14870Y26584D02*
D03*
X14870Y25684D02*
D03*
X13767Y26584D02*
D03*
X13767Y25684D02*
D03*
D107*
X8883Y24232D02*
D03*
X11183Y25182D02*
D03*
X11183Y23282D02*
D03*
X37762Y22217D02*
D03*
X35462Y21267D02*
D03*
X35462Y23167D02*
D03*
D111*
X74509Y19789D02*
D03*
X74509Y20314D02*
D03*
D113*
X74455Y6723D02*
D03*
D124*
X26372Y10112D02*
D03*
X26372Y11382D02*
D03*
X26372Y12652D02*
D03*
X26372Y13922D02*
D03*
X26372Y16462D02*
D03*
X26372Y17732D02*
D03*
X26372Y19002D02*
D03*
X26372Y20272D02*
D03*
X26372Y15192D02*
D03*
X11573Y3988D02*
D03*
X9033Y3988D02*
D03*
X10303Y3988D02*
D03*
X12903Y28702D02*
D03*
X14681Y28702D02*
D03*
X19609Y4039D02*
D03*
X69757Y22682D02*
D03*
D125*
X66481Y22313D02*
D03*
D126*
X64481Y22313D02*
D03*
D127*
X37744Y3581D02*
D03*
X37744Y26441D02*
D03*
X55524Y3581D02*
D03*
X47904Y3581D02*
D03*
X50444Y3581D02*
D03*
X40284Y3581D02*
D03*
X42824Y3581D02*
D03*
X45364Y3581D02*
D03*
X52984Y3581D02*
D03*
X52984Y26441D02*
D03*
X45364Y26441D02*
D03*
X42824Y26441D02*
D03*
X40284Y26441D02*
D03*
X50444Y26441D02*
D03*
X47904Y26441D02*
D03*
D128*
X55524Y26441D02*
D03*
D129*
X72884Y17499D02*
D03*
D130*
X72884Y12499D02*
D03*
D131*
X75584Y11494D02*
D03*
X75584Y18504D02*
D03*
D132*
X49058Y7104D02*
D03*
X49058Y5326D02*
D03*
X22276Y28804D02*
D03*
X8839Y1473D02*
D03*
X27849Y2151D02*
D03*
X26579Y2151D02*
D03*
X27849Y3421D02*
D03*
X25309Y2151D02*
D03*
X25309Y3421D02*
D03*
X26579Y3421D02*
D03*
X29119Y3421D02*
D03*
X30389Y3421D02*
D03*
X29119Y2151D02*
D03*
X30389Y2151D02*
D03*
D133*
X17054Y28245D02*
D03*
X10685Y28245D02*
D03*
D134*
X19594Y28245D02*
D03*
X8145Y28245D02*
D03*
D135*
X6258Y6551D02*
D03*
X6258Y7288D02*
D03*
X6258Y5814D02*
D03*
X6258Y5078D02*
D03*
X6258Y4341D02*
D03*
X6258Y24282D02*
D03*
X6258Y23545D02*
D03*
X6258Y25018D02*
D03*
X6258Y25755D02*
D03*
X6258Y26491D02*
D03*
D136*
X1905Y2032D02*
D03*
X1905Y27967D02*
D03*
X74968Y2032D02*
D03*
X74968Y27967D02*
D03*
D196*
X42360Y2324D02*
D03*
X55045Y27631D02*
D03*
X52510Y27631D02*
D03*
X49970Y27631D02*
D03*
X44890Y27631D02*
D03*
X44900Y2324D02*
D03*
D197*
X34196Y25646D02*
D03*
D198*
X65572Y7982D02*
D03*
D199*
X51104Y20488D02*
D03*
X51904Y20488D02*
D03*
X52704Y20488D02*
D03*
X53504Y20488D02*
D03*
X54304Y20488D02*
D03*
X55104Y20488D02*
D03*
X55904Y20488D02*
D03*
X56704Y20488D02*
D03*
X57504Y20488D02*
D03*
X58304Y20488D02*
D03*
X51104Y19688D02*
D03*
X51904Y19688D02*
D03*
X52704Y19688D02*
D03*
X53504Y19688D02*
D03*
X54304Y19688D02*
D03*
X55104Y19688D02*
D03*
X55904Y19688D02*
D03*
X56704Y19688D02*
D03*
X57504Y19688D02*
D03*
X58304Y19688D02*
D03*
X51104Y18888D02*
D03*
X51904Y18888D02*
D03*
X52704Y18888D02*
D03*
X53504Y18888D02*
D03*
X54304Y18888D02*
D03*
X55104Y18888D02*
D03*
X55904Y18888D02*
D03*
X56704Y18888D02*
D03*
X57504Y18888D02*
D03*
X58304Y18888D02*
D03*
X51104Y18088D02*
D03*
X51904Y18088D02*
D03*
X52704Y18088D02*
D03*
X53504Y18088D02*
D03*
X54304Y18088D02*
D03*
X55104Y18088D02*
D03*
X55904Y18088D02*
D03*
X56704Y18088D02*
D03*
X57504Y18088D02*
D03*
X58304Y18088D02*
D03*
X51104Y17288D02*
D03*
X51904Y17288D02*
D03*
X52704Y17288D02*
D03*
X53504Y17288D02*
D03*
X54304Y17288D02*
D03*
X55104Y17288D02*
D03*
X55904Y17288D02*
D03*
X56704Y17288D02*
D03*
X57504Y17288D02*
D03*
X58304Y17288D02*
D03*
X51104Y16488D02*
D03*
X51904Y16488D02*
D03*
X52704Y16488D02*
D03*
X53504Y16488D02*
D03*
X54304Y16488D02*
D03*
X55104Y16488D02*
D03*
X55904Y16488D02*
D03*
X56704Y16488D02*
D03*
X57504Y16488D02*
D03*
X58304Y16488D02*
D03*
X51104Y15688D02*
D03*
X51904Y15688D02*
D03*
X52704Y15688D02*
D03*
X53504Y15688D02*
D03*
X54304Y15688D02*
D03*
X55104Y15688D02*
D03*
X55904Y15688D02*
D03*
X56704Y15688D02*
D03*
X57504Y15688D02*
D03*
X58304Y15688D02*
D03*
X51104Y14888D02*
D03*
X51904Y14888D02*
D03*
X52704Y14888D02*
D03*
X53504Y14888D02*
D03*
X54304Y14888D02*
D03*
X55104Y14888D02*
D03*
X55904Y14888D02*
D03*
X56704Y14888D02*
D03*
X57504Y14888D02*
D03*
X58304Y14888D02*
D03*
X51104Y14088D02*
D03*
X51904Y14088D02*
D03*
X52704Y14088D02*
D03*
X53504Y14088D02*
D03*
X54304Y14088D02*
D03*
X55104Y14088D02*
D03*
X55904Y14088D02*
D03*
X56704Y14088D02*
D03*
X57504Y14088D02*
D03*
X58304Y14088D02*
D03*
X51104Y13288D02*
D03*
X51904Y13288D02*
D03*
X52704Y13288D02*
D03*
X53504Y13288D02*
D03*
X54304Y13288D02*
D03*
X55104Y13288D02*
D03*
X55904Y13288D02*
D03*
X56704Y13288D02*
D03*
X57504Y13288D02*
D03*
X58304Y13288D02*
D03*
D200*
X71671Y14343D02*
D03*
X70071Y14343D02*
D03*
X58433Y22733D02*
D03*
X56833Y22733D02*
D03*
D201*
X54697Y4843D02*
D03*
X55222Y4843D02*
D03*
X29652Y9517D02*
D03*
X29127Y9517D02*
D03*
X60597Y12230D02*
D03*
X60072Y12230D02*
D03*
X26579Y4826D02*
D03*
X27104Y4826D02*
D03*
D202*
X73188Y19789D02*
D03*
X73188Y21689D02*
D03*
X65042Y26931D02*
D03*
X65042Y25031D02*
D03*
D203*
X42784Y23406D02*
D03*
X44054Y23406D02*
D03*
X46594Y23406D02*
D03*
X41514Y22136D02*
D03*
X42784Y22136D02*
D03*
X44054Y22136D02*
D03*
X45324Y23406D02*
D03*
X45324Y22136D02*
D03*
X46594Y22136D02*
D03*
X41514Y23406D02*
D03*
D204*
X55956Y23901D02*
D03*
X54178Y23901D02*
D03*
D205*
X41885Y2324D02*
D03*
X42835Y2324D02*
D03*
X55520Y27631D02*
D03*
X54570Y27631D02*
D03*
X52985Y27631D02*
D03*
X52035Y27631D02*
D03*
X50445Y27631D02*
D03*
X49495Y27631D02*
D03*
X44425Y2324D02*
D03*
X45375Y2324D02*
D03*
X45365Y27631D02*
D03*
X44415Y27631D02*
D03*
D206*
X28564Y25432D02*
D03*
X28564Y24782D02*
D03*
X30464Y24782D02*
D03*
X30464Y25432D02*
D03*
X30464Y26082D02*
D03*
X28564Y26082D02*
D03*
D207*
X34377Y13829D02*
D03*
D208*
X36282Y16629D02*
D03*
X35012Y16629D02*
D03*
X33742Y16629D02*
D03*
X32472Y16629D02*
D03*
X32472Y11029D02*
D03*
X33742Y11029D02*
D03*
X35012Y11029D02*
D03*
X36282Y11029D02*
D03*
D209*
X60037Y24231D02*
D03*
X60537Y24231D02*
D03*
X61037Y24231D02*
D03*
X61537Y24231D02*
D03*
X62037Y24231D02*
D03*
X62037Y28161D02*
D03*
X61537Y28161D02*
D03*
X61037Y28161D02*
D03*
X60537Y28161D02*
D03*
X60037Y28161D02*
D03*
D210*
X63002Y25196D02*
D03*
X63002Y25696D02*
D03*
X63002Y26196D02*
D03*
X63002Y26696D02*
D03*
X63002Y27196D02*
D03*
X59072Y27196D02*
D03*
X59072Y26696D02*
D03*
X59072Y26196D02*
D03*
X59072Y25696D02*
D03*
X59072Y25196D02*
D03*
D211*
X61037Y26196D02*
D03*
D212*
X69180Y25133D02*
D03*
D213*
X70730Y24158D02*
D03*
X70730Y24808D02*
D03*
X70730Y25458D02*
D03*
X70730Y26108D02*
D03*
X67630Y26108D02*
D03*
X67630Y25458D02*
D03*
X67630Y24808D02*
D03*
X67630Y24158D02*
D03*
D214*
X68318Y20002D02*
D03*
X68318Y19352D02*
D03*
X68318Y18702D02*
D03*
X68318Y18052D02*
D03*
X68318Y17402D02*
D03*
X68318Y16752D02*
D03*
X68318Y16102D02*
D03*
X62418Y20002D02*
D03*
X62418Y19352D02*
D03*
X62418Y18702D02*
D03*
X62418Y18052D02*
D03*
X62418Y17402D02*
D03*
X62418Y16752D02*
D03*
X62418Y16102D02*
D03*
D215*
X60072Y11081D02*
D03*
X58872Y11081D02*
D03*
X58872Y10331D02*
D03*
D216*
X60032Y10331D02*
D03*
D217*
X54697Y8471D02*
D03*
D218*
X55997Y10871D02*
D03*
X55347Y10871D02*
D03*
X55997Y6071D02*
D03*
X55347Y6071D02*
D03*
X54697Y10871D02*
D03*
X53397Y10871D02*
D03*
X54047Y10871D02*
D03*
X53397Y6071D02*
D03*
X54047Y6071D02*
D03*
X54697Y6071D02*
D03*
D219*
X57097Y8471D02*
D03*
X57097Y7171D02*
D03*
X57097Y7821D02*
D03*
X57097Y9121D02*
D03*
X57097Y9771D02*
D03*
X52297Y8471D02*
D03*
X52297Y7171D02*
D03*
X52297Y7821D02*
D03*
X52297Y9771D02*
D03*
X52297Y9121D02*
D03*
D220*
X46628Y8094D02*
D03*
X46628Y7569D02*
D03*
X43402Y7798D02*
D03*
X43402Y8323D02*
D03*
D221*
X31786Y20927D02*
D03*
X31136Y20927D02*
D03*
X31136Y19027D02*
D03*
X31786Y19027D02*
D03*
X32436Y19027D02*
D03*
X32436Y20927D02*
D03*
X23872Y23050D02*
D03*
X23872Y24950D02*
D03*
X24522Y24950D02*
D03*
X25172Y24950D02*
D03*
X25172Y23050D02*
D03*
X24522Y23050D02*
D03*
M02*
