G04*
G04 #@! TF.GenerationSoftware,Altium Limited,Altium Designer,19.1.9 (167)*
G04*
G04 Layer_Physical_Order=2*
G04 Layer_Color=36540*
%FSLAX43Y43*%
%MOMM*%
G71*
G01*
G75*
%ADD11C,0.100*%
%ADD13C,0.254*%
%ADD15C,0.127*%
%ADD16C,0.200*%
%ADD18C,0.150*%
%ADD22C,0.178*%
%ADD23C,0.180*%
%ADD24C,0.381*%
%ADD56C,1.000*%
%ADD138C,0.152*%
%ADD157C,1.600*%
%ADD158C,1.524*%
%ADD160C,1.250*%
G04:AMPARAMS|DCode=161|XSize=1.25mm|YSize=1.25mm|CornerRadius=0.625mm|HoleSize=0mm|Usage=FLASHONLY|Rotation=90.000|XOffset=0mm|YOffset=0mm|HoleType=Round|Shape=RoundedRectangle|*
%AMROUNDEDRECTD161*
21,1,1.250,0.000,0,0,90.0*
21,1,0.000,1.250,0,0,90.0*
1,1,1.250,0.000,0.000*
1,1,1.250,0.000,0.000*
1,1,1.250,0.000,0.000*
1,1,1.250,0.000,0.000*
%
%ADD161ROUNDEDRECTD161*%
%ADD162C,1.550*%
%ADD163C,1.700*%
%ADD167C,3.600*%
%ADD168C,0.508*%
%ADD169C,0.406*%
%ADD171C,0.600*%
%ADD172C,0.457*%
G36*
X76555Y19290D02*
X76555Y19079D01*
X76536Y18984D01*
X76536Y18934D01*
X76526Y18884D01*
X76526Y18809D01*
X76526Y11189D01*
X76526Y11114D01*
X76536Y11065D01*
X76536Y11015D01*
X76555Y10920D01*
X76555Y10462D01*
X76371Y10279D01*
X76320Y10279D01*
X76320Y10279D01*
X76295Y10284D01*
X76295Y10284D01*
X73877Y10284D01*
X72231Y11930D01*
X72231Y12819D01*
X72485Y13073D01*
X73628Y13073D01*
X73882Y13327D01*
X73882Y13810D01*
X73887Y13835D01*
X73887Y16121D01*
X73882Y16146D01*
X73882Y16629D01*
X73628Y16883D01*
X72358Y16883D01*
X72104Y17137D01*
X72104Y18280D01*
X73242Y19418D01*
X76427Y19418D01*
X76555Y19290D01*
X76555Y19290D02*
G37*
G36*
X75558Y29499D02*
X75814Y29393D01*
X76044Y29239D01*
X76240Y29043D01*
X76394Y28812D01*
X76500Y28556D01*
X76555Y28284D01*
X76555Y28146D01*
X76555Y19677D01*
X73120Y19677D01*
X71723Y18280D01*
X71723Y17137D01*
X72358Y16502D01*
X73247Y16502D01*
X73628Y16121D01*
X73628Y13835D01*
X73374Y13581D01*
X72231Y13581D01*
X71857Y13207D01*
X71857Y11585D01*
X73417Y10025D01*
X76295Y10025D01*
X76555Y9765D01*
X76555Y1717D01*
X76555Y1592D01*
X76506Y1346D01*
X76410Y1115D01*
X76271Y907D01*
X76094Y730D01*
X75886Y591D01*
X75654Y495D01*
X75409Y446D01*
X6717Y446D01*
X6717Y7393D01*
X6720Y7404D01*
X6720Y23431D01*
X6717Y23442D01*
X6717Y29553D01*
X75147Y29553D01*
X75286Y29553D01*
X75558Y29499D01*
X75558Y29499D02*
G37*
G36*
X261671Y-110862D02*
X261761Y-110877D01*
X261865Y-110921D01*
X261954Y-110981D01*
X262043Y-111085D01*
X262103Y-111204D01*
X262133Y-111383D01*
X262133Y-111412D01*
X262118Y-111472D01*
X262103Y-111561D01*
X262058Y-111665D01*
X261999Y-111770D01*
X261895Y-111859D01*
X261761Y-111933D01*
X261582Y-111963D01*
X261537Y-111963D01*
X261493Y-111948D01*
X261448Y-111948D01*
X261299Y-111889D01*
X261240Y-111859D01*
X261165Y-111799D01*
X261165Y-111784D01*
X261136Y-111770D01*
X261076Y-111680D01*
X261017Y-111546D01*
X261002Y-111472D01*
X260987Y-111383D01*
X260987Y-111368D01*
X260987Y-111338D01*
X261017Y-111249D01*
X261076Y-111130D01*
X261165Y-111011D01*
X261180Y-110996D01*
X261195Y-110981D01*
X261284Y-110921D01*
X261418Y-110877D01*
X261493Y-110847D01*
X261612Y-110847D01*
X261671Y-110862D01*
X261671Y-110862D02*
G37*
G36*
X258055Y-110356D02*
X258174Y-110356D01*
X258457Y-110400D01*
X258769Y-110445D01*
X259127Y-110520D01*
X259484Y-110624D01*
X259826Y-110772D01*
X262996Y-115803D01*
X262996Y-115817D01*
X262996Y-115847D01*
X262981Y-115892D01*
X262981Y-115966D01*
X262951Y-116130D01*
X262907Y-116353D01*
X262907Y-116368D01*
X262892Y-116398D01*
X262877Y-116457D01*
X262862Y-116547D01*
X262847Y-116636D01*
X262817Y-116740D01*
X262743Y-116978D01*
X259990Y-112662D01*
X259975Y-112648D01*
X259960Y-112618D01*
X259915Y-112558D01*
X259856Y-112499D01*
X259781Y-112439D01*
X259692Y-112380D01*
X259603Y-112350D01*
X259499Y-112335D01*
X259454Y-112335D01*
X259409Y-112350D01*
X259350Y-112380D01*
X259275Y-112410D01*
X259201Y-112469D01*
X259127Y-112543D01*
X259037Y-112648D01*
X258115Y-113913D01*
X261359Y-119002D01*
X261344Y-119017D01*
X261284Y-119062D01*
X261195Y-119136D01*
X261076Y-119211D01*
X260927Y-119330D01*
X260749Y-119434D01*
X260540Y-119568D01*
X260317Y-119687D01*
X260049Y-119821D01*
X259766Y-119955D01*
X259454Y-120059D01*
X259127Y-120163D01*
X258769Y-120252D01*
X258397Y-120327D01*
X258010Y-120371D01*
X257609Y-120386D01*
X257504Y-120386D01*
X257400Y-120371D01*
X257237Y-120356D01*
X257043Y-120342D01*
X256820Y-120297D01*
X256582Y-120252D01*
X256299Y-120178D01*
X256016Y-120089D01*
X255704Y-119984D01*
X255391Y-119850D01*
X255064Y-119687D01*
X254736Y-119493D01*
X254409Y-119285D01*
X254096Y-119032D01*
X253784Y-118734D01*
X255153Y-116844D01*
X255168Y-116829D01*
X255183Y-116785D01*
X255213Y-116695D01*
X255227Y-116621D01*
X255242Y-116547D01*
X255242Y-116517D01*
X255227Y-116442D01*
X255183Y-116309D01*
X255094Y-116145D01*
X254082Y-114567D01*
X252579Y-116666D01*
X252579Y-116651D01*
X252579Y-116636D01*
X252549Y-116547D01*
X252519Y-116428D01*
X252489Y-116249D01*
X252459Y-116041D01*
X252430Y-115817D01*
X252415Y-115550D01*
X252400Y-115282D01*
X252400Y-115252D01*
X252400Y-115192D01*
X252415Y-115088D01*
X252430Y-114954D01*
X252445Y-114776D01*
X252474Y-114582D01*
X252519Y-114359D01*
X252579Y-114121D01*
X252653Y-113868D01*
X252757Y-113585D01*
X252876Y-113302D01*
X253010Y-113020D01*
X253174Y-112737D01*
X253367Y-112439D01*
X253590Y-112157D01*
X253843Y-111889D01*
X253858Y-111874D01*
X253918Y-111814D01*
X254007Y-111740D01*
X254126Y-111651D01*
X254275Y-111531D01*
X254469Y-111398D01*
X254677Y-111264D01*
X254915Y-111115D01*
X255183Y-110966D01*
X255480Y-110832D01*
X255808Y-110698D01*
X256150Y-110579D01*
X256522Y-110490D01*
X256909Y-110400D01*
X257326Y-110356D01*
X257757Y-110341D01*
X257951Y-110341D01*
X258055Y-110356D01*
X258055Y-110356D02*
G37*
G36*
X263308Y-121815D02*
X263383Y-121815D01*
X263427Y-121830D01*
X263442Y-121830D01*
X263472Y-121845D01*
X263561Y-121889D01*
X263621Y-121934D01*
X263665Y-121993D01*
X263710Y-122083D01*
X263740Y-122172D01*
X263740Y-122187D01*
X263740Y-122202D01*
X263755Y-122246D01*
X263755Y-122321D01*
X263755Y-122395D01*
X263770Y-122485D01*
X263770Y-122604D01*
X263770Y-122738D01*
X261895Y-122693D01*
X261880Y-122693D01*
X261835Y-122708D01*
X261761Y-122723D01*
X261686Y-122767D01*
X261597Y-122857D01*
X261537Y-122976D01*
X261478Y-123139D01*
X261463Y-123258D01*
X261463Y-123377D01*
X261463Y-123764D01*
X261463Y-123794D01*
X261463Y-123869D01*
X261493Y-123988D01*
X261523Y-124107D01*
X261567Y-124226D01*
X261642Y-124345D01*
X261746Y-124419D01*
X261805Y-124434D01*
X261880Y-124449D01*
X263799Y-124449D01*
X263799Y-124479D01*
X263799Y-124538D01*
X263799Y-124628D01*
X263785Y-124747D01*
X263770Y-124851D01*
X263755Y-124970D01*
X263725Y-125059D01*
X263695Y-125133D01*
X263695Y-125148D01*
X263665Y-125163D01*
X263621Y-125193D01*
X263561Y-125223D01*
X263487Y-125267D01*
X263368Y-125297D01*
X263234Y-125312D01*
X263055Y-125327D01*
X261656Y-125327D01*
X261537Y-125312D01*
X261403Y-125282D01*
X261255Y-125238D01*
X261106Y-125163D01*
X260972Y-125074D01*
X260868Y-124955D01*
X260868Y-124940D01*
X260838Y-124895D01*
X260823Y-124836D01*
X260793Y-124747D01*
X260764Y-124613D01*
X260734Y-124464D01*
X260719Y-124300D01*
X260704Y-124092D01*
X260704Y-123065D01*
X260704Y-123050D01*
X260704Y-123020D01*
X260704Y-122976D01*
X260704Y-122916D01*
X260734Y-122767D01*
X260764Y-122589D01*
X260808Y-122395D01*
X260883Y-122217D01*
X260987Y-122053D01*
X261121Y-121934D01*
X261136Y-121934D01*
X261165Y-121919D01*
X261210Y-121889D01*
X261284Y-121859D01*
X261374Y-121845D01*
X261493Y-121815D01*
X261612Y-121800D01*
X263130Y-121800D01*
X263308Y-121815D01*
X263308Y-121815D02*
G37*
G36*
X267237Y-125297D02*
X266493Y-125297D01*
X266493Y-123988D01*
X264945Y-123988D01*
X264945Y-125297D01*
X264261Y-125297D01*
X264261Y-121830D01*
X264945Y-121830D01*
X264945Y-123065D01*
X266493Y-123065D01*
X266493Y-121830D01*
X267237Y-121830D01*
X267237Y-125297D01*
X267237Y-125297D02*
G37*
G36*
X247534Y-120714D02*
X247593Y-120728D01*
X247682Y-120758D01*
X247757Y-120833D01*
X247831Y-120922D01*
X247891Y-121056D01*
X247921Y-121234D01*
X248382Y-125297D01*
X247519Y-125297D01*
X247281Y-122380D01*
X247266Y-122380D01*
X246373Y-124717D01*
X246373Y-124732D01*
X246343Y-124776D01*
X246298Y-124836D01*
X246254Y-124910D01*
X246179Y-124985D01*
X246090Y-125044D01*
X245971Y-125089D01*
X245852Y-125104D01*
X245792Y-125104D01*
X245718Y-125089D01*
X245644Y-125059D01*
X245554Y-125014D01*
X245465Y-124940D01*
X245376Y-124851D01*
X245316Y-124717D01*
X244438Y-122425D01*
X244423Y-122425D01*
X244170Y-125297D01*
X243322Y-125297D01*
X243768Y-121190D01*
X243768Y-121175D01*
X243783Y-121115D01*
X243813Y-121041D01*
X243843Y-120937D01*
X243902Y-120848D01*
X243992Y-120773D01*
X244096Y-120714D01*
X244230Y-120699D01*
X244304Y-120699D01*
X244379Y-120728D01*
X244483Y-120758D01*
X244572Y-120818D01*
X244676Y-120892D01*
X244780Y-121011D01*
X244855Y-121160D01*
X245837Y-123675D01*
X245852Y-123675D01*
X246849Y-121160D01*
X246864Y-121145D01*
X246879Y-121086D01*
X246923Y-121011D01*
X246998Y-120922D01*
X247087Y-120848D01*
X247191Y-120773D01*
X247325Y-120714D01*
X247474Y-120699D01*
X247489Y-120699D01*
X247534Y-120714D01*
X247534Y-120714D02*
G37*
G36*
X271359Y-121845D02*
X271464Y-121859D01*
X271598Y-121904D01*
X271746Y-121979D01*
X271865Y-122083D01*
X271984Y-122232D01*
X272059Y-122425D01*
X272059Y-122440D01*
X272074Y-122470D01*
X272074Y-122514D01*
X272089Y-122589D01*
X272104Y-122678D01*
X272104Y-122782D01*
X272118Y-122901D01*
X272118Y-123035D01*
X272118Y-123303D01*
X272118Y-123333D01*
X272118Y-123407D01*
X272104Y-123511D01*
X272089Y-123645D01*
X272029Y-123943D01*
X271984Y-124077D01*
X271910Y-124196D01*
X271910Y-124211D01*
X271880Y-124226D01*
X271791Y-124300D01*
X271642Y-124389D01*
X271553Y-124404D01*
X271449Y-124419D01*
X269722Y-124419D01*
X269722Y-125297D01*
X269008Y-125297D01*
X269008Y-121830D01*
X271285Y-121830D01*
X271359Y-121845D01*
X271359Y-121845D02*
G37*
G36*
X268547Y-125297D02*
X267743Y-125297D01*
X267743Y-121830D01*
X268547Y-121830D01*
X268547Y-125297D01*
X268547Y-125297D02*
G37*
G36*
X256046Y-121845D02*
X256165Y-121889D01*
X256284Y-121964D01*
X256344Y-122008D01*
X256403Y-122083D01*
X256463Y-122172D01*
X256522Y-122261D01*
X256567Y-122395D01*
X256597Y-122529D01*
X256626Y-122693D01*
X256626Y-122871D01*
X256626Y-123080D01*
X256626Y-123095D01*
X256626Y-123110D01*
X256626Y-123199D01*
X256612Y-123318D01*
X256582Y-123467D01*
X256537Y-123616D01*
X256463Y-123749D01*
X256373Y-123869D01*
X256239Y-123943D01*
X256239Y-123958D01*
X256254Y-123958D01*
X256299Y-123988D01*
X256359Y-124032D01*
X256433Y-124092D01*
X256507Y-124181D01*
X256567Y-124315D01*
X256612Y-124494D01*
X256626Y-124717D01*
X256626Y-125297D01*
X255897Y-125297D01*
X255897Y-124881D01*
X255897Y-124866D01*
X255897Y-124836D01*
X255897Y-124791D01*
X255897Y-124732D01*
X255882Y-124613D01*
X255882Y-124553D01*
X255867Y-124523D01*
X255853Y-124508D01*
X255808Y-124449D01*
X255733Y-124404D01*
X255614Y-124389D01*
X254320Y-124389D01*
X254320Y-125297D01*
X253590Y-125297D01*
X253590Y-121830D01*
X255972Y-121830D01*
X256046Y-121845D01*
X256046Y-121845D02*
G37*
G36*
X249632Y-125297D02*
X248813Y-125297D01*
X248813Y-121830D01*
X249632Y-121830D01*
X249632Y-125297D01*
X249632Y-125297D02*
G37*
G36*
X259469Y-121815D02*
X259603Y-121845D01*
X259737Y-121874D01*
X259871Y-121934D01*
X259990Y-122008D01*
X260079Y-122112D01*
X260094Y-122127D01*
X260109Y-122172D01*
X260153Y-122246D01*
X260198Y-122351D01*
X260228Y-122485D01*
X260272Y-122633D01*
X260287Y-122827D01*
X260302Y-123050D01*
X260302Y-124077D01*
X260302Y-124092D01*
X260302Y-124122D01*
X260302Y-124166D01*
X260302Y-124226D01*
X260272Y-124389D01*
X260243Y-124583D01*
X260183Y-124791D01*
X260094Y-124985D01*
X259960Y-125148D01*
X259885Y-125208D01*
X259796Y-125253D01*
X259781Y-125253D01*
X259766Y-125267D01*
X259722Y-125282D01*
X259662Y-125282D01*
X259588Y-125297D01*
X259499Y-125312D01*
X259275Y-125327D01*
X257996Y-125327D01*
X257891Y-125312D01*
X257772Y-125282D01*
X257623Y-125238D01*
X257490Y-125178D01*
X257356Y-125104D01*
X257251Y-124985D01*
X257237Y-124970D01*
X257222Y-124925D01*
X257192Y-124866D01*
X257162Y-124761D01*
X257117Y-124642D01*
X257088Y-124479D01*
X257073Y-124300D01*
X257058Y-124077D01*
X257058Y-123050D01*
X257058Y-123035D01*
X257058Y-123005D01*
X257058Y-122946D01*
X257073Y-122886D01*
X257088Y-122708D01*
X257132Y-122514D01*
X257207Y-122291D01*
X257311Y-122098D01*
X257370Y-122023D01*
X257460Y-121949D01*
X257549Y-121889D01*
X257653Y-121845D01*
X257668Y-121845D01*
X257683Y-121830D01*
X257772Y-121815D01*
X257921Y-121800D01*
X259380Y-121800D01*
X259469Y-121815D01*
X259469Y-121815D02*
G37*
G36*
X252400Y-121815D02*
X252579Y-121815D01*
X252727Y-121830D01*
X252861Y-121845D01*
X252906Y-121859D01*
X252936Y-121874D01*
X252951Y-121874D01*
X252965Y-121904D01*
X252995Y-121949D01*
X253040Y-122023D01*
X253070Y-122127D01*
X253099Y-122276D01*
X253114Y-122455D01*
X253129Y-122693D01*
X251224Y-122693D01*
X251150Y-122708D01*
X251046Y-122752D01*
X250942Y-122827D01*
X250927Y-122857D01*
X250912Y-122886D01*
X250882Y-122946D01*
X250867Y-123020D01*
X250837Y-123110D01*
X250822Y-123229D01*
X250822Y-123377D01*
X250822Y-123764D01*
X250822Y-123779D01*
X250822Y-123824D01*
X250822Y-123898D01*
X250837Y-123973D01*
X250852Y-124151D01*
X250867Y-124226D01*
X250882Y-124285D01*
X250897Y-124315D01*
X250956Y-124360D01*
X251075Y-124419D01*
X251150Y-124434D01*
X251239Y-124449D01*
X253174Y-124449D01*
X253174Y-124464D01*
X253174Y-124523D01*
X253174Y-124613D01*
X253159Y-124717D01*
X253129Y-124940D01*
X253099Y-125029D01*
X253070Y-125104D01*
X253070Y-125119D01*
X253040Y-125133D01*
X252995Y-125178D01*
X252936Y-125208D01*
X252861Y-125253D01*
X252742Y-125297D01*
X252608Y-125312D01*
X252430Y-125327D01*
X251031Y-125327D01*
X250927Y-125312D01*
X250808Y-125297D01*
X250659Y-125253D01*
X250525Y-125208D01*
X250406Y-125133D01*
X250302Y-125044D01*
X250287Y-125029D01*
X250272Y-124985D01*
X250227Y-124925D01*
X250183Y-124821D01*
X250138Y-124687D01*
X250108Y-124523D01*
X250078Y-124315D01*
X250063Y-124077D01*
X250063Y-123050D01*
X250063Y-123035D01*
X250063Y-123005D01*
X250063Y-122946D01*
X250078Y-122871D01*
X250108Y-122693D01*
X250153Y-122470D01*
X250242Y-122261D01*
X250361Y-122053D01*
X250450Y-121979D01*
X250540Y-121904D01*
X250659Y-121845D01*
X250778Y-121815D01*
X250808Y-121815D01*
X250867Y-121800D01*
X252236Y-121800D01*
X252400Y-121815D01*
X252400Y-121815D02*
G37*
%LPC*%
G36*
X68676Y29295D02*
X68498Y29260D01*
X68347Y29159D01*
X68327Y29130D01*
X68245Y29185D01*
X68067Y29220D01*
X67888Y29185D01*
X67737Y29084D01*
X67636Y28933D01*
X67601Y28754D01*
X67636Y28576D01*
X67737Y28425D01*
X67888Y28324D01*
X68067Y28288D01*
X68245Y28324D01*
X68396Y28425D01*
X68416Y28454D01*
X68498Y28398D01*
X68676Y28363D01*
X68855Y28398D01*
X69006Y28500D01*
X69107Y28651D01*
X69142Y28829D01*
X69107Y29008D01*
X69006Y29159D01*
X68855Y29260D01*
X68676Y29295D01*
X68676Y29295D02*
G37*
G36*
X60537Y29321D02*
X60359Y29285D01*
X60208Y29184D01*
X60107Y29033D01*
X60071Y28854D01*
X60107Y28676D01*
X60208Y28525D01*
X60359Y28424D01*
X60537Y28388D01*
X60716Y28424D01*
X60867Y28525D01*
X60968Y28676D01*
X61004Y28854D01*
X60968Y29033D01*
X60867Y29184D01*
X60716Y29285D01*
X60537Y29321D01*
X60537Y29321D02*
G37*
G36*
X62800Y29221D02*
X62621Y29185D01*
X62470Y29084D01*
X62369Y28933D01*
X62334Y28754D01*
X62369Y28576D01*
X62470Y28425D01*
X62621Y28324D01*
X62800Y28288D01*
X62978Y28324D01*
X63130Y28425D01*
X63231Y28576D01*
X63266Y28754D01*
X63231Y28933D01*
X63130Y29084D01*
X62978Y29185D01*
X62800Y29221D01*
X62800Y29221D02*
G37*
G36*
X14681Y29368D02*
X14509Y29345D01*
X14348Y29279D01*
X14210Y29173D01*
X14104Y29035D01*
X14038Y28874D01*
X14015Y28702D01*
X14038Y28530D01*
X14104Y28369D01*
X14123Y28345D01*
X14095Y28176D01*
X14076Y28165D01*
X13996Y28218D01*
X13818Y28254D01*
X13639Y28218D01*
X13488Y28117D01*
X13387Y27966D01*
X13351Y27788D01*
X13387Y27609D01*
X13488Y27458D01*
X13639Y27357D01*
X13818Y27321D01*
X13996Y27357D01*
X14147Y27458D01*
X14212Y27458D01*
X14363Y27357D01*
X14542Y27321D01*
X14720Y27357D01*
X14871Y27458D01*
X14972Y27609D01*
X15008Y27788D01*
X14972Y27966D01*
X14954Y27994D01*
X14990Y28115D01*
X15014Y28125D01*
X15152Y28231D01*
X15258Y28369D01*
X15325Y28530D01*
X15347Y28702D01*
X15325Y28874D01*
X15258Y29035D01*
X15152Y29173D01*
X15014Y29279D01*
X14854Y29345D01*
X14681Y29368D01*
X14681Y29368D02*
G37*
G36*
X12903Y29368D02*
X12731Y29345D01*
X12570Y29279D01*
X12432Y29173D01*
X12326Y29035D01*
X12260Y28874D01*
X12237Y28702D01*
X12260Y28530D01*
X12326Y28369D01*
X12432Y28231D01*
X12570Y28125D01*
X12731Y28059D01*
X12903Y28036D01*
X13076Y28059D01*
X13236Y28125D01*
X13374Y28231D01*
X13480Y28369D01*
X13547Y28530D01*
X13569Y28702D01*
X13547Y28874D01*
X13480Y29035D01*
X13374Y29173D01*
X13236Y29279D01*
X13076Y29345D01*
X12903Y29368D01*
X12903Y29368D02*
G37*
G36*
X33180Y28640D02*
X33002Y28605D01*
X32850Y28504D01*
X32749Y28353D01*
X32714Y28174D01*
X32749Y27996D01*
X32850Y27845D01*
X33002Y27744D01*
X33180Y27708D01*
X33358Y27744D01*
X33501Y27839D01*
X33652Y27739D01*
X33830Y27703D01*
X34008Y27739D01*
X34160Y27840D01*
X34261Y27991D01*
X34296Y28169D01*
X34261Y28348D01*
X34160Y28499D01*
X34008Y28600D01*
X33830Y28635D01*
X33652Y28600D01*
X33509Y28504D01*
X33358Y28605D01*
X33180Y28640D01*
X33180Y28640D02*
G37*
G36*
X43815Y27716D02*
X43637Y27680D01*
X43504Y27591D01*
X43395Y27545D01*
X43090Y27431D01*
X42824Y27466D01*
X42559Y27431D01*
X42312Y27329D01*
X42100Y27166D01*
X41937Y26954D01*
X41835Y26707D01*
X41800Y26441D01*
X41835Y26176D01*
X41923Y25963D01*
X41906Y25932D01*
X41755Y25831D01*
X41654Y25680D01*
X41619Y25501D01*
X41654Y25323D01*
X41755Y25172D01*
X41906Y25071D01*
X42085Y25035D01*
X42263Y25071D01*
X42414Y25172D01*
X42515Y25323D01*
X42539Y25441D01*
X42559Y25452D01*
X42824Y25417D01*
X43090Y25452D01*
X43337Y25554D01*
X43549Y25717D01*
X43712Y25929D01*
X43814Y26176D01*
X43849Y26441D01*
X43957Y26615D01*
X43957Y26615D01*
X43957Y26615D01*
X44145Y26920D01*
X44246Y27071D01*
X44281Y27250D01*
X44246Y27428D01*
X44145Y27579D01*
X43993Y27680D01*
X43815Y27716D01*
X43815Y27716D02*
G37*
G36*
X51435Y27716D02*
X51257Y27680D01*
X51105Y27579D01*
X51004Y27428D01*
X50863Y27368D01*
X50710Y27431D01*
X50444Y27466D01*
X50179Y27431D01*
X49932Y27329D01*
X49720Y27166D01*
X49557Y26954D01*
X49455Y26707D01*
X49420Y26441D01*
X49455Y26176D01*
X49557Y25929D01*
X49720Y25717D01*
X49932Y25554D01*
X50179Y25452D01*
X50444Y25417D01*
X50710Y25452D01*
X50957Y25554D01*
X51169Y25717D01*
X51332Y25929D01*
X51434Y26176D01*
X51469Y26441D01*
X51440Y26665D01*
X51438Y26710D01*
X51532Y26803D01*
X51613Y26819D01*
X51765Y26920D01*
X51866Y27071D01*
X51901Y27250D01*
X51866Y27428D01*
X51765Y27579D01*
X51613Y27680D01*
X51435Y27716D01*
X51435Y27716D02*
G37*
G36*
X48895Y27716D02*
X48717Y27680D01*
X48565Y27579D01*
X48464Y27428D01*
X48323Y27368D01*
X48170Y27431D01*
X47904Y27466D01*
X47639Y27431D01*
X47392Y27329D01*
X47180Y27166D01*
X47017Y26954D01*
X46915Y26707D01*
X46880Y26441D01*
X46915Y26176D01*
X47017Y25929D01*
X47180Y25717D01*
X47392Y25554D01*
X47639Y25452D01*
X47904Y25417D01*
X48170Y25452D01*
X48417Y25554D01*
X48629Y25717D01*
X48792Y25929D01*
X48894Y26176D01*
X48929Y26441D01*
X48900Y26665D01*
X48898Y26710D01*
X48992Y26803D01*
X49073Y26819D01*
X49225Y26920D01*
X49326Y27071D01*
X49361Y27250D01*
X49326Y27428D01*
X49225Y27579D01*
X49073Y27680D01*
X48895Y27716D01*
X48895Y27716D02*
G37*
G36*
X46355Y27704D02*
X46177Y27669D01*
X46025Y27567D01*
X45924Y27416D01*
X45785Y27367D01*
X45630Y27431D01*
X45364Y27466D01*
X45099Y27431D01*
X44852Y27329D01*
X44640Y27166D01*
X44477Y26954D01*
X44375Y26707D01*
X44340Y26441D01*
X44375Y26176D01*
X44477Y25929D01*
X44640Y25717D01*
X44852Y25554D01*
X45099Y25452D01*
X45364Y25417D01*
X45630Y25452D01*
X45877Y25554D01*
X46089Y25717D01*
X46252Y25929D01*
X46354Y26176D01*
X46389Y26441D01*
X46361Y26653D01*
X46358Y26710D01*
X46456Y26792D01*
X46533Y26807D01*
X46685Y26908D01*
X46786Y27059D01*
X46821Y27238D01*
X46786Y27416D01*
X46685Y27567D01*
X46533Y27669D01*
X46355Y27704D01*
X46355Y27704D02*
G37*
G36*
X72284Y28933D02*
X72105Y28897D01*
X71954Y28796D01*
X71853Y28645D01*
X71818Y28467D01*
X71853Y28288D01*
X71954Y28137D01*
X72002Y28105D01*
X72002Y27978D01*
X71954Y27946D01*
X71853Y27795D01*
X71818Y27617D01*
X71853Y27438D01*
X71954Y27287D01*
X72105Y27186D01*
X72284Y27150D01*
X72462Y27186D01*
X72613Y27287D01*
X72714Y27438D01*
X72750Y27617D01*
X72714Y27795D01*
X72613Y27946D01*
X72566Y27978D01*
X72566Y28105D01*
X72613Y28137D01*
X72714Y28288D01*
X72750Y28467D01*
X72714Y28645D01*
X72613Y28796D01*
X72462Y28897D01*
X72284Y28933D01*
X72284Y28933D02*
G37*
G36*
X20146Y29349D02*
X19042Y29349D01*
X18490Y28797D01*
X18490Y27693D01*
X19042Y27141D01*
X20146Y27141D01*
X20698Y27693D01*
X20698Y28797D01*
X20146Y29349D01*
X20146Y29349D02*
G37*
G36*
X8697Y29349D02*
X7593Y29349D01*
X7041Y28797D01*
X7041Y27693D01*
X7593Y27141D01*
X8697Y27141D01*
X9249Y27693D01*
X9249Y28797D01*
X8697Y29349D01*
X8697Y29349D02*
G37*
G36*
X17054Y29358D02*
X16766Y29320D01*
X16497Y29209D01*
X16267Y29032D01*
X16090Y28801D01*
X15978Y28533D01*
X15940Y28245D01*
X15978Y27956D01*
X16090Y27688D01*
X16267Y27457D01*
X16497Y27280D01*
X16766Y27169D01*
X17054Y27131D01*
X17342Y27169D01*
X17611Y27280D01*
X17841Y27457D01*
X18018Y27688D01*
X18130Y27956D01*
X18168Y28245D01*
X18130Y28533D01*
X18018Y28801D01*
X17841Y29032D01*
X17611Y29209D01*
X17342Y29320D01*
X17054Y29358D01*
X17054Y29358D02*
G37*
G36*
X22935Y27864D02*
X22756Y27828D01*
X22605Y27727D01*
X22504Y27576D01*
X22469Y27398D01*
X22504Y27219D01*
X22605Y27068D01*
X22756Y26967D01*
X22935Y26932D01*
X23113Y26967D01*
X23264Y27068D01*
X23365Y27219D01*
X23401Y27398D01*
X23365Y27576D01*
X23264Y27727D01*
X23113Y27828D01*
X22935Y27864D01*
X22935Y27864D02*
G37*
G36*
X24320Y27446D02*
X24141Y27411D01*
X23990Y27310D01*
X23889Y27158D01*
X23854Y26980D01*
X23889Y26802D01*
X23990Y26650D01*
X24141Y26549D01*
X24320Y26514D01*
X24498Y26549D01*
X24649Y26650D01*
X24751Y26802D01*
X24786Y26980D01*
X24751Y27158D01*
X24649Y27310D01*
X24498Y27411D01*
X24320Y27446D01*
X24320Y27446D02*
G37*
G36*
X58499Y27162D02*
X58321Y27127D01*
X58169Y27026D01*
X58068Y26874D01*
X58033Y26696D01*
X58068Y26518D01*
X58169Y26366D01*
X58321Y26265D01*
X58499Y26230D01*
X58677Y26265D01*
X58829Y26366D01*
X58930Y26518D01*
X58965Y26696D01*
X58930Y26874D01*
X58829Y27026D01*
X58677Y27127D01*
X58499Y27162D01*
X58499Y27162D02*
G37*
G36*
X70161Y27171D02*
X69982Y27135D01*
X69831Y27034D01*
X69730Y26883D01*
X69695Y26704D01*
X69730Y26526D01*
X69831Y26375D01*
X69982Y26274D01*
X70161Y26238D01*
X70339Y26274D01*
X70490Y26375D01*
X70565Y26486D01*
X70699Y26463D01*
X70708Y26415D01*
X70809Y26264D01*
X70960Y26163D01*
X71139Y26127D01*
X71317Y26163D01*
X71468Y26264D01*
X71569Y26415D01*
X71605Y26594D01*
X71569Y26772D01*
X71468Y26923D01*
X71317Y27024D01*
X71139Y27060D01*
X70960Y27024D01*
X70809Y26923D01*
X70735Y26812D01*
X70601Y26835D01*
X70591Y26883D01*
X70490Y27034D01*
X70339Y27135D01*
X70161Y27171D01*
X70161Y27171D02*
G37*
G36*
X21768Y26908D02*
X21589Y26872D01*
X21438Y26771D01*
X21337Y26620D01*
X21302Y26441D01*
X21337Y26263D01*
X21438Y26112D01*
X21589Y26011D01*
X21768Y25975D01*
X21946Y26011D01*
X22097Y26112D01*
X22198Y26263D01*
X22234Y26441D01*
X22198Y26620D01*
X22097Y26771D01*
X21946Y26872D01*
X21768Y26908D01*
X21768Y26908D02*
G37*
G36*
X17120Y26755D02*
X16941Y26720D01*
X16790Y26619D01*
X16689Y26467D01*
X16653Y26289D01*
X16689Y26111D01*
X16790Y25959D01*
X16941Y25858D01*
X17120Y25823D01*
X17298Y25858D01*
X17449Y25959D01*
X17550Y26111D01*
X17586Y26289D01*
X17550Y26467D01*
X17449Y26619D01*
X17298Y26720D01*
X17120Y26755D01*
X17120Y26755D02*
G37*
G36*
X29210Y26628D02*
X29032Y26593D01*
X28880Y26492D01*
X28779Y26340D01*
X28744Y26162D01*
X28779Y25984D01*
X28880Y25832D01*
X29032Y25731D01*
X29210Y25696D01*
X29388Y25731D01*
X29540Y25832D01*
X29641Y25984D01*
X29676Y26162D01*
X29641Y26340D01*
X29540Y26492D01*
X29388Y26593D01*
X29210Y26628D01*
X29210Y26628D02*
G37*
G36*
X15926Y27111D02*
X15747Y27075D01*
X15596Y26974D01*
X15495Y26823D01*
X15460Y26645D01*
X15495Y26466D01*
X15596Y26315D01*
X15644Y26283D01*
X15546Y26137D01*
X15511Y25959D01*
X15546Y25780D01*
X15647Y25629D01*
X15799Y25528D01*
X15977Y25493D01*
X16155Y25528D01*
X16307Y25629D01*
X16408Y25780D01*
X16443Y25959D01*
X16408Y26137D01*
X16307Y26288D01*
X16259Y26320D01*
X16356Y26466D01*
X16392Y26645D01*
X16356Y26823D01*
X16255Y26974D01*
X16104Y27075D01*
X15926Y27111D01*
X15926Y27111D02*
G37*
G36*
X13030Y27111D02*
X12852Y27075D01*
X12701Y26974D01*
X12600Y26823D01*
X12564Y26645D01*
X12600Y26466D01*
X12575Y26408D01*
X12484Y26389D01*
X12332Y26288D01*
X12231Y26137D01*
X12196Y25959D01*
X12231Y25780D01*
X12332Y25629D01*
X12484Y25528D01*
X12662Y25493D01*
X12840Y25528D01*
X12992Y25629D01*
X13093Y25780D01*
X13128Y25959D01*
X13093Y26137D01*
X13117Y26196D01*
X13209Y26214D01*
X13360Y26315D01*
X13461Y26466D01*
X13496Y26645D01*
X13461Y26823D01*
X13360Y26974D01*
X13209Y27075D01*
X13030Y27111D01*
X13030Y27111D02*
G37*
G36*
X11589Y26425D02*
X11411Y26389D01*
X11259Y26288D01*
X11158Y26137D01*
X11123Y25959D01*
X11158Y25780D01*
X11259Y25629D01*
X11411Y25528D01*
X11589Y25493D01*
X11767Y25528D01*
X11919Y25629D01*
X12020Y25780D01*
X12055Y25959D01*
X12020Y26137D01*
X11919Y26288D01*
X11767Y26389D01*
X11589Y26425D01*
X11589Y26425D02*
G37*
G36*
X10516Y26425D02*
X10338Y26389D01*
X10186Y26288D01*
X10085Y26137D01*
X10050Y25959D01*
X10085Y25780D01*
X10186Y25629D01*
X10338Y25528D01*
X10516Y25493D01*
X10694Y25528D01*
X10846Y25629D01*
X10947Y25780D01*
X10982Y25959D01*
X10947Y26137D01*
X10846Y26288D01*
X10694Y26389D01*
X10516Y26425D01*
X10516Y26425D02*
G37*
G36*
X56540Y27457D02*
X54508Y27457D01*
X54508Y25425D01*
X56540Y25425D01*
X56540Y27457D01*
X56540Y27457D02*
G37*
G36*
X40284Y27466D02*
X40019Y27431D01*
X39772Y27329D01*
X39560Y27166D01*
X39397Y26954D01*
X39295Y26707D01*
X39260Y26441D01*
X39295Y26176D01*
X39397Y25929D01*
X39560Y25717D01*
X39772Y25554D01*
X40019Y25452D01*
X40284Y25417D01*
X40550Y25452D01*
X40797Y25554D01*
X41009Y25717D01*
X41172Y25929D01*
X41274Y26176D01*
X41309Y26441D01*
X41274Y26707D01*
X41172Y26954D01*
X41009Y27166D01*
X40797Y27329D01*
X40550Y27431D01*
X40284Y27466D01*
X40284Y27466D02*
G37*
G36*
X64359Y26717D02*
X64160Y26678D01*
X63992Y26565D01*
X63880Y26397D01*
X63855Y26273D01*
X63721Y26247D01*
X63553Y26134D01*
X63440Y25966D01*
X63401Y25768D01*
X63440Y25570D01*
X63553Y25402D01*
X63721Y25289D01*
X63919Y25250D01*
X64117Y25289D01*
X64285Y25402D01*
X64397Y25570D01*
X64422Y25694D01*
X64557Y25721D01*
X64725Y25833D01*
X64837Y26001D01*
X64877Y26199D01*
X64837Y26397D01*
X64725Y26565D01*
X64557Y26678D01*
X64359Y26717D01*
X64359Y26717D02*
G37*
G36*
X72771Y26045D02*
X72573Y26006D01*
X72405Y25893D01*
X72292Y25725D01*
X72253Y25527D01*
X72292Y25329D01*
X72405Y25161D01*
X72573Y25048D01*
X72771Y25009D01*
X72969Y25048D01*
X73137Y25161D01*
X73250Y25329D01*
X73289Y25527D01*
X73250Y25725D01*
X73137Y25893D01*
X72969Y26006D01*
X72771Y26045D01*
X72771Y26045D02*
G37*
G36*
X52984Y27466D02*
X52719Y27431D01*
X52472Y27329D01*
X52260Y27166D01*
X52097Y26954D01*
X51995Y26707D01*
X51960Y26441D01*
X51995Y26176D01*
X52097Y25929D01*
X52260Y25717D01*
X52472Y25554D01*
X52719Y25452D01*
X52984Y25417D01*
X53130Y25436D01*
X53249Y25440D01*
X53285Y25261D01*
X53386Y25110D01*
X53537Y25009D01*
X53715Y24973D01*
X53894Y25009D01*
X54045Y25110D01*
X54146Y25261D01*
X54182Y25440D01*
X54146Y25618D01*
X54045Y25769D01*
X53955Y25829D01*
X53895Y25901D01*
X53901Y25998D01*
X53974Y26176D01*
X54009Y26441D01*
X53974Y26707D01*
X53872Y26954D01*
X53709Y27166D01*
X53497Y27329D01*
X53250Y27431D01*
X52984Y27466D01*
X52984Y27466D02*
G37*
G36*
X57948Y25096D02*
X57770Y25061D01*
X57618Y24960D01*
X57517Y24808D01*
X57482Y24630D01*
X57517Y24452D01*
X57618Y24300D01*
X57770Y24199D01*
X57948Y24164D01*
X58126Y24199D01*
X58278Y24300D01*
X58379Y24452D01*
X58414Y24630D01*
X58379Y24808D01*
X58278Y24960D01*
X58126Y25061D01*
X57948Y25096D01*
X57948Y25096D02*
G37*
G36*
X72908Y24054D02*
X72709Y24014D01*
X72606Y23945D01*
X72502Y24014D01*
X72304Y24054D01*
X72105Y24014D01*
X71937Y23902D01*
X71825Y23734D01*
X71786Y23536D01*
X71825Y23337D01*
X71937Y23169D01*
X72105Y23057D01*
X72304Y23018D01*
X72502Y23057D01*
X72606Y23126D01*
X72709Y23057D01*
X72908Y23018D01*
X73106Y23057D01*
X73274Y23169D01*
X73386Y23337D01*
X73425Y23536D01*
X73386Y23734D01*
X73274Y23902D01*
X73106Y24014D01*
X72908Y24054D01*
X72908Y24054D02*
G37*
G36*
X30044Y24516D02*
X29865Y24481D01*
X29714Y24380D01*
X29613Y24229D01*
X29578Y24050D01*
X29613Y23872D01*
X29714Y23721D01*
X29865Y23620D01*
X30044Y23584D01*
X30222Y23620D01*
X30373Y23721D01*
X30474Y23872D01*
X30510Y24050D01*
X30474Y24229D01*
X30373Y24380D01*
X30222Y24481D01*
X30044Y24516D01*
X30044Y24516D02*
G37*
G36*
X60209Y23649D02*
X60010Y23610D01*
X59842Y23498D01*
X59832Y23483D01*
X59704Y23473D01*
X59542Y23581D01*
X59344Y23621D01*
X59146Y23581D01*
X58978Y23469D01*
X58865Y23301D01*
X58826Y23103D01*
X58865Y22905D01*
X58919Y22824D01*
X58865Y22742D01*
X58826Y22544D01*
X58865Y22346D01*
X58978Y22178D01*
X59146Y22066D01*
X59344Y22026D01*
X59542Y22066D01*
X59710Y22178D01*
X59720Y22193D01*
X59848Y22203D01*
X60010Y22094D01*
X60209Y22055D01*
X60407Y22094D01*
X60575Y22206D01*
X60687Y22374D01*
X60727Y22573D01*
X60687Y22771D01*
X60633Y22852D01*
X60687Y22933D01*
X60727Y23131D01*
X60687Y23330D01*
X60575Y23498D01*
X60407Y23610D01*
X60209Y23649D01*
X60209Y23649D02*
G37*
G36*
X55188Y24368D02*
X55009Y24332D01*
X54858Y24231D01*
X54757Y24080D01*
X54721Y23901D01*
X54757Y23723D01*
X54858Y23572D01*
X55009Y23471D01*
X55188Y23435D01*
X55366Y23471D01*
X55517Y23572D01*
X55618Y23723D01*
X55654Y23901D01*
X55618Y24080D01*
X55517Y24231D01*
X55366Y24332D01*
X55188Y24368D01*
X55188Y24368D02*
G37*
G36*
X23875Y24219D02*
X23697Y24184D01*
X23546Y24083D01*
X23444Y23931D01*
X23409Y23753D01*
X23444Y23575D01*
X23546Y23423D01*
X23697Y23322D01*
X23875Y23287D01*
X24054Y23322D01*
X24205Y23423D01*
X24306Y23575D01*
X24341Y23753D01*
X24306Y23931D01*
X24205Y24083D01*
X24054Y24184D01*
X23875Y24219D01*
X23875Y24219D02*
G37*
G36*
X40894Y23860D02*
X40716Y23824D01*
X40564Y23723D01*
X40463Y23572D01*
X40428Y23393D01*
X40463Y23215D01*
X40564Y23064D01*
X40716Y22963D01*
X40894Y22927D01*
X41072Y22963D01*
X41224Y23064D01*
X41325Y23215D01*
X41360Y23393D01*
X41325Y23572D01*
X41224Y23723D01*
X41072Y23824D01*
X40894Y23860D01*
X40894Y23860D02*
G37*
G36*
X70971Y23631D02*
X70793Y23595D01*
X70641Y23494D01*
X70540Y23343D01*
X70505Y23165D01*
X70540Y22986D01*
X70641Y22835D01*
X70793Y22734D01*
X70971Y22699D01*
X71149Y22734D01*
X71301Y22835D01*
X71402Y22986D01*
X71437Y23165D01*
X71402Y23343D01*
X71301Y23494D01*
X71149Y23595D01*
X70971Y23631D01*
X70971Y23631D02*
G37*
G36*
X54118Y23700D02*
X53920Y23660D01*
X53752Y23548D01*
X53639Y23380D01*
X53600Y23182D01*
X53639Y22984D01*
X53752Y22815D01*
X53920Y22703D01*
X54118Y22664D01*
X54316Y22703D01*
X54484Y22815D01*
X54596Y22984D01*
X54636Y23182D01*
X54596Y23380D01*
X54484Y23548D01*
X54316Y23660D01*
X54118Y23700D01*
X54118Y23700D02*
G37*
G36*
X20463Y24125D02*
X20317Y24105D01*
X20181Y24049D01*
X20064Y23960D01*
X19975Y23843D01*
X19919Y23707D01*
X19899Y23561D01*
X19919Y23415D01*
X19975Y23279D01*
X20064Y23162D01*
X20168Y23083D01*
X20182Y23067D01*
X20201Y22927D01*
X20159Y22873D01*
X20103Y22737D01*
X20084Y22591D01*
X20103Y22445D01*
X20159Y22309D01*
X20249Y22193D01*
X20366Y22103D01*
X20502Y22047D01*
X20648Y22028D01*
X20793Y22047D01*
X20929Y22103D01*
X21046Y22193D01*
X21136Y22309D01*
X21192Y22445D01*
X21211Y22591D01*
X21192Y22737D01*
X21136Y22873D01*
X21046Y22990D01*
X20943Y23069D01*
X20929Y23086D01*
X20910Y23225D01*
X20951Y23279D01*
X21007Y23415D01*
X21027Y23561D01*
X21007Y23707D01*
X20951Y23843D01*
X20862Y23960D01*
X20745Y24049D01*
X20609Y24105D01*
X20463Y24125D01*
X20463Y24125D02*
G37*
G36*
X69757Y23348D02*
X69585Y23325D01*
X69424Y23259D01*
X69286Y23153D01*
X69180Y23015D01*
X69114Y22854D01*
X69091Y22682D01*
X69114Y22510D01*
X69180Y22349D01*
X69286Y22211D01*
X69424Y22105D01*
X69585Y22039D01*
X69757Y22016D01*
X69930Y22039D01*
X70090Y22105D01*
X70228Y22211D01*
X70334Y22349D01*
X70401Y22510D01*
X70423Y22682D01*
X70401Y22854D01*
X70334Y23015D01*
X70228Y23153D01*
X70090Y23259D01*
X69930Y23325D01*
X69757Y23348D01*
X69757Y23348D02*
G37*
G36*
X38684Y22718D02*
X38486Y22678D01*
X38318Y22566D01*
X38206Y22398D01*
X38166Y22200D01*
X38206Y22001D01*
X38318Y21833D01*
X38486Y21721D01*
X38684Y21682D01*
X38882Y21721D01*
X39050Y21833D01*
X39163Y22001D01*
X39202Y22200D01*
X39163Y22398D01*
X39050Y22566D01*
X38882Y22678D01*
X38684Y22718D01*
X38684Y22718D02*
G37*
G36*
X30331Y22310D02*
X30153Y22275D01*
X30002Y22174D01*
X29901Y22022D01*
X29865Y21844D01*
X29901Y21666D01*
X30002Y21514D01*
X30153Y21413D01*
X30331Y21378D01*
X30510Y21413D01*
X30661Y21514D01*
X30762Y21666D01*
X30798Y21844D01*
X30762Y22022D01*
X30661Y22174D01*
X30510Y22275D01*
X30331Y22310D01*
X30331Y22310D02*
G37*
G36*
X58217Y21775D02*
X58068Y21746D01*
X57942Y21661D01*
X57858Y21535D01*
X57845Y21470D01*
X57845Y21469D01*
X57712Y21378D01*
X57707Y21378D01*
X57669Y21385D01*
X57540Y21360D01*
X57431Y21287D01*
X57358Y21177D01*
X57332Y21049D01*
X57358Y20920D01*
X57431Y20811D01*
X57540Y20738D01*
X57669Y20712D01*
X57797Y20738D01*
X57907Y20811D01*
X57980Y20920D01*
X57982Y20933D01*
X58068Y21028D01*
X58217Y20998D01*
X58365Y21028D01*
X58491Y21112D01*
X58576Y21238D01*
X58605Y21387D01*
X58576Y21535D01*
X58491Y21661D01*
X58365Y21746D01*
X58217Y21775D01*
X58217Y21775D02*
G37*
G36*
X51446Y22046D02*
X51317Y22020D01*
X51208Y21947D01*
X51135Y21838D01*
X51109Y21709D01*
X51135Y21580D01*
X51208Y21471D01*
X51317Y21398D01*
X51446Y21372D01*
X51574Y21398D01*
X51684Y21471D01*
X51757Y21580D01*
X51782Y21709D01*
X51757Y21838D01*
X51684Y21947D01*
X51574Y22020D01*
X51446Y22046D01*
X51446Y22046D02*
G37*
G36*
X67535Y23367D02*
X65427Y23367D01*
X65427Y21259D01*
X67535Y21259D01*
X67535Y23367D01*
X67535Y23367D02*
G37*
G36*
X28236Y22125D02*
X28058Y22090D01*
X27906Y21989D01*
X27805Y21838D01*
X27770Y21659D01*
X27805Y21481D01*
X27906Y21330D01*
X28058Y21229D01*
X28236Y21193D01*
X28414Y21229D01*
X28566Y21330D01*
X28667Y21481D01*
X28702Y21659D01*
X28667Y21838D01*
X28566Y21989D01*
X28414Y22090D01*
X28236Y22125D01*
X28236Y22125D02*
G37*
G36*
X56424Y21792D02*
X56295Y21766D01*
X56186Y21693D01*
X56113Y21584D01*
X56087Y21455D01*
X56113Y21326D01*
X56186Y21217D01*
X56295Y21144D01*
X56424Y21118D01*
X56553Y21144D01*
X56662Y21217D01*
X56735Y21326D01*
X56761Y21455D01*
X56735Y21584D01*
X56662Y21693D01*
X56553Y21766D01*
X56424Y21792D01*
X56424Y21792D02*
G37*
G36*
X45781Y21870D02*
X45603Y21835D01*
X45452Y21734D01*
X45351Y21583D01*
X45315Y21404D01*
X45351Y21226D01*
X45452Y21075D01*
X45603Y20974D01*
X45781Y20938D01*
X45960Y20974D01*
X46111Y21075D01*
X46212Y21226D01*
X46248Y21404D01*
X46212Y21583D01*
X46111Y21734D01*
X45960Y21835D01*
X45781Y21870D01*
X45781Y21870D02*
G37*
G36*
X64730Y20957D02*
X64532Y20918D01*
X64450Y20863D01*
X64369Y20918D01*
X64171Y20957D01*
X63973Y20918D01*
X63805Y20805D01*
X63692Y20637D01*
X63653Y20439D01*
X63672Y20343D01*
X63639Y20226D01*
X63579Y20209D01*
X63439Y20181D01*
X63271Y20069D01*
X63159Y19901D01*
X63120Y19702D01*
X63159Y19504D01*
X63213Y19423D01*
X63159Y19342D01*
X63120Y19144D01*
X63159Y18945D01*
X63271Y18777D01*
X63439Y18665D01*
X63638Y18626D01*
X63836Y18665D01*
X64004Y18777D01*
X64116Y18945D01*
X64156Y19144D01*
X64116Y19342D01*
X64062Y19423D01*
X64116Y19504D01*
X64156Y19702D01*
X64136Y19798D01*
X64170Y19916D01*
X64229Y19933D01*
X64369Y19960D01*
X64450Y20015D01*
X64532Y19960D01*
X64730Y19921D01*
X64928Y19960D01*
X65096Y20073D01*
X65208Y20241D01*
X65248Y20439D01*
X65208Y20637D01*
X65096Y20805D01*
X64928Y20918D01*
X64730Y20957D01*
X64730Y20957D02*
G37*
G36*
X71587Y21854D02*
X71389Y21815D01*
X71221Y21702D01*
X71109Y21534D01*
X71069Y21336D01*
X71109Y21138D01*
X71221Y20970D01*
X71389Y20858D01*
X71587Y20818D01*
X71785Y20858D01*
X71953Y20970D01*
X72066Y21138D01*
X72105Y21336D01*
X72066Y21534D01*
X71953Y21702D01*
X71785Y21815D01*
X71587Y21854D01*
X71587Y21854D02*
G37*
G36*
X49820Y21385D02*
X49691Y21360D01*
X49582Y21287D01*
X49509Y21177D01*
X49483Y21049D01*
X49509Y20920D01*
X49582Y20811D01*
X49691Y20738D01*
X49820Y20712D01*
X49949Y20738D01*
X50058Y20811D01*
X50131Y20920D01*
X50157Y21049D01*
X50131Y21177D01*
X50058Y21287D01*
X49949Y21360D01*
X49820Y21385D01*
X49820Y21385D02*
G37*
G36*
X68515Y21736D02*
X68316Y21697D01*
X68148Y21584D01*
X68036Y21416D01*
X67997Y21218D01*
X68036Y21020D01*
X68148Y20852D01*
X68316Y20740D01*
X68515Y20700D01*
X68713Y20740D01*
X68881Y20852D01*
X68993Y21020D01*
X69033Y21218D01*
X68993Y21416D01*
X68881Y21584D01*
X68713Y21697D01*
X68515Y21736D01*
X68515Y21736D02*
G37*
G36*
X53046Y22015D02*
X52917Y21990D01*
X52808Y21917D01*
X52735Y21808D01*
X52709Y21679D01*
X52735Y21550D01*
X52808Y21441D01*
X52917Y21368D01*
X53046Y21342D01*
X53070Y21218D01*
X52975Y21199D01*
X52866Y21126D01*
X52793Y21017D01*
X52767Y20888D01*
X52793Y20759D01*
X52866Y20650D01*
X52975Y20577D01*
X53104Y20551D01*
X53233Y20577D01*
X53342Y20650D01*
X53415Y20759D01*
X53441Y20888D01*
X53415Y21017D01*
X53342Y21126D01*
X53233Y21199D01*
X53104Y21225D01*
X53080Y21349D01*
X53175Y21368D01*
X53284Y21441D01*
X53357Y21550D01*
X53382Y21679D01*
X53357Y21808D01*
X53284Y21917D01*
X53175Y21990D01*
X53046Y22015D01*
X53046Y22015D02*
G37*
G36*
X52304Y21225D02*
X52175Y21199D01*
X52066Y21126D01*
X51993Y21017D01*
X51967Y20888D01*
X51993Y20759D01*
X52066Y20650D01*
X52175Y20577D01*
X52304Y20551D01*
X52433Y20577D01*
X52542Y20650D01*
X52615Y20759D01*
X52641Y20888D01*
X52615Y21017D01*
X52542Y21126D01*
X52433Y21199D01*
X52304Y21225D01*
X52304Y21225D02*
G37*
G36*
X27128Y21829D02*
X26950Y21793D01*
X26799Y21692D01*
X26698Y21541D01*
X26662Y21363D01*
X26698Y21184D01*
X26799Y21033D01*
X26950Y20932D01*
X27064Y20909D01*
X27051Y20846D01*
X27087Y20668D01*
X27188Y20516D01*
X27339Y20415D01*
X27517Y20380D01*
X27696Y20415D01*
X27847Y20516D01*
X27948Y20668D01*
X27983Y20846D01*
X27948Y21024D01*
X27847Y21176D01*
X27696Y21277D01*
X27582Y21299D01*
X27594Y21363D01*
X27559Y21541D01*
X27458Y21692D01*
X27307Y21793D01*
X27128Y21829D01*
X27128Y21829D02*
G37*
G36*
X69569Y21101D02*
X69371Y21062D01*
X69203Y20950D01*
X69091Y20782D01*
X69051Y20583D01*
X69091Y20385D01*
X69203Y20217D01*
X69371Y20105D01*
X69569Y20065D01*
X69767Y20105D01*
X69935Y20217D01*
X70048Y20385D01*
X70087Y20583D01*
X70048Y20782D01*
X69935Y20950D01*
X69767Y21062D01*
X69569Y21101D01*
X69569Y21101D02*
G37*
G36*
X25046Y21091D02*
X24848Y21051D01*
X24680Y20939D01*
X24568Y20771D01*
X24528Y20573D01*
X24568Y20375D01*
X24680Y20206D01*
X24848Y20094D01*
X25046Y20055D01*
X25245Y20094D01*
X25413Y20206D01*
X25525Y20375D01*
X25564Y20573D01*
X25525Y20771D01*
X25413Y20939D01*
X25245Y21051D01*
X25046Y21091D01*
X25046Y21091D02*
G37*
G36*
X47277Y21034D02*
X47079Y20995D01*
X46911Y20882D01*
X46799Y20714D01*
X46759Y20516D01*
X46799Y20318D01*
X46911Y20150D01*
X47079Y20037D01*
X47277Y19998D01*
X47475Y20037D01*
X47643Y20150D01*
X47756Y20318D01*
X47795Y20516D01*
X47756Y20714D01*
X47643Y20882D01*
X47475Y20995D01*
X47277Y21034D01*
X47277Y21034D02*
G37*
G36*
X59909Y20889D02*
X59711Y20849D01*
X59543Y20737D01*
X59431Y20569D01*
X59391Y20371D01*
X59431Y20173D01*
X59543Y20005D01*
X59711Y19892D01*
X59909Y19853D01*
X60107Y19892D01*
X60275Y20005D01*
X60388Y20173D01*
X60427Y20371D01*
X60388Y20569D01*
X60275Y20737D01*
X60107Y20849D01*
X59909Y20889D01*
X59909Y20889D02*
G37*
G36*
X57104Y20425D02*
X56975Y20399D01*
X56866Y20326D01*
X56793Y20217D01*
X56767Y20088D01*
X56793Y19959D01*
X56866Y19850D01*
X56975Y19777D01*
X57104Y19751D01*
X57233Y19777D01*
X57342Y19850D01*
X57415Y19959D01*
X57441Y20088D01*
X57415Y20217D01*
X57342Y20326D01*
X57233Y20399D01*
X57104Y20425D01*
X57104Y20425D02*
G37*
G36*
X56304Y20425D02*
X56175Y20399D01*
X56066Y20326D01*
X55993Y20217D01*
X55967Y20088D01*
X55993Y19959D01*
X56066Y19850D01*
X56175Y19777D01*
X56304Y19751D01*
X56433Y19777D01*
X56542Y19850D01*
X56615Y19959D01*
X56641Y20088D01*
X56615Y20217D01*
X56542Y20326D01*
X56433Y20399D01*
X56304Y20425D01*
X56304Y20425D02*
G37*
G36*
X53904Y20425D02*
X53775Y20399D01*
X53666Y20326D01*
X53593Y20217D01*
X53567Y20088D01*
X53593Y19959D01*
X53666Y19850D01*
X53775Y19777D01*
X53904Y19751D01*
X54033Y19777D01*
X54142Y19850D01*
X54215Y19959D01*
X54241Y20088D01*
X54215Y20217D01*
X54142Y20326D01*
X54033Y20399D01*
X53904Y20425D01*
X53904Y20425D02*
G37*
G36*
X53104Y20425D02*
X52975Y20399D01*
X52866Y20326D01*
X52793Y20217D01*
X52767Y20088D01*
X52793Y19959D01*
X52866Y19850D01*
X52975Y19777D01*
X53104Y19751D01*
X53233Y19777D01*
X53342Y19850D01*
X53415Y19959D01*
X53441Y20088D01*
X53415Y20217D01*
X53342Y20326D01*
X53233Y20399D01*
X53104Y20425D01*
X53104Y20425D02*
G37*
G36*
X39573Y20431D02*
X39395Y20395D01*
X39244Y20294D01*
X39143Y20143D01*
X39107Y19964D01*
X39143Y19786D01*
X39244Y19635D01*
X39395Y19534D01*
X39573Y19498D01*
X39752Y19534D01*
X39903Y19635D01*
X40004Y19786D01*
X40039Y19964D01*
X40004Y20143D01*
X39903Y20294D01*
X39752Y20395D01*
X39573Y20431D01*
X39573Y20431D02*
G37*
G36*
X42139Y20508D02*
X41940Y20468D01*
X41772Y20356D01*
X41660Y20188D01*
X41621Y19990D01*
X41660Y19792D01*
X41772Y19624D01*
X41940Y19511D01*
X42139Y19472D01*
X42337Y19511D01*
X42505Y19624D01*
X42617Y19792D01*
X42657Y19990D01*
X42617Y20188D01*
X42505Y20356D01*
X42337Y20468D01*
X42139Y20508D01*
X42139Y20508D02*
G37*
G36*
X34453Y21338D02*
X34255Y21299D01*
X34087Y21186D01*
X33974Y21018D01*
X33935Y20820D01*
X33974Y20622D01*
X34076Y20469D01*
X34064Y20385D01*
X34046Y20328D01*
X33906Y20235D01*
X33805Y20084D01*
X33770Y19906D01*
X33805Y19727D01*
X33906Y19576D01*
X34057Y19475D01*
X34236Y19439D01*
X34414Y19475D01*
X34565Y19576D01*
X34667Y19727D01*
X34702Y19906D01*
X34667Y20084D01*
X34589Y20200D01*
X34625Y20336D01*
X34651Y20341D01*
X34819Y20454D01*
X34932Y20622D01*
X34971Y20820D01*
X34932Y21018D01*
X34819Y21186D01*
X34651Y21299D01*
X34453Y21338D01*
X34453Y21338D02*
G37*
G36*
X47564Y19568D02*
X47366Y19529D01*
X47198Y19416D01*
X47155Y19353D01*
X47003Y19353D01*
X46960Y19416D01*
X46792Y19529D01*
X46594Y19568D01*
X46396Y19529D01*
X46228Y19416D01*
X46116Y19248D01*
X46076Y19050D01*
X46116Y18852D01*
X46228Y18684D01*
X46396Y18571D01*
X46594Y18532D01*
X46792Y18571D01*
X46960Y18684D01*
X47003Y18747D01*
X47155Y18747D01*
X47198Y18684D01*
X47366Y18571D01*
X47564Y18532D01*
X47762Y18571D01*
X47930Y18684D01*
X48043Y18852D01*
X48082Y19050D01*
X48043Y19248D01*
X47930Y19416D01*
X47762Y19529D01*
X47564Y19568D01*
X47564Y19568D02*
G37*
G36*
X37653Y19916D02*
X37455Y19876D01*
X37287Y19764D01*
X37175Y19596D01*
X37135Y19398D01*
X37149Y19331D01*
X37029Y19281D01*
X36978Y19357D01*
X36810Y19470D01*
X36612Y19509D01*
X36414Y19470D01*
X36272Y19375D01*
X36246Y19357D01*
X36118Y19395D01*
X36090Y19437D01*
X35939Y19538D01*
X35761Y19573D01*
X35582Y19538D01*
X35431Y19437D01*
X35330Y19285D01*
X35295Y19107D01*
X35330Y18929D01*
X35431Y18777D01*
X35582Y18676D01*
X35761Y18641D01*
X35939Y18676D01*
X36026Y18734D01*
X36181Y18713D01*
X36193Y18705D01*
X36246Y18625D01*
X36414Y18513D01*
X36612Y18473D01*
X36632Y18477D01*
X36663Y18357D01*
X36495Y18244D01*
X36383Y18076D01*
X36343Y17878D01*
X36383Y17680D01*
X36495Y17512D01*
X36663Y17400D01*
X36861Y17360D01*
X37060Y17400D01*
X37228Y17512D01*
X37340Y17680D01*
X37379Y17878D01*
X37340Y18076D01*
X37228Y18244D01*
X37060Y18357D01*
X36861Y18396D01*
X36841Y18392D01*
X36810Y18513D01*
X36978Y18625D01*
X37091Y18793D01*
X37130Y18991D01*
X37117Y19058D01*
X37236Y19107D01*
X37287Y19031D01*
X37455Y18919D01*
X37653Y18880D01*
X37852Y18919D01*
X38020Y19031D01*
X38132Y19199D01*
X38171Y19398D01*
X38132Y19596D01*
X38020Y19764D01*
X37852Y19876D01*
X37653Y19916D01*
X37653Y19916D02*
G37*
G36*
X29195Y19940D02*
X29017Y19904D01*
X28866Y19803D01*
X28765Y19652D01*
X28729Y19474D01*
X28765Y19295D01*
X28866Y19144D01*
X29017Y19043D01*
X29195Y19008D01*
X29374Y19043D01*
X29525Y19144D01*
X29626Y19295D01*
X29661Y19474D01*
X29626Y19652D01*
X29525Y19803D01*
X29374Y19904D01*
X29195Y19940D01*
X29195Y19940D02*
G37*
G36*
X57904Y19625D02*
X57775Y19599D01*
X57666Y19526D01*
X57593Y19417D01*
X57567Y19288D01*
X57593Y19159D01*
X57666Y19050D01*
X57775Y18977D01*
X57904Y18951D01*
X58033Y18977D01*
X58142Y19050D01*
X58215Y19159D01*
X58241Y19288D01*
X58215Y19417D01*
X58142Y19526D01*
X58033Y19599D01*
X57904Y19625D01*
X57904Y19625D02*
G37*
G36*
X57104Y19625D02*
X56975Y19599D01*
X56866Y19526D01*
X56793Y19417D01*
X56767Y19288D01*
X56793Y19159D01*
X56866Y19050D01*
X56975Y18977D01*
X57104Y18951D01*
X57233Y18977D01*
X57342Y19050D01*
X57415Y19159D01*
X57441Y19288D01*
X57415Y19417D01*
X57342Y19526D01*
X57233Y19599D01*
X57104Y19625D01*
X57104Y19625D02*
G37*
G36*
X53904Y19625D02*
X53775Y19599D01*
X53666Y19526D01*
X53593Y19417D01*
X53567Y19288D01*
X53593Y19159D01*
X53666Y19050D01*
X53775Y18977D01*
X53904Y18951D01*
X54033Y18977D01*
X54142Y19050D01*
X54215Y19159D01*
X54241Y19288D01*
X54215Y19417D01*
X54142Y19526D01*
X54033Y19599D01*
X53904Y19625D01*
X53904Y19625D02*
G37*
G36*
X53104Y19625D02*
X52975Y19599D01*
X52866Y19526D01*
X52793Y19417D01*
X52767Y19288D01*
X52793Y19159D01*
X52866Y19050D01*
X52975Y18977D01*
X53104Y18951D01*
X53233Y18977D01*
X53342Y19050D01*
X53415Y19159D01*
X53441Y19288D01*
X53415Y19417D01*
X53342Y19526D01*
X53233Y19599D01*
X53104Y19625D01*
X53104Y19625D02*
G37*
G36*
X50271Y19625D02*
X50142Y19599D01*
X50033Y19526D01*
X49960Y19417D01*
X49934Y19288D01*
X49960Y19159D01*
X50033Y19050D01*
X50142Y18977D01*
X50271Y18951D01*
X50400Y18977D01*
X50509Y19050D01*
X50582Y19159D01*
X50608Y19288D01*
X50582Y19417D01*
X50509Y19526D01*
X50400Y19599D01*
X50271Y19625D01*
X50271Y19625D02*
G37*
G36*
X59910Y19524D02*
X59712Y19484D01*
X59544Y19372D01*
X59432Y19204D01*
X59392Y19006D01*
X59432Y18808D01*
X59544Y18639D01*
X59712Y18527D01*
X59910Y18488D01*
X60108Y18527D01*
X60276Y18639D01*
X60389Y18808D01*
X60428Y19006D01*
X60389Y19204D01*
X60276Y19372D01*
X60108Y19484D01*
X59910Y19524D01*
X59910Y19524D02*
G37*
G36*
X27991Y19288D02*
X27812Y19252D01*
X27661Y19151D01*
X27560Y19000D01*
X27525Y18821D01*
X27560Y18643D01*
X27661Y18492D01*
X27812Y18391D01*
X27991Y18355D01*
X28169Y18391D01*
X28320Y18492D01*
X28421Y18643D01*
X28457Y18821D01*
X28421Y19000D01*
X28320Y19151D01*
X28169Y19252D01*
X27991Y19288D01*
X27991Y19288D02*
G37*
G36*
X57104Y18825D02*
X56975Y18799D01*
X56866Y18726D01*
X56793Y18617D01*
X56767Y18488D01*
X56793Y18359D01*
X56866Y18250D01*
X56975Y18177D01*
X57104Y18151D01*
X57233Y18177D01*
X57342Y18250D01*
X57415Y18359D01*
X57441Y18488D01*
X57415Y18617D01*
X57342Y18726D01*
X57233Y18799D01*
X57104Y18825D01*
X57104Y18825D02*
G37*
G36*
X56304Y18825D02*
X56175Y18799D01*
X56066Y18726D01*
X55993Y18617D01*
X55967Y18488D01*
X55993Y18359D01*
X56066Y18250D01*
X56175Y18177D01*
X56304Y18151D01*
X56433Y18177D01*
X56542Y18250D01*
X56615Y18359D01*
X56641Y18488D01*
X56615Y18617D01*
X56542Y18726D01*
X56433Y18799D01*
X56304Y18825D01*
X56304Y18825D02*
G37*
G36*
X53104Y18825D02*
X52975Y18799D01*
X52866Y18726D01*
X52793Y18617D01*
X52767Y18488D01*
X52793Y18359D01*
X52866Y18250D01*
X52975Y18177D01*
X53104Y18151D01*
X53233Y18177D01*
X53342Y18250D01*
X53415Y18359D01*
X53441Y18488D01*
X53415Y18617D01*
X53342Y18726D01*
X53233Y18799D01*
X53104Y18825D01*
X53104Y18825D02*
G37*
G36*
X71017Y18977D02*
X70819Y18937D01*
X70651Y18825D01*
X70538Y18657D01*
X70499Y18459D01*
X70538Y18260D01*
X70651Y18092D01*
X70819Y17980D01*
X71017Y17941D01*
X71215Y17980D01*
X71383Y18092D01*
X71495Y18260D01*
X71535Y18459D01*
X71495Y18657D01*
X71383Y18825D01*
X71215Y18937D01*
X71017Y18977D01*
X71017Y18977D02*
G37*
G36*
X34434Y18518D02*
X34256Y18482D01*
X34105Y18381D01*
X34004Y18230D01*
X33968Y18051D01*
X33986Y17962D01*
X33971Y17937D01*
X33876Y17864D01*
X33742Y17891D01*
X33563Y17855D01*
X33412Y17754D01*
X33311Y17603D01*
X33276Y17424D01*
X33311Y17246D01*
X33412Y17095D01*
X33563Y16994D01*
X33742Y16958D01*
X33920Y16994D01*
X34071Y17095D01*
X34172Y17246D01*
X34208Y17424D01*
X34190Y17514D01*
X34205Y17538D01*
X34300Y17612D01*
X34434Y17585D01*
X34613Y17621D01*
X34764Y17722D01*
X34865Y17873D01*
X34901Y18051D01*
X34865Y18230D01*
X34764Y18381D01*
X34613Y18482D01*
X34434Y18518D01*
X34434Y18518D02*
G37*
G36*
X43851Y18645D02*
X43673Y18609D01*
X43521Y18508D01*
X43420Y18357D01*
X43385Y18178D01*
X43420Y18000D01*
X43521Y17849D01*
X43673Y17748D01*
X43851Y17712D01*
X44029Y17748D01*
X44181Y17849D01*
X44282Y18000D01*
X44317Y18178D01*
X44282Y18357D01*
X44181Y18508D01*
X44029Y18609D01*
X43851Y18645D01*
X43851Y18645D02*
G37*
G36*
X64973Y18679D02*
X64775Y18640D01*
X64607Y18527D01*
X64495Y18359D01*
X64455Y18161D01*
X64495Y17963D01*
X64607Y17795D01*
X64775Y17682D01*
X64973Y17643D01*
X65171Y17682D01*
X65339Y17795D01*
X65452Y17963D01*
X65491Y18161D01*
X65452Y18359D01*
X65339Y18527D01*
X65171Y18640D01*
X64973Y18679D01*
X64973Y18679D02*
G37*
G36*
X40555Y18772D02*
X40357Y18733D01*
X40189Y18620D01*
X40077Y18452D01*
X40037Y18254D01*
X40077Y18056D01*
X40189Y17888D01*
X40357Y17775D01*
X40555Y17736D01*
X40563Y17738D01*
X40590Y17602D01*
X40691Y17450D01*
X40843Y17349D01*
X41021Y17314D01*
X41199Y17349D01*
X41351Y17450D01*
X41452Y17602D01*
X41474Y17716D01*
X41507Y17738D01*
X41609Y17767D01*
X41748Y17674D01*
X41946Y17635D01*
X42144Y17674D01*
X42312Y17787D01*
X42425Y17955D01*
X42464Y18153D01*
X42425Y18351D01*
X42312Y18519D01*
X42144Y18632D01*
X41946Y18671D01*
X41748Y18632D01*
X41580Y18519D01*
X41467Y18351D01*
X41436Y18194D01*
X41435Y18193D01*
X41325Y18142D01*
X41306Y18140D01*
X41199Y18211D01*
X41070Y18236D01*
X41073Y18254D01*
X41034Y18452D01*
X40921Y18620D01*
X40753Y18733D01*
X40555Y18772D01*
X40555Y18772D02*
G37*
G36*
X69575Y18902D02*
X69397Y18866D01*
X69246Y18765D01*
X69145Y18614D01*
X69109Y18436D01*
X69142Y18272D01*
X69012Y18186D01*
X68911Y18035D01*
X68876Y17856D01*
X68911Y17678D01*
X69012Y17527D01*
X69164Y17426D01*
X69342Y17390D01*
X69520Y17426D01*
X69672Y17527D01*
X69773Y17678D01*
X69808Y17856D01*
X69776Y18019D01*
X69905Y18106D01*
X70006Y18257D01*
X70042Y18436D01*
X70006Y18614D01*
X69905Y18765D01*
X69754Y18866D01*
X69575Y18902D01*
X69575Y18902D02*
G37*
G36*
X57104Y18025D02*
X56975Y17999D01*
X56866Y17926D01*
X56793Y17817D01*
X56767Y17688D01*
X56793Y17559D01*
X56866Y17450D01*
X56975Y17377D01*
X57104Y17351D01*
X57233Y17377D01*
X57342Y17450D01*
X57415Y17559D01*
X57441Y17688D01*
X57415Y17817D01*
X57342Y17926D01*
X57233Y17999D01*
X57104Y18025D01*
X57104Y18025D02*
G37*
G36*
X56304Y18025D02*
X56175Y17999D01*
X56066Y17926D01*
X55993Y17817D01*
X55967Y17688D01*
X55993Y17559D01*
X56066Y17450D01*
X56175Y17377D01*
X56304Y17351D01*
X56433Y17377D01*
X56542Y17450D01*
X56615Y17559D01*
X56641Y17688D01*
X56615Y17817D01*
X56542Y17926D01*
X56433Y17999D01*
X56304Y18025D01*
X56304Y18025D02*
G37*
G36*
X55504Y18025D02*
X55375Y17999D01*
X55266Y17926D01*
X55193Y17817D01*
X55167Y17688D01*
X55193Y17559D01*
X55266Y17450D01*
X55375Y17377D01*
X55504Y17351D01*
X55633Y17377D01*
X55742Y17450D01*
X55815Y17559D01*
X55841Y17688D01*
X55815Y17817D01*
X55742Y17926D01*
X55633Y17999D01*
X55504Y18025D01*
X55504Y18025D02*
G37*
G36*
X53104Y18025D02*
X52975Y17999D01*
X52866Y17926D01*
X52793Y17817D01*
X52767Y17688D01*
X52793Y17559D01*
X52866Y17450D01*
X52975Y17377D01*
X53104Y17351D01*
X53233Y17377D01*
X53342Y17450D01*
X53415Y17559D01*
X53441Y17688D01*
X53415Y17817D01*
X53342Y17926D01*
X53233Y17999D01*
X53104Y18025D01*
X53104Y18025D02*
G37*
G36*
X59258Y17659D02*
X59129Y17634D01*
X59020Y17561D01*
X58947Y17452D01*
X58922Y17323D01*
X58947Y17194D01*
X59020Y17085D01*
X59129Y17012D01*
X59258Y16986D01*
X59387Y17012D01*
X59496Y17085D01*
X59569Y17194D01*
X59595Y17323D01*
X59569Y17452D01*
X59496Y17561D01*
X59387Y17634D01*
X59258Y17659D01*
X59258Y17659D02*
G37*
G36*
X31660Y17806D02*
X31481Y17771D01*
X31330Y17670D01*
X31229Y17519D01*
X31194Y17340D01*
X31229Y17162D01*
X31330Y17011D01*
X31481Y16910D01*
X31660Y16874D01*
X31838Y16910D01*
X31989Y17011D01*
X32090Y17162D01*
X32126Y17340D01*
X32090Y17519D01*
X31989Y17670D01*
X31838Y17771D01*
X31660Y17806D01*
X31660Y17806D02*
G37*
G36*
X60985Y18222D02*
X60787Y18182D01*
X60619Y18070D01*
X60507Y17902D01*
X60467Y17704D01*
X60507Y17506D01*
X60561Y17424D01*
X60507Y17343D01*
X60467Y17145D01*
X60507Y16947D01*
X60619Y16779D01*
X60787Y16666D01*
X60985Y16627D01*
X61184Y16666D01*
X61352Y16779D01*
X61464Y16947D01*
X61503Y17145D01*
X61464Y17343D01*
X61410Y17424D01*
X61464Y17506D01*
X61503Y17704D01*
X61464Y17902D01*
X61352Y18070D01*
X61184Y18182D01*
X60985Y18222D01*
X60985Y18222D02*
G37*
G36*
X59258Y16770D02*
X59129Y16745D01*
X59020Y16672D01*
X58947Y16563D01*
X58922Y16434D01*
X58947Y16305D01*
X59020Y16196D01*
X59129Y16123D01*
X59258Y16097D01*
X59387Y16123D01*
X59496Y16196D01*
X59569Y16305D01*
X59595Y16434D01*
X59569Y16563D01*
X59496Y16672D01*
X59387Y16745D01*
X59258Y16770D01*
X59258Y16770D02*
G37*
G36*
X40498Y16867D02*
X40320Y16831D01*
X40169Y16730D01*
X40068Y16579D01*
X40032Y16400D01*
X40068Y16222D01*
X40169Y16071D01*
X40320Y15970D01*
X40498Y15934D01*
X40677Y15970D01*
X40828Y16071D01*
X40929Y16222D01*
X40964Y16400D01*
X40929Y16579D01*
X40828Y16730D01*
X40677Y16831D01*
X40498Y16867D01*
X40498Y16867D02*
G37*
G36*
X63836Y16846D02*
X63637Y16807D01*
X63469Y16695D01*
X63357Y16526D01*
X63318Y16328D01*
X63357Y16130D01*
X63469Y15962D01*
X63637Y15850D01*
X63836Y15810D01*
X64034Y15850D01*
X64202Y15962D01*
X64314Y16130D01*
X64354Y16328D01*
X64314Y16526D01*
X64202Y16695D01*
X64034Y16807D01*
X63836Y16846D01*
X63836Y16846D02*
G37*
G36*
X57904Y16425D02*
X57775Y16399D01*
X57666Y16326D01*
X57593Y16217D01*
X57567Y16088D01*
X57593Y15959D01*
X57666Y15850D01*
X57775Y15777D01*
X57904Y15751D01*
X58033Y15777D01*
X58142Y15850D01*
X58215Y15959D01*
X58241Y16088D01*
X58215Y16217D01*
X58142Y16326D01*
X58033Y16399D01*
X57904Y16425D01*
X57904Y16425D02*
G37*
G36*
X57104Y16425D02*
X56975Y16399D01*
X56866Y16326D01*
X56793Y16217D01*
X56767Y16088D01*
X56793Y15959D01*
X56866Y15850D01*
X56975Y15777D01*
X57104Y15751D01*
X57233Y15777D01*
X57342Y15850D01*
X57415Y15959D01*
X57441Y16088D01*
X57415Y16217D01*
X57342Y16326D01*
X57233Y16399D01*
X57104Y16425D01*
X57104Y16425D02*
G37*
G36*
X55504Y16425D02*
X55375Y16399D01*
X55266Y16326D01*
X55193Y16217D01*
X55167Y16088D01*
X55193Y15959D01*
X55266Y15850D01*
X55375Y15777D01*
X55504Y15751D01*
X55633Y15777D01*
X55742Y15850D01*
X55815Y15959D01*
X55841Y16088D01*
X55815Y16217D01*
X55742Y16326D01*
X55633Y16399D01*
X55504Y16425D01*
X55504Y16425D02*
G37*
G36*
X50013Y16491D02*
X49884Y16465D01*
X49775Y16392D01*
X49702Y16283D01*
X49676Y16154D01*
X49702Y16026D01*
X49775Y15916D01*
X49884Y15843D01*
X50013Y15818D01*
X50119Y15839D01*
X50189Y15787D01*
X50224Y15746D01*
X50209Y15672D01*
X50235Y15543D01*
X50308Y15434D01*
X50417Y15361D01*
X50546Y15335D01*
X50675Y15361D01*
X50784Y15434D01*
X50857Y15543D01*
X50883Y15672D01*
X50857Y15801D01*
X50784Y15910D01*
X50675Y15983D01*
X50546Y16008D01*
X50439Y15987D01*
X50370Y16039D01*
X50335Y16080D01*
X50349Y16154D01*
X50324Y16283D01*
X50251Y16392D01*
X50141Y16465D01*
X50013Y16491D01*
X50013Y16491D02*
G37*
G36*
X58710Y15742D02*
X58581Y15716D01*
X58472Y15643D01*
X58399Y15534D01*
X58373Y15405D01*
X58399Y15276D01*
X58472Y15167D01*
X58581Y15094D01*
X58710Y15068D01*
X58839Y15094D01*
X58948Y15167D01*
X59021Y15276D01*
X59047Y15405D01*
X59021Y15534D01*
X58948Y15643D01*
X58839Y15716D01*
X58710Y15742D01*
X58710Y15742D02*
G37*
G36*
X57904Y15625D02*
X57775Y15599D01*
X57666Y15526D01*
X57593Y15417D01*
X57567Y15288D01*
X57593Y15159D01*
X57666Y15050D01*
X57775Y14977D01*
X57904Y14951D01*
X58033Y14977D01*
X58142Y15050D01*
X58215Y15159D01*
X58241Y15288D01*
X58215Y15417D01*
X58142Y15526D01*
X58033Y15599D01*
X57904Y15625D01*
X57904Y15625D02*
G37*
G36*
X67845Y16074D02*
X67699Y16055D01*
X67563Y15998D01*
X67446Y15909D01*
X67357Y15792D01*
X67301Y15656D01*
X67281Y15510D01*
X67301Y15364D01*
X67357Y15228D01*
X67446Y15112D01*
X67563Y15022D01*
X67699Y14966D01*
X67845Y14947D01*
X67991Y14966D01*
X68127Y15022D01*
X68244Y15112D01*
X68333Y15228D01*
X68389Y15364D01*
X68409Y15510D01*
X68389Y15656D01*
X68333Y15792D01*
X68244Y15909D01*
X68127Y15998D01*
X67991Y16055D01*
X67845Y16074D01*
X67845Y16074D02*
G37*
G36*
X65644Y15936D02*
X65446Y15896D01*
X65278Y15784D01*
X65166Y15616D01*
X65126Y15418D01*
X65166Y15220D01*
X65278Y15052D01*
X65446Y14939D01*
X65644Y14900D01*
X65842Y14939D01*
X66010Y15052D01*
X66123Y15220D01*
X66162Y15418D01*
X66123Y15616D01*
X66010Y15784D01*
X65842Y15896D01*
X65644Y15936D01*
X65644Y15936D02*
G37*
G36*
X41730Y16149D02*
X41552Y16114D01*
X41400Y16012D01*
X41299Y15861D01*
X41264Y15683D01*
X41299Y15504D01*
X41400Y15353D01*
X41552Y15252D01*
X41730Y15217D01*
X41778Y15226D01*
X41923Y15126D01*
X41939Y15042D01*
X42052Y14874D01*
X42220Y14761D01*
X42418Y14722D01*
X42616Y14761D01*
X42741Y14845D01*
X42766Y14809D01*
X42917Y14708D01*
X43095Y14672D01*
X43274Y14708D01*
X43425Y14809D01*
X43526Y14960D01*
X43561Y15138D01*
X43526Y15317D01*
X43425Y15468D01*
X43274Y15569D01*
X43095Y15605D01*
X42917Y15569D01*
X42793Y15594D01*
X42784Y15606D01*
X42616Y15719D01*
X42418Y15758D01*
X42220Y15719D01*
X42186Y15732D01*
X42161Y15861D01*
X42060Y16012D01*
X41908Y16114D01*
X41730Y16149D01*
X41730Y16149D02*
G37*
G36*
X61976Y15579D02*
X61798Y15544D01*
X61646Y15443D01*
X61545Y15291D01*
X61510Y15113D01*
X61545Y14935D01*
X61646Y14783D01*
X61798Y14682D01*
X61976Y14647D01*
X62154Y14682D01*
X62306Y14783D01*
X62407Y14935D01*
X62442Y15113D01*
X62407Y15291D01*
X62306Y15443D01*
X62154Y15544D01*
X61976Y15579D01*
X61976Y15579D02*
G37*
G36*
X45350Y15598D02*
X45151Y15558D01*
X44983Y15446D01*
X44871Y15278D01*
X44832Y15080D01*
X44871Y14881D01*
X44983Y14713D01*
X45151Y14601D01*
X45350Y14562D01*
X45548Y14601D01*
X45716Y14713D01*
X45828Y14881D01*
X45868Y15080D01*
X45828Y15278D01*
X45716Y15446D01*
X45548Y15558D01*
X45350Y15598D01*
X45350Y15598D02*
G37*
G36*
X50444Y15145D02*
X50316Y15119D01*
X50206Y15046D01*
X50133Y14937D01*
X50108Y14808D01*
X50133Y14679D01*
X50206Y14570D01*
X50316Y14497D01*
X50444Y14472D01*
X50573Y14497D01*
X50682Y14570D01*
X50755Y14679D01*
X50781Y14808D01*
X50755Y14937D01*
X50682Y15046D01*
X50573Y15119D01*
X50444Y15145D01*
X50444Y15145D02*
G37*
G36*
X57904Y14825D02*
X57775Y14799D01*
X57666Y14726D01*
X57593Y14617D01*
X57567Y14488D01*
X57593Y14359D01*
X57666Y14250D01*
X57775Y14177D01*
X57904Y14151D01*
X58033Y14177D01*
X58142Y14250D01*
X58215Y14359D01*
X58241Y14488D01*
X58215Y14617D01*
X58142Y14726D01*
X58033Y14799D01*
X57904Y14825D01*
X57904Y14825D02*
G37*
G36*
X57104Y14825D02*
X56975Y14799D01*
X56866Y14726D01*
X56793Y14617D01*
X56767Y14488D01*
X56793Y14359D01*
X56866Y14250D01*
X56975Y14177D01*
X57104Y14151D01*
X57233Y14177D01*
X57342Y14250D01*
X57415Y14359D01*
X57441Y14488D01*
X57415Y14617D01*
X57342Y14726D01*
X57233Y14799D01*
X57104Y14825D01*
X57104Y14825D02*
G37*
G36*
X53904Y14825D02*
X53775Y14799D01*
X53666Y14726D01*
X53593Y14617D01*
X53567Y14488D01*
X53593Y14359D01*
X53666Y14250D01*
X53775Y14177D01*
X53904Y14151D01*
X54033Y14177D01*
X54142Y14250D01*
X54215Y14359D01*
X54241Y14488D01*
X54215Y14617D01*
X54142Y14726D01*
X54033Y14799D01*
X53904Y14825D01*
X53904Y14825D02*
G37*
G36*
X69654Y14157D02*
X69508Y14137D01*
X69372Y14081D01*
X69337Y14054D01*
X69301Y14081D01*
X69165Y14137D01*
X69019Y14157D01*
X68873Y14137D01*
X68737Y14081D01*
X68620Y13991D01*
X68531Y13875D01*
X68475Y13739D01*
X68455Y13593D01*
X68475Y13447D01*
X68531Y13311D01*
X68620Y13194D01*
X68737Y13105D01*
X68873Y13049D01*
X69019Y13029D01*
X69165Y13049D01*
X69301Y13105D01*
X69337Y13132D01*
X69372Y13105D01*
X69508Y13049D01*
X69654Y13029D01*
X69800Y13049D01*
X69936Y13105D01*
X70053Y13194D01*
X70142Y13311D01*
X70198Y13447D01*
X70218Y13593D01*
X70198Y13739D01*
X70142Y13875D01*
X70053Y13991D01*
X69936Y14081D01*
X69800Y14137D01*
X69654Y14157D01*
X69654Y14157D02*
G37*
G36*
X59004Y14357D02*
X58875Y14332D01*
X58766Y14259D01*
X58693Y14150D01*
X58668Y14021D01*
X58693Y13892D01*
X58766Y13783D01*
X58875Y13710D01*
X59004Y13684D01*
X59133Y13710D01*
X59242Y13783D01*
X59315Y13892D01*
X59341Y14021D01*
X59315Y14150D01*
X59242Y14259D01*
X59133Y14332D01*
X59004Y14357D01*
X59004Y14357D02*
G37*
G36*
X57104Y14025D02*
X56975Y13999D01*
X56866Y13926D01*
X56793Y13817D01*
X56767Y13688D01*
X56793Y13559D01*
X56866Y13450D01*
X56975Y13377D01*
X57104Y13351D01*
X57233Y13377D01*
X57342Y13450D01*
X57415Y13559D01*
X57441Y13688D01*
X57415Y13817D01*
X57342Y13926D01*
X57233Y13999D01*
X57104Y14025D01*
X57104Y14025D02*
G37*
G36*
X52304Y14025D02*
X52175Y13999D01*
X52066Y13926D01*
X51993Y13817D01*
X51967Y13688D01*
X51993Y13559D01*
X52066Y13450D01*
X52175Y13377D01*
X52304Y13351D01*
X52433Y13377D01*
X52542Y13450D01*
X52615Y13559D01*
X52641Y13688D01*
X52615Y13817D01*
X52542Y13926D01*
X52433Y13999D01*
X52304Y14025D01*
X52304Y14025D02*
G37*
G36*
X51504Y14025D02*
X51375Y13999D01*
X51266Y13926D01*
X51193Y13817D01*
X51167Y13688D01*
X51193Y13559D01*
X51266Y13450D01*
X51375Y13377D01*
X51504Y13351D01*
X51633Y13377D01*
X51742Y13450D01*
X51815Y13559D01*
X51841Y13688D01*
X51815Y13817D01*
X51742Y13926D01*
X51633Y13999D01*
X51504Y14025D01*
X51504Y14025D02*
G37*
G36*
X50704Y14025D02*
X50575Y13999D01*
X50466Y13926D01*
X50393Y13817D01*
X50367Y13688D01*
X50393Y13559D01*
X50466Y13450D01*
X50575Y13377D01*
X50704Y13351D01*
X50833Y13377D01*
X50942Y13450D01*
X51015Y13559D01*
X51041Y13688D01*
X51015Y13817D01*
X50942Y13926D01*
X50833Y13999D01*
X50704Y14025D01*
X50704Y14025D02*
G37*
G36*
X56246Y13308D02*
X56117Y13282D01*
X56008Y13209D01*
X55935Y13100D01*
X55910Y12971D01*
X55935Y12843D01*
X56008Y12733D01*
X56117Y12660D01*
X56246Y12635D01*
X56375Y12660D01*
X56484Y12733D01*
X56557Y12843D01*
X56583Y12971D01*
X56557Y13100D01*
X56484Y13209D01*
X56375Y13282D01*
X56246Y13308D01*
X56246Y13308D02*
G37*
G36*
X40041Y13539D02*
X39863Y13504D01*
X39711Y13403D01*
X39610Y13251D01*
X39575Y13073D01*
X39610Y12895D01*
X39711Y12743D01*
X39863Y12642D01*
X40041Y12607D01*
X40219Y12642D01*
X40371Y12743D01*
X40472Y12895D01*
X40507Y13073D01*
X40472Y13251D01*
X40371Y13403D01*
X40219Y13504D01*
X40041Y13539D01*
X40041Y13539D02*
G37*
G36*
X47907Y13637D02*
X47709Y13598D01*
X47541Y13485D01*
X47429Y13317D01*
X47389Y13119D01*
X47429Y12921D01*
X47541Y12753D01*
X47709Y12640D01*
X47907Y12601D01*
X48106Y12640D01*
X48274Y12753D01*
X48386Y12921D01*
X48425Y13119D01*
X48386Y13317D01*
X48274Y13485D01*
X48106Y13598D01*
X47907Y13637D01*
X47907Y13637D02*
G37*
G36*
X53904Y13225D02*
X53775Y13199D01*
X53666Y13126D01*
X53593Y13017D01*
X53567Y12888D01*
X53593Y12759D01*
X53666Y12650D01*
X53775Y12577D01*
X53904Y12551D01*
X54033Y12577D01*
X54142Y12650D01*
X54215Y12759D01*
X54241Y12888D01*
X54215Y13017D01*
X54142Y13126D01*
X54033Y13199D01*
X53904Y13225D01*
X53904Y13225D02*
G37*
G36*
X59599Y12546D02*
X59470Y12520D01*
X59361Y12447D01*
X59288Y12338D01*
X59262Y12209D01*
X59288Y12081D01*
X59361Y11971D01*
X59470Y11898D01*
X59599Y11873D01*
X59728Y11898D01*
X59837Y11971D01*
X59910Y12081D01*
X59936Y12209D01*
X59910Y12338D01*
X59837Y12447D01*
X59728Y12520D01*
X59599Y12546D01*
X59599Y12546D02*
G37*
G36*
X38405Y12837D02*
X38207Y12798D01*
X38039Y12685D01*
X37926Y12517D01*
X37887Y12319D01*
X37926Y12121D01*
X38039Y11953D01*
X38207Y11840D01*
X38405Y11801D01*
X38603Y11840D01*
X38771Y11953D01*
X38883Y12121D01*
X38923Y12319D01*
X38883Y12517D01*
X38771Y12685D01*
X38603Y12798D01*
X38405Y12837D01*
X38405Y12837D02*
G37*
G36*
X44494Y12692D02*
X44316Y12657D01*
X44165Y12556D01*
X44064Y12405D01*
X44028Y12226D01*
X44064Y12048D01*
X44165Y11897D01*
X44316Y11796D01*
X44494Y11760D01*
X44673Y11796D01*
X44824Y11897D01*
X44925Y12048D01*
X44961Y12226D01*
X44925Y12405D01*
X44824Y12556D01*
X44673Y12657D01*
X44494Y12692D01*
X44494Y12692D02*
G37*
G36*
X47537Y12520D02*
X47358Y12485D01*
X47207Y12384D01*
X47106Y12233D01*
X47070Y12054D01*
X47106Y11876D01*
X47207Y11725D01*
X47358Y11624D01*
X47537Y11588D01*
X47715Y11624D01*
X47866Y11725D01*
X47967Y11876D01*
X48003Y12054D01*
X47967Y12233D01*
X47866Y12384D01*
X47715Y12485D01*
X47537Y12520D01*
X47537Y12520D02*
G37*
G36*
X29185Y12430D02*
X29006Y12394D01*
X28855Y12293D01*
X28754Y12142D01*
X28718Y11963D01*
X28754Y11785D01*
X28855Y11634D01*
X29006Y11533D01*
X29185Y11497D01*
X29363Y11533D01*
X29514Y11634D01*
X29615Y11785D01*
X29651Y11963D01*
X29615Y12142D01*
X29514Y12293D01*
X29363Y12394D01*
X29185Y12430D01*
X29185Y12430D02*
G37*
G36*
X67092Y12494D02*
X66894Y12455D01*
X66726Y12342D01*
X66613Y12174D01*
X66574Y11976D01*
X66613Y11778D01*
X66726Y11610D01*
X66894Y11497D01*
X67092Y11458D01*
X68056Y11458D01*
X68235Y11422D01*
X68433Y11462D01*
X68601Y11574D01*
X68714Y11742D01*
X68753Y11940D01*
X68714Y12139D01*
X68601Y12307D01*
X68433Y12419D01*
X68235Y12458D01*
X67272Y12458D01*
X67092Y12494D01*
X67092Y12494D02*
G37*
G36*
X46188Y11507D02*
X46009Y11472D01*
X45858Y11371D01*
X45757Y11219D01*
X45755Y11208D01*
X45649Y11164D01*
X45451Y11203D01*
X45253Y11164D01*
X45085Y11052D01*
X45024Y10960D01*
X44999Y10977D01*
X44800Y11016D01*
X44602Y10977D01*
X44434Y10864D01*
X44322Y10696D01*
X44283Y10498D01*
X44322Y10300D01*
X44338Y10275D01*
X44262Y10161D01*
X44257Y10162D01*
X44059Y10123D01*
X43891Y10010D01*
X43779Y9842D01*
X43739Y9644D01*
X43779Y9446D01*
X43891Y9278D01*
X44059Y9165D01*
X44257Y9126D01*
X44456Y9165D01*
X44624Y9278D01*
X44736Y9446D01*
X44775Y9644D01*
X44736Y9842D01*
X44720Y9867D01*
X44796Y9981D01*
X44800Y9980D01*
X44999Y10020D01*
X45167Y10132D01*
X45228Y10224D01*
X45253Y10207D01*
X45451Y10167D01*
X45649Y10207D01*
X45817Y10319D01*
X45930Y10487D01*
X45936Y10518D01*
X46081Y10596D01*
X46188Y10575D01*
X46366Y10610D01*
X46517Y10711D01*
X46618Y10863D01*
X46654Y11041D01*
X46618Y11219D01*
X46517Y11371D01*
X46366Y11472D01*
X46188Y11507D01*
X46188Y11507D02*
G37*
G36*
X64118Y12092D02*
X63919Y12053D01*
X63751Y11940D01*
X63639Y11772D01*
X63600Y11574D01*
X63639Y11376D01*
X63751Y11208D01*
X63919Y11096D01*
X64118Y11056D01*
X64316Y11096D01*
X64484Y11208D01*
X64596Y11376D01*
X64636Y11574D01*
X64596Y11772D01*
X64484Y11940D01*
X64316Y12053D01*
X64118Y12092D01*
X64118Y12092D02*
G37*
G36*
X42648Y11591D02*
X42470Y11556D01*
X42318Y11455D01*
X42217Y11304D01*
X42182Y11125D01*
X42184Y11113D01*
X42076Y11005D01*
X41971Y11026D01*
X41773Y10986D01*
X41605Y10874D01*
X41493Y10706D01*
X41453Y10508D01*
X41493Y10309D01*
X41605Y10141D01*
X41773Y10029D01*
X41971Y9990D01*
X42170Y10029D01*
X42338Y10141D01*
X42450Y10309D01*
X42489Y10508D01*
X42478Y10563D01*
X42586Y10671D01*
X42648Y10659D01*
X42826Y10695D01*
X42978Y10796D01*
X43079Y10947D01*
X43114Y11125D01*
X43079Y11304D01*
X42978Y11455D01*
X42826Y11556D01*
X42648Y11591D01*
X42648Y11591D02*
G37*
G36*
X56476Y11959D02*
X56278Y11920D01*
X56110Y11808D01*
X55997Y11640D01*
X55958Y11442D01*
X55997Y11243D01*
X56110Y11075D01*
X56278Y10963D01*
X56476Y10924D01*
X56674Y10963D01*
X56842Y11075D01*
X56956Y11017D01*
X57053Y10951D01*
X57252Y10912D01*
X57450Y10951D01*
X57618Y11064D01*
X57730Y11232D01*
X57770Y11430D01*
X57730Y11628D01*
X57618Y11796D01*
X57450Y11909D01*
X57252Y11948D01*
X57053Y11909D01*
X56885Y11796D01*
X56772Y11855D01*
X56674Y11920D01*
X56476Y11959D01*
X56476Y11959D02*
G37*
G36*
X62952Y11630D02*
X62754Y11591D01*
X62586Y11479D01*
X62473Y11311D01*
X62434Y11112D01*
X62473Y10914D01*
X62586Y10746D01*
X62754Y10634D01*
X62952Y10594D01*
X63150Y10634D01*
X63318Y10746D01*
X63430Y10914D01*
X63470Y11112D01*
X63430Y11311D01*
X63318Y11479D01*
X63150Y11591D01*
X62952Y11630D01*
X62952Y11630D02*
G37*
G36*
X70705Y11940D02*
X70507Y11901D01*
X70339Y11788D01*
X70226Y11620D01*
X70187Y11422D01*
X70226Y11224D01*
X70339Y11056D01*
X70507Y10943D01*
X70661Y10913D01*
X70762Y10802D01*
X70765Y10787D01*
X70804Y10589D01*
X70917Y10421D01*
X71085Y10308D01*
X71283Y10269D01*
X71481Y10308D01*
X71649Y10421D01*
X71762Y10589D01*
X71801Y10787D01*
X71762Y10985D01*
X71649Y11153D01*
X71481Y11266D01*
X71327Y11296D01*
X71226Y11407D01*
X71223Y11422D01*
X71184Y11620D01*
X71071Y11788D01*
X70903Y11901D01*
X70705Y11940D01*
X70705Y11940D02*
G37*
G36*
X47981Y10797D02*
X47782Y10758D01*
X47614Y10645D01*
X47502Y10477D01*
X47463Y10279D01*
X47502Y10081D01*
X47614Y9913D01*
X47782Y9800D01*
X47981Y9761D01*
X48179Y9800D01*
X48347Y9913D01*
X48459Y10081D01*
X48499Y10279D01*
X48459Y10477D01*
X48347Y10645D01*
X48179Y10758D01*
X47981Y10797D01*
X47981Y10797D02*
G37*
G36*
X23876Y10499D02*
X23698Y10464D01*
X23546Y10363D01*
X23445Y10211D01*
X23410Y10033D01*
X23445Y9855D01*
X23546Y9703D01*
X23698Y9602D01*
X23876Y9567D01*
X24054Y9602D01*
X24206Y9703D01*
X24307Y9855D01*
X24342Y10033D01*
X24307Y10211D01*
X24206Y10363D01*
X24054Y10464D01*
X23876Y10499D01*
X23876Y10499D02*
G37*
G36*
X26372Y20938D02*
X26200Y20916D01*
X26039Y20849D01*
X25901Y20743D01*
X25795Y20605D01*
X25729Y20445D01*
X25706Y20272D01*
X25729Y20100D01*
X25795Y19939D01*
X25901Y19801D01*
X26021Y19709D01*
X26031Y19637D01*
X26021Y19565D01*
X25901Y19473D01*
X25795Y19335D01*
X25729Y19175D01*
X25706Y19002D01*
X25729Y18830D01*
X25795Y18669D01*
X25901Y18531D01*
X26021Y18439D01*
X26031Y18367D01*
X26021Y18295D01*
X25901Y18203D01*
X25795Y18065D01*
X25729Y17905D01*
X25706Y17732D01*
X25729Y17560D01*
X25795Y17399D01*
X25901Y17261D01*
X26021Y17169D01*
X26031Y17097D01*
X26021Y17025D01*
X25901Y16933D01*
X25795Y16795D01*
X25729Y16635D01*
X25706Y16462D01*
X25729Y16290D01*
X25795Y16129D01*
X25901Y15991D01*
X26021Y15899D01*
X26031Y15827D01*
X26021Y15755D01*
X25901Y15663D01*
X25795Y15525D01*
X25729Y15365D01*
X25706Y15192D01*
X25729Y15020D01*
X25795Y14859D01*
X25901Y14721D01*
X26021Y14629D01*
X26031Y14557D01*
X26021Y14485D01*
X25901Y14393D01*
X25795Y14255D01*
X25729Y14095D01*
X25706Y13922D01*
X25729Y13750D01*
X25795Y13589D01*
X25901Y13451D01*
X26021Y13359D01*
X26031Y13287D01*
X26021Y13215D01*
X25901Y13123D01*
X25795Y12985D01*
X25729Y12825D01*
X25706Y12652D01*
X25729Y12480D01*
X25795Y12319D01*
X25901Y12181D01*
X26021Y12089D01*
X26031Y12017D01*
X26021Y11945D01*
X25901Y11853D01*
X25795Y11715D01*
X25729Y11555D01*
X25706Y11382D01*
X25729Y11210D01*
X25795Y11049D01*
X25901Y10911D01*
X26021Y10819D01*
X26031Y10747D01*
X26021Y10675D01*
X25901Y10583D01*
X25795Y10445D01*
X25729Y10285D01*
X25706Y10112D01*
X25729Y9940D01*
X25795Y9779D01*
X25901Y9641D01*
X26039Y9535D01*
X26200Y9469D01*
X26372Y9446D01*
X26545Y9469D01*
X26705Y9535D01*
X26843Y9641D01*
X26949Y9779D01*
X27016Y9940D01*
X27038Y10112D01*
X27016Y10285D01*
X26949Y10445D01*
X26843Y10583D01*
X26723Y10675D01*
X26713Y10747D01*
X26723Y10819D01*
X26843Y10911D01*
X26949Y11049D01*
X27016Y11210D01*
X27038Y11382D01*
X27016Y11555D01*
X26949Y11715D01*
X26843Y11853D01*
X26723Y11945D01*
X26713Y12017D01*
X26723Y12089D01*
X26843Y12181D01*
X26949Y12319D01*
X27016Y12480D01*
X27038Y12652D01*
X27016Y12825D01*
X26949Y12985D01*
X26843Y13123D01*
X26723Y13215D01*
X26713Y13287D01*
X26723Y13359D01*
X26843Y13451D01*
X26949Y13589D01*
X27016Y13750D01*
X27038Y13922D01*
X27016Y14095D01*
X26949Y14255D01*
X26843Y14393D01*
X26723Y14485D01*
X26713Y14557D01*
X26723Y14629D01*
X26843Y14721D01*
X26949Y14859D01*
X27016Y15020D01*
X27038Y15192D01*
X27016Y15365D01*
X26949Y15525D01*
X26843Y15663D01*
X26723Y15755D01*
X26713Y15827D01*
X26723Y15899D01*
X26843Y15991D01*
X26949Y16129D01*
X27016Y16290D01*
X27038Y16462D01*
X27016Y16635D01*
X26949Y16795D01*
X26843Y16933D01*
X26723Y17025D01*
X26713Y17097D01*
X26723Y17169D01*
X26843Y17261D01*
X26949Y17399D01*
X27016Y17560D01*
X27038Y17732D01*
X27016Y17905D01*
X26949Y18065D01*
X26843Y18203D01*
X26723Y18295D01*
X26713Y18367D01*
X26723Y18439D01*
X26843Y18531D01*
X26949Y18669D01*
X27016Y18830D01*
X27038Y19002D01*
X27016Y19175D01*
X26949Y19335D01*
X26843Y19473D01*
X26723Y19565D01*
X26713Y19637D01*
X26723Y19709D01*
X26843Y19801D01*
X26949Y19939D01*
X27016Y20100D01*
X27038Y20272D01*
X27016Y20445D01*
X26949Y20605D01*
X26843Y20743D01*
X26705Y20849D01*
X26545Y20916D01*
X26372Y20938D01*
X26372Y20938D02*
G37*
G36*
X38441Y10009D02*
X38262Y9973D01*
X38111Y9872D01*
X38010Y9721D01*
X37975Y9542D01*
X38010Y9364D01*
X38111Y9213D01*
X38262Y9112D01*
X38441Y9076D01*
X38619Y9112D01*
X38770Y9213D01*
X38871Y9364D01*
X38907Y9542D01*
X38871Y9721D01*
X38770Y9872D01*
X38619Y9973D01*
X38441Y10009D01*
X38441Y10009D02*
G37*
G36*
X30262Y9966D02*
X30084Y9930D01*
X29932Y9829D01*
X29831Y9678D01*
X29796Y9500D01*
X29831Y9321D01*
X29932Y9170D01*
X30084Y9069D01*
X30262Y9033D01*
X30440Y9069D01*
X30592Y9170D01*
X30693Y9321D01*
X30728Y9500D01*
X30693Y9678D01*
X30592Y9829D01*
X30440Y9930D01*
X30262Y9966D01*
X30262Y9966D02*
G37*
G36*
X35662Y9686D02*
X35483Y9651D01*
X35332Y9550D01*
X35231Y9399D01*
X35195Y9220D01*
X35231Y9042D01*
X35332Y8891D01*
X35483Y8790D01*
X35662Y8754D01*
X35840Y8790D01*
X35991Y8891D01*
X36092Y9042D01*
X36128Y9220D01*
X36092Y9399D01*
X35991Y9550D01*
X35840Y9651D01*
X35662Y9686D01*
X35662Y9686D02*
G37*
G36*
X60640Y9781D02*
X60442Y9742D01*
X60274Y9629D01*
X60162Y9461D01*
X60122Y9263D01*
X60162Y9065D01*
X60274Y8897D01*
X60442Y8784D01*
X60640Y8745D01*
X60839Y8784D01*
X61007Y8897D01*
X61119Y9065D01*
X61158Y9263D01*
X61119Y9461D01*
X61007Y9629D01*
X60839Y9742D01*
X60640Y9781D01*
X60640Y9781D02*
G37*
G36*
X31958Y10677D02*
X31780Y10641D01*
X31628Y10540D01*
X31527Y10389D01*
X31492Y10211D01*
X31519Y10077D01*
X31470Y9956D01*
X31319Y9855D01*
X31218Y9703D01*
X31182Y9525D01*
X31218Y9347D01*
X31319Y9195D01*
X31470Y9094D01*
X31578Y9073D01*
X31605Y8938D01*
X31511Y8875D01*
X31398Y8707D01*
X31359Y8509D01*
X31398Y8311D01*
X31511Y8143D01*
X31679Y8030D01*
X31877Y7991D01*
X32075Y8030D01*
X32243Y8143D01*
X32289Y8211D01*
X32374Y8295D01*
X32452Y8243D01*
X32542Y8183D01*
X32741Y8143D01*
X32939Y8183D01*
X33107Y8295D01*
X33219Y8463D01*
X33241Y8575D01*
X33375Y8678D01*
X33376Y8678D01*
X33554Y8713D01*
X33705Y8814D01*
X33806Y8966D01*
X33842Y9144D01*
X33806Y9322D01*
X33705Y9474D01*
X33554Y9575D01*
X33376Y9610D01*
X33197Y9575D01*
X33046Y9474D01*
X32945Y9322D01*
X32910Y9146D01*
X32741Y9179D01*
X32542Y9140D01*
X32374Y9028D01*
X32329Y8959D01*
X32243Y8875D01*
X32166Y8927D01*
X32075Y8988D01*
X31937Y9015D01*
X31910Y9150D01*
X31978Y9195D01*
X32079Y9347D01*
X32115Y9525D01*
X32088Y9659D01*
X32136Y9780D01*
X32288Y9881D01*
X32389Y10032D01*
X32424Y10211D01*
X32389Y10389D01*
X32288Y10540D01*
X32136Y10641D01*
X31958Y10677D01*
X31958Y10677D02*
G37*
G36*
X29020Y9471D02*
X28821Y9432D01*
X28653Y9320D01*
X28541Y9152D01*
X28502Y8953D01*
X28541Y8755D01*
X28653Y8587D01*
X28821Y8475D01*
X29020Y8436D01*
X29218Y8475D01*
X29386Y8587D01*
X29498Y8755D01*
X29537Y8953D01*
X29498Y9152D01*
X29386Y9320D01*
X29218Y9432D01*
X29020Y9471D01*
X29020Y9471D02*
G37*
G36*
X23411Y9280D02*
X23232Y9244D01*
X23081Y9143D01*
X22980Y8992D01*
X22944Y8814D01*
X22980Y8635D01*
X23081Y8484D01*
X23232Y8383D01*
X23411Y8348D01*
X23589Y8383D01*
X23740Y8484D01*
X23841Y8635D01*
X23877Y8814D01*
X23841Y8992D01*
X23740Y9143D01*
X23589Y9244D01*
X23411Y9280D01*
X23411Y9280D02*
G37*
G36*
X71527Y9205D02*
X71329Y9165D01*
X71161Y9053D01*
X71048Y8885D01*
X71009Y8687D01*
X71048Y8489D01*
X71161Y8321D01*
X71329Y8208D01*
X71527Y8169D01*
X71725Y8208D01*
X71893Y8321D01*
X72005Y8489D01*
X72045Y8687D01*
X72005Y8885D01*
X71893Y9053D01*
X71725Y9165D01*
X71527Y9205D01*
X71527Y9205D02*
G37*
G36*
X58659Y9014D02*
X58461Y8975D01*
X58293Y8862D01*
X58181Y8694D01*
X58141Y8496D01*
X58181Y8298D01*
X58293Y8130D01*
X58461Y8018D01*
X58659Y7978D01*
X58857Y8018D01*
X59025Y8130D01*
X59138Y8298D01*
X59177Y8496D01*
X59138Y8694D01*
X59025Y8862D01*
X58857Y8975D01*
X58659Y9014D01*
X58659Y9014D02*
G37*
G36*
X26873Y8645D02*
X26695Y8609D01*
X26544Y8508D01*
X26443Y8357D01*
X26407Y8179D01*
X26443Y8000D01*
X26544Y7849D01*
X26695Y7748D01*
X26873Y7713D01*
X27052Y7748D01*
X27203Y7849D01*
X27304Y8000D01*
X27339Y8179D01*
X27304Y8357D01*
X27203Y8508D01*
X27052Y8609D01*
X26873Y8645D01*
X26873Y8645D02*
G37*
G36*
X69126Y8279D02*
X68937Y8241D01*
X68778Y8135D01*
X68671Y7975D01*
X68634Y7787D01*
X68671Y7598D01*
X68778Y7439D01*
X68937Y7332D01*
X69126Y7295D01*
X69314Y7332D01*
X69474Y7439D01*
X69580Y7598D01*
X69618Y7787D01*
X69580Y7975D01*
X69474Y8135D01*
X69314Y8241D01*
X69126Y8279D01*
X69126Y8279D02*
G37*
G36*
X42666Y7842D02*
X42467Y7803D01*
X42299Y7690D01*
X42187Y7522D01*
X42148Y7324D01*
X42187Y7126D01*
X42299Y6958D01*
X42467Y6845D01*
X42666Y6806D01*
X42864Y6845D01*
X43032Y6958D01*
X43144Y7126D01*
X43184Y7324D01*
X43144Y7522D01*
X43032Y7690D01*
X42864Y7803D01*
X42666Y7842D01*
X42666Y7842D02*
G37*
G36*
X61631Y7668D02*
X61433Y7629D01*
X61265Y7516D01*
X61152Y7348D01*
X61113Y7150D01*
X61152Y6952D01*
X61265Y6784D01*
X61433Y6671D01*
X61631Y6632D01*
X61829Y6671D01*
X61997Y6784D01*
X62110Y6952D01*
X62149Y7150D01*
X62110Y7348D01*
X61997Y7516D01*
X61829Y7629D01*
X61631Y7668D01*
X61631Y7668D02*
G37*
G36*
X32385Y6766D02*
X32187Y6727D01*
X32019Y6615D01*
X31985Y6564D01*
X31813Y6536D01*
X31751Y6577D01*
X31572Y6613D01*
X31394Y6577D01*
X31243Y6476D01*
X31142Y6325D01*
X31106Y6147D01*
X31142Y5968D01*
X31243Y5817D01*
X31394Y5716D01*
X31572Y5681D01*
X31751Y5716D01*
X31902Y5817D01*
X31945Y5882D01*
X32019Y5882D01*
X32187Y5770D01*
X32385Y5730D01*
X32583Y5770D01*
X32751Y5882D01*
X32864Y6050D01*
X32903Y6248D01*
X32864Y6447D01*
X32751Y6615D01*
X32583Y6727D01*
X32385Y6766D01*
X32385Y6766D02*
G37*
G36*
X44715Y7451D02*
X44516Y7412D01*
X44348Y7299D01*
X44236Y7131D01*
X44197Y6933D01*
X44236Y6735D01*
X44348Y6567D01*
X44516Y6455D01*
X44715Y6415D01*
X44913Y6455D01*
X45081Y6567D01*
X45193Y6735D01*
X45233Y6933D01*
X45193Y7131D01*
X45081Y7299D01*
X44913Y7412D01*
X44715Y7451D01*
X44715Y7451D02*
G37*
G36*
X38354Y7248D02*
X38176Y7212D01*
X38024Y7111D01*
X37923Y6960D01*
X37888Y6782D01*
X37923Y6603D01*
X38024Y6452D01*
X38176Y6351D01*
X38354Y6316D01*
X38532Y6351D01*
X38684Y6452D01*
X38785Y6603D01*
X38820Y6782D01*
X38785Y6960D01*
X38684Y7111D01*
X38532Y7212D01*
X38354Y7248D01*
X38354Y7248D02*
G37*
G36*
X40803Y7215D02*
X40625Y7179D01*
X40473Y7078D01*
X40372Y6927D01*
X40337Y6748D01*
X40372Y6570D01*
X40473Y6419D01*
X40625Y6318D01*
X40803Y6282D01*
X40981Y6318D01*
X41133Y6419D01*
X41234Y6570D01*
X41269Y6748D01*
X41234Y6927D01*
X41133Y7078D01*
X40981Y7179D01*
X40803Y7215D01*
X40803Y7215D02*
G37*
G36*
X57434Y6978D02*
X57285Y6949D01*
X57159Y6864D01*
X57075Y6738D01*
X57045Y6590D01*
X57075Y6441D01*
X57113Y6383D01*
X57134Y6352D01*
X57043Y6260D01*
X57012Y6281D01*
X56954Y6320D01*
X56805Y6349D01*
X56656Y6320D01*
X56530Y6236D01*
X56446Y6110D01*
X56417Y5961D01*
X56446Y5812D01*
X56530Y5686D01*
X56656Y5602D01*
X56805Y5573D01*
X56954Y5602D01*
X57080Y5686D01*
X57164Y5812D01*
X57193Y5961D01*
X57164Y6110D01*
X57125Y6168D01*
X57104Y6199D01*
X57196Y6290D01*
X57227Y6269D01*
X57285Y6231D01*
X57434Y6201D01*
X57582Y6231D01*
X57708Y6315D01*
X57793Y6441D01*
X57822Y6590D01*
X57793Y6738D01*
X57708Y6864D01*
X57582Y6949D01*
X57434Y6978D01*
X57434Y6978D02*
G37*
G36*
X48144Y7165D02*
X47945Y7125D01*
X47777Y7013D01*
X47665Y6845D01*
X47626Y6647D01*
X47665Y6449D01*
X47777Y6281D01*
X47945Y6168D01*
X48144Y6129D01*
X48342Y6168D01*
X48510Y6281D01*
X48622Y6449D01*
X48662Y6647D01*
X48622Y6845D01*
X48510Y7013D01*
X48342Y7125D01*
X48144Y7165D01*
X48144Y7165D02*
G37*
G36*
X23393Y7756D02*
X23215Y7720D01*
X23064Y7619D01*
X22963Y7468D01*
X22927Y7290D01*
X22963Y7111D01*
X23064Y6960D01*
X23215Y6859D01*
X23393Y6824D01*
X23572Y6859D01*
X23644Y6829D01*
X23649Y6807D01*
X23750Y6655D01*
X23901Y6554D01*
X24077Y6519D01*
X24063Y6452D01*
X24099Y6273D01*
X24200Y6122D01*
X24351Y6021D01*
X24530Y5985D01*
X24708Y6021D01*
X24859Y6122D01*
X24960Y6273D01*
X24996Y6452D01*
X24960Y6630D01*
X24859Y6781D01*
X24708Y6882D01*
X24532Y6917D01*
X24545Y6985D01*
X24510Y7163D01*
X24409Y7315D01*
X24258Y7416D01*
X24079Y7451D01*
X23901Y7416D01*
X23829Y7446D01*
X23824Y7468D01*
X23723Y7619D01*
X23572Y7720D01*
X23393Y7756D01*
X23393Y7756D02*
G37*
G36*
X46222Y6928D02*
X46023Y6888D01*
X45855Y6776D01*
X45743Y6608D01*
X45704Y6410D01*
X45743Y6211D01*
X45855Y6043D01*
X46023Y5931D01*
X46222Y5892D01*
X46420Y5931D01*
X46588Y6043D01*
X46700Y6211D01*
X46740Y6410D01*
X46700Y6608D01*
X46588Y6776D01*
X46420Y6888D01*
X46222Y6928D01*
X46222Y6928D02*
G37*
G36*
X34580Y6792D02*
X34402Y6756D01*
X34250Y6655D01*
X34149Y6504D01*
X34114Y6326D01*
X34149Y6147D01*
X34250Y5996D01*
X34402Y5895D01*
X34580Y5860D01*
X34758Y5895D01*
X34910Y5996D01*
X35011Y6147D01*
X35046Y6326D01*
X35011Y6504D01*
X34910Y6655D01*
X34758Y6756D01*
X34580Y6792D01*
X34580Y6792D02*
G37*
G36*
X54059Y5850D02*
X53861Y5810D01*
X53693Y5698D01*
X53675Y5671D01*
X53538Y5762D01*
X53340Y5801D01*
X53142Y5762D01*
X52974Y5649D01*
X52861Y5481D01*
X52822Y5283D01*
X52831Y5240D01*
X52782Y5118D01*
X52782Y4779D01*
X52472Y4469D01*
X52260Y4306D01*
X52097Y4094D01*
X51995Y3847D01*
X51960Y3581D01*
X51995Y3316D01*
X52097Y3069D01*
X52260Y2857D01*
X52472Y2694D01*
X52719Y2592D01*
X52984Y2557D01*
X55899Y2557D01*
X56037Y2694D01*
X56249Y2857D01*
X56412Y3069D01*
X56514Y3316D01*
X56549Y3581D01*
X56514Y3847D01*
X56412Y4094D01*
X56249Y4306D01*
X56037Y4469D01*
X55790Y4571D01*
X55524Y4606D01*
X55259Y4571D01*
X54820Y4584D01*
X54715Y4844D01*
X54670Y4957D01*
X54605Y5118D01*
X54605Y5118D01*
X54557Y5230D01*
X54577Y5332D01*
X54538Y5530D01*
X54426Y5698D01*
X54257Y5810D01*
X54059Y5850D01*
X54059Y5850D02*
G37*
G36*
X12548Y6504D02*
X12369Y6469D01*
X12218Y6368D01*
X12117Y6216D01*
X12081Y6038D01*
X12117Y5860D01*
X12218Y5708D01*
X12369Y5607D01*
X12548Y5572D01*
X12726Y5607D01*
X12877Y5708D01*
X12978Y5860D01*
X13014Y6038D01*
X12978Y6216D01*
X12877Y6368D01*
X12726Y6469D01*
X12548Y6504D01*
X12548Y6504D02*
G37*
G36*
X7358Y6504D02*
X7180Y6469D01*
X7029Y6368D01*
X6928Y6216D01*
X6892Y6038D01*
X6928Y5860D01*
X7029Y5708D01*
X7180Y5607D01*
X7358Y5572D01*
X7537Y5607D01*
X7688Y5708D01*
X7789Y5860D01*
X7824Y6038D01*
X7789Y6216D01*
X7688Y6368D01*
X7537Y6469D01*
X7358Y6504D01*
X7358Y6504D02*
G37*
G36*
X36873Y6446D02*
X36675Y6407D01*
X36507Y6295D01*
X36395Y6127D01*
X36355Y5928D01*
X36395Y5730D01*
X36507Y5562D01*
X36675Y5450D01*
X36873Y5410D01*
X37071Y5450D01*
X37239Y5562D01*
X37352Y5730D01*
X37391Y5928D01*
X37352Y6127D01*
X37239Y6295D01*
X37071Y6407D01*
X36873Y6446D01*
X36873Y6446D02*
G37*
G36*
X30608Y6155D02*
X30429Y6119D01*
X30278Y6018D01*
X30177Y5867D01*
X30142Y5689D01*
X30177Y5510D01*
X30278Y5359D01*
X30429Y5258D01*
X30608Y5223D01*
X30786Y5258D01*
X30937Y5359D01*
X31038Y5510D01*
X31074Y5689D01*
X31038Y5867D01*
X30937Y6018D01*
X30786Y6119D01*
X30608Y6155D01*
X30608Y6155D02*
G37*
G36*
X26579Y6105D02*
X26401Y6069D01*
X26249Y5968D01*
X26148Y5817D01*
X26113Y5639D01*
X26148Y5460D01*
X26249Y5309D01*
X26401Y5208D01*
X26579Y5173D01*
X26757Y5208D01*
X26909Y5309D01*
X27010Y5460D01*
X27045Y5639D01*
X27010Y5817D01*
X26909Y5968D01*
X26757Y6069D01*
X26579Y6105D01*
X26579Y6105D02*
G37*
G36*
X25298Y6105D02*
X25120Y6069D01*
X24969Y5968D01*
X24868Y5817D01*
X24832Y5639D01*
X24868Y5460D01*
X24969Y5309D01*
X25120Y5208D01*
X25298Y5173D01*
X25477Y5208D01*
X25628Y5309D01*
X25729Y5460D01*
X25765Y5639D01*
X25729Y5817D01*
X25628Y5968D01*
X25477Y6069D01*
X25298Y6105D01*
X25298Y6105D02*
G37*
G36*
X50825Y6208D02*
X50627Y6168D01*
X50459Y6056D01*
X50347Y5888D01*
X50307Y5690D01*
X50347Y5491D01*
X50459Y5323D01*
X50627Y5211D01*
X50825Y5172D01*
X51024Y5211D01*
X51192Y5323D01*
X51304Y5491D01*
X51343Y5690D01*
X51304Y5888D01*
X51192Y6056D01*
X51024Y6168D01*
X50825Y6208D01*
X50825Y6208D02*
G37*
G36*
X29083Y6511D02*
X28905Y6476D01*
X28753Y6375D01*
X28652Y6224D01*
X28617Y6045D01*
X28643Y5915D01*
X28524Y5892D01*
X28372Y5791D01*
X28271Y5639D01*
X28236Y5461D01*
X28271Y5283D01*
X28372Y5131D01*
X28524Y5030D01*
X28702Y4995D01*
X28880Y5030D01*
X29032Y5131D01*
X29133Y5283D01*
X29168Y5461D01*
X29142Y5591D01*
X29261Y5615D01*
X29413Y5716D01*
X29514Y5867D01*
X29549Y6045D01*
X29514Y6224D01*
X29413Y6375D01*
X29261Y6476D01*
X29083Y6511D01*
X29083Y6511D02*
G37*
G36*
X20193Y5800D02*
X20015Y5765D01*
X19863Y5664D01*
X19762Y5512D01*
X19727Y5334D01*
X19762Y5156D01*
X19863Y5004D01*
X20015Y4903D01*
X20193Y4868D01*
X20371Y4903D01*
X20523Y5004D01*
X20624Y5156D01*
X20659Y5334D01*
X20624Y5512D01*
X20523Y5664D01*
X20371Y5765D01*
X20193Y5800D01*
X20193Y5800D02*
G37*
G36*
X9033Y4654D02*
X9033Y4654D01*
X9033Y4654D01*
X8861Y4631D01*
X8700Y4565D01*
X8562Y4459D01*
X8456Y4321D01*
X8390Y4160D01*
X8367Y3988D01*
X8390Y3815D01*
X8456Y3655D01*
X8562Y3517D01*
X8700Y3411D01*
X8861Y3344D01*
X9033Y3322D01*
X9033Y3322D01*
X9033Y3322D01*
X11573Y3322D01*
X11573Y3322D01*
X11745Y3344D01*
X11906Y3411D01*
X12044Y3517D01*
X12150Y3655D01*
X12216Y3815D01*
X12239Y3988D01*
X12216Y4160D01*
X12150Y4321D01*
X12044Y4459D01*
X11906Y4565D01*
X11745Y4631D01*
X11573Y4654D01*
X9033Y4654D01*
X9033Y4654D01*
X9033Y4654D02*
G37*
G36*
X71334Y5641D02*
X71136Y5601D01*
X70968Y5489D01*
X70855Y5321D01*
X70816Y5123D01*
X70855Y4925D01*
X70968Y4757D01*
X71136Y4644D01*
X71334Y4605D01*
X71532Y4644D01*
X71700Y4757D01*
X71812Y4925D01*
X71852Y5123D01*
X71812Y5321D01*
X71700Y5489D01*
X71532Y5601D01*
X71334Y5641D01*
X71334Y5641D02*
G37*
G36*
X31934Y5585D02*
X31736Y5546D01*
X31568Y5433D01*
X31456Y5265D01*
X31416Y5067D01*
X31456Y4869D01*
X31568Y4701D01*
X31736Y4589D01*
X31934Y4549D01*
X32132Y4589D01*
X32300Y4701D01*
X32413Y4869D01*
X32452Y5067D01*
X32413Y5265D01*
X32300Y5433D01*
X32132Y5546D01*
X31934Y5585D01*
X31934Y5585D02*
G37*
G36*
X61885Y5539D02*
X61687Y5500D01*
X61519Y5387D01*
X61406Y5219D01*
X61367Y5021D01*
X61406Y4823D01*
X61519Y4655D01*
X61687Y4543D01*
X61885Y4503D01*
X62083Y4543D01*
X62251Y4655D01*
X62364Y4823D01*
X62403Y5021D01*
X62364Y5219D01*
X62251Y5387D01*
X62083Y5500D01*
X61885Y5539D01*
X61885Y5539D02*
G37*
G36*
X68888Y5412D02*
X68690Y5373D01*
X68522Y5260D01*
X68410Y5092D01*
X68370Y4894D01*
X68410Y4696D01*
X68522Y4528D01*
X68690Y4416D01*
X68888Y4376D01*
X69087Y4416D01*
X69255Y4528D01*
X69367Y4696D01*
X69406Y4894D01*
X69367Y5092D01*
X69255Y5260D01*
X69087Y5373D01*
X68888Y5412D01*
X68888Y5412D02*
G37*
G36*
X27568Y5344D02*
X27369Y5305D01*
X27201Y5192D01*
X27089Y5024D01*
X27050Y4826D01*
X27089Y4628D01*
X27201Y4460D01*
X27369Y4347D01*
X27568Y4308D01*
X27766Y4347D01*
X27934Y4460D01*
X28046Y4628D01*
X28086Y4826D01*
X28046Y5024D01*
X27934Y5192D01*
X27766Y5305D01*
X27568Y5344D01*
X27568Y5344D02*
G37*
G36*
X36630Y4994D02*
X36451Y4959D01*
X36300Y4858D01*
X36199Y4707D01*
X36163Y4528D01*
X36199Y4350D01*
X36300Y4199D01*
X36451Y4098D01*
X36630Y4062D01*
X36808Y4098D01*
X36959Y4199D01*
X37060Y4350D01*
X37096Y4528D01*
X37060Y4707D01*
X36959Y4858D01*
X36808Y4959D01*
X36630Y4994D01*
X36630Y4994D02*
G37*
G36*
X66100Y5028D02*
X65901Y4989D01*
X65733Y4876D01*
X65621Y4708D01*
X65582Y4510D01*
X65621Y4312D01*
X65733Y4144D01*
X65901Y4032D01*
X66100Y3992D01*
X66298Y4032D01*
X66466Y4144D01*
X66578Y4312D01*
X66618Y4510D01*
X66578Y4708D01*
X66466Y4876D01*
X66298Y4989D01*
X66100Y5028D01*
X66100Y5028D02*
G37*
G36*
X57110Y5006D02*
X56912Y4966D01*
X56744Y4854D01*
X56631Y4686D01*
X56592Y4488D01*
X56631Y4290D01*
X56744Y4122D01*
X56912Y4009D01*
X57110Y3970D01*
X57308Y4009D01*
X57476Y4122D01*
X57588Y4290D01*
X57628Y4488D01*
X57588Y4686D01*
X57476Y4854D01*
X57308Y4966D01*
X57110Y5006D01*
X57110Y5006D02*
G37*
G36*
X24257Y4963D02*
X24059Y4924D01*
X23891Y4811D01*
X23778Y4643D01*
X23739Y4445D01*
X23778Y4247D01*
X23891Y4079D01*
X24059Y3966D01*
X24257Y3927D01*
X24455Y3966D01*
X24623Y4079D01*
X24736Y4247D01*
X24775Y4445D01*
X24736Y4643D01*
X24623Y4811D01*
X24455Y4924D01*
X24257Y4963D01*
X24257Y4963D02*
G37*
G36*
X30389Y4182D02*
X30192Y4156D01*
X30009Y4080D01*
X29851Y3959D01*
X29817Y3915D01*
X29691Y3915D01*
X29657Y3959D01*
X29499Y4080D01*
X29316Y4156D01*
X29119Y4182D01*
X28922Y4156D01*
X28739Y4080D01*
X28581Y3959D01*
X28548Y3915D01*
X28420Y3915D01*
X28387Y3959D01*
X28229Y4080D01*
X28046Y4156D01*
X27849Y4182D01*
X27652Y4156D01*
X27469Y4080D01*
X27311Y3959D01*
X27278Y3915D01*
X27150Y3915D01*
X27117Y3959D01*
X26959Y4080D01*
X26776Y4156D01*
X26579Y4182D01*
X26382Y4156D01*
X26199Y4080D01*
X26041Y3959D01*
X26007Y3915D01*
X25881Y3915D01*
X25847Y3959D01*
X25689Y4080D01*
X25506Y4156D01*
X25309Y4182D01*
X25112Y4156D01*
X24929Y4080D01*
X24771Y3959D01*
X24650Y3801D01*
X24574Y3618D01*
X24549Y3421D01*
X24574Y3224D01*
X24650Y3041D01*
X24771Y2883D01*
X24815Y2849D01*
X24815Y2723D01*
X24771Y2689D01*
X24650Y2531D01*
X24574Y2348D01*
X24549Y2151D01*
X24574Y1954D01*
X24650Y1771D01*
X24771Y1613D01*
X24929Y1492D01*
X25112Y1416D01*
X25309Y1390D01*
X25506Y1416D01*
X25689Y1492D01*
X25847Y1613D01*
X25968Y1771D01*
X26044Y1954D01*
X26070Y2151D01*
X26070Y2374D01*
X26342Y2647D01*
X28086Y2647D01*
X28384Y2348D01*
X28358Y2151D01*
X28384Y1954D01*
X28460Y1771D01*
X28581Y1613D01*
X28739Y1492D01*
X28922Y1416D01*
X29119Y1390D01*
X29316Y1416D01*
X29499Y1492D01*
X29657Y1613D01*
X29778Y1771D01*
X29854Y1954D01*
X29880Y2151D01*
X29879Y2422D01*
X30122Y2665D01*
X30389Y2660D01*
X30389Y2660D01*
X30506Y2676D01*
X30586Y2686D01*
X30769Y2762D01*
X30927Y2883D01*
X31048Y3041D01*
X31124Y3224D01*
X31150Y3421D01*
X31124Y3618D01*
X31048Y3801D01*
X30927Y3959D01*
X30769Y4080D01*
X30586Y4156D01*
X30389Y4182D01*
X30389Y4182D02*
G37*
G36*
X63572Y4783D02*
X63374Y4744D01*
X63206Y4632D01*
X63094Y4464D01*
X63054Y4265D01*
X63094Y4067D01*
X63206Y3899D01*
X63374Y3787D01*
X63572Y3747D01*
X63771Y3787D01*
X63939Y3899D01*
X64051Y4067D01*
X64090Y4265D01*
X64051Y4464D01*
X63939Y4632D01*
X63771Y4744D01*
X63572Y4783D01*
X63572Y4783D02*
G37*
G36*
X22830Y4433D02*
X22652Y4398D01*
X22500Y4297D01*
X22399Y4145D01*
X22364Y3967D01*
X22399Y3789D01*
X22500Y3637D01*
X22652Y3536D01*
X22830Y3501D01*
X23008Y3536D01*
X23160Y3637D01*
X23261Y3789D01*
X23296Y3967D01*
X23261Y4145D01*
X23160Y4297D01*
X23008Y4398D01*
X22830Y4433D01*
X22830Y4433D02*
G37*
G36*
X19609Y4705D02*
X19436Y4682D01*
X19276Y4615D01*
X19138Y4510D01*
X19032Y4372D01*
X18965Y4211D01*
X18943Y4039D01*
X18965Y3866D01*
X19032Y3706D01*
X19138Y3568D01*
X19276Y3462D01*
X19436Y3395D01*
X19609Y3372D01*
X19781Y3395D01*
X19942Y3462D01*
X20080Y3568D01*
X20186Y3706D01*
X20252Y3866D01*
X20275Y4039D01*
X20252Y4211D01*
X20186Y4372D01*
X20080Y4510D01*
X19942Y4615D01*
X19781Y4682D01*
X19609Y4705D01*
X19609Y4705D02*
G37*
G36*
X50444Y4606D02*
X50179Y4571D01*
X49932Y4469D01*
X49720Y4306D01*
X49557Y4094D01*
X49455Y3847D01*
X49420Y3581D01*
X49455Y3316D01*
X49557Y3069D01*
X49720Y2857D01*
X49932Y2694D01*
X50179Y2592D01*
X50444Y2557D01*
X50710Y2592D01*
X50957Y2694D01*
X51169Y2857D01*
X51332Y3069D01*
X51434Y3316D01*
X51469Y3581D01*
X51434Y3847D01*
X51332Y4094D01*
X51169Y4306D01*
X50957Y4469D01*
X50710Y4571D01*
X50444Y4606D01*
X50444Y4606D02*
G37*
G36*
X47904Y4606D02*
X47639Y4571D01*
X47392Y4469D01*
X47180Y4306D01*
X47017Y4094D01*
X46915Y3847D01*
X46880Y3581D01*
X46915Y3316D01*
X47017Y3069D01*
X47180Y2857D01*
X47392Y2694D01*
X47639Y2592D01*
X47904Y2557D01*
X48170Y2592D01*
X48417Y2694D01*
X48629Y2857D01*
X48792Y3069D01*
X48894Y3316D01*
X48929Y3581D01*
X48894Y3847D01*
X48792Y4094D01*
X48629Y4306D01*
X48417Y4469D01*
X48170Y4571D01*
X47904Y4606D01*
X47904Y4606D02*
G37*
G36*
X45339Y5471D02*
X45141Y5432D01*
X44973Y5319D01*
X44860Y5151D01*
X44821Y4953D01*
X44860Y4755D01*
X44936Y4641D01*
X44905Y4491D01*
X44852Y4469D01*
X44640Y4306D01*
X44477Y4094D01*
X44375Y3847D01*
X44340Y3581D01*
X44375Y3316D01*
X44477Y3069D01*
X44640Y2857D01*
X44852Y2694D01*
X45099Y2592D01*
X45364Y2557D01*
X45630Y2592D01*
X45877Y2694D01*
X46089Y2857D01*
X46252Y3069D01*
X46354Y3316D01*
X46389Y3581D01*
X46354Y3847D01*
X46252Y4094D01*
X46089Y4306D01*
X45877Y4469D01*
X45792Y4504D01*
X45753Y4658D01*
X45818Y4755D01*
X45857Y4953D01*
X45818Y5151D01*
X45705Y5319D01*
X45537Y5432D01*
X45339Y5471D01*
X45339Y5471D02*
G37*
G36*
X42824Y4606D02*
X42559Y4571D01*
X42312Y4469D01*
X42100Y4306D01*
X41937Y4094D01*
X41835Y3847D01*
X41800Y3581D01*
X41835Y3316D01*
X41937Y3069D01*
X42100Y2857D01*
X42312Y2694D01*
X42559Y2592D01*
X42824Y2557D01*
X43090Y2592D01*
X43337Y2694D01*
X43549Y2857D01*
X43712Y3069D01*
X43814Y3316D01*
X43849Y3581D01*
X43814Y3847D01*
X43712Y4094D01*
X43549Y4306D01*
X43337Y4469D01*
X43090Y4571D01*
X42824Y4606D01*
X42824Y4606D02*
G37*
G36*
X63953Y3334D02*
X63755Y3294D01*
X63587Y3182D01*
X63474Y3014D01*
X63435Y2816D01*
X63474Y2617D01*
X63587Y2449D01*
X63755Y2337D01*
X63953Y2298D01*
X64151Y2337D01*
X64319Y2449D01*
X64431Y2617D01*
X64471Y2816D01*
X64431Y3014D01*
X64319Y3182D01*
X64151Y3294D01*
X63953Y3334D01*
X63953Y3334D02*
G37*
G36*
X36703Y2879D02*
X36525Y2844D01*
X36373Y2743D01*
X36272Y2591D01*
X36237Y2413D01*
X36272Y2235D01*
X36373Y2083D01*
X36525Y1982D01*
X36703Y1947D01*
X36881Y1982D01*
X37033Y2083D01*
X37134Y2235D01*
X37169Y2413D01*
X37134Y2591D01*
X37033Y2743D01*
X36881Y2844D01*
X36703Y2879D01*
X36703Y2879D02*
G37*
G36*
X40284Y4606D02*
X40019Y4571D01*
X39772Y4469D01*
X39560Y4306D01*
X39397Y4094D01*
X39295Y3847D01*
X39260Y3581D01*
X39295Y3316D01*
X39397Y3069D01*
X39560Y2857D01*
X39772Y2694D01*
X39918Y2634D01*
X39932Y2490D01*
X39929Y2489D01*
X39828Y2337D01*
X39793Y2159D01*
X39828Y1981D01*
X39929Y1829D01*
X40081Y1728D01*
X40259Y1693D01*
X40437Y1728D01*
X40589Y1829D01*
X40690Y1981D01*
X40725Y2159D01*
X40690Y2337D01*
X40598Y2474D01*
X40596Y2519D01*
X40620Y2621D01*
X40797Y2694D01*
X41009Y2857D01*
X41172Y3069D01*
X41274Y3316D01*
X41309Y3581D01*
X41274Y3847D01*
X41172Y4094D01*
X41009Y4306D01*
X40797Y4469D01*
X40550Y4571D01*
X40284Y4606D01*
X40284Y4606D02*
G37*
G36*
X54570Y2101D02*
X54392Y2066D01*
X54240Y1964D01*
X54139Y1813D01*
X54104Y1635D01*
X54139Y1456D01*
X54240Y1305D01*
X54392Y1204D01*
X54570Y1169D01*
X54748Y1204D01*
X54900Y1305D01*
X55001Y1456D01*
X55036Y1635D01*
X55001Y1813D01*
X54900Y1964D01*
X54748Y2066D01*
X54570Y2101D01*
X54570Y2101D02*
G37*
G36*
X52023Y2101D02*
X51845Y2066D01*
X51694Y1964D01*
X51593Y1813D01*
X51557Y1635D01*
X51593Y1456D01*
X51694Y1305D01*
X51845Y1204D01*
X52023Y1169D01*
X52202Y1204D01*
X52353Y1305D01*
X52454Y1456D01*
X52489Y1635D01*
X52454Y1813D01*
X52353Y1964D01*
X52202Y2066D01*
X52023Y2101D01*
X52023Y2101D02*
G37*
G36*
X60099Y2169D02*
X59901Y2130D01*
X59733Y2017D01*
X59620Y1849D01*
X59581Y1651D01*
X59620Y1453D01*
X59733Y1285D01*
X59901Y1172D01*
X60099Y1133D01*
X60297Y1172D01*
X60465Y1285D01*
X60578Y1453D01*
X60617Y1651D01*
X60578Y1849D01*
X60465Y2017D01*
X60297Y2130D01*
X60099Y2169D01*
X60099Y2169D02*
G37*
G36*
X261582Y-110936D02*
X261508Y-110936D01*
X261418Y-110966D01*
X261329Y-110996D01*
X261240Y-111040D01*
X261150Y-111130D01*
X261091Y-111234D01*
X261076Y-111383D01*
X261076Y-111398D01*
X261076Y-111412D01*
X261091Y-111502D01*
X261136Y-111621D01*
X261225Y-111740D01*
X261255Y-111755D01*
X261329Y-111799D01*
X261433Y-111859D01*
X261582Y-111874D01*
X261597Y-111874D01*
X261656Y-111859D01*
X261731Y-111844D01*
X261820Y-111814D01*
X261895Y-111755D01*
X261969Y-111665D01*
X262029Y-111546D01*
X262043Y-111383D01*
X262043Y-111368D01*
X262043Y-111308D01*
X262014Y-111234D01*
X261984Y-111159D01*
X261924Y-111070D01*
X261850Y-111011D01*
X261731Y-110951D01*
X261582Y-110936D01*
X261582Y-110936D02*
G37*
%LPD*%
G36*
X261701Y-111100D02*
X261790Y-111145D01*
X261805Y-111204D01*
X261820Y-111264D01*
X261820Y-111293D01*
X261805Y-111353D01*
X261746Y-111427D01*
X261716Y-111442D01*
X261656Y-111457D01*
X261835Y-111740D01*
X261731Y-111740D01*
X261552Y-111457D01*
X261448Y-111457D01*
X261448Y-111740D01*
X261344Y-111740D01*
X261344Y-111070D01*
X261627Y-111070D01*
X261701Y-111100D01*
X261701Y-111100D02*
G37*
%LPC*%
G36*
X261612Y-111159D02*
X261448Y-111159D01*
X261448Y-111368D01*
X261627Y-111368D01*
X261671Y-111353D01*
X261701Y-111323D01*
X261716Y-111264D01*
X261716Y-111249D01*
X261701Y-111204D01*
X261671Y-111174D01*
X261612Y-111159D01*
X261612Y-111159D02*
G37*
G36*
X255927Y-112320D02*
X255882Y-112320D01*
X255838Y-112335D01*
X255778Y-112365D01*
X255704Y-112395D01*
X255614Y-112454D01*
X255540Y-112529D01*
X255451Y-112633D01*
X254543Y-113898D01*
X257251Y-118169D01*
X257266Y-118184D01*
X257296Y-118228D01*
X257341Y-118288D01*
X257400Y-118362D01*
X257460Y-118437D01*
X257534Y-118496D01*
X257623Y-118541D01*
X257698Y-118556D01*
X257743Y-118556D01*
X257787Y-118541D01*
X257862Y-118526D01*
X257936Y-118481D01*
X258010Y-118437D01*
X258085Y-118362D01*
X258159Y-118273D01*
X259112Y-116919D01*
X256403Y-112648D01*
X256388Y-112633D01*
X256373Y-112603D01*
X256329Y-112543D01*
X256269Y-112484D01*
X256195Y-112424D01*
X256120Y-112365D01*
X256031Y-112335D01*
X255927Y-112320D01*
X255927Y-112320D02*
G37*
G36*
X271092Y-122678D02*
X269722Y-122678D01*
X269722Y-123556D01*
X271166Y-123556D01*
X271211Y-123541D01*
X271255Y-123511D01*
X271285Y-123467D01*
X271330Y-123407D01*
X271345Y-123318D01*
X271359Y-123199D01*
X271359Y-123065D01*
X271359Y-123050D01*
X271359Y-123005D01*
X271345Y-122946D01*
X271330Y-122871D01*
X271300Y-122797D01*
X271240Y-122738D01*
X271181Y-122693D01*
X271092Y-122678D01*
X271092Y-122678D02*
G37*
G36*
X255585Y-122678D02*
X254320Y-122678D01*
X254320Y-123541D01*
X255704Y-123541D01*
X255748Y-123526D01*
X255808Y-123496D01*
X255853Y-123452D01*
X255897Y-123377D01*
X255927Y-123288D01*
X255942Y-123169D01*
X255942Y-123065D01*
X255942Y-123050D01*
X255942Y-123005D01*
X255927Y-122946D01*
X255897Y-122871D01*
X255853Y-122797D01*
X255793Y-122738D01*
X255704Y-122693D01*
X255585Y-122678D01*
X255585Y-122678D02*
G37*
G36*
X259186Y-122678D02*
X258219Y-122678D01*
X258129Y-122693D01*
X258010Y-122752D01*
X257951Y-122782D01*
X257906Y-122842D01*
X257891Y-122871D01*
X257876Y-122916D01*
X257862Y-122961D01*
X257832Y-123035D01*
X257817Y-123124D01*
X257802Y-123243D01*
X257802Y-123377D01*
X257802Y-123764D01*
X257802Y-123779D01*
X257802Y-123824D01*
X257802Y-123898D01*
X257817Y-123973D01*
X257832Y-124151D01*
X257847Y-124241D01*
X257876Y-124300D01*
X257891Y-124330D01*
X257951Y-124375D01*
X258055Y-124419D01*
X258204Y-124449D01*
X259156Y-124449D01*
X259216Y-124434D01*
X259290Y-124419D01*
X259365Y-124360D01*
X259454Y-124285D01*
X259513Y-124166D01*
X259573Y-123988D01*
X259588Y-123883D01*
X259588Y-123764D01*
X259588Y-123377D01*
X259588Y-123363D01*
X259588Y-123318D01*
X259588Y-123243D01*
X259573Y-123169D01*
X259528Y-122991D01*
X259484Y-122901D01*
X259439Y-122842D01*
X259439Y-122827D01*
X259409Y-122812D01*
X259350Y-122752D01*
X259246Y-122708D01*
X259186Y-122678D01*
X259186Y-122678D02*
G37*
%LPD*%
D11*
X274322Y-116797D02*
X356142Y-116797D01*
X331322Y-112297D02*
X331322Y-109297D01*
X356142Y-112297D02*
X356142Y-112297D01*
X331322Y-112297D02*
X356142Y-112297D01*
X350022Y-131897D02*
X350022Y-131297D01*
X352482Y-133932D02*
X352482Y-132662D01*
X349942Y-133932D02*
X349942Y-132662D01*
X347402Y-133932D02*
X347402Y-132662D01*
X355022Y-133932D02*
X355022Y-132662D01*
X344862Y-133932D02*
X344862Y-132662D01*
X344862Y-133297D02*
X355022Y-133297D01*
X355022Y-132097D02*
X355022Y-131097D01*
X345022Y-132097D02*
X345022Y-131097D01*
X345022Y-131597D02*
X355022Y-131597D01*
X341555Y-132897D02*
X341222Y-133364D01*
X341722Y-133364D01*
X341555Y-132897D02*
X341555Y-133597D01*
X342045Y-132897D02*
X341945Y-132931D01*
X341879Y-133031D01*
X341845Y-133197D01*
X341845Y-133297D01*
X341879Y-133464D01*
X341945Y-133564D01*
X342045Y-133597D01*
X342112Y-133597D01*
X342212Y-133564D01*
X342278Y-133464D01*
X342312Y-133297D01*
X342312Y-133197D01*
X342278Y-133031D01*
X342212Y-132931D01*
X342112Y-132897D01*
X342045Y-132897D01*
X342668Y-132897D02*
X342568Y-132931D01*
X342502Y-133031D01*
X342468Y-133197D01*
X342468Y-133297D01*
X342502Y-133464D01*
X342568Y-133564D01*
X342668Y-133597D01*
X342735Y-133597D01*
X342835Y-133564D01*
X342902Y-133464D01*
X342935Y-133297D01*
X342935Y-133197D01*
X342902Y-133031D01*
X342835Y-132931D01*
X342735Y-132897D01*
X342668Y-132897D01*
X343092Y-133131D02*
X343092Y-133597D01*
X343092Y-133264D02*
X343192Y-133164D01*
X343258Y-133131D01*
X343358Y-133131D01*
X343425Y-133164D01*
X343458Y-133264D01*
X343458Y-133597D01*
X343458Y-133264D02*
X343558Y-133164D01*
X343625Y-133131D01*
X343725Y-133131D01*
X343791Y-133164D01*
X343825Y-133264D01*
X343825Y-133597D01*
X344111Y-132897D02*
X344145Y-132931D01*
X344178Y-132897D01*
X344145Y-132864D01*
X344111Y-132897D01*
X344145Y-133131D02*
X344145Y-133597D01*
X344301Y-132897D02*
X344301Y-133597D01*
X341322Y-131331D02*
X341389Y-131297D01*
X341489Y-131197D01*
X341489Y-131897D01*
X342035Y-131197D02*
X341935Y-131231D01*
X341869Y-131331D01*
X341835Y-131497D01*
X341835Y-131597D01*
X341869Y-131764D01*
X341935Y-131864D01*
X342035Y-131897D01*
X342102Y-131897D01*
X342202Y-131864D01*
X342268Y-131764D01*
X342302Y-131597D01*
X342302Y-131497D01*
X342268Y-131331D01*
X342202Y-131231D01*
X342102Y-131197D01*
X342035Y-131197D01*
X342458Y-131431D02*
X342458Y-131897D01*
X342458Y-131564D02*
X342558Y-131464D01*
X342625Y-131431D01*
X342725Y-131431D01*
X342792Y-131464D01*
X342825Y-131564D01*
X342825Y-131897D01*
X342825Y-131564D02*
X342925Y-131464D01*
X342992Y-131431D01*
X343092Y-131431D01*
X343158Y-131464D01*
X343192Y-131564D01*
X343192Y-131897D01*
X343412Y-131431D02*
X343412Y-131897D01*
X343412Y-131564D02*
X343512Y-131464D01*
X343578Y-131431D01*
X343678Y-131431D01*
X343745Y-131464D01*
X343778Y-131564D01*
X343778Y-131897D01*
X343778Y-131564D02*
X343878Y-131464D01*
X343945Y-131431D01*
X344045Y-131431D01*
X344111Y-131464D01*
X344145Y-131564D01*
X344145Y-131897D01*
D13*
X47396Y12675D02*
X47930Y12471D01*
X245322Y87203D02*
X245322Y91703D01*
X336322Y87203D02*
X336322Y91703D01*
X234322Y87203D02*
X355822Y87203D01*
X234322Y87203D02*
X234322Y91703D01*
X336322Y91703D02*
X336322Y96203D01*
X257822Y91703D02*
X257822Y96203D01*
X245322Y91703D02*
X245322Y96203D01*
X234322Y91703D02*
X355822Y91703D01*
X234322Y91703D02*
X234322Y96203D01*
X257822Y87203D02*
X257822Y91703D01*
X341322Y94226D02*
X341322Y92703D01*
X342084Y92703D01*
X342338Y92957D01*
X342338Y93972D01*
X342084Y94226D01*
X341322Y94226D01*
X343099Y93718D02*
X343607Y93718D01*
X343861Y93465D01*
X343861Y92703D01*
X343099Y92703D01*
X342846Y92957D01*
X343099Y93211D01*
X343861Y93211D01*
X344623Y93972D02*
X344623Y93718D01*
X344369Y93718D01*
X344877Y93718D01*
X344623Y93718D01*
X344623Y92957D01*
X344877Y92703D01*
X346400Y92703D02*
X345893Y92703D01*
X345639Y92957D01*
X345639Y93465D01*
X345893Y93718D01*
X346400Y93718D01*
X346654Y93465D01*
X346654Y93211D01*
X345639Y93211D01*
X294338Y93972D02*
X294084Y94226D01*
X293576Y94226D01*
X293322Y93972D01*
X293322Y92957D01*
X293576Y92703D01*
X294084Y92703D01*
X294338Y92957D01*
X295099Y92703D02*
X295607Y92703D01*
X295861Y92957D01*
X295861Y93465D01*
X295607Y93718D01*
X295099Y93718D01*
X294846Y93465D01*
X294846Y92957D01*
X295099Y92703D01*
X296369Y92703D02*
X296369Y93718D01*
X296623Y93718D01*
X296877Y93465D01*
X296877Y92703D01*
X296877Y93465D01*
X297131Y93718D01*
X297385Y93465D01*
X297385Y92703D01*
X297893Y92703D02*
X297893Y93718D01*
X298146Y93718D01*
X298400Y93465D01*
X298400Y92703D01*
X298400Y93465D01*
X298654Y93718D01*
X298908Y93465D01*
X298908Y92703D01*
X300178Y92703D02*
X299670Y92703D01*
X299416Y92957D01*
X299416Y93465D01*
X299670Y93718D01*
X300178Y93718D01*
X300432Y93465D01*
X300432Y93211D01*
X299416Y93211D01*
X300940Y92703D02*
X300940Y93718D01*
X301701Y93718D01*
X301955Y93465D01*
X301955Y92703D01*
X302717Y93972D02*
X302717Y93718D01*
X302463Y93718D01*
X302971Y93718D01*
X302717Y93718D01*
X302717Y92957D01*
X302971Y92703D01*
X303733Y92703D02*
X304494Y92703D01*
X304748Y92957D01*
X304494Y93211D01*
X303987Y93211D01*
X303733Y93465D01*
X303987Y93718D01*
X304748Y93718D01*
X247838Y94726D02*
X246822Y94726D01*
X246822Y93203D01*
X247838Y93203D01*
X246822Y93965D02*
X247330Y93965D01*
X249361Y94472D02*
X249107Y94726D01*
X248599Y94726D01*
X248346Y94472D01*
X248346Y93457D01*
X248599Y93203D01*
X249107Y93203D01*
X249361Y93457D01*
X250631Y94726D02*
X250123Y94726D01*
X249869Y94472D01*
X249869Y93457D01*
X250123Y93203D01*
X250631Y93203D01*
X250885Y93457D01*
X250885Y94472D01*
X250631Y94726D01*
X236822Y93203D02*
X236822Y94726D01*
X237584Y94726D01*
X237838Y94472D01*
X237838Y93965D01*
X237584Y93711D01*
X236822Y93711D01*
X237330Y93711D02*
X237838Y93203D01*
X239361Y94726D02*
X238346Y94726D01*
X238346Y93203D01*
X239361Y93203D01*
X238346Y93965D02*
X238853Y93965D01*
X239869Y94726D02*
X239869Y93711D01*
X240377Y93203D01*
X240885Y93711D01*
X240885Y94726D01*
D15*
X1734Y29999D02*
G03*
X0Y28264I0J-1734D01*
G01*
X77000Y28146D02*
G03*
X75147Y29999I-1853J0D01*
G01*
X75283Y0D02*
G03*
X77000Y1717I0J1717D01*
G01*
X0Y1649D02*
G03*
X1649Y0I1649J0D01*
G01*
X-1Y7341D02*
X6274Y7341D01*
X-1Y1702D02*
X-1Y7341D01*
X6274Y7341D02*
X6274Y23495D01*
X0Y23495D02*
X6274Y23495D01*
X0Y23495D02*
X0Y28264D01*
X1649Y-0D02*
X75283Y0D01*
X1734Y29999D02*
X75147Y29999D01*
X77000Y1717D02*
X77000Y28146D01*
X274322Y-134717D02*
X274322Y-109297D01*
X240322Y-134717D02*
X240322Y-109297D01*
X356142Y-109297D01*
X297722Y96423D02*
X297722Y101503D01*
X234222Y96423D02*
X234222Y101503D01*
X170722Y96423D02*
X170722Y101503D01*
X107222Y96423D02*
X107222Y101503D01*
X-14698Y96423D02*
X356142Y96423D01*
X-19778Y101503D02*
X361222Y101503D01*
X43722Y96423D02*
X43722Y101503D01*
X356142Y-134717D02*
X356142Y96423D01*
X361222Y-139797D02*
X361222Y101503D01*
X356142Y41178D02*
X361222Y41178D01*
X356142Y-19147D02*
X361222Y-19147D01*
X356142Y-79472D02*
X361222Y-79472D01*
X297722Y-139797D02*
X297722Y-134717D01*
X234222Y-139797D02*
X234222Y-134717D01*
X170722Y-139797D02*
X170722Y-134717D01*
X107222Y-139797D02*
X107222Y-134717D01*
X356142Y-134717D02*
X356142Y-104237D01*
X-19778Y-139797D02*
X-19778Y101503D01*
X-19778Y-139797D02*
X361222Y-139797D01*
X-14698Y-134717D02*
X-14698Y96423D01*
X-14698Y-134717D02*
X356142Y-134717D01*
X-19778Y41178D02*
X-14698Y41178D01*
X-19778Y-19147D02*
X-14698Y-19147D01*
X-19778Y-79472D02*
X-14698Y-79472D01*
X43722Y-139797D02*
X43722Y-134717D01*
X206282Y-134717D02*
X241842Y-134717D01*
X274322Y-130297D02*
X356142Y-130297D01*
X274322Y-124297D02*
X356142Y-124297D01*
X340822Y-134717D02*
X340822Y-124297D01*
X302322Y-134717D02*
X302322Y-118297D01*
X274322Y-118297D02*
X356142Y-118297D01*
X320322Y-130297D02*
X320322Y-124297D01*
X333322Y-134717D02*
X333322Y-130297D01*
X304138Y-119427D02*
X304084Y-119318D01*
X303975Y-119209D01*
X303866Y-119154D01*
X303648Y-119154D01*
X303540Y-119209D01*
X303431Y-119318D01*
X303376Y-119427D01*
X303322Y-119590D01*
X303322Y-119862D01*
X303376Y-120025D01*
X303431Y-120134D01*
X303540Y-120243D01*
X303648Y-120297D01*
X303866Y-120297D01*
X303975Y-120243D01*
X304084Y-120134D01*
X304138Y-120025D01*
X304138Y-119862D01*
X303866Y-119862D02*
X304138Y-119862D01*
X305107Y-119154D02*
X304399Y-119154D01*
X304399Y-120297D01*
X305107Y-120297D01*
X304399Y-119699D02*
X304835Y-119699D01*
X305297Y-119154D02*
X305297Y-120297D01*
X305297Y-119154D02*
X305787Y-119154D01*
X305950Y-119209D01*
X306005Y-119263D01*
X306059Y-119372D01*
X306059Y-119481D01*
X306005Y-119590D01*
X305950Y-119644D01*
X305787Y-119699D01*
X305297Y-119699D01*
X305678Y-119699D02*
X306059Y-120297D01*
X306315Y-119154D02*
X306315Y-120297D01*
X306315Y-119154D02*
X306805Y-119154D01*
X306968Y-119209D01*
X307022Y-119263D01*
X307077Y-119372D01*
X307077Y-119481D01*
X307022Y-119590D01*
X306968Y-119644D01*
X306805Y-119699D01*
X306315Y-119699D02*
X306805Y-119699D01*
X306968Y-119753D01*
X307022Y-119807D01*
X307077Y-119916D01*
X307077Y-120080D01*
X307022Y-120188D01*
X306968Y-120243D01*
X306805Y-120297D01*
X306315Y-120297D01*
X308040Y-119154D02*
X307333Y-119154D01*
X307333Y-120297D01*
X308040Y-120297D01*
X307333Y-119699D02*
X307768Y-119699D01*
X308230Y-119154D02*
X308230Y-120297D01*
X308230Y-119154D02*
X308720Y-119154D01*
X308883Y-119209D01*
X308938Y-119263D01*
X308992Y-119372D01*
X308992Y-119481D01*
X308938Y-119590D01*
X308883Y-119644D01*
X308720Y-119699D01*
X308230Y-119699D01*
X308611Y-119699D02*
X308992Y-120297D01*
X310146Y-119154D02*
X310146Y-120297D01*
X310146Y-119154D02*
X310853Y-119154D01*
X310146Y-119699D02*
X310581Y-119699D01*
X310984Y-119154D02*
X310984Y-120297D01*
X311223Y-119154D02*
X311223Y-120297D01*
X311876Y-120297D01*
X312709Y-119154D02*
X312001Y-119154D01*
X312001Y-120297D01*
X312709Y-120297D01*
X312001Y-119699D02*
X312437Y-119699D01*
X312954Y-119535D02*
X312899Y-119590D01*
X312954Y-119644D01*
X313008Y-119590D01*
X312954Y-119535D01*
X312954Y-120188D02*
X312899Y-120243D01*
X312954Y-120297D01*
X313008Y-120243D01*
X312954Y-120188D01*
X275322Y-133031D02*
X275564Y-134047D01*
X275806Y-133031D02*
X275564Y-134047D01*
X275806Y-133031D02*
X276048Y-134047D01*
X276289Y-133031D02*
X276048Y-134047D01*
X276493Y-133031D02*
X276493Y-134047D01*
X276493Y-133031D02*
X276928Y-133031D01*
X277073Y-133080D01*
X277121Y-133128D01*
X277170Y-133225D01*
X277170Y-133322D01*
X277121Y-133418D01*
X277073Y-133467D01*
X276928Y-133515D01*
X276493Y-133515D02*
X276928Y-133515D01*
X277073Y-133563D01*
X277121Y-133612D01*
X277170Y-133709D01*
X277170Y-133854D01*
X277121Y-133950D01*
X277073Y-133999D01*
X276928Y-134047D01*
X276493Y-134047D01*
X278074Y-133031D02*
X277397Y-134047D01*
X277397Y-133031D02*
X278074Y-133031D01*
X277397Y-134047D02*
X278074Y-134047D01*
X278785Y-133031D02*
X278302Y-133709D01*
X279027Y-133709D01*
X278785Y-133031D02*
X278785Y-134047D01*
X279787Y-133031D02*
X279303Y-133031D01*
X279255Y-133467D01*
X279303Y-133418D01*
X279448Y-133370D01*
X279593Y-133370D01*
X279738Y-133418D01*
X279835Y-133515D01*
X279883Y-133660D01*
X279883Y-133757D01*
X279835Y-133902D01*
X279738Y-133999D01*
X279593Y-134047D01*
X279448Y-134047D01*
X279303Y-133999D01*
X279255Y-133950D01*
X279206Y-133854D01*
X280111Y-133225D02*
X280207Y-133177D01*
X280353Y-133031D01*
X280353Y-134047D01*
X282379Y-133273D02*
X282331Y-133177D01*
X282234Y-133080D01*
X282137Y-133031D01*
X281944Y-133031D01*
X281847Y-133080D01*
X281750Y-133177D01*
X281702Y-133273D01*
X281654Y-133418D01*
X281654Y-133660D01*
X281702Y-133805D01*
X281750Y-133902D01*
X281847Y-133999D01*
X281944Y-134047D01*
X282137Y-134047D01*
X282234Y-133999D01*
X282331Y-133902D01*
X282379Y-133805D01*
X282665Y-133370D02*
X282665Y-133854D01*
X282713Y-133999D01*
X282810Y-134047D01*
X282955Y-134047D01*
X283052Y-133999D01*
X283197Y-133854D01*
X283197Y-133370D02*
X283197Y-134047D01*
X283463Y-133370D02*
X283463Y-134047D01*
X283463Y-133660D02*
X283511Y-133515D01*
X283608Y-133418D01*
X283705Y-133370D01*
X283850Y-133370D01*
X284038Y-133031D02*
X284087Y-133080D01*
X284135Y-133031D01*
X284087Y-132983D01*
X284038Y-133031D01*
X284087Y-133370D02*
X284087Y-134047D01*
X284556Y-133370D02*
X284459Y-133418D01*
X284362Y-133515D01*
X284314Y-133660D01*
X284314Y-133757D01*
X284362Y-133902D01*
X284459Y-133999D01*
X284556Y-134047D01*
X284701Y-134047D01*
X284798Y-133999D01*
X284895Y-133902D01*
X284943Y-133757D01*
X284943Y-133660D01*
X284895Y-133515D01*
X284798Y-133418D01*
X284701Y-133370D01*
X284556Y-133370D01*
X285697Y-133515D02*
X285649Y-133418D01*
X285504Y-133370D01*
X285359Y-133370D01*
X285214Y-133418D01*
X285165Y-133515D01*
X285214Y-133612D01*
X285311Y-133660D01*
X285552Y-133709D01*
X285649Y-133757D01*
X285697Y-133854D01*
X285697Y-133902D01*
X285649Y-133999D01*
X285504Y-134047D01*
X285359Y-134047D01*
X285214Y-133999D01*
X285165Y-133902D01*
X286007Y-133031D02*
X286055Y-133080D01*
X286104Y-133031D01*
X286055Y-132983D01*
X286007Y-133031D01*
X286055Y-133370D02*
X286055Y-134047D01*
X286428Y-133031D02*
X286428Y-133854D01*
X286476Y-133999D01*
X286573Y-134047D01*
X286670Y-134047D01*
X286283Y-133370D02*
X286621Y-133370D01*
X286863Y-133370D02*
X287153Y-134047D01*
X287444Y-133370D02*
X287153Y-134047D01*
X287057Y-134241D01*
X286960Y-134337D01*
X286863Y-134386D01*
X286815Y-134386D01*
X288411Y-133031D02*
X288411Y-134047D01*
X288411Y-133031D02*
X288846Y-133031D01*
X288992Y-133080D01*
X289040Y-133128D01*
X289088Y-133225D01*
X289088Y-133322D01*
X289040Y-133418D01*
X288992Y-133467D01*
X288846Y-133515D01*
X288411Y-133515D02*
X288846Y-133515D01*
X288992Y-133563D01*
X289040Y-133612D01*
X289088Y-133709D01*
X289088Y-133854D01*
X289040Y-133950D01*
X288992Y-133999D01*
X288846Y-134047D01*
X288411Y-134047D01*
X289557Y-133370D02*
X289461Y-133418D01*
X289364Y-133515D01*
X289316Y-133660D01*
X289316Y-133757D01*
X289364Y-133902D01*
X289461Y-133999D01*
X289557Y-134047D01*
X289703Y-134047D01*
X289799Y-133999D01*
X289896Y-133902D01*
X289944Y-133757D01*
X289944Y-133660D01*
X289896Y-133515D01*
X289799Y-133418D01*
X289703Y-133370D01*
X289557Y-133370D01*
X290747Y-133370D02*
X290747Y-134047D01*
X290747Y-133515D02*
X290651Y-133418D01*
X290554Y-133370D01*
X290409Y-133370D01*
X290312Y-133418D01*
X290215Y-133515D01*
X290167Y-133660D01*
X290167Y-133757D01*
X290215Y-133902D01*
X290312Y-133999D01*
X290409Y-134047D01*
X290554Y-134047D01*
X290651Y-133999D01*
X290747Y-133902D01*
X291018Y-133370D02*
X291018Y-134047D01*
X291018Y-133660D02*
X291067Y-133515D01*
X291163Y-133418D01*
X291260Y-133370D01*
X291405Y-133370D01*
X292078Y-133031D02*
X292078Y-134047D01*
X292078Y-133515D02*
X291981Y-133418D01*
X291884Y-133370D01*
X291739Y-133370D01*
X291642Y-133418D01*
X291546Y-133515D01*
X291497Y-133660D01*
X291497Y-133757D01*
X291546Y-133902D01*
X291642Y-133999D01*
X291739Y-134047D01*
X291884Y-134047D01*
X291981Y-133999D01*
X292078Y-133902D01*
X292348Y-133612D02*
X293219Y-133612D01*
X293519Y-133031D02*
X293519Y-134047D01*
X293519Y-133031D02*
X293954Y-133031D01*
X294099Y-133080D01*
X294148Y-133128D01*
X294196Y-133225D01*
X294196Y-133322D01*
X294148Y-133418D01*
X294099Y-133467D01*
X293954Y-133515D01*
X293519Y-133515D01*
X293858Y-133515D02*
X294196Y-134047D01*
X294907Y-133031D02*
X294424Y-133709D01*
X295149Y-133709D01*
X294907Y-133031D02*
X294907Y-134047D01*
X295376Y-133950D02*
X295328Y-133999D01*
X295376Y-134047D01*
X295425Y-133999D01*
X295376Y-133950D01*
X295647Y-133563D02*
X296083Y-133563D01*
X296228Y-133515D01*
X296276Y-133467D01*
X296325Y-133370D01*
X296325Y-133225D01*
X296276Y-133128D01*
X296228Y-133080D01*
X296083Y-133031D01*
X295647Y-133031D01*
X295647Y-134047D01*
X297132Y-133515D02*
X297036Y-133418D01*
X296939Y-133370D01*
X296794Y-133370D01*
X296697Y-133418D01*
X296600Y-133515D01*
X296552Y-133660D01*
X296552Y-133757D01*
X296600Y-133902D01*
X296697Y-133999D01*
X296794Y-134047D01*
X296939Y-134047D01*
X297036Y-133999D01*
X297132Y-133902D01*
X297350Y-133031D02*
X297350Y-134047D01*
X297350Y-133515D02*
X297447Y-133418D01*
X297543Y-133370D01*
X297689Y-133370D01*
X297785Y-133418D01*
X297882Y-133515D01*
X297930Y-133660D01*
X297930Y-133757D01*
X297882Y-133902D01*
X297785Y-133999D01*
X297689Y-134047D01*
X297543Y-134047D01*
X297447Y-133999D01*
X297350Y-133902D01*
X298148Y-133031D02*
X298148Y-134047D01*
X298148Y-133031D02*
X298487Y-133031D01*
X298632Y-133080D01*
X298729Y-133177D01*
X298777Y-133273D01*
X298825Y-133418D01*
X298825Y-133660D01*
X298777Y-133805D01*
X298729Y-133902D01*
X298632Y-133999D01*
X298487Y-134047D01*
X298148Y-134047D01*
X299294Y-133370D02*
X299198Y-133418D01*
X299101Y-133515D01*
X299053Y-133660D01*
X299053Y-133757D01*
X299101Y-133902D01*
X299198Y-133999D01*
X299294Y-134047D01*
X299440Y-134047D01*
X299536Y-133999D01*
X299633Y-133902D01*
X299681Y-133757D01*
X299681Y-133660D01*
X299633Y-133515D01*
X299536Y-133418D01*
X299440Y-133370D01*
X299294Y-133370D01*
X300484Y-133515D02*
X300388Y-133418D01*
X300291Y-133370D01*
X300146Y-133370D01*
X300049Y-133418D01*
X299952Y-133515D01*
X299904Y-133660D01*
X299904Y-133757D01*
X299952Y-133902D01*
X300049Y-133999D01*
X300146Y-134047D01*
X300291Y-134047D01*
X300388Y-133999D01*
X300484Y-133902D01*
X276029Y-125154D02*
X275322Y-125154D01*
X275322Y-126297D01*
X276029Y-126297D01*
X275322Y-125699D02*
X275757Y-125699D01*
X276220Y-125154D02*
X276220Y-126297D01*
X276220Y-125154D02*
X276982Y-126297D01*
X276982Y-125154D02*
X276982Y-126297D01*
X278114Y-125427D02*
X278059Y-125318D01*
X277950Y-125209D01*
X277842Y-125154D01*
X277624Y-125154D01*
X277515Y-125209D01*
X277406Y-125318D01*
X277352Y-125427D01*
X277297Y-125590D01*
X277297Y-125862D01*
X277352Y-126025D01*
X277406Y-126134D01*
X277515Y-126243D01*
X277624Y-126297D01*
X277842Y-126297D01*
X277950Y-126243D01*
X278059Y-126134D01*
X278114Y-126025D01*
X278114Y-125862D01*
X277842Y-125862D02*
X278114Y-125862D01*
X278375Y-125154D02*
X278375Y-126297D01*
X278614Y-125154D02*
X278614Y-126297D01*
X278614Y-125154D02*
X279376Y-126297D01*
X279376Y-125154D02*
X279376Y-126297D01*
X280399Y-125154D02*
X279692Y-125154D01*
X279692Y-126297D01*
X280399Y-126297D01*
X279692Y-125699D02*
X280127Y-125699D01*
X281297Y-125154D02*
X280590Y-125154D01*
X280590Y-126297D01*
X281297Y-126297D01*
X280590Y-125699D02*
X281025Y-125699D01*
X281487Y-125154D02*
X281487Y-126297D01*
X281487Y-125154D02*
X281977Y-125154D01*
X282140Y-125209D01*
X282195Y-125263D01*
X282249Y-125372D01*
X282249Y-125481D01*
X282195Y-125590D01*
X282140Y-125644D01*
X281977Y-125699D01*
X281487Y-125699D01*
X281868Y-125699D02*
X282249Y-126297D01*
X282559Y-125535D02*
X282505Y-125590D01*
X282559Y-125644D01*
X282614Y-125590D01*
X282559Y-125535D01*
X282559Y-126188D02*
X282505Y-126243D01*
X282559Y-126297D01*
X282614Y-126243D01*
X282559Y-126188D01*
X275703Y-110654D02*
X275703Y-111797D01*
X275322Y-110654D02*
X276084Y-110654D01*
X276220Y-110654D02*
X276220Y-111797D01*
X276840Y-110654D02*
X276840Y-111797D01*
X276459Y-110654D02*
X277221Y-110654D01*
X277357Y-110654D02*
X277357Y-111797D01*
X278010Y-111797D01*
X278843Y-110654D02*
X278135Y-110654D01*
X278135Y-111797D01*
X278843Y-111797D01*
X278135Y-111199D02*
X278571Y-111199D01*
X279088Y-111035D02*
X279033Y-111090D01*
X279088Y-111144D01*
X279142Y-111090D01*
X279088Y-111035D01*
X279088Y-111688D02*
X279033Y-111743D01*
X279088Y-111797D01*
X279142Y-111743D01*
X279088Y-111688D01*
X275322Y-119753D02*
X275812Y-119753D01*
X275975Y-119699D01*
X276029Y-119644D01*
X276084Y-119535D01*
X276084Y-119372D01*
X276029Y-119263D01*
X275975Y-119209D01*
X275812Y-119154D01*
X275322Y-119154D01*
X275322Y-120297D01*
X277156Y-119427D02*
X277101Y-119318D01*
X276993Y-119209D01*
X276884Y-119154D01*
X276666Y-119154D01*
X276557Y-119209D01*
X276448Y-119318D01*
X276394Y-119427D01*
X276340Y-119590D01*
X276340Y-119862D01*
X276394Y-120025D01*
X276448Y-120134D01*
X276557Y-120243D01*
X276666Y-120297D01*
X276884Y-120297D01*
X276993Y-120243D01*
X277101Y-120134D01*
X277156Y-120025D01*
X277477Y-119154D02*
X277477Y-120297D01*
X277477Y-119154D02*
X277967Y-119154D01*
X278130Y-119209D01*
X278184Y-119263D01*
X278239Y-119372D01*
X278239Y-119481D01*
X278184Y-119590D01*
X278130Y-119644D01*
X277967Y-119699D01*
X277477Y-119699D02*
X277967Y-119699D01*
X278130Y-119753D01*
X278184Y-119807D01*
X278239Y-119916D01*
X278239Y-120080D01*
X278184Y-120188D01*
X278130Y-120243D01*
X277967Y-120297D01*
X277477Y-120297D01*
X279392Y-119154D02*
X279392Y-120297D01*
X279392Y-119154D02*
X279773Y-119154D01*
X279937Y-119209D01*
X280045Y-119318D01*
X280100Y-119427D01*
X280154Y-119590D01*
X280154Y-119862D01*
X280100Y-120025D01*
X280045Y-120134D01*
X279937Y-120243D01*
X279773Y-120297D01*
X279392Y-120297D01*
X281117Y-119154D02*
X280410Y-119154D01*
X280410Y-120297D01*
X281117Y-120297D01*
X280410Y-119699D02*
X280845Y-119699D01*
X282070Y-119318D02*
X281961Y-119209D01*
X281798Y-119154D01*
X281580Y-119154D01*
X281417Y-119209D01*
X281308Y-119318D01*
X281308Y-119427D01*
X281362Y-119535D01*
X281417Y-119590D01*
X281526Y-119644D01*
X281852Y-119753D01*
X281961Y-119807D01*
X282015Y-119862D01*
X282070Y-119971D01*
X282070Y-120134D01*
X281961Y-120243D01*
X281798Y-120297D01*
X281580Y-120297D01*
X281417Y-120243D01*
X281308Y-120134D01*
X282325Y-119154D02*
X282325Y-120297D01*
X283381Y-119427D02*
X283327Y-119318D01*
X283218Y-119209D01*
X283109Y-119154D01*
X282891Y-119154D01*
X282783Y-119209D01*
X282674Y-119318D01*
X282619Y-119427D01*
X282565Y-119590D01*
X282565Y-119862D01*
X282619Y-120025D01*
X282674Y-120134D01*
X282783Y-120243D01*
X282891Y-120297D01*
X283109Y-120297D01*
X283218Y-120243D01*
X283327Y-120134D01*
X283381Y-120025D01*
X283381Y-119862D01*
X283109Y-119862D02*
X283381Y-119862D01*
X283642Y-119154D02*
X283642Y-120297D01*
X283642Y-119154D02*
X284404Y-120297D01*
X284404Y-119154D02*
X284404Y-120297D01*
X285427Y-119154D02*
X284720Y-119154D01*
X284720Y-120297D01*
X285427Y-120297D01*
X284720Y-119699D02*
X285155Y-119699D01*
X285618Y-119154D02*
X285618Y-120297D01*
X285618Y-119154D02*
X286107Y-119154D01*
X286271Y-119209D01*
X286325Y-119263D01*
X286380Y-119372D01*
X286380Y-119481D01*
X286325Y-119590D01*
X286271Y-119644D01*
X286107Y-119699D01*
X285618Y-119699D01*
X285999Y-119699D02*
X286380Y-120297D01*
X286690Y-119535D02*
X286635Y-119590D01*
X286690Y-119644D01*
X286744Y-119590D01*
X286690Y-119535D01*
X286690Y-120188D02*
X286635Y-120243D01*
X286690Y-120297D01*
X286744Y-120243D01*
X286690Y-120188D01*
X275322Y-131503D02*
X275812Y-131503D01*
X275975Y-131449D01*
X276029Y-131394D01*
X276084Y-131285D01*
X276084Y-131122D01*
X276029Y-131013D01*
X275975Y-130959D01*
X275812Y-130904D01*
X275322Y-130904D01*
X275322Y-132047D01*
X277156Y-131177D02*
X277101Y-131068D01*
X276993Y-130959D01*
X276884Y-130904D01*
X276666Y-130904D01*
X276557Y-130959D01*
X276448Y-131068D01*
X276394Y-131177D01*
X276340Y-131340D01*
X276340Y-131612D01*
X276394Y-131775D01*
X276448Y-131884D01*
X276557Y-131993D01*
X276666Y-132047D01*
X276884Y-132047D01*
X276993Y-131993D01*
X277101Y-131884D01*
X277156Y-131775D01*
X277477Y-130904D02*
X277477Y-132047D01*
X277477Y-130904D02*
X277967Y-130904D01*
X278130Y-130959D01*
X278184Y-131013D01*
X278239Y-131122D01*
X278239Y-131231D01*
X278184Y-131340D01*
X278130Y-131394D01*
X277967Y-131449D01*
X277477Y-131449D02*
X277967Y-131449D01*
X278130Y-131503D01*
X278184Y-131557D01*
X278239Y-131666D01*
X278239Y-131830D01*
X278184Y-131938D01*
X278130Y-131993D01*
X277967Y-132047D01*
X277477Y-132047D01*
X279392Y-130904D02*
X279392Y-132047D01*
X279392Y-130904D02*
X280100Y-130904D01*
X279392Y-131449D02*
X279828Y-131449D01*
X280230Y-130904D02*
X280230Y-132047D01*
X280470Y-130904D02*
X280470Y-132047D01*
X281123Y-132047D01*
X281955Y-130904D02*
X281248Y-130904D01*
X281248Y-132047D01*
X281955Y-132047D01*
X281248Y-131449D02*
X281683Y-131449D01*
X283044Y-130904D02*
X283044Y-132047D01*
X283044Y-130904D02*
X283806Y-132047D01*
X283806Y-130904D02*
X283806Y-132047D01*
X284992Y-132047D02*
X284557Y-130904D01*
X284121Y-132047D01*
X284284Y-131666D02*
X284829Y-131666D01*
X285259Y-130904D02*
X285259Y-132047D01*
X285259Y-130904D02*
X285694Y-132047D01*
X286129Y-130904D02*
X285694Y-132047D01*
X286129Y-130904D02*
X286129Y-132047D01*
X287163Y-130904D02*
X286456Y-130904D01*
X286456Y-132047D01*
X287163Y-132047D01*
X286456Y-131449D02*
X286891Y-131449D01*
X287408Y-131285D02*
X287354Y-131340D01*
X287408Y-131394D01*
X287462Y-131340D01*
X287408Y-131285D01*
X287408Y-131938D02*
X287354Y-131993D01*
X287408Y-132047D01*
X287462Y-131993D01*
X287408Y-131938D01*
X303322Y-125154D02*
X303322Y-126297D01*
X303322Y-125154D02*
X303812Y-125154D01*
X303975Y-125209D01*
X304029Y-125263D01*
X304084Y-125372D01*
X304084Y-125481D01*
X304029Y-125590D01*
X303975Y-125644D01*
X303812Y-125699D01*
X303322Y-125699D02*
X303812Y-125699D01*
X303975Y-125753D01*
X304029Y-125807D01*
X304084Y-125916D01*
X304084Y-126080D01*
X304029Y-126188D01*
X303975Y-126243D01*
X303812Y-126297D01*
X303322Y-126297D01*
X304666Y-125154D02*
X304557Y-125209D01*
X304448Y-125318D01*
X304394Y-125427D01*
X304340Y-125590D01*
X304340Y-125862D01*
X304394Y-126025D01*
X304448Y-126134D01*
X304557Y-126243D01*
X304666Y-126297D01*
X304884Y-126297D01*
X304993Y-126243D01*
X305101Y-126134D01*
X305156Y-126025D01*
X305210Y-125862D01*
X305210Y-125590D01*
X305156Y-125427D01*
X305101Y-125318D01*
X304993Y-125209D01*
X304884Y-125154D01*
X304666Y-125154D01*
X306348Y-126297D02*
X305912Y-125154D01*
X305477Y-126297D01*
X305640Y-125916D02*
X306184Y-125916D01*
X306614Y-125154D02*
X306614Y-126297D01*
X306614Y-125154D02*
X307104Y-125154D01*
X307267Y-125209D01*
X307322Y-125263D01*
X307376Y-125372D01*
X307376Y-125481D01*
X307322Y-125590D01*
X307267Y-125644D01*
X307104Y-125699D01*
X306614Y-125699D01*
X306995Y-125699D02*
X307376Y-126297D01*
X307632Y-125154D02*
X307632Y-126297D01*
X307632Y-125154D02*
X308013Y-125154D01*
X308176Y-125209D01*
X308285Y-125318D01*
X308339Y-125427D01*
X308394Y-125590D01*
X308394Y-125862D01*
X308339Y-126025D01*
X308285Y-126134D01*
X308176Y-126243D01*
X308013Y-126297D01*
X307632Y-126297D01*
X309547Y-125154D02*
X309547Y-126297D01*
X309547Y-125154D02*
X310309Y-126297D01*
X310309Y-125154D02*
X310309Y-126297D01*
X310625Y-125154D02*
X310625Y-125971D01*
X310679Y-126134D01*
X310788Y-126243D01*
X310951Y-126297D01*
X311060Y-126297D01*
X311223Y-126243D01*
X311332Y-126134D01*
X311387Y-125971D01*
X311387Y-125154D01*
X311702Y-125154D02*
X311702Y-126297D01*
X311702Y-125154D02*
X312138Y-126297D01*
X312573Y-125154D02*
X312138Y-126297D01*
X312573Y-125154D02*
X312573Y-126297D01*
X312899Y-125154D02*
X312899Y-126297D01*
X312899Y-125154D02*
X313389Y-125154D01*
X313552Y-125209D01*
X313607Y-125263D01*
X313661Y-125372D01*
X313661Y-125481D01*
X313607Y-125590D01*
X313552Y-125644D01*
X313389Y-125699D01*
X312899Y-125699D02*
X313389Y-125699D01*
X313552Y-125753D01*
X313607Y-125807D01*
X313661Y-125916D01*
X313661Y-126080D01*
X313607Y-126188D01*
X313552Y-126243D01*
X313389Y-126297D01*
X312899Y-126297D01*
X314624Y-125154D02*
X313917Y-125154D01*
X313917Y-126297D01*
X314624Y-126297D01*
X313917Y-125699D02*
X314352Y-125699D01*
X314815Y-125154D02*
X314815Y-126297D01*
X314815Y-125154D02*
X315305Y-125154D01*
X315468Y-125209D01*
X315522Y-125263D01*
X315577Y-125372D01*
X315577Y-125481D01*
X315522Y-125590D01*
X315468Y-125644D01*
X315305Y-125699D01*
X314815Y-125699D01*
X315196Y-125699D02*
X315577Y-126297D01*
X315887Y-125535D02*
X315832Y-125590D01*
X315887Y-125644D01*
X315941Y-125590D01*
X315887Y-125535D01*
X315887Y-126188D02*
X315832Y-126243D01*
X315887Y-126297D01*
X315941Y-126243D01*
X315887Y-126188D01*
X342022Y-125154D02*
X342022Y-126297D01*
X342022Y-125154D02*
X342403Y-125154D01*
X342566Y-125209D01*
X342675Y-125318D01*
X342729Y-125427D01*
X342784Y-125590D01*
X342784Y-125862D01*
X342729Y-126025D01*
X342675Y-126134D01*
X342566Y-126243D01*
X342403Y-126297D01*
X342022Y-126297D01*
X343910Y-126297D02*
X343475Y-125154D01*
X343040Y-126297D01*
X343203Y-125916D02*
X343747Y-125916D01*
X344558Y-125154D02*
X344558Y-126297D01*
X344177Y-125154D02*
X344939Y-125154D01*
X345782Y-125154D02*
X345075Y-125154D01*
X345075Y-126297D01*
X345782Y-126297D01*
X345075Y-125699D02*
X345510Y-125699D01*
X346027Y-125535D02*
X345973Y-125590D01*
X346027Y-125644D01*
X346082Y-125590D01*
X346027Y-125535D01*
X346027Y-126188D02*
X345973Y-126243D01*
X346027Y-126297D01*
X346082Y-126243D01*
X346027Y-126188D01*
X303322Y-130654D02*
X303322Y-131797D01*
X303975Y-131797D01*
X304971Y-131797D02*
X304535Y-130654D01*
X304100Y-131797D01*
X304263Y-131416D02*
X304808Y-131416D01*
X305237Y-130654D02*
X305673Y-131199D01*
X305673Y-131797D01*
X306108Y-130654D02*
X305673Y-131199D01*
X306962Y-130654D02*
X306255Y-130654D01*
X306255Y-131797D01*
X306962Y-131797D01*
X306255Y-131199D02*
X306690Y-131199D01*
X307153Y-130654D02*
X307153Y-131797D01*
X307153Y-130654D02*
X307643Y-130654D01*
X307806Y-130709D01*
X307860Y-130763D01*
X307915Y-130872D01*
X307915Y-130981D01*
X307860Y-131090D01*
X307806Y-131144D01*
X307643Y-131199D01*
X307153Y-131199D01*
X307534Y-131199D02*
X307915Y-131797D01*
X309068Y-130654D02*
X309068Y-131797D01*
X309068Y-130654D02*
X309830Y-131797D01*
X309830Y-130654D02*
X309830Y-131797D01*
X311017Y-131797D02*
X310581Y-130654D01*
X310146Y-131797D01*
X310309Y-131416D02*
X310853Y-131416D01*
X311283Y-130654D02*
X311283Y-131797D01*
X311283Y-130654D02*
X311719Y-131797D01*
X312154Y-130654D02*
X311719Y-131797D01*
X312154Y-130654D02*
X312154Y-131797D01*
X313188Y-130654D02*
X312480Y-130654D01*
X312480Y-131797D01*
X313188Y-131797D01*
X312480Y-131199D02*
X312916Y-131199D01*
X313433Y-131035D02*
X313378Y-131090D01*
X313433Y-131144D01*
X313487Y-131090D01*
X313433Y-131035D01*
X313433Y-131688D02*
X313378Y-131743D01*
X313433Y-131797D01*
X313487Y-131743D01*
X313433Y-131688D01*
X334072Y-130904D02*
X334072Y-132047D01*
X334072Y-130904D02*
X334562Y-130904D01*
X334725Y-130959D01*
X334779Y-131013D01*
X334834Y-131122D01*
X334834Y-131231D01*
X334779Y-131340D01*
X334725Y-131394D01*
X334562Y-131449D01*
X334072Y-131449D01*
X334453Y-131449D02*
X334834Y-132047D01*
X335797Y-130904D02*
X335090Y-130904D01*
X335090Y-132047D01*
X335797Y-132047D01*
X335090Y-131449D02*
X335525Y-131449D01*
X335987Y-130904D02*
X336423Y-132047D01*
X336858Y-130904D02*
X336423Y-132047D01*
X337059Y-131285D02*
X337005Y-131340D01*
X337059Y-131394D01*
X337114Y-131340D01*
X337059Y-131285D01*
X337059Y-131938D02*
X337005Y-131993D01*
X337059Y-132047D01*
X337114Y-131993D01*
X337059Y-131938D01*
D16*
X345108Y-110277D02*
X344322Y-110277D01*
X344322Y-111547D01*
X345108Y-111547D01*
X344322Y-110882D02*
X344806Y-110882D01*
X345320Y-110277D02*
X345803Y-111547D01*
X346287Y-110277D02*
X345803Y-111547D01*
X347236Y-110701D02*
X347176Y-110882D01*
X347055Y-111003D01*
X346874Y-111063D01*
X346813Y-111063D01*
X346632Y-111003D01*
X346511Y-110882D01*
X346450Y-110701D01*
X346450Y-110640D01*
X346511Y-110459D01*
X346632Y-110338D01*
X346813Y-110277D01*
X346874Y-110277D01*
X347055Y-110338D01*
X347176Y-110459D01*
X347236Y-110701D01*
X347236Y-111003D01*
X347176Y-111305D01*
X347055Y-111487D01*
X346874Y-111547D01*
X346753Y-111547D01*
X346571Y-111487D01*
X346511Y-111366D01*
X348307Y-110459D02*
X348246Y-110338D01*
X348065Y-110277D01*
X347944Y-110277D01*
X347762Y-110338D01*
X347641Y-110519D01*
X347581Y-110822D01*
X347581Y-111124D01*
X347641Y-111366D01*
X347762Y-111487D01*
X347944Y-111547D01*
X348004Y-111547D01*
X348186Y-111487D01*
X348307Y-111366D01*
X348367Y-111184D01*
X348367Y-111124D01*
X348307Y-110943D01*
X348186Y-110822D01*
X348004Y-110761D01*
X347944Y-110761D01*
X347762Y-110822D01*
X347641Y-110943D01*
X347581Y-111124D01*
X348645Y-110277D02*
X348645Y-111547D01*
X348645Y-110277D02*
X349189Y-110277D01*
X349371Y-110338D01*
X349431Y-110398D01*
X349492Y-110519D01*
X349492Y-110640D01*
X349431Y-110761D01*
X349371Y-110822D01*
X349189Y-110882D01*
X348645Y-110882D02*
X349189Y-110882D01*
X349371Y-110943D01*
X349431Y-111003D01*
X349492Y-111124D01*
X349492Y-111305D01*
X349431Y-111426D01*
X349371Y-111487D01*
X349189Y-111547D01*
X348645Y-111547D01*
X350562Y-110701D02*
X350501Y-110882D01*
X350380Y-111003D01*
X350199Y-111063D01*
X350139Y-111063D01*
X349957Y-111003D01*
X349836Y-110882D01*
X349776Y-110701D01*
X349776Y-110640D01*
X349836Y-110459D01*
X349957Y-110338D01*
X350139Y-110277D01*
X350199Y-110277D01*
X350380Y-110338D01*
X350501Y-110459D01*
X350562Y-110701D01*
X350562Y-111003D01*
X350501Y-111305D01*
X350380Y-111487D01*
X350199Y-111547D01*
X350078Y-111547D01*
X349897Y-111487D01*
X349836Y-111366D01*
X351511Y-110277D02*
X350906Y-111124D01*
X351813Y-111124D01*
X351511Y-110277D02*
X351511Y-111547D01*
X353005Y-111547D02*
X352521Y-110277D01*
X352037Y-111547D01*
X352219Y-111124D02*
X352823Y-111124D01*
D18*
X303893Y-132905D02*
X303822Y-132762D01*
X303679Y-132619D01*
X303536Y-132548D01*
X303250Y-132548D01*
X303108Y-132619D01*
X302965Y-132762D01*
X302893Y-132905D01*
X302822Y-133119D01*
X302822Y-133476D01*
X302893Y-133690D01*
X302965Y-133833D01*
X303108Y-133976D01*
X303250Y-134047D01*
X303536Y-134047D01*
X303679Y-133976D01*
X303822Y-133833D01*
X303893Y-133690D01*
X303893Y-133476D01*
X303536Y-133476D02*
X303893Y-133476D01*
X304236Y-132548D02*
X304236Y-134047D01*
X304236Y-132548D02*
X305236Y-134047D01*
X305236Y-132548D02*
X305236Y-134047D01*
X305650Y-132548D02*
X305650Y-134047D01*
X305650Y-132548D02*
X306150Y-132548D01*
X306364Y-132619D01*
X306507Y-132762D01*
X306578Y-132905D01*
X306650Y-133119D01*
X306650Y-133476D01*
X306578Y-133690D01*
X306507Y-133833D01*
X306364Y-133976D01*
X306150Y-134047D01*
X305650Y-134047D01*
X322518Y-132525D02*
X322518Y-133795D01*
X322518Y-132525D02*
X323062Y-132525D01*
X323243Y-132586D01*
X323304Y-132646D01*
X323364Y-132767D01*
X323364Y-132888D01*
X323304Y-133009D01*
X323243Y-133070D01*
X323062Y-133130D01*
X322518Y-133130D02*
X323062Y-133130D01*
X323243Y-133190D01*
X323304Y-133251D01*
X323364Y-133372D01*
X323364Y-133553D01*
X323304Y-133674D01*
X323243Y-133735D01*
X323062Y-133795D01*
X322518Y-133795D01*
X324011Y-132525D02*
X323890Y-132586D01*
X323769Y-132707D01*
X323709Y-132828D01*
X323648Y-133009D01*
X323648Y-133311D01*
X323709Y-133493D01*
X323769Y-133614D01*
X323890Y-133735D01*
X324011Y-133795D01*
X324253Y-133795D01*
X324374Y-133735D01*
X324495Y-133614D01*
X324555Y-133493D01*
X324616Y-133311D01*
X324616Y-133009D01*
X324555Y-132828D01*
X324495Y-132707D01*
X324374Y-132586D01*
X324253Y-132525D01*
X324011Y-132525D01*
X325879Y-133795D02*
X325396Y-132525D01*
X324912Y-133795D01*
X325093Y-133372D02*
X325698Y-133372D01*
X326176Y-132525D02*
X326176Y-133795D01*
X326176Y-132525D02*
X326720Y-132525D01*
X326901Y-132586D01*
X326962Y-132646D01*
X327022Y-132767D01*
X327022Y-132888D01*
X326962Y-133009D01*
X326901Y-133070D01*
X326720Y-133130D01*
X326176Y-133130D01*
X326599Y-133130D02*
X327022Y-133795D01*
X327306Y-132525D02*
X327306Y-133795D01*
X327306Y-132525D02*
X327729Y-132525D01*
X327911Y-132586D01*
X328032Y-132707D01*
X328092Y-132828D01*
X328153Y-133009D01*
X328153Y-133311D01*
X328092Y-133493D01*
X328032Y-133614D01*
X327911Y-133735D01*
X327729Y-133795D01*
X327306Y-133795D01*
X329858Y-132284D02*
X329737Y-132404D01*
X329616Y-132586D01*
X329495Y-132828D01*
X329435Y-133130D01*
X329435Y-133372D01*
X329495Y-133674D01*
X329616Y-133916D01*
X329737Y-134097D01*
X329858Y-134218D01*
X329737Y-132404D02*
X329616Y-132646D01*
X329555Y-132828D01*
X329495Y-133130D01*
X329495Y-133372D01*
X329555Y-133674D01*
X329616Y-133856D01*
X329737Y-134097D01*
X330100Y-132525D02*
X330100Y-133795D01*
X330100Y-132525D02*
X330583Y-133795D01*
X331067Y-132525D02*
X330583Y-133795D01*
X331067Y-132525D02*
X331067Y-133795D01*
X331490Y-132828D02*
X331490Y-132767D01*
X331551Y-132646D01*
X331611Y-132586D01*
X331732Y-132525D01*
X331974Y-132525D01*
X332095Y-132586D01*
X332155Y-132646D01*
X332216Y-132767D01*
X332216Y-132888D01*
X332155Y-133009D01*
X332034Y-133190D01*
X331430Y-133795D01*
X332276Y-133795D01*
X332560Y-132284D02*
X332681Y-132404D01*
X332802Y-132586D01*
X332923Y-132828D01*
X332984Y-133130D01*
X332984Y-133372D01*
X332923Y-133674D01*
X332802Y-133916D01*
X332681Y-134097D01*
X332560Y-134218D01*
X332681Y-132404D02*
X332802Y-132646D01*
X332863Y-132828D01*
X332923Y-133130D01*
X332923Y-133372D01*
X332863Y-133674D01*
X332802Y-133856D01*
X332681Y-134097D01*
X342022Y-128083D02*
X342165Y-128012D01*
X342379Y-127798D01*
X342379Y-129297D01*
X343122Y-129511D02*
X344122Y-127798D01*
X344222Y-128083D02*
X344364Y-128012D01*
X344579Y-127798D01*
X344579Y-129297D01*
X346321Y-127798D02*
X345607Y-129297D01*
X345321Y-127798D02*
X346321Y-127798D01*
X346657Y-129511D02*
X347657Y-127798D01*
X347828Y-128155D02*
X347828Y-128083D01*
X347899Y-127940D01*
X347971Y-127869D01*
X348114Y-127798D01*
X348399Y-127798D01*
X348542Y-127869D01*
X348613Y-127940D01*
X348685Y-128083D01*
X348685Y-128226D01*
X348613Y-128369D01*
X348471Y-128583D01*
X347757Y-129297D01*
X348756Y-129297D01*
X349520Y-127798D02*
X349306Y-127869D01*
X349163Y-128083D01*
X349092Y-128440D01*
X349092Y-128654D01*
X349163Y-129012D01*
X349306Y-129226D01*
X349520Y-129297D01*
X349663Y-129297D01*
X349877Y-129226D01*
X350020Y-129012D01*
X350092Y-128654D01*
X350092Y-128440D01*
X350020Y-128083D01*
X349877Y-127869D01*
X349663Y-127798D01*
X349520Y-127798D01*
X350499Y-128155D02*
X350499Y-128083D01*
X350570Y-127940D01*
X350642Y-127869D01*
X350784Y-127798D01*
X351070Y-127798D01*
X351213Y-127869D01*
X351284Y-127940D01*
X351356Y-128083D01*
X351356Y-128226D01*
X351284Y-128369D01*
X351141Y-128583D01*
X350427Y-129297D01*
X351427Y-129297D01*
X351834Y-128155D02*
X351834Y-128083D01*
X351906Y-127940D01*
X351977Y-127869D01*
X352120Y-127798D01*
X352405Y-127798D01*
X352548Y-127869D01*
X352620Y-127940D01*
X352691Y-128083D01*
X352691Y-128226D01*
X352620Y-128369D01*
X352477Y-128583D01*
X351763Y-129297D01*
X352763Y-129297D01*
X332322Y-110821D02*
X332750Y-110821D01*
X332893Y-110773D01*
X332941Y-110726D01*
X332989Y-110631D01*
X332989Y-110488D01*
X332941Y-110393D01*
X332893Y-110345D01*
X332750Y-110297D01*
X332322Y-110297D01*
X332322Y-111297D01*
X333974Y-111297D02*
X333593Y-110297D01*
X333212Y-111297D01*
X333355Y-110964D02*
X333831Y-110964D01*
X334207Y-110297D02*
X334207Y-111297D01*
X334207Y-110297D02*
X334636Y-110297D01*
X334779Y-110345D01*
X334826Y-110393D01*
X334874Y-110488D01*
X334874Y-110583D01*
X334826Y-110678D01*
X334779Y-110726D01*
X334636Y-110773D01*
X334207Y-110773D01*
X334541Y-110773D02*
X334874Y-111297D01*
X335431Y-110297D02*
X335431Y-111297D01*
X335098Y-110297D02*
X335764Y-110297D01*
X336669Y-110297D02*
X336669Y-111297D01*
X336669Y-110297D02*
X337335Y-111297D01*
X337335Y-110297D02*
X337335Y-111297D01*
X337611Y-110297D02*
X337611Y-111012D01*
X337659Y-111154D01*
X337754Y-111250D01*
X337897Y-111297D01*
X337992Y-111297D01*
X338135Y-111250D01*
X338230Y-111154D01*
X338278Y-111012D01*
X338278Y-110297D01*
X338554Y-110297D02*
X338554Y-111297D01*
X338554Y-110297D02*
X338935Y-111297D01*
X339316Y-110297D02*
X338935Y-111297D01*
X339316Y-110297D02*
X339316Y-111297D01*
X339601Y-110297D02*
X339601Y-111297D01*
X339601Y-110297D02*
X340030Y-110297D01*
X340173Y-110345D01*
X340220Y-110393D01*
X340268Y-110488D01*
X340268Y-110583D01*
X340220Y-110678D01*
X340173Y-110726D01*
X340030Y-110773D01*
X339601Y-110773D02*
X340030Y-110773D01*
X340173Y-110821D01*
X340220Y-110869D01*
X340268Y-110964D01*
X340268Y-111107D01*
X340220Y-111202D01*
X340173Y-111250D01*
X340030Y-111297D01*
X339601Y-111297D01*
X341111Y-110297D02*
X340492Y-110297D01*
X340492Y-111297D01*
X341111Y-111297D01*
X340492Y-110773D02*
X340873Y-110773D01*
X341277Y-110297D02*
X341277Y-111297D01*
X341277Y-110297D02*
X341706Y-110297D01*
X341849Y-110345D01*
X341896Y-110393D01*
X341944Y-110488D01*
X341944Y-110583D01*
X341896Y-110678D01*
X341849Y-110726D01*
X341706Y-110773D01*
X341277Y-110773D01*
X341611Y-110773D02*
X341944Y-111297D01*
X342215Y-110631D02*
X342168Y-110678D01*
X342215Y-110726D01*
X342263Y-110678D01*
X342215Y-110631D01*
X342215Y-111202D02*
X342168Y-111250D01*
X342215Y-111297D01*
X342263Y-111250D01*
X342215Y-111202D01*
D22*
X338192Y-132441D02*
X337478Y-133441D01*
X338549Y-133441D01*
X338192Y-132441D02*
X338192Y-133941D01*
X338885Y-133798D02*
X338814Y-133869D01*
X338885Y-133941D01*
X338957Y-133869D01*
X338885Y-133798D01*
X339714Y-132441D02*
X339499Y-132512D01*
X339356Y-132727D01*
X339285Y-133084D01*
X339285Y-133298D01*
X339356Y-133655D01*
X339499Y-133869D01*
X339714Y-133941D01*
X339856Y-133941D01*
X340071Y-133869D01*
X340213Y-133655D01*
X340285Y-133298D01*
X340285Y-133084D01*
X340213Y-132727D01*
X340071Y-132512D01*
X339856Y-132441D01*
X339714Y-132441D01*
X11498Y99640D02*
X11667Y99724D01*
X11921Y99978D01*
X11921Y98201D01*
X74972Y99555D02*
X74972Y99640D01*
X75057Y99809D01*
X75142Y99894D01*
X75311Y99978D01*
X75650Y99978D01*
X75819Y99894D01*
X75904Y99809D01*
X75988Y99640D01*
X75988Y99471D01*
X75904Y99301D01*
X75734Y99047D01*
X74888Y98201D01*
X76073Y98201D01*
X138286Y99978D02*
X139218Y99978D01*
X138710Y99301D01*
X138964Y99301D01*
X139133Y99217D01*
X139218Y99132D01*
X139302Y98878D01*
X139302Y98709D01*
X139218Y98455D01*
X139048Y98285D01*
X138794Y98201D01*
X138540Y98201D01*
X138286Y98285D01*
X138202Y98370D01*
X138117Y98539D01*
X202633Y99978D02*
X201786Y98793D01*
X203056Y98793D01*
X202633Y99978D02*
X202633Y98201D01*
X266277Y99978D02*
X265430Y99978D01*
X265345Y99217D01*
X265430Y99301D01*
X265684Y99386D01*
X265938Y99386D01*
X266192Y99301D01*
X266361Y99132D01*
X266446Y98878D01*
X266446Y98709D01*
X266361Y98455D01*
X266192Y98285D01*
X265938Y98201D01*
X265684Y98201D01*
X265430Y98285D01*
X265345Y98370D01*
X265261Y98539D01*
X329904Y99724D02*
X329819Y99894D01*
X329565Y99978D01*
X329396Y99978D01*
X329142Y99894D01*
X328972Y99640D01*
X328888Y99217D01*
X328888Y98793D01*
X328972Y98455D01*
X329142Y98285D01*
X329396Y98201D01*
X329480Y98201D01*
X329734Y98285D01*
X329904Y98455D01*
X329988Y98709D01*
X329988Y98793D01*
X329904Y99047D01*
X329734Y99217D01*
X329480Y99301D01*
X329396Y99301D01*
X329142Y99217D01*
X328972Y99047D01*
X328888Y98793D01*
X359401Y69169D02*
X358724Y70946D01*
X358047Y69169D01*
X358301Y69761D02*
X359147Y69761D01*
X358047Y10494D02*
X358047Y8717D01*
X358047Y10494D02*
X358809Y10494D01*
X359063Y10410D01*
X359147Y10325D01*
X359232Y10156D01*
X359232Y9986D01*
X359147Y9817D01*
X359063Y9732D01*
X358809Y9648D01*
X358047Y9648D02*
X358809Y9648D01*
X359063Y9563D01*
X359147Y9478D01*
X359232Y9309D01*
X359232Y9055D01*
X359147Y8886D01*
X359063Y8801D01*
X358809Y8717D01*
X358047Y8717D01*
X359317Y-50254D02*
X359232Y-50085D01*
X359063Y-49915D01*
X358893Y-49831D01*
X358555Y-49831D01*
X358386Y-49915D01*
X358216Y-50085D01*
X358132Y-50254D01*
X358047Y-50508D01*
X358047Y-50931D01*
X358132Y-51185D01*
X358216Y-51354D01*
X358386Y-51524D01*
X358555Y-51608D01*
X358893Y-51608D01*
X359063Y-51524D01*
X359232Y-51354D01*
X359317Y-51185D01*
X358047Y-110029D02*
X358047Y-111806D01*
X358047Y-110029D02*
X358640Y-110029D01*
X358893Y-110113D01*
X359063Y-110283D01*
X359147Y-110452D01*
X359232Y-110706D01*
X359232Y-111129D01*
X359147Y-111383D01*
X359063Y-111552D01*
X358893Y-111722D01*
X358640Y-111806D01*
X358047Y-111806D01*
X-16519Y69169D02*
X-17196Y70946D01*
X-17873Y69169D01*
X-17619Y69761D02*
X-16773Y69761D01*
X-17873Y10494D02*
X-17873Y8717D01*
X-17873Y10494D02*
X-17111Y10494D01*
X-16857Y10410D01*
X-16773Y10325D01*
X-16688Y10156D01*
X-16688Y9986D01*
X-16773Y9817D01*
X-16857Y9732D01*
X-17111Y9648D01*
X-17873Y9648D02*
X-17111Y9648D01*
X-16857Y9563D01*
X-16773Y9478D01*
X-16688Y9309D01*
X-16688Y9055D01*
X-16773Y8886D01*
X-16857Y8801D01*
X-17111Y8717D01*
X-17873Y8717D01*
X-16603Y-50254D02*
X-16688Y-50085D01*
X-16857Y-49915D01*
X-17027Y-49831D01*
X-17365Y-49831D01*
X-17534Y-49915D01*
X-17704Y-50085D01*
X-17788Y-50254D01*
X-17873Y-50508D01*
X-17873Y-50931D01*
X-17788Y-51185D01*
X-17704Y-51354D01*
X-17534Y-51524D01*
X-17365Y-51608D01*
X-17027Y-51608D01*
X-16857Y-51524D01*
X-16688Y-51354D01*
X-16603Y-51185D01*
X-17873Y-110029D02*
X-17873Y-111806D01*
X-17873Y-110029D02*
X-17280Y-110029D01*
X-17027Y-110113D01*
X-16857Y-110283D01*
X-16773Y-110452D01*
X-16688Y-110706D01*
X-16688Y-111129D01*
X-16773Y-111383D01*
X-16857Y-111552D01*
X-17027Y-111722D01*
X-17280Y-111806D01*
X-17873Y-111806D01*
X11498Y-136580D02*
X11667Y-136496D01*
X11921Y-136242D01*
X11921Y-138019D01*
X74972Y-136665D02*
X74972Y-136580D01*
X75057Y-136411D01*
X75142Y-136326D01*
X75311Y-136242D01*
X75650Y-136242D01*
X75819Y-136326D01*
X75904Y-136411D01*
X75988Y-136580D01*
X75988Y-136749D01*
X75904Y-136919D01*
X75734Y-137173D01*
X74888Y-138019D01*
X76073Y-138019D01*
X138286Y-136242D02*
X139218Y-136242D01*
X138710Y-136919D01*
X138964Y-136919D01*
X139133Y-137003D01*
X139218Y-137088D01*
X139302Y-137342D01*
X139302Y-137511D01*
X139218Y-137765D01*
X139048Y-137935D01*
X138794Y-138019D01*
X138540Y-138019D01*
X138286Y-137935D01*
X138202Y-137850D01*
X138117Y-137681D01*
X202633Y-136242D02*
X201786Y-137427D01*
X203056Y-137427D01*
X202633Y-136242D02*
X202633Y-138019D01*
X266277Y-136242D02*
X265430Y-136242D01*
X265345Y-137003D01*
X265430Y-136919D01*
X265684Y-136834D01*
X265938Y-136834D01*
X266192Y-136919D01*
X266361Y-137088D01*
X266446Y-137342D01*
X266446Y-137511D01*
X266361Y-137765D01*
X266192Y-137935D01*
X265938Y-138019D01*
X265684Y-138019D01*
X265430Y-137935D01*
X265345Y-137850D01*
X265261Y-137681D01*
X329904Y-136496D02*
X329819Y-136326D01*
X329565Y-136242D01*
X329396Y-136242D01*
X329142Y-136326D01*
X328972Y-136580D01*
X328888Y-137003D01*
X328888Y-137427D01*
X328972Y-137765D01*
X329142Y-137935D01*
X329396Y-138019D01*
X329480Y-138019D01*
X329734Y-137935D01*
X329904Y-137765D01*
X329988Y-137511D01*
X329988Y-137427D01*
X329904Y-137173D01*
X329734Y-137003D01*
X329480Y-136919D01*
X329396Y-136919D01*
X329142Y-137003D01*
X328972Y-137173D01*
X328888Y-137427D01*
X245592Y-132443D02*
X245507Y-132274D01*
X245338Y-132104D01*
X245168Y-132020D01*
X244830Y-132020D01*
X244661Y-132104D01*
X244491Y-132274D01*
X244407Y-132443D01*
X244322Y-132697D01*
X244322Y-133120D01*
X244407Y-133374D01*
X244491Y-133543D01*
X244661Y-133713D01*
X244830Y-133797D01*
X245168Y-133797D01*
X245338Y-133713D01*
X245507Y-133543D01*
X245592Y-133374D01*
X246091Y-132020D02*
X246091Y-133797D01*
X246091Y-132951D02*
X246345Y-132697D01*
X246514Y-132612D01*
X246768Y-132612D01*
X246938Y-132697D01*
X247022Y-132951D01*
X247022Y-133797D01*
X248504Y-132612D02*
X248504Y-133797D01*
X248504Y-132866D02*
X248334Y-132697D01*
X248165Y-132612D01*
X247911Y-132612D01*
X247742Y-132697D01*
X247572Y-132866D01*
X247488Y-133120D01*
X247488Y-133289D01*
X247572Y-133543D01*
X247742Y-133713D01*
X247911Y-133797D01*
X248165Y-133797D01*
X248334Y-133713D01*
X248504Y-133543D01*
X248978Y-132612D02*
X248978Y-133797D01*
X248978Y-132951D02*
X249232Y-132697D01*
X249401Y-132612D01*
X249655Y-132612D01*
X249824Y-132697D01*
X249909Y-132951D01*
X249909Y-133797D01*
X251390Y-132020D02*
X251390Y-133797D01*
X251390Y-132866D02*
X251221Y-132697D01*
X251052Y-132612D01*
X250798Y-132612D01*
X250628Y-132697D01*
X250459Y-132866D01*
X250374Y-133120D01*
X250374Y-133289D01*
X250459Y-133543D01*
X250628Y-133713D01*
X250798Y-133797D01*
X251052Y-133797D01*
X251221Y-133713D01*
X251390Y-133543D01*
X251864Y-132020D02*
X251864Y-133797D01*
X252237Y-133120D02*
X253252Y-133120D01*
X253252Y-132951D01*
X253168Y-132781D01*
X253083Y-132697D01*
X252914Y-132612D01*
X252660Y-132612D01*
X252491Y-132697D01*
X252321Y-132866D01*
X252237Y-133120D01*
X252237Y-133289D01*
X252321Y-133543D01*
X252491Y-133713D01*
X252660Y-133797D01*
X252914Y-133797D01*
X253083Y-133713D01*
X253252Y-133543D01*
X253633Y-132612D02*
X253633Y-133797D01*
X253633Y-133120D02*
X253718Y-132866D01*
X253887Y-132697D01*
X254057Y-132612D01*
X254311Y-132612D01*
X254641Y-133713D02*
X254556Y-133797D01*
X254471Y-133713D01*
X254556Y-133628D01*
X254641Y-133713D01*
X254641Y-133882D01*
X254556Y-134051D01*
X254471Y-134136D01*
X257781Y-133797D02*
X257104Y-132020D01*
X256427Y-133797D01*
X256681Y-133205D02*
X257527Y-133205D01*
X259381Y-132020D02*
X258196Y-133797D01*
X258196Y-132020D02*
X259381Y-132020D01*
X258196Y-133797D02*
X259381Y-133797D01*
X262995Y-132020D02*
X262742Y-132104D01*
X262657Y-132274D01*
X262657Y-132443D01*
X262742Y-132612D01*
X262911Y-132697D01*
X263249Y-132781D01*
X263503Y-132866D01*
X263673Y-133035D01*
X263757Y-133205D01*
X263757Y-133459D01*
X263673Y-133628D01*
X263588Y-133713D01*
X263334Y-133797D01*
X262995Y-133797D01*
X262742Y-133713D01*
X262657Y-133628D01*
X262572Y-133459D01*
X262572Y-133205D01*
X262657Y-133035D01*
X262826Y-132866D01*
X263080Y-132781D01*
X263419Y-132697D01*
X263588Y-132612D01*
X263673Y-132443D01*
X263673Y-132274D01*
X263588Y-132104D01*
X263334Y-132020D01*
X262995Y-132020D01*
X265171Y-132020D02*
X264324Y-132020D01*
X264240Y-132781D01*
X264324Y-132697D01*
X264578Y-132612D01*
X264832Y-132612D01*
X265086Y-132697D01*
X265256Y-132866D01*
X265340Y-133120D01*
X265340Y-133289D01*
X265256Y-133543D01*
X265086Y-133713D01*
X264832Y-133797D01*
X264578Y-133797D01*
X264324Y-133713D01*
X264240Y-133628D01*
X264155Y-133459D01*
X265823Y-132443D02*
X265823Y-132358D01*
X265907Y-132189D01*
X265992Y-132104D01*
X266161Y-132020D01*
X266500Y-132020D01*
X266669Y-132104D01*
X266754Y-132189D01*
X266839Y-132358D01*
X266839Y-132527D01*
X266754Y-132697D01*
X266585Y-132951D01*
X265738Y-133797D01*
X266923Y-133797D01*
X267406Y-132443D02*
X267406Y-132358D01*
X267490Y-132189D01*
X267575Y-132104D01*
X267744Y-132020D01*
X268083Y-132020D01*
X268252Y-132104D01*
X268337Y-132189D01*
X268421Y-132358D01*
X268421Y-132527D01*
X268337Y-132697D01*
X268167Y-132951D01*
X267321Y-133797D01*
X268506Y-133797D01*
X269750Y-132020D02*
X268904Y-133205D01*
X270174Y-133205D01*
X269750Y-132020D02*
X269750Y-133797D01*
X243407Y-129943D02*
X243407Y-129858D01*
X243491Y-129689D01*
X243576Y-129604D01*
X243745Y-129520D01*
X244084Y-129520D01*
X244253Y-129604D01*
X244338Y-129689D01*
X244422Y-129858D01*
X244422Y-130027D01*
X244338Y-130197D01*
X244168Y-130451D01*
X243322Y-131297D01*
X244507Y-131297D01*
X245074Y-129520D02*
X246005Y-129520D01*
X245497Y-130197D01*
X245751Y-130197D01*
X245921Y-130281D01*
X246005Y-130366D01*
X246090Y-130620D01*
X246090Y-130789D01*
X246005Y-131043D01*
X245836Y-131213D01*
X245582Y-131297D01*
X245328Y-131297D01*
X245074Y-131213D01*
X244990Y-131128D01*
X244905Y-130959D01*
X247504Y-129520D02*
X246657Y-129520D01*
X246573Y-130281D01*
X246657Y-130197D01*
X246911Y-130112D01*
X247165Y-130112D01*
X247419Y-130197D01*
X247588Y-130366D01*
X247673Y-130620D01*
X247673Y-130789D01*
X247588Y-131043D01*
X247419Y-131213D01*
X247165Y-131297D01*
X246911Y-131297D01*
X246657Y-131213D01*
X246573Y-131128D01*
X246488Y-130959D01*
X249087Y-129520D02*
X248240Y-129520D01*
X248155Y-130281D01*
X248240Y-130197D01*
X248494Y-130112D01*
X248748Y-130112D01*
X249002Y-130197D01*
X249171Y-130366D01*
X249256Y-130620D01*
X249256Y-130789D01*
X249171Y-131043D01*
X249002Y-131213D01*
X248748Y-131297D01*
X248494Y-131297D01*
X248240Y-131213D01*
X248155Y-131128D01*
X248071Y-130959D01*
X251050Y-129520D02*
X251474Y-131297D01*
X251897Y-129520D02*
X251474Y-131297D01*
X251897Y-129520D02*
X252320Y-131297D01*
X252743Y-129520D02*
X252320Y-131297D01*
X253184Y-131128D02*
X253099Y-131213D01*
X253184Y-131297D01*
X253268Y-131213D01*
X253184Y-131128D01*
X256324Y-129943D02*
X256239Y-129774D01*
X256070Y-129604D01*
X255901Y-129520D01*
X255562Y-129520D01*
X255393Y-129604D01*
X255224Y-129774D01*
X255139Y-129943D01*
X255054Y-130197D01*
X255054Y-130620D01*
X255139Y-130874D01*
X255224Y-131043D01*
X255393Y-131213D01*
X255562Y-131297D01*
X255901Y-131297D01*
X256070Y-131213D01*
X256239Y-131043D01*
X256324Y-130874D01*
X256823Y-129520D02*
X256823Y-131297D01*
X256823Y-130451D02*
X257077Y-130197D01*
X257247Y-130112D01*
X257501Y-130112D01*
X257670Y-130197D01*
X257755Y-130451D01*
X257755Y-131297D01*
X259236Y-130112D02*
X259236Y-131297D01*
X259236Y-130366D02*
X259067Y-130197D01*
X258897Y-130112D01*
X258643Y-130112D01*
X258474Y-130197D01*
X258305Y-130366D01*
X258220Y-130620D01*
X258220Y-130789D01*
X258305Y-131043D01*
X258474Y-131213D01*
X258643Y-131297D01*
X258897Y-131297D01*
X259067Y-131213D01*
X259236Y-131043D01*
X259710Y-130112D02*
X259710Y-131297D01*
X259710Y-130451D02*
X259964Y-130197D01*
X260133Y-130112D01*
X260387Y-130112D01*
X260556Y-130197D01*
X260641Y-130451D01*
X260641Y-131297D01*
X262122Y-129520D02*
X262122Y-131297D01*
X262122Y-130366D02*
X261953Y-130197D01*
X261784Y-130112D01*
X261530Y-130112D01*
X261361Y-130197D01*
X261191Y-130366D01*
X261107Y-130620D01*
X261107Y-130789D01*
X261191Y-131043D01*
X261361Y-131213D01*
X261530Y-131297D01*
X261784Y-131297D01*
X261953Y-131213D01*
X262122Y-131043D01*
X262596Y-129520D02*
X262596Y-131297D01*
X262969Y-130620D02*
X263985Y-130620D01*
X263985Y-130451D01*
X263900Y-130281D01*
X263815Y-130197D01*
X263646Y-130112D01*
X263392Y-130112D01*
X263223Y-130197D01*
X263054Y-130366D01*
X262969Y-130620D01*
X262969Y-130789D01*
X263054Y-131043D01*
X263223Y-131213D01*
X263392Y-131297D01*
X263646Y-131297D01*
X263815Y-131213D01*
X263985Y-131043D01*
X264366Y-130112D02*
X264366Y-131297D01*
X264366Y-130620D02*
X264450Y-130366D01*
X264620Y-130197D01*
X264789Y-130112D01*
X265043Y-130112D01*
X266600Y-129520D02*
X266600Y-131297D01*
X266600Y-129520D02*
X267362Y-129520D01*
X267616Y-129604D01*
X267701Y-129689D01*
X267785Y-129858D01*
X267785Y-130027D01*
X267701Y-130197D01*
X267616Y-130281D01*
X267362Y-130366D01*
X266600Y-130366D02*
X267362Y-130366D01*
X267616Y-130451D01*
X267701Y-130535D01*
X267785Y-130705D01*
X267785Y-130959D01*
X267701Y-131128D01*
X267616Y-131213D01*
X267362Y-131297D01*
X266600Y-131297D01*
X268183Y-129520D02*
X268183Y-131297D01*
X268556Y-130112D02*
X269064Y-131297D01*
X269572Y-130112D02*
X269064Y-131297D01*
X270875Y-129520D02*
X270875Y-131297D01*
X270875Y-130366D02*
X270706Y-130197D01*
X270536Y-130112D01*
X270283Y-130112D01*
X270113Y-130197D01*
X269944Y-130366D01*
X269859Y-130620D01*
X269859Y-130789D01*
X269944Y-131043D01*
X270113Y-131213D01*
X270283Y-131297D01*
X270536Y-131297D01*
X270706Y-131213D01*
X270875Y-131043D01*
X271434Y-131128D02*
X271349Y-131213D01*
X271434Y-131297D01*
X271518Y-131213D01*
X271434Y-131128D01*
X242092Y-126780D02*
X242092Y-128557D01*
X242092Y-126780D02*
X242769Y-128557D01*
X243446Y-126780D02*
X242769Y-128557D01*
X243446Y-126780D02*
X243446Y-128557D01*
X244124Y-126780D02*
X244208Y-126864D01*
X244293Y-126780D01*
X244208Y-126695D01*
X244124Y-126780D01*
X244208Y-127372D02*
X244208Y-128557D01*
X245622Y-127626D02*
X245453Y-127457D01*
X245283Y-127372D01*
X245029Y-127372D01*
X244860Y-127457D01*
X244691Y-127626D01*
X244606Y-127880D01*
X244606Y-128049D01*
X244691Y-128303D01*
X244860Y-128473D01*
X245029Y-128557D01*
X245283Y-128557D01*
X245453Y-128473D01*
X245622Y-128303D01*
X246003Y-127372D02*
X246003Y-128557D01*
X246003Y-127880D02*
X246087Y-127626D01*
X246257Y-127457D01*
X246426Y-127372D01*
X246680Y-127372D01*
X247264Y-127372D02*
X247095Y-127457D01*
X246925Y-127626D01*
X246841Y-127880D01*
X246841Y-128049D01*
X246925Y-128303D01*
X247095Y-128473D01*
X247264Y-128557D01*
X247518Y-128557D01*
X247687Y-128473D01*
X247857Y-128303D01*
X247941Y-128049D01*
X247941Y-127880D01*
X247857Y-127626D01*
X247687Y-127457D01*
X247518Y-127372D01*
X247264Y-127372D01*
X249346Y-127626D02*
X249177Y-127457D01*
X249008Y-127372D01*
X248754Y-127372D01*
X248585Y-127457D01*
X248415Y-127626D01*
X248331Y-127880D01*
X248331Y-128049D01*
X248415Y-128303D01*
X248585Y-128473D01*
X248754Y-128557D01*
X249008Y-128557D01*
X249177Y-128473D01*
X249346Y-128303D01*
X249727Y-126780D02*
X249727Y-128557D01*
X249727Y-127711D02*
X249981Y-127457D01*
X250151Y-127372D01*
X250404Y-127372D01*
X250574Y-127457D01*
X250658Y-127711D01*
X250658Y-128557D01*
X251293Y-126780D02*
X251378Y-126864D01*
X251463Y-126780D01*
X251378Y-126695D01*
X251293Y-126780D01*
X251378Y-127372D02*
X251378Y-128557D01*
X251776Y-127372D02*
X251776Y-129150D01*
X251776Y-127626D02*
X251945Y-127457D01*
X252114Y-127372D01*
X252368Y-127372D01*
X252538Y-127457D01*
X252707Y-127626D01*
X252792Y-127880D01*
X252792Y-128049D01*
X252707Y-128303D01*
X252538Y-128473D01*
X252368Y-128557D01*
X252114Y-128557D01*
X251945Y-128473D01*
X251776Y-128303D01*
X255162Y-126780D02*
X255162Y-128557D01*
X254569Y-126780D02*
X255754Y-126780D01*
X255966Y-127880D02*
X256982Y-127880D01*
X256982Y-127711D01*
X256897Y-127541D01*
X256812Y-127457D01*
X256643Y-127372D01*
X256389Y-127372D01*
X256220Y-127457D01*
X256051Y-127626D01*
X255966Y-127880D01*
X255966Y-128049D01*
X256051Y-128303D01*
X256220Y-128473D01*
X256389Y-128557D01*
X256643Y-128557D01*
X256812Y-128473D01*
X256982Y-128303D01*
X258378Y-127626D02*
X258209Y-127457D01*
X258040Y-127372D01*
X257786Y-127372D01*
X257617Y-127457D01*
X257447Y-127626D01*
X257363Y-127880D01*
X257363Y-128049D01*
X257447Y-128303D01*
X257617Y-128473D01*
X257786Y-128557D01*
X258040Y-128557D01*
X258209Y-128473D01*
X258378Y-128303D01*
X258759Y-126780D02*
X258759Y-128557D01*
X258759Y-127711D02*
X259013Y-127457D01*
X259183Y-127372D01*
X259436Y-127372D01*
X259606Y-127457D01*
X259690Y-127711D01*
X259690Y-128557D01*
X260156Y-127372D02*
X260156Y-128557D01*
X260156Y-127711D02*
X260410Y-127457D01*
X260579Y-127372D01*
X260833Y-127372D01*
X261002Y-127457D01*
X261087Y-127711D01*
X261087Y-128557D01*
X261976Y-127372D02*
X261807Y-127457D01*
X261637Y-127626D01*
X261553Y-127880D01*
X261553Y-128049D01*
X261637Y-128303D01*
X261807Y-128473D01*
X261976Y-128557D01*
X262230Y-128557D01*
X262399Y-128473D01*
X262568Y-128303D01*
X262653Y-128049D01*
X262653Y-127880D01*
X262568Y-127626D01*
X262399Y-127457D01*
X262230Y-127372D01*
X261976Y-127372D01*
X263043Y-126780D02*
X263043Y-128557D01*
X263838Y-127372D02*
X263669Y-127457D01*
X263500Y-127626D01*
X263415Y-127880D01*
X263415Y-128049D01*
X263500Y-128303D01*
X263669Y-128473D01*
X263838Y-128557D01*
X264092Y-128557D01*
X264261Y-128473D01*
X264431Y-128303D01*
X264515Y-128049D01*
X264515Y-127880D01*
X264431Y-127626D01*
X264261Y-127457D01*
X264092Y-127372D01*
X263838Y-127372D01*
X265921Y-127372D02*
X265921Y-128726D01*
X265836Y-128980D01*
X265751Y-129065D01*
X265582Y-129150D01*
X265328Y-129150D01*
X265159Y-129065D01*
X265921Y-127626D02*
X265751Y-127457D01*
X265582Y-127372D01*
X265328Y-127372D01*
X265159Y-127457D01*
X264989Y-127626D01*
X264905Y-127880D01*
X264905Y-128049D01*
X264989Y-128303D01*
X265159Y-128473D01*
X265328Y-128557D01*
X265582Y-128557D01*
X265751Y-128473D01*
X265921Y-128303D01*
X266479Y-127372D02*
X266987Y-128557D01*
X267495Y-127372D02*
X266987Y-128557D01*
X266818Y-128896D01*
X266649Y-129065D01*
X266479Y-129150D01*
X266395Y-129150D01*
X269188Y-126780D02*
X269188Y-128557D01*
X269560Y-127372D02*
X269560Y-128557D01*
X269560Y-127711D02*
X269814Y-127457D01*
X269984Y-127372D01*
X270238Y-127372D01*
X270407Y-127457D01*
X270492Y-127711D01*
X270492Y-128557D01*
X271973Y-127626D02*
X271804Y-127457D01*
X271634Y-127372D01*
X271380Y-127372D01*
X271211Y-127457D01*
X271042Y-127626D01*
X270957Y-127880D01*
X270957Y-128049D01*
X271042Y-128303D01*
X271211Y-128473D01*
X271380Y-128557D01*
X271634Y-128557D01*
X271804Y-128473D01*
X271973Y-128303D01*
X272438Y-128388D02*
X272354Y-128473D01*
X272438Y-128557D01*
X272523Y-128473D01*
X272438Y-128388D01*
X275322Y-121520D02*
X275322Y-123297D01*
X275322Y-121520D02*
X276084Y-121520D01*
X276338Y-121604D01*
X276422Y-121689D01*
X276507Y-121858D01*
X276507Y-122027D01*
X276422Y-122197D01*
X276338Y-122281D01*
X276084Y-122366D01*
X275322Y-122366D02*
X276084Y-122366D01*
X276338Y-122451D01*
X276422Y-122535D01*
X276507Y-122705D01*
X276507Y-122959D01*
X276422Y-123128D01*
X276338Y-123213D01*
X276084Y-123297D01*
X275322Y-123297D01*
X278259Y-123297D02*
X277582Y-121520D01*
X276905Y-123297D01*
X277159Y-122705D02*
X278005Y-122705D01*
X278674Y-121520D02*
X278674Y-123297D01*
X279690Y-123297D01*
X281239Y-123297D02*
X280562Y-121520D01*
X279885Y-123297D01*
X280139Y-122705D02*
X280985Y-122705D01*
X282500Y-121520D02*
X282500Y-122874D01*
X282416Y-123128D01*
X282331Y-123213D01*
X282162Y-123297D01*
X281992Y-123297D01*
X281823Y-123213D01*
X281738Y-123128D01*
X281654Y-122874D01*
X281654Y-122705D01*
X282957Y-121520D02*
X282957Y-123297D01*
X284726Y-121520D02*
X284726Y-123297D01*
X284726Y-121520D02*
X285912Y-123297D01*
X285912Y-121520D02*
X285912Y-123297D01*
X287757Y-123297D02*
X287080Y-121520D01*
X286402Y-123297D01*
X286656Y-122705D02*
X287503Y-122705D01*
X288172Y-121520D02*
X288172Y-123297D01*
X288172Y-121520D02*
X288933Y-121520D01*
X289187Y-121604D01*
X289272Y-121689D01*
X289357Y-121858D01*
X289357Y-122027D01*
X289272Y-122197D01*
X289187Y-122281D01*
X288933Y-122366D01*
X288172Y-122366D01*
X288764Y-122366D02*
X289357Y-123297D01*
X291109Y-123297D02*
X290432Y-121520D01*
X289755Y-123297D01*
X290009Y-122705D02*
X290855Y-122705D01*
X291524Y-121520D02*
X292201Y-122366D01*
X292201Y-123297D01*
X292878Y-121520D02*
X292201Y-122366D01*
X294461Y-123297D02*
X293784Y-121520D01*
X293107Y-123297D01*
X293361Y-122705D02*
X294207Y-122705D01*
X294876Y-121520D02*
X294876Y-123297D01*
X294876Y-121520D02*
X296061Y-123297D01*
X296061Y-121520D02*
X296061Y-123297D01*
X297906Y-123297D02*
X297229Y-121520D01*
X296552Y-123297D01*
X296806Y-122705D02*
X297652Y-122705D01*
X275322Y-127520D02*
X275322Y-129297D01*
X275322Y-127520D02*
X276084Y-127520D01*
X276338Y-127604D01*
X276422Y-127689D01*
X276507Y-127858D01*
X276507Y-128027D01*
X276422Y-128197D01*
X276338Y-128281D01*
X276084Y-128366D01*
X275322Y-128366D01*
X275915Y-128366D02*
X276507Y-129297D01*
X276905Y-127520D02*
X276905Y-129297D01*
X277277Y-127520D02*
X277277Y-129297D01*
X277277Y-127520D02*
X278462Y-129297D01*
X278462Y-127520D02*
X278462Y-129297D01*
X278953Y-127520D02*
X278953Y-128789D01*
X279038Y-129043D01*
X279207Y-129213D01*
X279461Y-129297D01*
X279631Y-129297D01*
X279885Y-129213D01*
X280054Y-129043D01*
X280139Y-128789D01*
X280139Y-127520D01*
X283296Y-127943D02*
X283211Y-127774D01*
X283042Y-127604D01*
X282873Y-127520D01*
X282534Y-127520D01*
X282365Y-127604D01*
X282195Y-127774D01*
X282111Y-127943D01*
X282026Y-128197D01*
X282026Y-128620D01*
X282111Y-128874D01*
X282195Y-129043D01*
X282365Y-129213D01*
X282534Y-129297D01*
X282873Y-129297D01*
X283042Y-129213D01*
X283211Y-129043D01*
X283296Y-128874D01*
X283795Y-127520D02*
X283795Y-129297D01*
X284811Y-129297D01*
X286106Y-127520D02*
X285006Y-127520D01*
X285006Y-129297D01*
X286106Y-129297D01*
X285006Y-128366D02*
X285683Y-128366D01*
X287503Y-127520D02*
X286402Y-127520D01*
X286402Y-129297D01*
X287503Y-129297D01*
X286402Y-128366D02*
X287080Y-128366D01*
X288392Y-127520D02*
X288392Y-129297D01*
X287799Y-127520D02*
X288984Y-127520D01*
X289196Y-127520D02*
X289196Y-128789D01*
X289281Y-129043D01*
X289450Y-129213D01*
X289704Y-129297D01*
X289873Y-129297D01*
X290127Y-129213D01*
X290296Y-129043D01*
X290381Y-128789D01*
X290381Y-127520D01*
X292057Y-127774D02*
X291888Y-127604D01*
X291634Y-127520D01*
X291295Y-127520D01*
X291041Y-127604D01*
X290872Y-127774D01*
X290872Y-127943D01*
X290957Y-128112D01*
X291041Y-128197D01*
X291211Y-128281D01*
X291718Y-128451D01*
X291888Y-128535D01*
X291972Y-128620D01*
X292057Y-128789D01*
X292057Y-129043D01*
X291888Y-129213D01*
X291634Y-129297D01*
X291295Y-129297D01*
X291041Y-129213D01*
X290872Y-129043D01*
X303750Y-121798D02*
X303536Y-121869D01*
X303393Y-122083D01*
X303322Y-122440D01*
X303322Y-122654D01*
X303393Y-123012D01*
X303536Y-123226D01*
X303750Y-123297D01*
X303893Y-123297D01*
X304108Y-123226D01*
X304250Y-123012D01*
X304322Y-122654D01*
X304322Y-122440D01*
X304250Y-122083D01*
X304108Y-121869D01*
X303893Y-121798D01*
X303750Y-121798D01*
X305514Y-121798D02*
X304800Y-121798D01*
X304729Y-122440D01*
X304800Y-122369D01*
X305014Y-122297D01*
X305229Y-122297D01*
X305443Y-122369D01*
X305586Y-122512D01*
X305657Y-122726D01*
X305657Y-122869D01*
X305586Y-123083D01*
X305443Y-123226D01*
X305229Y-123297D01*
X305014Y-123297D01*
X304800Y-123226D01*
X304729Y-123154D01*
X304657Y-123012D01*
X305993Y-122654D02*
X307278Y-122654D01*
X307721Y-122083D02*
X307864Y-122012D01*
X308078Y-121798D01*
X308078Y-123297D01*
X308821Y-122083D02*
X308964Y-122012D01*
X309178Y-121798D01*
X309178Y-123297D01*
X310635Y-121798D02*
X309921Y-122797D01*
X310992Y-122797D01*
X310635Y-121798D02*
X310635Y-123297D01*
X311327Y-122155D02*
X311327Y-122083D01*
X311399Y-121940D01*
X311470Y-121869D01*
X311613Y-121798D01*
X311899Y-121798D01*
X312042Y-121869D01*
X312113Y-121940D01*
X312184Y-122083D01*
X312184Y-122226D01*
X312113Y-122369D01*
X311970Y-122583D01*
X311256Y-123297D01*
X312256Y-123297D01*
X312734Y-121798D02*
X313520Y-121798D01*
X313091Y-122369D01*
X313306Y-122369D01*
X313448Y-122440D01*
X313520Y-122512D01*
X313591Y-122726D01*
X313591Y-122869D01*
X313520Y-123083D01*
X313377Y-123226D01*
X313163Y-123297D01*
X312949Y-123297D01*
X312734Y-123226D01*
X312663Y-123154D01*
X312591Y-123012D01*
X313927Y-122654D02*
X315212Y-122654D01*
X315655Y-121798D02*
X315655Y-123297D01*
X315655Y-121798D02*
X316298Y-121798D01*
X316512Y-121869D01*
X316583Y-121940D01*
X316655Y-122083D01*
X316655Y-122226D01*
X316583Y-122369D01*
X316512Y-122440D01*
X316298Y-122512D01*
X315655Y-122512D01*
X316155Y-122512D02*
X316655Y-123297D01*
X317705Y-121798D02*
X316991Y-122797D01*
X318062Y-122797D01*
X317705Y-121798D02*
X317705Y-123297D01*
X318397Y-123154D02*
X318326Y-123226D01*
X318397Y-123297D01*
X318469Y-123226D01*
X318397Y-123154D01*
X319868Y-122155D02*
X319797Y-122012D01*
X319654Y-121869D01*
X319511Y-121798D01*
X319226Y-121798D01*
X319083Y-121869D01*
X318940Y-122012D01*
X318869Y-122155D01*
X318797Y-122369D01*
X318797Y-122726D01*
X318869Y-122940D01*
X318940Y-123083D01*
X319083Y-123226D01*
X319226Y-123297D01*
X319511Y-123297D01*
X319654Y-123226D01*
X319797Y-123083D01*
X319868Y-122940D01*
X319868Y-122726D01*
X319511Y-122726D02*
X319868Y-122726D01*
X320211Y-122083D02*
X320354Y-122012D01*
X320568Y-121798D01*
X320568Y-123297D01*
D23*
X303779Y-127698D02*
X303551Y-127774D01*
X303398Y-128002D01*
X303322Y-128383D01*
X303322Y-128612D01*
X303398Y-128992D01*
X303551Y-129221D01*
X303779Y-129297D01*
X303931Y-129297D01*
X304160Y-129221D01*
X304312Y-128992D01*
X304388Y-128612D01*
X304388Y-128383D01*
X304312Y-128002D01*
X304160Y-127774D01*
X303931Y-127698D01*
X303779Y-127698D01*
X305508Y-127698D02*
X304746Y-128764D01*
X305889Y-128764D01*
X305508Y-127698D02*
X305508Y-129297D01*
X306171Y-128612D02*
X307542Y-128612D01*
X308014Y-128002D02*
X308167Y-127926D01*
X308395Y-127698D01*
X308395Y-129297D01*
X309187Y-128002D02*
X309340Y-127926D01*
X309568Y-127698D01*
X309568Y-129297D01*
X311122Y-127698D02*
X310361Y-128764D01*
X311503Y-128764D01*
X311122Y-127698D02*
X311122Y-129297D01*
X311861Y-128078D02*
X311861Y-128002D01*
X311937Y-127850D01*
X312013Y-127774D01*
X312166Y-127698D01*
X312471Y-127698D01*
X312623Y-127774D01*
X312699Y-127850D01*
X312775Y-128002D01*
X312775Y-128155D01*
X312699Y-128307D01*
X312547Y-128535D01*
X311785Y-129297D01*
X312851Y-129297D01*
X313362Y-127698D02*
X314200Y-127698D01*
X313743Y-128307D01*
X313971Y-128307D01*
X314124Y-128383D01*
X314200Y-128459D01*
X314276Y-128688D01*
X314276Y-128840D01*
X314200Y-129069D01*
X314047Y-129221D01*
X313819Y-129297D01*
X313590Y-129297D01*
X313362Y-129221D01*
X313286Y-129145D01*
X313209Y-128992D01*
D24*
X275322Y-113298D02*
X275917Y-115797D01*
X276512Y-113298D02*
X275917Y-115797D01*
X276512Y-113298D02*
X277107Y-115797D01*
X277702Y-113298D02*
X277107Y-115797D01*
X278202Y-113298D02*
X278202Y-115797D01*
X278202Y-113298D02*
X279274Y-113298D01*
X279631Y-113417D01*
X279750Y-113536D01*
X279869Y-113774D01*
X279869Y-114012D01*
X279750Y-114250D01*
X279631Y-114369D01*
X279274Y-114488D01*
X278202Y-114488D02*
X279274Y-114488D01*
X279631Y-114607D01*
X279750Y-114726D01*
X279869Y-114964D01*
X279869Y-115321D01*
X279750Y-115559D01*
X279631Y-115678D01*
X279274Y-115797D01*
X278202Y-115797D01*
X282094Y-113298D02*
X280428Y-115797D01*
X280428Y-113298D02*
X282094Y-113298D01*
X280428Y-115797D02*
X282094Y-115797D01*
X283844Y-113298D02*
X282654Y-114964D01*
X284439Y-114964D01*
X283844Y-113298D02*
X283844Y-115797D01*
X286308Y-113298D02*
X285118Y-113298D01*
X284999Y-114369D01*
X285118Y-114250D01*
X285475Y-114131D01*
X285832Y-114131D01*
X286189Y-114250D01*
X286427Y-114488D01*
X286546Y-114845D01*
X286546Y-115083D01*
X286427Y-115440D01*
X286189Y-115678D01*
X285832Y-115797D01*
X285475Y-115797D01*
X285118Y-115678D01*
X284999Y-115559D01*
X284879Y-115321D01*
X287105Y-113774D02*
X287343Y-113655D01*
X287700Y-113298D01*
X287700Y-115797D01*
X292687Y-113893D02*
X292568Y-113655D01*
X292330Y-113417D01*
X292092Y-113298D01*
X291616Y-113298D01*
X291378Y-113417D01*
X291140Y-113655D01*
X291021Y-113893D01*
X290902Y-114250D01*
X290902Y-114845D01*
X291021Y-115202D01*
X291140Y-115440D01*
X291378Y-115678D01*
X291616Y-115797D01*
X292092Y-115797D01*
X292330Y-115678D01*
X292568Y-115440D01*
X292687Y-115202D01*
X293390Y-113298D02*
X293390Y-115083D01*
X293509Y-115440D01*
X293747Y-115678D01*
X294104Y-115797D01*
X294342Y-115797D01*
X294699Y-115678D01*
X294937Y-115440D01*
X295056Y-115083D01*
X295056Y-113298D01*
X295746Y-113298D02*
X295746Y-115797D01*
X295746Y-113298D02*
X296817Y-113298D01*
X297174Y-113417D01*
X297293Y-113536D01*
X297413Y-113774D01*
X297413Y-114012D01*
X297293Y-114250D01*
X297174Y-114369D01*
X296817Y-114488D01*
X295746Y-114488D01*
X296579Y-114488D02*
X297413Y-115797D01*
X297972Y-113298D02*
X297972Y-115797D01*
X299210Y-113298D02*
X298972Y-113417D01*
X298734Y-113655D01*
X298615Y-113893D01*
X298496Y-114250D01*
X298496Y-114845D01*
X298615Y-115202D01*
X298734Y-115440D01*
X298972Y-115678D01*
X299210Y-115797D01*
X299686Y-115797D01*
X299924Y-115678D01*
X300162Y-115440D01*
X300281Y-115202D01*
X300400Y-114845D01*
X300400Y-114250D01*
X300281Y-113893D01*
X300162Y-113655D01*
X299924Y-113417D01*
X299686Y-113298D01*
X299210Y-113298D01*
X302649Y-113655D02*
X302411Y-113417D01*
X302054Y-113298D01*
X301578Y-113298D01*
X301221Y-113417D01*
X300983Y-113655D01*
X300983Y-113893D01*
X301102Y-114131D01*
X301221Y-114250D01*
X301459Y-114369D01*
X302173Y-114607D01*
X302411Y-114726D01*
X302530Y-114845D01*
X302649Y-115083D01*
X302649Y-115440D01*
X302411Y-115678D01*
X302054Y-115797D01*
X301578Y-115797D01*
X301221Y-115678D01*
X300983Y-115440D01*
X303209Y-113298D02*
X303209Y-115797D01*
X304566Y-113298D02*
X304566Y-115797D01*
X303733Y-113298D02*
X305399Y-113298D01*
X305696Y-113298D02*
X306649Y-114488D01*
X306649Y-115797D01*
X307601Y-113298D02*
X306649Y-114488D01*
X309886Y-113298D02*
X309886Y-115797D01*
X309886Y-113298D02*
X310957Y-113298D01*
X311314Y-113417D01*
X311433Y-113536D01*
X311552Y-113774D01*
X311552Y-114012D01*
X311433Y-114250D01*
X311314Y-114369D01*
X310957Y-114488D01*
X309886Y-114488D02*
X310957Y-114488D01*
X311314Y-114607D01*
X311433Y-114726D01*
X311552Y-114964D01*
X311552Y-115321D01*
X311433Y-115559D01*
X311314Y-115678D01*
X310957Y-115797D01*
X309886Y-115797D01*
X312826Y-113298D02*
X312588Y-113417D01*
X312350Y-113655D01*
X312231Y-113893D01*
X312112Y-114250D01*
X312112Y-114845D01*
X312231Y-115202D01*
X312350Y-115440D01*
X312588Y-115678D01*
X312826Y-115797D01*
X313302Y-115797D01*
X313540Y-115678D01*
X313778Y-115440D01*
X313897Y-115202D01*
X314016Y-114845D01*
X314016Y-114250D01*
X313897Y-113893D01*
X313778Y-113655D01*
X313540Y-113417D01*
X313302Y-113298D01*
X312826Y-113298D01*
X316504Y-115797D02*
X315551Y-113298D01*
X314599Y-115797D01*
X314956Y-114964D02*
X316147Y-114964D01*
X317087Y-113298D02*
X317087Y-115797D01*
X317087Y-113298D02*
X318158Y-113298D01*
X318515Y-113417D01*
X318634Y-113536D01*
X318753Y-113774D01*
X318753Y-114012D01*
X318634Y-114250D01*
X318515Y-114369D01*
X318158Y-114488D01*
X317087Y-114488D01*
X317920Y-114488D02*
X318753Y-115797D01*
X319313Y-113298D02*
X319313Y-115797D01*
X319313Y-113298D02*
X320146Y-113298D01*
X320503Y-113417D01*
X320741Y-113655D01*
X320860Y-113893D01*
X320979Y-114250D01*
X320979Y-114845D01*
X320860Y-115202D01*
X320741Y-115440D01*
X320503Y-115678D01*
X320146Y-115797D01*
X319313Y-115797D01*
D56*
X27849Y2151D02*
D03*
X26579Y2151D02*
D03*
X30389Y2151D02*
D03*
D138*
X25819Y19637D02*
X26960Y19637D01*
X25819Y18367D02*
X26960Y18367D01*
X25819Y10747D02*
X26953Y10747D01*
X26960Y10747D01*
X25819Y12017D02*
X26953Y12017D01*
X26960Y12017D01*
X25819Y13287D02*
X26953Y13287D01*
X26960Y13287D01*
X25819Y14557D02*
X26953Y14557D01*
X26960Y14557D01*
X25819Y15827D02*
X26960Y15827D01*
X25819Y17097D02*
X26953Y17097D01*
X26960Y17097D01*
D157*
X64481Y22313D02*
D03*
D158*
X37744Y3581D02*
D03*
X37744Y26441D02*
D03*
D160*
X72884Y17499D02*
D03*
D161*
X72884Y12499D02*
D03*
D162*
X75584Y11494D02*
D03*
X75584Y18504D02*
D03*
D163*
X10685Y28245D02*
D03*
D167*
X74968Y2032D02*
D03*
X74968Y27967D02*
D03*
D168*
X7842Y13730D02*
D03*
X7842Y15730D02*
D03*
X19369Y14395D02*
D03*
X35073Y25368D02*
D03*
X35687Y1905D02*
D03*
X38913Y2667D02*
D03*
X62241Y13429D02*
D03*
X65837Y14681D02*
D03*
X65710Y12357D02*
D03*
X65583Y11608D02*
D03*
X67965Y14063D02*
D03*
X65695Y13708D02*
D03*
X20051Y3030D02*
D03*
X69339Y23759D02*
D03*
X69000Y22099D02*
D03*
X67863Y22094D02*
D03*
X75325Y25374D02*
D03*
X73035Y26355D02*
D03*
X42676Y25121D02*
D03*
X38290Y25225D02*
D03*
X36769Y25225D02*
D03*
X35106Y18842D02*
D03*
X31823Y24574D02*
D03*
X60097Y693D02*
D03*
X60239Y2453D02*
D03*
X75492Y9067D02*
D03*
X74096Y25360D02*
D03*
X72246Y21768D02*
D03*
X76236Y25931D02*
D03*
X76236Y20259D02*
D03*
X33505Y25404D02*
D03*
X32751Y25404D02*
D03*
X34259Y25404D02*
D03*
X69688Y25887D02*
D03*
X69688Y24379D02*
D03*
X69688Y25133D02*
D03*
X68672Y25133D02*
D03*
X68672Y24379D02*
D03*
X68672Y25887D02*
D03*
X66503Y26420D02*
D03*
X68668Y23273D02*
D03*
X70652Y22391D02*
D03*
X70325Y23441D02*
D03*
X47860Y4964D02*
D03*
X49168Y4235D02*
D03*
X51886Y5158D02*
D03*
X7985Y4018D02*
D03*
X10482Y1708D02*
D03*
X12350Y1708D02*
D03*
X14218Y1708D02*
D03*
X16087Y1708D02*
D03*
X17955Y1708D02*
D03*
X19823Y1708D02*
D03*
X18626Y2504D02*
D03*
X12502Y2769D02*
D03*
X45113Y19329D02*
D03*
X41226Y25062D02*
D03*
X23725Y27756D02*
D03*
X25064Y26823D02*
D03*
X63571Y21681D02*
D03*
X66294Y20447D02*
D03*
X76236Y21686D02*
D03*
X35849Y25917D02*
D03*
X21692Y1708D02*
D03*
X23904Y14175D02*
D03*
X32766Y1981D02*
D03*
X57349Y23694D02*
D03*
X63894Y13154D02*
D03*
X60960Y1143D02*
D03*
X72314Y9195D02*
D03*
X71272Y9804D02*
D03*
X71527Y7658D02*
D03*
X72314Y7544D02*
D03*
X34259Y26420D02*
D03*
X32751Y26420D02*
D03*
X33505Y26420D02*
D03*
X24320Y21272D02*
D03*
X35082Y26529D02*
D03*
X26407Y21287D02*
D03*
X25814Y21287D02*
D03*
X27901Y19671D02*
D03*
X74268Y21678D02*
D03*
X71814Y20355D02*
D03*
X75203Y20314D02*
D03*
X16128Y13730D02*
D03*
X16128Y15730D02*
D03*
X12410Y4761D02*
D03*
X7137Y711D02*
D03*
X7137Y2718D02*
D03*
X17742Y5210D02*
D03*
X17483Y6038D02*
D03*
X13487Y6038D02*
D03*
X68774Y3850D02*
D03*
X61824Y3861D02*
D03*
X76236Y22708D02*
D03*
X76236Y24503D02*
D03*
X74422Y14986D02*
D03*
X74422Y12852D02*
D03*
X74422Y17170D02*
D03*
X49936Y11074D02*
D03*
X50140Y9703D02*
D03*
X53204Y24300D02*
D03*
X48374Y19298D02*
D03*
X10414Y2718D02*
D03*
X18034Y711D02*
D03*
X16597Y2511D02*
D03*
X11842Y15730D02*
D03*
X11842Y13730D02*
D03*
X7540Y4761D02*
D03*
X23437Y5690D02*
D03*
X13206Y3914D02*
D03*
X15467Y2511D02*
D03*
X17742Y3914D02*
D03*
X17728Y2611D02*
D03*
X13206Y5210D02*
D03*
X13206Y2611D02*
D03*
X14288Y2511D02*
D03*
X72898Y29286D02*
D03*
X61214Y20447D02*
D03*
X71247Y6528D02*
D03*
X37897Y15494D02*
D03*
X37059Y15697D02*
D03*
X37694Y16383D02*
D03*
X38608Y17170D02*
D03*
X36982Y14707D02*
D03*
X33877Y12829D02*
D03*
X44850Y7807D02*
D03*
X58964Y11803D02*
D03*
X62346Y10575D02*
D03*
X49566Y12413D02*
D03*
X21207Y874D02*
D03*
X58411Y5098D02*
D03*
X34877Y14829D02*
D03*
X34877Y13829D02*
D03*
X34877Y12829D02*
D03*
X35877Y12829D02*
D03*
X35877Y13829D02*
D03*
X35877Y14829D02*
D03*
X33877Y13829D02*
D03*
X33877Y14829D02*
D03*
X32877Y13829D02*
D03*
X32877Y14829D02*
D03*
X41311Y8857D02*
D03*
X55713Y4843D02*
D03*
X62969Y15247D02*
D03*
X60005Y17543D02*
D03*
X32357Y21690D02*
D03*
X60386Y8374D02*
D03*
X47102Y6596D02*
D03*
X48601Y14851D02*
D03*
X67145Y19385D02*
D03*
X57059Y5199D02*
D03*
X31471Y14046D02*
D03*
X59563Y8433D02*
D03*
X40513Y19558D02*
D03*
X41478Y14750D02*
D03*
X43383Y8839D02*
D03*
X47015Y9830D02*
D03*
X67107Y2591D02*
D03*
X45923Y9550D02*
D03*
X20574Y711D02*
D03*
X15494Y711D02*
D03*
X12954Y711D02*
D03*
X10414Y711D02*
D03*
X68834Y711D02*
D03*
X66294Y711D02*
D03*
X63754Y711D02*
D03*
X61723Y711D02*
D03*
X58674Y686D02*
D03*
X56134Y686D02*
D03*
X71374Y711D02*
D03*
X39929Y10312D02*
D03*
X39319Y9703D02*
D03*
X41300Y9550D02*
D03*
X38913Y4318D02*
D03*
X57122Y2921D02*
D03*
X58182Y3495D02*
D03*
X72415Y10363D02*
D03*
X73177Y9703D02*
D03*
X74473Y9703D02*
D03*
X76251Y9703D02*
D03*
X76251Y8382D02*
D03*
X76251Y7087D02*
D03*
X76251Y5791D02*
D03*
X73177Y4648D02*
D03*
X74473Y4648D02*
D03*
X75768Y4648D02*
D03*
X72771Y3556D02*
D03*
X72263Y2286D02*
D03*
X72517Y889D02*
D03*
X69088Y1753D02*
D03*
X70231Y2540D02*
D03*
X71120Y3429D02*
D03*
X70434Y1626D02*
D03*
X72009Y4674D02*
D03*
X72314Y5918D02*
D03*
X74422Y8611D02*
D03*
X73177Y8458D02*
D03*
X62357Y1194D02*
D03*
X65126Y1168D02*
D03*
X67539Y1168D02*
D03*
X56820Y1626D02*
D03*
X58877Y1651D02*
D03*
X59281Y2921D02*
D03*
X31318Y2032D02*
D03*
X31344Y2997D02*
D03*
X23860Y1905D02*
D03*
X36982Y13513D02*
D03*
X39192Y14326D02*
D03*
X41351Y13716D02*
D03*
X41300Y11405D02*
D03*
X46050Y13411D02*
D03*
X46177Y5385D02*
D03*
X46634Y4369D02*
D03*
X47066Y5410D02*
D03*
X47574Y21946D02*
D03*
X48946Y21946D02*
D03*
X50724Y24536D02*
D03*
X48031Y24536D02*
D03*
X7842Y9730D02*
D03*
X9842Y9730D02*
D03*
X11842Y9730D02*
D03*
X11842Y11730D02*
D03*
X9842Y11730D02*
D03*
X7842Y11730D02*
D03*
X9842Y13730D02*
D03*
X9842Y15730D02*
D03*
X7842Y17730D02*
D03*
X9842Y17730D02*
D03*
X11842Y17730D02*
D03*
X7842Y21603D02*
D03*
X9842Y21603D02*
D03*
X11842Y21603D02*
D03*
X11842Y19730D02*
D03*
X9842Y19730D02*
D03*
X7842Y19730D02*
D03*
X13842Y19730D02*
D03*
X15842Y19730D02*
D03*
X17842Y19730D02*
D03*
X17842Y21603D02*
D03*
X15842Y21603D02*
D03*
X13842Y21603D02*
D03*
X17842Y17730D02*
D03*
X15842Y17730D02*
D03*
X13842Y17730D02*
D03*
X13842Y11730D02*
D03*
X15842Y11730D02*
D03*
X17842Y11730D02*
D03*
X17842Y9730D02*
D03*
X15842Y9730D02*
D03*
X13842Y9730D02*
D03*
X17842Y13730D02*
D03*
X17842Y15730D02*
D03*
X38862Y26035D02*
D03*
X64654Y16019D02*
D03*
X67132Y15900D02*
D03*
X58928Y12700D02*
D03*
X36718Y22136D02*
D03*
X35505Y22136D02*
D03*
X38608Y7747D02*
D03*
X71653Y29286D02*
D03*
X43455Y6655D02*
D03*
X59004Y6985D02*
D03*
X59594Y5639D02*
D03*
X60483Y6503D02*
D03*
X32461Y3658D02*
D03*
X32766Y2997D02*
D03*
X42672Y9601D02*
D03*
X43434Y9830D02*
D03*
X46609Y9296D02*
D03*
X67081Y3835D02*
D03*
X66944Y18257D02*
D03*
D169*
X22695Y23398D02*
D03*
X21200Y24169D02*
D03*
X22695Y24414D02*
D03*
X21011Y27710D02*
D03*
X20824Y24506D02*
D03*
X21583Y21270D02*
D03*
X55588Y24994D02*
D03*
X56360Y25222D02*
D03*
X56374Y22003D02*
D03*
X64772Y8782D02*
D03*
X66372Y7982D02*
D03*
X66372Y9582D02*
D03*
X63972Y9582D02*
D03*
X64772Y9582D02*
D03*
X65572Y9582D02*
D03*
X67172Y9582D02*
D03*
X63972Y8782D02*
D03*
X65572Y8782D02*
D03*
X66372Y8782D02*
D03*
X67172Y8782D02*
D03*
X63972Y7982D02*
D03*
X64772Y7982D02*
D03*
X65572Y7982D02*
D03*
X67172Y7982D02*
D03*
X63972Y7182D02*
D03*
X64772Y7182D02*
D03*
X65572Y7182D02*
D03*
X66372Y7182D02*
D03*
X67172Y7182D02*
D03*
X67172Y6382D02*
D03*
X66372Y6382D02*
D03*
X65572Y6382D02*
D03*
X64772Y6382D02*
D03*
X63972Y6382D02*
D03*
X60741Y13557D02*
D03*
X61996Y13959D02*
D03*
X60979Y15103D02*
D03*
X61654Y14482D02*
D03*
X51504Y20088D02*
D03*
X52304Y20088D02*
D03*
X28890Y26782D02*
D03*
X27840Y27022D02*
D03*
X71735Y15539D02*
D03*
X30988Y29378D02*
D03*
X30200Y28154D02*
D03*
X29699Y26630D02*
D03*
X63424Y28457D02*
D03*
X58928Y29378D02*
D03*
X56388Y29378D02*
D03*
X31877Y28154D02*
D03*
X34341Y29378D02*
D03*
X32665Y29378D02*
D03*
X27698Y25680D02*
D03*
X29311Y29378D02*
D03*
X18191Y29206D02*
D03*
X20613Y29278D02*
D03*
X41554Y4318D02*
D03*
X44120Y2946D02*
D03*
X67481Y26594D02*
D03*
X69846Y12763D02*
D03*
X42315Y23869D02*
D03*
X29394Y24091D02*
D03*
X7125Y26864D02*
D03*
X7137Y6985D02*
D03*
X15697Y29032D02*
D03*
X51714Y2997D02*
D03*
X49174Y2997D02*
D03*
X52603Y11074D02*
D03*
X57709Y12141D02*
D03*
X57023Y10465D02*
D03*
X42723Y18110D02*
D03*
X13385Y15336D02*
D03*
X13385Y14136D02*
D03*
X14585Y14136D02*
D03*
X14585Y15336D02*
D03*
X50419Y17475D02*
D03*
X30912Y9500D02*
D03*
X30328Y11582D02*
D03*
X53904Y17688D02*
D03*
X58704Y17688D02*
D03*
X57904Y17688D02*
D03*
X56304Y16088D02*
D03*
X55504Y15288D02*
D03*
X53904Y16088D02*
D03*
X53904Y15288D02*
D03*
X56304Y14488D02*
D03*
X54704Y18488D02*
D03*
X56304Y15288D02*
D03*
X57904Y18488D02*
D03*
X44054Y24471D02*
D03*
X46594Y24471D02*
D03*
X44673Y11477D02*
D03*
X58202Y10279D02*
D03*
X51354Y22969D02*
D03*
X33924Y3901D02*
D03*
X34724Y3901D02*
D03*
X34724Y3101D02*
D03*
X33924Y3101D02*
D03*
X48525Y7917D02*
D03*
X58704Y18488D02*
D03*
X44765Y24452D02*
D03*
X43457Y22771D02*
D03*
X59345Y15486D02*
D03*
X60945Y11955D02*
D03*
X51598Y5834D02*
D03*
X52363Y4688D02*
D03*
X69936Y17538D02*
D03*
X44283Y19112D02*
D03*
X27457Y8458D02*
D03*
X38608Y29378D02*
D03*
X41148Y29378D02*
D03*
X43688Y29378D02*
D03*
X46228Y29378D02*
D03*
X48768Y29378D02*
D03*
X51308Y29378D02*
D03*
X53848Y29378D02*
D03*
X26953Y12017D02*
D03*
X26953Y13287D02*
D03*
X26953Y14557D02*
D03*
X26953Y17097D02*
D03*
X26953Y10747D02*
D03*
X57104Y15288D02*
D03*
X43840Y15189D02*
D03*
X38837Y19050D02*
D03*
X36068Y29378D02*
D03*
X30226Y13970D02*
D03*
X30328Y18161D02*
D03*
X44120Y4318D02*
D03*
X46634Y2997D02*
D03*
X56988Y27729D02*
D03*
X71926Y16653D02*
D03*
X67302Y28412D02*
D03*
X60884Y12700D02*
D03*
X48108Y11303D02*
D03*
X45060Y18263D02*
D03*
X54661Y24994D02*
D03*
D171*
X60387Y25546D02*
D03*
X61687Y26846D02*
D03*
X60387Y26846D02*
D03*
X61037Y26196D02*
D03*
X61687Y25546D02*
D03*
D172*
X28194Y660D02*
D03*
X40894Y660D02*
D03*
X38354Y660D02*
D03*
X48514Y660D02*
D03*
X51054Y686D02*
D03*
X35814Y660D02*
D03*
X33274Y660D02*
D03*
X30734Y660D02*
D03*
X25654Y660D02*
D03*
X23114Y686D02*
D03*
X53594Y686D02*
D03*
X45974Y660D02*
D03*
X43434Y660D02*
D03*
M02*
